<svg width="40" height="40" viewBox="0 0 40 40" fill="none" xmlns="http://www.w3.org/2000/svg">
<path d="M11.2607 38.3334H30.4058C30.7902 38.3334 31.1709 38.2393 31.5261 38.0566C31.8813 37.8739 32.204 37.6061 32.4758 37.2686C32.7477 36.931 32.9633 36.5302 33.1104 36.0891C33.2575 35.6481 33.3333 35.1753 33.3333 34.6979V7.68859V5.30213C33.3333 4.33795 33.0248 3.41326 32.4758 2.73148C31.9268 2.04971 31.1822 1.66669 30.4058 1.66669H11.2607C10.4843 1.66669 9.73968 2.04971 9.19068 2.73148C8.64168 3.41326 8.33325 4.33795 8.33325 5.30213V7.68859V34.6979C8.33325 35.6621 8.64168 36.5868 9.19068 37.2686C9.73968 37.9503 10.4843 38.3334 11.2607 38.3334Z" stroke="#286DEB" stroke-width="2" stroke-linecap="round" stroke-linejoin="round"/>
<path d="M18.3333 5.83331H23.3333" stroke="#286DEB" stroke-width="2" stroke-linecap="round"/>
<path d="M13.3333 15C13.3333 14.0795 14.0794 13.3333 14.9999 13.3333H26.6666C27.5871 13.3333 28.3333 14.0795 28.3333 15V21.6666C28.3333 22.5871 27.5871 23.3333 26.6666 23.3333H14.9999C14.0794 23.3333 13.3333 22.5871 13.3333 21.6666V15Z" stroke="#286DEB" stroke-width="2"/>
<path d="M13.3333 28.3333H28.3333" stroke="#286DEB" stroke-width="2" stroke-linecap="round"/>
<path d="M13.3333 33.3333H28.3333" stroke="#286DEB" stroke-width="2" stroke-linecap="round"/>
</svg>
