<svg width="40" height="40" viewBox="0 0 40 40" fill="none" xmlns="http://www.w3.org/2000/svg">
<path d="M15.0002 15.0007C18.6821 15.0007 21.6668 12.0159 21.6668 8.33402C21.6668 4.65213 18.6821 1.66736 15.0002 1.66736C11.3183 1.66736 8.3335 4.65213 8.3335 8.33402C8.3335 12.0159 11.3183 15.0007 15.0002 15.0007Z" stroke="#286DEB" stroke-width="2"/>
<path d="M14.9996 35.0007C1.66626 35.0007 1.66626 31.6423 1.66626 27.5007C1.66626 23.359 7.63626 20.0007 14.9996 20.0007C16.7677 20.0007 18.4555 20.1943 19.9996 20.5459" stroke="#286DEB" stroke-width="2" stroke-linecap="round"/>
<path d="M25.8333 15L28.6397 23.6373H37.7215L30.3741 28.9754L33.1806 37.6127L25.8333 32.2746L18.4859 37.6127L21.2924 28.9754L13.945 23.6373H23.0268L25.8333 15Z" stroke="#286DEB" stroke-width="2" stroke-linejoin="round"/>
</svg>
