<svg width="36" height="40" viewBox="0 0 36 40" fill="none" xmlns="http://www.w3.org/2000/svg">
<path d="M15.4762 11.3946V28.6047M13.324 26.409H20.6908C21.5403 26.4084 22.3548 26.0705 22.9553 25.4695C23.5558 24.8686 23.8931 24.0539 23.8931 23.2044C23.8931 22.3548 23.5558 21.5401 22.9553 20.9392C22.3548 20.3382 21.5403 20.0003 20.6908 19.9997H15.4762H19.5303C20.3802 19.9997 21.1953 19.6621 21.7963 19.0611C22.3973 18.4601 22.735 17.645 22.735 16.795C22.735 15.9451 22.3973 15.13 21.7963 14.529C21.1953 13.928 20.3802 13.5904 19.5303 13.5904M19.5303 13.5904H13.324M19.5303 13.5904V11.3946M19.5303 28.6047V26.409M34.5401 19.0698C34.5617 23.7955 32.4537 28.1987 28.9657 30.7138L17.9366 38.6663L6.9076 30.7138C3.41954 28.1987 1.31154 23.7955 1.33317 19.0698C1.33317 19.0698 1.41209 5.02971 1.41209 3.92303C3.42406 5.24006 5.77497 5.94498 8.17966 5.95227C11.9872 5.95227 15.4349 4.18748 17.9366 1.33301C20.4384 4.18748 23.8861 5.95227 27.6936 5.95227C30.0983 5.94498 32.4492 5.24006 34.4612 3.92303C34.4612 5.02972 34.5401 19.0698 34.5401 19.0698Z" stroke="#286DEB" stroke-width="2" stroke-linecap="round" stroke-linejoin="round"/>
</svg>
