<svg xmlns="http://www.w3.org/2000/svg" viewBox="0 0 50 50"><path style="text-indent:0;text-align:start;line-height:normal;text-transform:none;block-progression:tb;-inkscape-font-specification:Sans" d="M 21 2 C 10.518435 2 2 10.518435 2 21 C 2 31.481565 10.518435 40 21 40 C 25.880965 40 30.319904 38.126233 33.6875 35.09375 L 46.28125 47.71875 A 1.016466 1.016466 0 1 0 47.71875 46.28125 L 35.09375 33.6875 C 38.126233 30.319904 40 25.880965 40 21 C 40 10.518435 31.481565 2 21 2 z M 21 4 C 25.335321 4 29.280823 5.6174971 32.28125 8.28125 L 8.28125 32.28125 C 5.6174971 29.280823 4 25.335321 4 21 C 4 11.599315 11.599315 4 21 4 z M 19.8125 8 L 19.8125 10.625 C 17.8635 10.858 14.46875 12.46025 14.46875 16.53125 C 14.46875 19.07825 15.72 20.34675 17.375 21.09375 L 19.28125 19.1875 C 17.96125 18.6455 17.03125 17.82225 17.03125 16.28125 C 17.03125 15.20425 17.473 12.84375 21 12.84375 C 22.487 12.84375 23.5225 13.41925 24.1875 14.28125 L 25.8125 12.65625 C 25.0145 11.68325 23.8775 10.9725 22.1875 10.6875 L 22.1875 8 L 19.8125 8 z M 33.71875 9.71875 C 36.382503 12.719177 38 16.664679 38 21 C 38 25.621176 36.171506 29.813161 33.1875 32.875 C 33.182664 32.879962 33.161092 32.870044 33.15625 32.875 A 1.0001 1.0001 0 0 0 33.09375 32.9375 A 1.0001 1.0001 0 0 0 32.9375 33.09375 A 1.0001 1.0001 0 0 0 32.875 33.1875 C 29.813161 36.171506 25.621176 38 21 38 C 16.664679 38 12.719177 36.382503 9.71875 33.71875 L 33.71875 9.71875 z M 24.71875 20.8125 L 22.84375 22.6875 C 24.37775 23.2335 25.53125 24.07325 25.53125 25.90625 C 25.53125 27.83525 24.656 29.53125 21 29.53125 C 19.28 29.53125 18.1635 28.90475 17.4375 28.09375 L 15.75 29.78125 C 17.019 31.09025 18.6555 31.54875 19.8125 31.71875 L 19.8125 34 L 22.1875 34 L 22.1875 31.75 C 23.9405 31.581 28.0625 30.30825 28.0625 25.65625 C 28.0605 23.00825 26.61375 21.6345 24.71875 20.8125 z" overflow="visible" font-family="Sans"></path></svg>