<svg width="40" height="40" viewBox="0 0 40 40" fill="none" xmlns="http://www.w3.org/2000/svg">
<g clip-path="url(#clip0_144_619)">
<path d="M6.70062 33.2986C4.07029 30.6682 2.279 27.317 1.55329 23.6686C0.827584 20.0202 1.20004 16.2386 2.62357 12.8019C4.0471 9.36516 6.45776 6.42776 9.55071 4.36112C12.6437 2.29447 16.28 1.19141 19.9998 1.19141C24.988 1.19141 29.7719 3.17295 33.2991 6.70013M6.70062 33.2986C9.33096 35.9289 12.6822 37.7202 16.3306 38.4459C19.979 39.1716 23.7606 38.7992 27.1973 37.3756C30.634 35.9521 33.5714 33.5414 35.6381 30.4485C37.7047 27.3555 38.8078 23.7192 38.8078 19.9994C38.8078 15.0112 36.8262 10.2273 33.2991 6.70013M6.70062 33.2986L11.9687 28.0305M33.2991 6.70013L27.6741 12.3251M14.7901 24.9359C15.7641 26.3487 17.3889 26.9907 19.9021 26.9907M19.9021 26.9907C21.1471 26.9907 25.2096 26.7222 25.2096 23.2671C25.2096 20.9834 23.8508 20.0063 20.0228 19.5341C18.6521 19.3712 15.4415 18.9895 15.4415 16.3311C15.4415 14.7981 16.6161 13.008 19.9247 13.008C21.4313 13.008 22.9271 13.5657 23.9218 14.4404M19.9021 26.9907L19.9021 29.5405M19.9021 10.4582V13.008" stroke="#286DEB" stroke-width="2" stroke-linecap="round" stroke-linejoin="round"/>
</g>
<defs>
<clipPath id="clip0_144_619">
<rect width="40" height="40" fill="white"/>
</clipPath>
</defs>
</svg>
