<svg id="Слой_1" xmlns="http://www.w3.org/2000/svg" viewBox="0 0 1309.88 515.89"><defs><style>.cls-1{fill:#0035a0;}.cls-2{fill:#009e04;}.cls-3{fill:#d62d00;}.cls-4{fill:#4885ff;}</style></defs><path class="cls-1" d="M316.39,530.59a12.24,12.24,0,0,1-4.5-.81,10.75,10.75,0,0,1-3.57-2.3A10.51,10.51,0,0,1,306,524a11.81,11.81,0,0,1,0-8.75,10.58,10.58,0,0,1,6-5.77,12,12,0,0,1,4.49-.82,12.4,12.4,0,0,1,4.41.78,9,9,0,0,1,3.48,2.36l-1.45,1.45a8,8,0,0,0-2.93-2,9.69,9.69,0,0,0-3.45-.6,9.49,9.49,0,0,0-3.6.67,8.66,8.66,0,0,0-2.9,1.87,9.26,9.26,0,0,0-1.92,9.95A8.8,8.8,0,0,0,310,526a8.69,8.69,0,0,0,2.9,1.88,9.68,9.68,0,0,0,3.6.66,9.28,9.28,0,0,0,3.45-.62,8.07,8.07,0,0,0,2.93-2l1.45,1.45a9,9,0,0,1-3.48,2.37,12.07,12.07,0,0,1-4.44.8" transform="translate(-305.12 -282.41)"></path><polygon class="cls-1" points="24.06 248 24.06 226.44 26.34 226.44 26.34 246.03 38.41 246.03 38.41 248 24.06 248"></polygon><rect class="cls-1" x="42.2" y="226.44" width="2.28" height="21.56"></rect><path class="cls-1" d="M358.9,528.44h13v2H356.62V508.84h14.79v2H358.9Zm-.24-10h11.39v1.94H358.66Z" transform="translate(-305.12 -282.41)"></path><polygon class="cls-1" points="72.11 248 72.11 226.44 73.99 226.44 88.87 245.17 87.89 245.17 87.89 226.44 90.14 226.44 90.14 248 88.26 248 73.41 229.27 74.39 229.27 74.39 248 72.11 248"></polygon><polygon class="cls-1" points="101.35 248 101.35 228.41 93.77 228.41 93.77 226.44 111.21 226.44 111.21 228.41 103.63 228.41 103.63 248 101.35 248"></polygon><path class="cls-1" d="M511.89,530.72l9.86-21.57H524l9.86,21.57h-2.4l-9.06-20.24h.92l-9.05,20.24Zm3.89-5.76.67-1.85H529l.68,1.85Z" transform="translate(-305.12 -282.41)"></path><polygon class="cls-1" points="232.31 248.31 232.31 226.75 234.19 226.75 244.05 243.56 243.06 243.56 252.83 226.75 254.71 226.75 254.71 248.31 252.52 248.31 252.52 230.16 253.04 230.16 244.05 245.57 242.97 245.57 233.91 230.16 234.5 230.16 234.5 248.31 232.31 248.31"></polygon><polygon class="cls-1" points="261.73 248.31 261.73 226.75 264.01 226.75 264.01 246.34 276.09 246.34 276.09 248.31 261.73 248.31"></polygon><polygon class="cls-1" points="283.67 251.39 293.83 222.37 295.83 222.37 285.67 251.39 283.67 251.39"></polygon><path class="cls-1" d="M611.46,509.15h2.28v21.57h-2.28Zm2,16.21-.1-2.78,13.07-13.43H629l-9.51,10-1.3,1.39ZM627,530.72,617.65,520l1.54-1.67,10.47,12.39Z" transform="translate(-305.12 -282.41)"></path><polygon class="cls-1" points="331.94 248.31 331.94 240.3 332.46 241.72 323.31 226.75 325.75 226.75 333.79 239.9 332.49 239.9 340.53 226.75 342.81 226.75 333.66 241.72 334.19 240.3 334.19 248.31 331.94 248.31"></polygon><path class="cls-1" d="M659.91,530.9a12.24,12.24,0,0,1-4.5-.81,10.75,10.75,0,0,1-3.57-2.3,10.51,10.51,0,0,1-2.36-3.48,11.81,11.81,0,0,1,0-8.75,10.58,10.58,0,0,1,6-5.77,12,12,0,0,1,4.49-.82,12.4,12.4,0,0,1,4.41.78,9,9,0,0,1,3.48,2.36l-1.45,1.45a8,8,0,0,0-2.93-2,10.18,10.18,0,0,0-7.05.06,8.64,8.64,0,0,0-4.82,4.72,9.5,9.5,0,0,0,0,7.11,8.8,8.8,0,0,0,1.92,2.84,8.69,8.69,0,0,0,2.9,1.88,9.68,9.68,0,0,0,3.6.66,9.48,9.48,0,0,0,3.45-.62,8.07,8.07,0,0,0,2.93-2l1.45,1.45a9,9,0,0,1-3.48,2.37,12.07,12.07,0,0,1-4.44.8" transform="translate(-305.12 -282.41)"></path><path class="cls-2" d="M511.89,397.12l9.86-21.57H524l9.86,21.57h-2.4l-9.06-20.24h.92l-9.05,20.24Zm3.89-5.76.67-1.85H529l.68,1.85Z" transform="translate(-305.12 -282.41)"></path><path class="cls-2" d="M537.43,397.12V375.55h8.07a11.49,11.49,0,0,1,4.72.88,6.83,6.83,0,0,1,3,2.53,7.2,7.2,0,0,1,1.06,4,7.05,7.05,0,0,1-1.06,3.92,6.85,6.85,0,0,1-3,2.54,11.32,11.32,0,0,1-4.72.9h-6.81l1-1.08v7.89Zm2.28-7.71-1-1.1h6.75a7.45,7.45,0,0,0,4.91-1.41A4.85,4.85,0,0,0,552,383a5,5,0,0,0-1.68-4,7.45,7.45,0,0,0-4.91-1.42h-6.75l1-1.07Z" transform="translate(-305.12 -282.41)"></path><path class="cls-2" d="M559.24,397.12V375.55h8.07a11.49,11.49,0,0,1,4.72.88,6.83,6.83,0,0,1,3,2.53,7.2,7.2,0,0,1,1.06,4,7.05,7.05,0,0,1-1.06,3.92,6.85,6.85,0,0,1-3,2.54,11.32,11.32,0,0,1-4.72.9H560.5l1-1.08v7.89Zm2.28-7.71-1-1.1h6.75a7.45,7.45,0,0,0,4.91-1.41,4.85,4.85,0,0,0,1.68-3.95,5,5,0,0,0-1.68-4,7.45,7.45,0,0,0-4.91-1.42H560.5l1-1.07Z" transform="translate(-305.12 -282.41)"></path><path class="cls-2" d="M581.05,397.12V375.55h8.07a11.66,11.66,0,0,1,4.72.88,6.83,6.83,0,0,1,3,2.53,7.2,7.2,0,0,1,1.06,4,7.05,7.05,0,0,1-1.06,3.92,6.83,6.83,0,0,1-3,2.53,11.66,11.66,0,0,1-4.72.88h-6.81l1-1v7.89Zm2.28-7.71-1-1.07h6.75a7.45,7.45,0,0,0,4.91-1.42,4.91,4.91,0,0,0,1.68-4,5,5,0,0,0-1.68-4,7.45,7.45,0,0,0-4.91-1.42h-6.75l1-1.07Zm12.45,7.71-5.55-7.83h2.47l5.57,7.83Z" transform="translate(-305.12 -282.41)"></path><path class="cls-2" d="M612.75,397.3a12.1,12.1,0,0,1-4.51-.82,10.54,10.54,0,0,1-3.61-2.31,10.75,10.75,0,0,1-2.37-3.48,11.58,11.58,0,0,1,0-8.71,10.62,10.62,0,0,1,6-5.8,13,13,0,0,1,9,0,10.94,10.94,0,0,1,3.59,2.3,10.64,10.64,0,0,1,2.37,3.48,11.68,11.68,0,0,1,0,8.75,10.52,10.52,0,0,1-6,5.77,12,12,0,0,1-4.5.82m0-2a9.59,9.59,0,0,0,3.59-.66,8.57,8.57,0,0,0,2.86-1.88,8.69,8.69,0,0,0,1.9-2.84,9.63,9.63,0,0,0,0-7.11,8.59,8.59,0,0,0-1.9-2.84,8.42,8.42,0,0,0-2.86-1.88,10.12,10.12,0,0,0-7.19,0,8.58,8.58,0,0,0-4.81,4.72,9.09,9.09,0,0,0-.68,3.55,9.2,9.2,0,0,0,.68,3.55,8.56,8.56,0,0,0,4.81,4.73,9.68,9.68,0,0,0,3.6.66" transform="translate(-305.12 -282.41)"></path><polygon class="cls-2" points="329.54 114.71 319.99 93.14 322.45 93.14 331.38 113.44 330.03 113.44 339.02 93.14 341.33 93.14 331.78 114.71 329.54 114.71"></polygon><path class="cls-2" d="M651.84,395.14h13v2H649.56V375.55h14.79v2H651.84Zm-.24-9.95H663v1.95H651.6Z" transform="translate(-305.12 -282.41)"></path><path class="cls-2" d="M670.17,397.12V375.55H679a12.82,12.82,0,0,1,6,1.37,10.06,10.06,0,0,1,4,3.81,11.56,11.56,0,0,1,0,11.21,10,10,0,0,1-4,3.8,12.71,12.71,0,0,1-6,1.38Zm2.28-2h6.38a10.39,10.39,0,0,0,5-1.12,8.2,8.2,0,0,0,3.28-3.11,9.57,9.57,0,0,0,0-9.17,8.22,8.22,0,0,0-3.28-3.09,10.39,10.39,0,0,0-5-1.13h-6.38Z" transform="translate(-305.12 -282.41)"></path><path class="cls-3" d="M515.34,664.32V642.76h8.78a12.77,12.77,0,0,1,6.06,1.37,10.1,10.1,0,0,1,4.05,3.8,11.56,11.56,0,0,1,0,11.21,10.12,10.12,0,0,1-4.05,3.81,12.89,12.89,0,0,1-6.06,1.37Zm2.28-2H524a10.46,10.46,0,0,0,5-1.13,8.19,8.19,0,0,0,3.28-3.11,9.55,9.55,0,0,0,0-9.16,8.24,8.24,0,0,0-3.28-3.1,10.46,10.46,0,0,0-5-1.12h-6.38Z" transform="translate(-305.12 -282.41)"></path><path class="cls-3" d="M543.07,662.35h13v2H540.79V642.76h14.79v2H543.07Zm-.25-10h11.4v1.94h-11.4Z" transform="translate(-305.12 -282.41)"></path><path class="cls-3" d="M570.7,664.5a12.24,12.24,0,0,1-4.5-.81,10.75,10.75,0,0,1-3.57-2.3,10.51,10.51,0,0,1-2.36-3.48,11.81,11.81,0,0,1,0-8.75,10.75,10.75,0,0,1,2.37-3.48,10.91,10.91,0,0,1,3.59-2.29,12,12,0,0,1,4.5-.82,12.19,12.19,0,0,1,4.41.79,9,9,0,0,1,3.48,2.35l-1.45,1.45a8,8,0,0,0-2.93-2,9.69,9.69,0,0,0-3.45-.6,9.49,9.49,0,0,0-3.6.67,8.57,8.57,0,0,0-2.9,1.87,8.87,8.87,0,0,0-2.62,6.4,9,9,0,0,0,.7,3.56,8.87,8.87,0,0,0,1.92,2.83,8.59,8.59,0,0,0,2.9,1.88,9.68,9.68,0,0,0,3.6.66,9.28,9.28,0,0,0,3.45-.62,8.07,8.07,0,0,0,2.93-2l1.45,1.45a9,9,0,0,1-3.48,2.37,12.07,12.07,0,0,1-4.44.8" transform="translate(-305.12 -282.41)"></path><polygon class="cls-3" points="278.37 381.91 278.37 360.35 280.65 360.35 280.65 379.94 292.72 379.94 292.72 381.91 278.37 381.91"></polygon><rect class="cls-3" x="296.51" y="360.35" width="2.28" height="21.56"></rect><polygon class="cls-3" points="305.81 381.91 305.81 360.35 307.69 360.35 322.57 379.08 321.59 379.08 321.59 360.35 323.83 360.35 323.83 381.91 321.96 381.91 307.11 363.18 308.09 363.18 308.09 381.91 305.81 381.91"></polygon><path class="cls-3" d="M638.26,662.35h13v2H636V642.76h14.78v2h-12.5Zm-.25-10h11.4v1.94H638Z" transform="translate(-305.12 -282.41)"></path><path class="cls-3" d="M656.58,664.32V642.76h8.78a12.77,12.77,0,0,1,6.06,1.37,10.1,10.1,0,0,1,4.05,3.8,11.56,11.56,0,0,1,0,11.21,10.12,10.12,0,0,1-4.05,3.81,12.89,12.89,0,0,1-6.06,1.37Zm2.28-2h6.38a10.46,10.46,0,0,0,5-1.13,8.19,8.19,0,0,0,3.28-3.11,9.55,9.55,0,0,0,0-9.16,8.24,8.24,0,0,0-3.28-3.1,10.46,10.46,0,0,0-5-1.12h-6.38Z" transform="translate(-305.12 -282.41)"></path><path class="cls-1" d="M515.34,754.53V733h8.78a12.78,12.78,0,0,1,6.06,1.38,10.1,10.1,0,0,1,4.05,3.8,11.56,11.56,0,0,1,0,11.21,10.12,10.12,0,0,1-4.05,3.81,12.89,12.89,0,0,1-6.06,1.37Zm2.28-2H524a10.46,10.46,0,0,0,5-1.13,8.19,8.19,0,0,0,3.28-3.11,9.55,9.55,0,0,0,0-9.16,8.24,8.24,0,0,0-3.28-3.1,10.46,10.46,0,0,0-5-1.12h-6.38Z" transform="translate(-305.12 -282.41)"></path><path class="cls-1" d="M543.07,752.56h13v2H540.79V733h14.79v2H543.07Zm-.25-9.95h11.4v1.94h-11.4Z" transform="translate(-305.12 -282.41)"></path><path class="cls-1" d="M558,754.53,567.81,733h2.24l9.86,21.57h-2.4l-9.06-20.24h.93l-9.06,20.24Zm3.88-5.76.68-1.85h12.54l.67,1.85Z" transform="translate(-305.12 -282.41)"></path><polygon class="cls-1" points="278.37 472.12 278.37 450.56 280.65 450.56 280.65 470.15 292.72 470.15 292.72 472.12 278.37 472.12"></polygon><path class="cls-1" d="M619.06,754.71a12.15,12.15,0,0,1-4.49-.81,10.69,10.69,0,0,1-3.58-2.3,10.49,10.49,0,0,1-2.35-3.48,11.68,11.68,0,0,1,0-8.75,10.45,10.45,0,0,1,2.37-3.48,10.81,10.81,0,0,1,3.59-2.29,12,12,0,0,1,4.5-.82,12.14,12.14,0,0,1,4.4.79,8.7,8.7,0,0,1,3.48,2.35l-1.45,1.45a8,8,0,0,0-2.92-2,9.77,9.77,0,0,0-3.45-.6,9.5,9.5,0,0,0-3.61.67,8.52,8.52,0,0,0-2.89,1.87,9.24,9.24,0,0,0-1.93,9.95,8.83,8.83,0,0,0,1.93,2.84,8.55,8.55,0,0,0,2.89,1.88,9.7,9.7,0,0,0,3.61.66,9.35,9.35,0,0,0,3.45-.62,8,8,0,0,0,2.92-2l1.45,1.45a8.85,8.85,0,0,1-3.48,2.37,12,12,0,0,1-4.44.8" transform="translate(-305.12 -282.41)"></path><path class="cls-1" d="M627.84,754.53,637.7,733H640l9.86,21.57h-2.4l-9.06-20.24h.92l-9,20.24Zm3.89-5.76.67-1.85h12.54l.68,1.85Z" transform="translate(-305.12 -282.41)"></path><polygon class="cls-1" points="348.26 472.12 348.26 450.56 350.14 450.56 365.02 469.29 364.04 469.29 364.04 450.56 366.29 450.56 366.29 472.12 364.41 472.12 349.56 453.39 350.54 453.39 350.54 472.12 348.26 472.12"></polygon><path class="cls-1" d="M687.79,754.71a12.24,12.24,0,0,1-4.5-.81,10.75,10.75,0,0,1-3.57-2.3,10.51,10.51,0,0,1-2.36-3.48,11.81,11.81,0,0,1,0-8.75,10.62,10.62,0,0,1,2.38-3.48,10.77,10.77,0,0,1,3.58-2.29,12,12,0,0,1,4.5-.82,12.19,12.19,0,0,1,4.41.79,8.84,8.84,0,0,1,3.48,2.35l-1.45,1.45a8,8,0,0,0-2.93-2,9.69,9.69,0,0,0-3.45-.6,9.49,9.49,0,0,0-3.6.67,8.66,8.66,0,0,0-2.9,1.87,9.2,9.2,0,0,0-1.92,9.95,8.8,8.8,0,0,0,1.92,2.84,8.69,8.69,0,0,0,2.9,1.88,9.68,9.68,0,0,0,3.6.66,9.28,9.28,0,0,0,3.45-.62,8.07,8.07,0,0,0,2.93-2l1.45,1.45a9,9,0,0,1-3.48,2.37,12.07,12.07,0,0,1-4.44.8" transform="translate(-305.12 -282.41)"></path><path class="cls-1" d="M702.86,752.56h13v2H700.58V733h14.78v2h-12.5Zm-.25-9.95H714v1.94h-11.4Z" transform="translate(-305.12 -282.41)"></path><polygon class="cls-1" points="416.07 472.12 416.07 450.56 418.35 450.56 418.35 470.15 430.42 470.15 430.42 472.12 416.07 472.12"></polygon><path class="cls-1" d="M741.61,752.56h13v2H739.33V733h14.78v2h-12.5Zm-.25-9.95h11.4v1.94h-11.4Z" transform="translate(-305.12 -282.41)"></path><path class="cls-1" d="M759.94,754.53V733h8.78a12.74,12.74,0,0,1,6,1.38,10.1,10.1,0,0,1,4.05,3.8,11.56,11.56,0,0,1,0,11.21,10.12,10.12,0,0,1-4.05,3.81,12.85,12.85,0,0,1-6,1.37Zm2.28-2h6.37a10.46,10.46,0,0,0,5-1.13,8.19,8.19,0,0,0,3.28-3.11,9.55,9.55,0,0,0,0-9.16,8.24,8.24,0,0,0-3.28-3.1,10.46,10.46,0,0,0-5-1.12h-6.37Z" transform="translate(-305.12 -282.41)"></path><path class="cls-1" d="M794.51,485.9l9.86-21.56h2.25l9.85,21.56h-2.4L805,465.66h.93l-9.06,20.24Zm3.88-5.76.68-1.85h12.54l.67,1.85Z" transform="translate(-305.12 -282.41)"></path><polygon class="cls-1" points="514.93 203.5 514.93 181.93 516.81 181.93 526.67 198.75 525.68 198.75 535.45 181.93 537.33 181.93 537.33 203.5 535.14 203.5 535.14 185.35 535.66 185.35 526.67 200.75 525.59 200.75 516.53 185.35 517.12 185.35 517.12 203.5 514.93 203.5"></polygon><path class="cls-1" d="M858.89,486.09a12.13,12.13,0,0,1-4.51-.82,10.54,10.54,0,0,1-3.61-2.31,10.75,10.75,0,0,1-2.37-3.48,11,11,0,0,1,2.37-12.2,11,11,0,0,1,3.59-2.31,13,13,0,0,1,9,0,10.83,10.83,0,0,1,3.59,2.3,10.39,10.39,0,0,1,2.37,3.48,11.68,11.68,0,0,1,0,8.75A10.6,10.6,0,0,1,867,483a10.81,10.81,0,0,1-3.59,2.29,12,12,0,0,1-4.5.82m0-2a9.56,9.56,0,0,0,3.59-.67,8.41,8.41,0,0,0,2.87-1.88,8.68,8.68,0,0,0,1.89-2.83,9.66,9.66,0,0,0,0-7.12,8.78,8.78,0,0,0-1.89-2.83,8.56,8.56,0,0,0-2.87-1.88,9.55,9.55,0,0,0-3.59-.66,9.68,9.68,0,0,0-3.6.66,8.59,8.59,0,0,0-2.9,1.88,8.68,8.68,0,0,0-1.91,2.83,9.61,9.61,0,0,0,0,7.1,8.56,8.56,0,0,0,1.91,2.85,8.44,8.44,0,0,0,2.9,1.88,9.69,9.69,0,0,0,3.6.67" transform="translate(-305.12 -282.41)"></path><path class="cls-1" d="M884,486.09a8.79,8.79,0,0,1-6.5-2.37c-1.58-1.58-2.37-3.93-2.37-7V464.34h2.28V476.6q0,3.82,1.72,5.64a7.47,7.47,0,0,0,9.77,0q1.73-1.82,1.72-5.64V464.34h2.22v12.35c0,3.1-.79,5.45-2.36,7a8.73,8.73,0,0,1-6.48,2.37" transform="translate(-305.12 -282.41)"></path><polygon class="cls-1" points="594.59 203.5 594.59 181.93 596.47 181.93 611.35 200.66 610.36 200.66 610.36 181.93 612.61 181.93 612.61 203.5 610.73 203.5 595.88 184.76 596.87 184.76 596.87 203.5 594.59 203.5"></polygon><polygon class="cls-1" points="623.83 203.5 623.83 183.9 616.25 183.9 616.25 181.93 633.68 181.93 633.68 183.9 626.11 183.9 626.11 203.5 623.83 203.5"></polygon><path class="cls-1" d="M952.79,483.93h13v2H950.51V464.34h14.78v2h-12.5Zm-.25-9.95h11.4v1.94h-11.4Z" transform="translate(-305.12 -282.41)"></path><polygon class="cls-1" points="662.73 203.5 671.57 191.54 671.57 193.3 663.26 181.93 665.87 181.93 672.87 191.42 671.85 191.45 678.84 181.93 681.31 181.93 673.08 193.15 673.08 191.54 681.89 203.5 679.24 203.5 671.79 193.36 672.74 193.36 665.35 203.5 662.73 203.5"></polygon><path class="cls-1" d="M999.64,486.09a12,12,0,0,1-4.5-.82,10.51,10.51,0,0,1-5.93-5.77,11.81,11.81,0,0,1,0-8.75,10.42,10.42,0,0,1,2.38-3.48,10.79,10.79,0,0,1,3.58-2.3,12.24,12.24,0,0,1,4.5-.81,12.4,12.4,0,0,1,4.41.78,8.86,8.86,0,0,1,3.48,2.36l-1.45,1.44a8,8,0,0,0-2.93-1.95,10.18,10.18,0,0,0-7,.06,8.59,8.59,0,0,0-2.9,1.88,8.87,8.87,0,0,0-1.92,2.83,9.4,9.4,0,0,0,0,7.12,8.76,8.76,0,0,0,1.92,2.83,8.44,8.44,0,0,0,2.9,1.88,9.69,9.69,0,0,0,3.6.67,9.48,9.48,0,0,0,3.45-.62,8.2,8.2,0,0,0,2.93-2l1.45,1.45a9.22,9.22,0,0,1-3.48,2.37,12.28,12.28,0,0,1-4.44.8" transform="translate(-305.12 -282.41)"></path><path class="cls-1" d="M1014.7,483.93h13v2h-15.25V464.34h14.79v2H1014.7Zm-.24-9.95h11.4v1.94h-11.4Z" transform="translate(-305.12 -282.41)"></path><path class="cls-1" d="M1035.31,483.93h13v2H1033V464.34h14.79v2h-12.51Zm-.24-9.95h11.39v1.94h-11.39Z" transform="translate(-305.12 -282.41)"></path><path class="cls-1" d="M1053.64,485.9V464.34h8.78a12.82,12.82,0,0,1,6,1.37,10,10,0,0,1,4.06,3.81,11.63,11.63,0,0,1,0,11.21,10.06,10.06,0,0,1-4.06,3.8,12.71,12.71,0,0,1-6,1.37Zm2.28-2h6.38a10.39,10.39,0,0,0,5-1.12,8.2,8.2,0,0,0,3.28-3.11,9.5,9.5,0,0,0,0-9.17,8.22,8.22,0,0,0-3.28-3.09,10.39,10.39,0,0,0-5-1.13h-6.38Z" transform="translate(-305.12 -282.41)"></path><rect class="cls-1" x="773.97" y="181.93" width="2.28" height="21.56"></rect><polygon class="cls-1" points="783.27 203.5 783.27 181.93 785.15 181.93 800.03 200.66 799.04 200.66 799.04 181.93 801.29 181.93 801.29 203.5 799.41 203.5 784.57 184.76 785.55 184.76 785.55 203.5 783.27 203.5"></polygon><path class="cls-1" d="M1122.89,486.09a12.18,12.18,0,0,1-4.54-.82,10.48,10.48,0,0,1-6-5.77,11.68,11.68,0,0,1,0-8.75,10.3,10.3,0,0,1,2.39-3.48,11,11,0,0,1,3.62-2.3,12.38,12.38,0,0,1,4.54-.81,12.62,12.62,0,0,1,4.52.77,8.89,8.89,0,0,1,3.49,2.34l-1.42,1.44a8.11,8.11,0,0,0-3-1.94,10.36,10.36,0,0,0-3.52-.58,10,10,0,0,0-3.68.66,8.73,8.73,0,0,0-4.86,4.71,9.35,9.35,0,0,0,0,7.1,8.68,8.68,0,0,0,4.86,4.73,9.91,9.91,0,0,0,3.65.67,10.88,10.88,0,0,0,3.5-.56,8.12,8.12,0,0,0,3-1.88l1.3,1.73a10.61,10.61,0,0,1-3.61,2,13.46,13.46,0,0,1-4.31.69m5.73-3v-7.95h2.19v8.23Z" transform="translate(-305.12 -282.41)"></path><path class="cls-1" d="M1151.26,486.09a13.44,13.44,0,0,1-4.6-.79,8.74,8.74,0,0,1-3.41-2l.9-1.75a9,9,0,0,0,3.06,1.86,10.91,10.91,0,0,0,4,.76,9,9,0,0,0,3.31-.51,4,4,0,0,0,1.88-1.37,3.28,3.28,0,0,0,.6-1.91,2.85,2.85,0,0,0-.72-2,4.91,4.91,0,0,0-1.89-1.22,21.5,21.5,0,0,0-2.59-.79c-.95-.22-1.89-.46-2.84-.72a12.26,12.26,0,0,1-2.6-1,5.35,5.35,0,0,1-1.91-1.71,4.89,4.89,0,0,1-.72-2.79,5.41,5.41,0,0,1,.84-2.94,6,6,0,0,1,2.61-2.16,10.78,10.78,0,0,1,4.5-.81,13,13,0,0,1,3.6.5,10.53,10.53,0,0,1,3.08,1.4l-.77,1.82a10.3,10.3,0,0,0-2.94-1.35,11.16,11.16,0,0,0-3-.43,8.4,8.4,0,0,0-3.2.52,4.09,4.09,0,0,0-1.86,1.4,3.46,3.46,0,0,0-.6,2,2.85,2.85,0,0,0,.72,2,4.77,4.77,0,0,0,1.91,1.2,22.33,22.33,0,0,0,2.6.77c1,.23,1.89.47,2.82.74a13.32,13.32,0,0,1,2.59,1,5.37,5.37,0,0,1,1.91,1.68,4.77,4.77,0,0,1,.72,2.74,5.27,5.27,0,0,1-.86,2.92,6,6,0,0,1-2.63,2.15,10.83,10.83,0,0,1-4.55.82m-.64-25.45h1.54v29h-1.54Z" transform="translate(-305.12 -282.41)"></path><polygon class="cls-1" points="860.69 203.5 860.69 182.85 861.67 183.9 855.6 183.9 855.6 181.93 862.9 181.93 862.9 203.5 860.69 203.5"></polygon><path class="cls-1" d="M1181.76,486.09a7.8,7.8,0,0,1-4.44-1.31,8.69,8.69,0,0,1-3-3.76,16.24,16.24,0,0,1,0-11.8,8.75,8.75,0,0,1,3-3.76,8.23,8.23,0,0,1,8.88,0,8.94,8.94,0,0,1,3.06,3.76,16,16,0,0,1,0,11.8,8.87,8.87,0,0,1-3.06,3.76,7.8,7.8,0,0,1-4.44,1.31m0-2a5.52,5.52,0,0,0,3.33-1,6.79,6.79,0,0,0,2.22-3,15.28,15.28,0,0,0,0-9.76,6.79,6.79,0,0,0-2.22-3,5.85,5.85,0,0,0-6.63,0,6.61,6.61,0,0,0-2.24,3,15.11,15.11,0,0,0,0,9.76,6.61,6.61,0,0,0,2.24,3,5.56,5.56,0,0,0,3.3,1" transform="translate(-305.12 -282.41)"></path><path class="cls-1" d="M1202.15,486.09a7.75,7.75,0,0,1-4.43-1.31,8.71,8.71,0,0,1-3-3.76,16.24,16.24,0,0,1,0-11.8,8.77,8.77,0,0,1,3-3.76,8.22,8.22,0,0,1,8.87,0,8.94,8.94,0,0,1,3.06,3.76,16,16,0,0,1,0,11.8,8.87,8.87,0,0,1-3.06,3.76,7.76,7.76,0,0,1-4.44,1.31m0-2a5.5,5.5,0,0,0,3.33-1,6.79,6.79,0,0,0,2.22-3,15.28,15.28,0,0,0,0-9.76,6.79,6.79,0,0,0-2.22-3,5.83,5.83,0,0,0-6.62,0,6.55,6.55,0,0,0-2.25,3,15.28,15.28,0,0,0,0,9.76,6.55,6.55,0,0,0,2.25,3,5.51,5.51,0,0,0,3.29,1" transform="translate(-305.12 -282.41)"></path><path class="cls-1" d="M1222.55,486.09a7.76,7.76,0,0,1-4.44-1.31,8.78,8.78,0,0,1-3-3.76,16.24,16.24,0,0,1,0-11.8,8.84,8.84,0,0,1,3-3.76,8.22,8.22,0,0,1,8.87,0,8.88,8.88,0,0,1,3.07,3.76,16.1,16.1,0,0,1,0,11.8,8.82,8.82,0,0,1-3.07,3.76,7.75,7.75,0,0,1-4.43,1.31m0-2a5.47,5.47,0,0,0,3.32-1,6.64,6.64,0,0,0,2.22-3,15.28,15.28,0,0,0,0-9.76,6.64,6.64,0,0,0-2.22-3,5.83,5.83,0,0,0-6.62,0,6.55,6.55,0,0,0-2.25,3,15.28,15.28,0,0,0,0,9.76,6.55,6.55,0,0,0,2.25,3,5.51,5.51,0,0,0,3.3,1" transform="translate(-305.12 -282.41)"></path><path class="cls-1" d="M1242.94,486.09a7.78,7.78,0,0,1-4.44-1.31,8.78,8.78,0,0,1-3-3.76,16.24,16.24,0,0,1,0-11.8,8.84,8.84,0,0,1,3-3.76,8.22,8.22,0,0,1,8.87,0,8.88,8.88,0,0,1,3.07,3.76,16.1,16.1,0,0,1,0,11.8,8.82,8.82,0,0,1-3.07,3.76,7.75,7.75,0,0,1-4.43,1.31m0-2a5.52,5.52,0,0,0,3.33-1,6.7,6.7,0,0,0,2.21-3,15.28,15.28,0,0,0,0-9.76,6.7,6.7,0,0,0-2.21-3,5.85,5.85,0,0,0-6.63,0,6.69,6.69,0,0,0-2.25,3,15.28,15.28,0,0,0,0,9.76,6.69,6.69,0,0,0,2.25,3,5.56,5.56,0,0,0,3.3,1" transform="translate(-305.12 -282.41)"></path><path class="cls-1" d="M794.51,396.79l9.86-21.57h2.25l9.85,21.57h-2.4L805,376.55h.93l-9.06,20.24Zm3.88-5.76.68-1.85h12.54l.67,1.85Z" transform="translate(-305.12 -282.41)"></path><polygon class="cls-1" points="514.93 114.38 514.93 92.81 516.81 92.81 526.67 109.64 525.68 109.64 535.45 92.81 537.33 92.81 537.33 114.38 535.14 114.38 535.14 96.23 535.66 96.23 526.67 111.64 525.59 111.64 516.53 96.23 517.12 96.23 517.12 114.38 514.93 114.38"></polygon><path class="cls-1" d="M858.89,397a12.33,12.33,0,0,1-4.51-.81,10.57,10.57,0,0,1-6-5.8,11.71,11.71,0,0,1,0-8.71,10.64,10.64,0,0,1,6-5.79,12.84,12.84,0,0,1,9,0,10.52,10.52,0,0,1,6,5.77,11.68,11.68,0,0,1,0,8.75,10.49,10.49,0,0,1-2.37,3.48,10.83,10.83,0,0,1-3.59,2.3,12.24,12.24,0,0,1-4.5.81m0-2a9.55,9.55,0,0,0,3.59-.66,8.56,8.56,0,0,0,2.87-1.88,8.72,8.72,0,0,0,1.89-2.84,9.63,9.63,0,0,0,0-7.11,8.53,8.53,0,0,0-4.76-4.72,9.55,9.55,0,0,0-3.59-.66,9.68,9.68,0,0,0-3.6.66,8.74,8.74,0,0,0-2.9,1.88,8.62,8.62,0,0,0-1.91,2.84,9.61,9.61,0,0,0,0,7.1,8.56,8.56,0,0,0,4.81,4.73,9.68,9.68,0,0,0,3.6.66" transform="translate(-305.12 -282.41)"></path><path class="cls-1" d="M884,397a8.79,8.79,0,0,1-6.5-2.37q-2.37-2.37-2.37-7V375.22h2.28v12.26q0,3.82,1.72,5.64a7.47,7.47,0,0,0,9.77,0q1.73-1.81,1.72-5.64V375.22h2.22v12.36q0,4.65-2.36,7A8.73,8.73,0,0,1,884,397" transform="translate(-305.12 -282.41)"></path><polygon class="cls-1" points="594.59 114.38 594.59 92.81 596.47 92.81 611.35 111.54 610.36 111.54 610.36 92.81 612.61 92.81 612.61 114.38 610.73 114.38 595.88 95.65 596.87 95.65 596.87 114.38 594.59 114.38"></polygon><polygon class="cls-1" points="623.83 114.38 623.83 94.79 616.25 94.79 616.25 92.81 633.68 92.81 633.68 94.79 626.11 94.79 626.11 114.38 623.83 114.38"></polygon><path class="cls-1" d="M952.79,394.82h13v2H950.51V375.22h14.78v2h-12.5Zm-.25-9.95h11.4v1.94h-11.4Z" transform="translate(-305.12 -282.41)"></path><polygon class="cls-1" points="662.73 114.38 671.57 102.43 671.57 104.18 663.26 92.81 665.87 92.81 672.87 102.3 671.85 102.33 678.84 92.81 681.31 92.81 673.08 104.03 673.08 102.43 681.89 114.38 679.24 114.38 671.79 104.24 672.74 104.24 665.35 114.38 662.73 114.38"></polygon><path class="cls-1" d="M999.64,397a12.24,12.24,0,0,1-4.5-.81,10.75,10.75,0,0,1-3.57-2.3,10.62,10.62,0,0,1-2.36-3.48,11.81,11.81,0,0,1,0-8.75,10.6,10.6,0,0,1,6-5.77,12,12,0,0,1,4.5-.82,12.4,12.4,0,0,1,4.41.78,9,9,0,0,1,3.48,2.36l-1.45,1.45a8,8,0,0,0-2.93-2,10.18,10.18,0,0,0-7,.06,8.64,8.64,0,0,0-4.82,4.72,9.38,9.38,0,0,0,0,7.11,8.8,8.8,0,0,0,1.92,2.84,8.59,8.59,0,0,0,2.9,1.88,9.68,9.68,0,0,0,3.6.66,9.48,9.48,0,0,0,3.45-.62,8.07,8.07,0,0,0,2.93-2l1.45,1.45a9,9,0,0,1-3.48,2.37,12.07,12.07,0,0,1-4.44.8" transform="translate(-305.12 -282.41)"></path><path class="cls-1" d="M1014.7,394.82h13v2h-15.25V375.22h14.79v2H1014.7Zm-.24-9.95h11.4v1.94h-11.4Z" transform="translate(-305.12 -282.41)"></path><path class="cls-1" d="M1035.31,394.82h13v2H1033V375.22h14.79v2h-12.51Zm-.24-9.95h11.39v1.94h-11.39Z" transform="translate(-305.12 -282.41)"></path><path class="cls-1" d="M1053.64,396.79V375.22h8.78a12.82,12.82,0,0,1,6,1.37,10.15,10.15,0,0,1,4.06,3.81,11.63,11.63,0,0,1,0,11.21,10.15,10.15,0,0,1-4.06,3.81,12.82,12.82,0,0,1-6,1.37Zm2.28-2h6.38a10.39,10.39,0,0,0,5-1.13,8.13,8.13,0,0,0,3.28-3.11,9.48,9.48,0,0,0,0-9.16,8.17,8.17,0,0,0-3.28-3.1,10.39,10.39,0,0,0-5-1.12h-6.38Z" transform="translate(-305.12 -282.41)"></path><rect class="cls-1" x="773.97" y="92.81" width="2.28" height="21.56"></rect><polygon class="cls-1" points="783.27 114.38 783.27 92.81 785.15 92.81 800.03 111.54 799.04 111.54 799.04 92.81 801.29 92.81 801.29 114.38 799.41 114.38 784.57 95.65 785.55 95.65 785.55 114.38 783.27 114.38"></polygon><path class="cls-1" d="M1122.89,397a12.38,12.38,0,0,1-4.54-.81,10.54,10.54,0,0,1-6-5.78,11.68,11.68,0,0,1,0-8.75,10.5,10.5,0,0,1,2.39-3.48,10.78,10.78,0,0,1,3.62-2.29,12.18,12.18,0,0,1,4.54-.82,12.84,12.84,0,0,1,4.52.77,8.89,8.89,0,0,1,3.49,2.34l-1.42,1.45a8,8,0,0,0-3-1.94,10.36,10.36,0,0,0-3.52-.59,10,10,0,0,0-3.68.66,8.83,8.83,0,0,0-2.92,1.88,8.55,8.55,0,0,0-1.94,2.84,9.35,9.35,0,0,0,0,7.1,8.49,8.49,0,0,0,1.94,2.85,8.68,8.68,0,0,0,2.92,1.88,9.91,9.91,0,0,0,3.65.66,10.88,10.88,0,0,0,3.5-.56,8.09,8.09,0,0,0,3-1.87l1.3,1.72a10.44,10.44,0,0,1-3.61,2,13.46,13.46,0,0,1-4.31.69m5.73-3V386h2.19v8.22Z" transform="translate(-305.12 -282.41)"></path><path class="cls-1" d="M1151.26,397a13.68,13.68,0,0,1-4.6-.78,9,9,0,0,1-3.41-2l.9-1.76a9.22,9.22,0,0,0,3.06,1.87,11.11,11.11,0,0,0,4,.75,9,9,0,0,0,3.31-.51,4,4,0,0,0,1.88-1.37,3.26,3.26,0,0,0,.6-1.91,2.85,2.85,0,0,0-.72-2,5,5,0,0,0-1.89-1.22,21.54,21.54,0,0,0-2.59-.78c-.95-.23-1.89-.47-2.84-.73a11.75,11.75,0,0,1-2.6-1,5.35,5.35,0,0,1-1.91-1.71,4.89,4.89,0,0,1-.72-2.79,5.44,5.44,0,0,1,.84-2.94,6,6,0,0,1,2.61-2.15,10.62,10.62,0,0,1,4.5-.82,13,13,0,0,1,3.6.51,10.27,10.27,0,0,1,3.08,1.4l-.77,1.82a10.06,10.06,0,0,0-2.94-1.36,11.16,11.16,0,0,0-3-.43,8.4,8.4,0,0,0-3.2.52,4.09,4.09,0,0,0-1.86,1.4,3.46,3.46,0,0,0-.6,2,2.85,2.85,0,0,0,.72,2,4.79,4.79,0,0,0,1.91,1.21,27.05,27.05,0,0,0,2.6.77c1,.22,1.89.47,2.82.74a12.72,12.72,0,0,1,2.59,1,5.27,5.27,0,0,1,1.91,1.68,4.72,4.72,0,0,1,.72,2.74,5.21,5.21,0,0,1-.86,2.91,6,6,0,0,1-2.63,2.16,11,11,0,0,1-4.55.81m-.64-25.44h1.54v29h-1.54Z" transform="translate(-305.12 -282.41)"></path><polygon class="cls-1" points="860.69 114.38 860.69 93.74 861.67 94.79 855.6 94.79 855.6 92.81 862.9 92.81 862.9 114.38 860.69 114.38"></polygon><path class="cls-1" d="M1181.76,397a7.73,7.73,0,0,1-4.44-1.31,8.66,8.66,0,0,1-3-3.75,16.24,16.24,0,0,1,0-11.8,8.64,8.64,0,0,1,3-3.76,8.18,8.18,0,0,1,8.88,0,8.81,8.81,0,0,1,3.06,3.76,16,16,0,0,1,0,11.8,8.84,8.84,0,0,1-3.06,3.75,7.73,7.73,0,0,1-4.44,1.31m0-2a5.51,5.51,0,0,0,3.33-1,6.85,6.85,0,0,0,2.22-3,15.31,15.31,0,0,0,0-9.77,6.85,6.85,0,0,0-2.22-3,5.85,5.85,0,0,0-6.63,0,6.66,6.66,0,0,0-2.24,3,15.14,15.14,0,0,0,0,9.77,6.66,6.66,0,0,0,2.24,3,5.55,5.55,0,0,0,3.3,1" transform="translate(-305.12 -282.41)"></path><path class="cls-1" d="M1202.15,397a7.67,7.67,0,0,1-4.43-1.31,8.68,8.68,0,0,1-3-3.75,16.24,16.24,0,0,1,0-11.8,8.65,8.65,0,0,1,3-3.76,8.16,8.16,0,0,1,8.87,0,8.81,8.81,0,0,1,3.06,3.76,16,16,0,0,1,0,11.8,8.84,8.84,0,0,1-3.06,3.75,7.68,7.68,0,0,1-4.44,1.31m0-2a5.49,5.49,0,0,0,3.33-1,6.85,6.85,0,0,0,2.22-3,15.31,15.31,0,0,0,0-9.77,6.85,6.85,0,0,0-2.22-3,5.83,5.83,0,0,0-6.62,0,6.61,6.61,0,0,0-2.25,3,15.31,15.31,0,0,0,0,9.77,6.61,6.61,0,0,0,2.25,3,5.5,5.5,0,0,0,3.29,1" transform="translate(-305.12 -282.41)"></path><path class="cls-1" d="M1222.55,397a7.68,7.68,0,0,1-4.44-1.31,8.75,8.75,0,0,1-3-3.75,16.24,16.24,0,0,1,0-11.8,8.72,8.72,0,0,1,3-3.76,8.16,8.16,0,0,1,8.87,0,8.76,8.76,0,0,1,3.07,3.76,16.1,16.1,0,0,1,0,11.8,8.79,8.79,0,0,1-3.07,3.75,7.67,7.67,0,0,1-4.43,1.31m0-2a5.46,5.46,0,0,0,3.32-1,6.7,6.7,0,0,0,2.22-3,15.31,15.31,0,0,0,0-9.77,6.7,6.7,0,0,0-2.22-3,5.83,5.83,0,0,0-6.62,0,6.61,6.61,0,0,0-2.25,3,15.31,15.31,0,0,0,0,9.77,6.61,6.61,0,0,0,2.25,3,5.51,5.51,0,0,0,3.3,1" transform="translate(-305.12 -282.41)"></path><path class="cls-1" d="M794.51,307.67l9.86-21.56h2.25l9.85,21.56h-2.4L805,287.43h.93l-9.06,20.24Zm3.88-5.76.68-1.85h12.54l.67,1.85Z" transform="translate(-305.12 -282.41)"></path><polygon class="cls-1" points="514.93 25.26 514.93 3.7 516.81 3.7 526.67 20.52 525.68 20.52 535.45 3.7 537.33 3.7 537.33 25.26 535.14 25.26 535.14 7.12 535.66 7.12 526.67 22.52 525.59 22.52 516.53 7.12 517.12 7.12 517.12 25.26 514.93 25.26"></polygon><path class="cls-1" d="M858.89,307.85a12.33,12.33,0,0,1-4.51-.81,10.85,10.85,0,0,1-3.61-2.31,11,11,0,0,1-2.37-3.48,11.74,11.74,0,0,1,0-8.72,10.64,10.64,0,0,1,6-5.79,12.84,12.84,0,0,1,9,0A10.81,10.81,0,0,1,867,289a10.6,10.6,0,0,1,2.37,3.48,11.68,11.68,0,0,1,0,8.75,10.39,10.39,0,0,1-2.37,3.48,10.83,10.83,0,0,1-3.59,2.3,12.24,12.24,0,0,1-4.5.81m0-2a9.55,9.55,0,0,0,3.59-.66,8.56,8.56,0,0,0,2.87-1.88,8.72,8.72,0,0,0,1.89-2.84,9.63,9.63,0,0,0,0-7.11,8.68,8.68,0,0,0-1.89-2.83,8.41,8.41,0,0,0-2.87-1.88,9.36,9.36,0,0,0-3.59-.67,9.49,9.49,0,0,0-3.6.67,8.44,8.44,0,0,0-2.9,1.88,8.57,8.57,0,0,0-1.91,2.83,9.61,9.61,0,0,0,0,7.1,8.56,8.56,0,0,0,4.81,4.73,9.68,9.68,0,0,0,3.6.66" transform="translate(-305.12 -282.41)"></path><path class="cls-1" d="M884,307.85a8.79,8.79,0,0,1-6.5-2.37q-2.37-2.37-2.37-7V286.11h2.28v12.26q0,3.81,1.72,5.63a7.47,7.47,0,0,0,9.77,0q1.73-1.81,1.72-5.63V286.11h2.22v12.35q0,4.65-2.36,7a8.73,8.73,0,0,1-6.48,2.37" transform="translate(-305.12 -282.41)"></path><polygon class="cls-1" points="594.59 25.26 594.59 3.7 596.47 3.7 611.35 22.43 610.36 22.43 610.36 3.7 612.61 3.7 612.61 25.26 610.73 25.26 595.88 6.53 596.87 6.53 596.87 25.26 594.59 25.26"></polygon><polygon class="cls-1" points="623.83 25.26 623.83 5.67 616.25 5.67 616.25 3.7 633.68 3.7 633.68 5.67 626.11 5.67 626.11 25.26 623.83 25.26"></polygon><path class="cls-1" d="M950.51,307.67V286.11h9.3a9.39,9.39,0,0,1,5.59,1.44,4.79,4.79,0,0,1,2,4.1,5.18,5.18,0,0,1-.82,3,5.12,5.12,0,0,1-2.22,1.82,7.5,7.5,0,0,1-3.06.61l.52-.74a9.14,9.14,0,0,1,3.56.63,5.13,5.13,0,0,1,2.33,1.88,5.51,5.51,0,0,1,.83,3.1,5,5,0,0,1-2,4.25c-1.35,1-3.37,1.51-6.08,1.51Zm2.28-1.88h7.61a8,8,0,0,0,4.34-1,3.43,3.43,0,0,0,1.51-3.1,3.39,3.39,0,0,0-1.51-3.06,8,8,0,0,0-4.34-1h-7.86v-1.88h7.12a7,7,0,0,0,4-1,3.73,3.73,0,0,0,0-5.87,7.19,7.19,0,0,0-4-1h-6.87Z" transform="translate(-305.12 -282.41)"></path><path class="cls-1" d="M976,305.7h13v2H973.73V286.11h14.79v2H976Zm-.24-9.95h11.39v1.94H975.77Z" transform="translate(-305.12 -282.41)"></path><polygon class="cls-1" points="689.22 25.26 689.22 3.7 691.5 3.7 691.5 23.29 703.58 23.29 703.58 25.26 689.22 25.26"></polygon><path class="cls-1" d="M1021.48,307.85A12.33,12.33,0,0,1,1017,307a10.85,10.85,0,0,1-3.61-2.31,11,11,0,0,1-2.37-3.48,11.74,11.74,0,0,1,0-8.72,10.64,10.64,0,0,1,6-5.79,12.84,12.84,0,0,1,9,0,10.52,10.52,0,0,1,6,5.77,11.68,11.68,0,0,1,0,8.75,10.54,10.54,0,0,1-2.37,3.48A10.83,10.83,0,0,1,1026,307a12.24,12.24,0,0,1-4.5.81m0-2a9.55,9.55,0,0,0,3.59-.66,8.56,8.56,0,0,0,2.87-1.88,8.72,8.72,0,0,0,1.89-2.84,9.63,9.63,0,0,0,0-7.11,8.68,8.68,0,0,0-1.89-2.83,8.41,8.41,0,0,0-2.87-1.88,9.36,9.36,0,0,0-3.59-.67,9.49,9.49,0,0,0-3.6.67,8.44,8.44,0,0,0-2.9,1.88,8.57,8.57,0,0,0-1.91,2.83,9.61,9.61,0,0,0,0,7.1,8.56,8.56,0,0,0,4.81,4.73,9.68,9.68,0,0,0,3.6.66" transform="translate(-305.12 -282.41)"></path><polygon class="cls-1" points="737.03 25.26 729.76 3.7 732.11 3.7 738.91 24 737.74 24 744.77 3.7 746.86 3.7 753.79 24 752.68 24 759.55 3.7 761.74 3.7 754.47 25.26 752.07 25.26 745.44 6.01 746.06 6.01 739.41 25.26 737.03 25.26"></polygon><path class="cls-1" d="M1085.5,307.85a13.69,13.69,0,0,1-4.61-.78,8.87,8.87,0,0,1-3.4-2l.89-1.75a9.21,9.21,0,0,0,3.06,1.86,11.12,11.12,0,0,0,4.06.75,9.1,9.1,0,0,0,3.31-.51,3.93,3.93,0,0,0,1.88-1.37,3.26,3.26,0,0,0,.6-1.91,2.85,2.85,0,0,0-.73-2,5,5,0,0,0-1.89-1.22,21.54,21.54,0,0,0-2.59-.78c-.94-.23-1.89-.47-2.83-.73a11.64,11.64,0,0,1-2.61-1,5.44,5.44,0,0,1-1.91-1.71,4.87,4.87,0,0,1-.72-2.79,5.38,5.38,0,0,1,.85-2.94,5.87,5.87,0,0,1,2.6-2.15,10.62,10.62,0,0,1,4.5-.82,13,13,0,0,1,3.6.51,10.53,10.53,0,0,1,3.08,1.4l-.77,1.82a10.06,10.06,0,0,0-2.94-1.36,11.15,11.15,0,0,0-3-.43,8.41,8.41,0,0,0-3.21.53,4,4,0,0,0-1.86,1.4,3.4,3.4,0,0,0-.6,2,2.87,2.87,0,0,0,.72,2,4.88,4.88,0,0,0,1.91,1.2,24,24,0,0,0,2.61.77c.94.22,1.88.47,2.81.74a12.72,12.72,0,0,1,2.59,1,5.27,5.27,0,0,1,1.91,1.68,4.75,4.75,0,0,1,.73,2.74,5.22,5.22,0,0,1-.87,2.91A6,6,0,0,1,1090,307a11,11,0,0,1-4.54.81m-.65-25.44h1.54v29h-1.54Z" transform="translate(-305.12 -282.41)"></path><polygon class="cls-1" points="794.92 25.26 794.92 4.62 795.9 5.67 789.84 5.67 789.84 3.7 797.13 3.7 797.13 25.26 794.92 25.26"></polygon><path class="cls-1" d="M1116,307.85a7.67,7.67,0,0,1-4.43-1.31,8.61,8.61,0,0,1-3-3.75,16.24,16.24,0,0,1,0-11.8,8.64,8.64,0,0,1,3-3.76,8.16,8.16,0,0,1,8.87,0,8.87,8.87,0,0,1,3.06,3.76,16,16,0,0,1,0,11.8,8.84,8.84,0,0,1-3.06,3.75,7.73,7.73,0,0,1-4.44,1.31m0-2a5.51,5.51,0,0,0,3.33-1,6.85,6.85,0,0,0,2.22-3,15.31,15.31,0,0,0,0-9.77,6.76,6.76,0,0,0-2.22-3,5.79,5.79,0,0,0-6.62,0,6.52,6.52,0,0,0-2.25,3,15.31,15.31,0,0,0,0,9.77,6.61,6.61,0,0,0,2.25,3,5.5,5.5,0,0,0,3.29,1" transform="translate(-305.12 -282.41)"></path><path class="cls-1" d="M1136.38,307.85a7.67,7.67,0,0,1-4.43-1.31,8.68,8.68,0,0,1-3-3.75,16.24,16.24,0,0,1,0-11.8,8.71,8.71,0,0,1,3-3.76,8.16,8.16,0,0,1,8.87,0,8.89,8.89,0,0,1,3.07,3.76,16.1,16.1,0,0,1,0,11.8,8.86,8.86,0,0,1-3.07,3.75,7.68,7.68,0,0,1-4.44,1.31m0-2a5.47,5.47,0,0,0,3.33-1,6.7,6.7,0,0,0,2.22-3,15.31,15.31,0,0,0,0-9.77,6.61,6.61,0,0,0-2.22-3,5.79,5.79,0,0,0-6.62,0,6.52,6.52,0,0,0-2.25,3,15.31,15.31,0,0,0,0,9.77,6.61,6.61,0,0,0,2.25,3,5.5,5.5,0,0,0,3.29,1" transform="translate(-305.12 -282.41)"></path><path class="cls-1" d="M1156.78,307.85a7.68,7.68,0,0,1-4.44-1.31,8.75,8.75,0,0,1-3-3.75,16.24,16.24,0,0,1,0-11.8,8.78,8.78,0,0,1,3-3.76,8.16,8.16,0,0,1,8.87,0,8.82,8.82,0,0,1,3.07,3.76,16.1,16.1,0,0,1,0,11.8,8.79,8.79,0,0,1-3.07,3.75,7.67,7.67,0,0,1-4.43,1.31m0-2a5.46,5.46,0,0,0,3.32-1,6.7,6.7,0,0,0,2.22-3,15.31,15.31,0,0,0,0-9.77,6.61,6.61,0,0,0-2.22-3,5.47,5.47,0,0,0-3.32-1,5.56,5.56,0,0,0-3.3,1,6.66,6.66,0,0,0-2.25,3,15.31,15.31,0,0,0,0,9.77,6.75,6.75,0,0,0,2.25,3,5.55,5.55,0,0,0,3.3,1" transform="translate(-305.12 -282.41)"></path><path class="cls-1" d="M1362.5,378.37a12,12,0,0,1-4.5-.82,10.38,10.38,0,0,1-3.57-2.29,10.57,10.57,0,0,1-2.36-3.48,11.68,11.68,0,0,1,0-8.75,10.35,10.35,0,0,1,2.37-3.48,10.83,10.83,0,0,1,3.59-2.3,12.85,12.85,0,0,1,8.9,0,8.83,8.83,0,0,1,3.48,2.36L1369,361a8,8,0,0,0-2.93-2,10.21,10.21,0,0,0-7.06.06,8.8,8.8,0,0,0-2.89,1.88,9,9,0,0,0,0,12.79,8.8,8.8,0,0,0,2.89,1.88,9.7,9.7,0,0,0,3.61.66,9.56,9.56,0,0,0,3.45-.62,8.28,8.28,0,0,0,2.93-2l1.44,1.45a8.85,8.85,0,0,1-3.48,2.37,12.19,12.19,0,0,1-4.43.8" transform="translate(-305.12 -282.41)"></path><path class="cls-1" d="M1384,378.37a8.79,8.79,0,0,1-6.5-2.37q-2.37-2.37-2.37-7V356.62h2.28v12.26q0,3.83,1.72,5.64a7.47,7.47,0,0,0,9.77,0q1.73-1.81,1.72-5.64V356.62h2.22V369q0,4.65-2.36,7a8.73,8.73,0,0,1-6.48,2.37" transform="translate(-305.12 -282.41)"></path><path class="cls-1" d="M1399.68,378.19V356.62h8.07a11.58,11.58,0,0,1,4.71.88,6.81,6.81,0,0,1,3,2.53,7.2,7.2,0,0,1,1.06,4,7.05,7.05,0,0,1-1.06,3.92,6.81,6.81,0,0,1-3,2.53,11.58,11.58,0,0,1-4.71.88h-6.81l1-1.05v7.89Zm2.28-7.7-1-1.08h6.75a7.47,7.47,0,0,0,4.91-1.42,4.91,4.91,0,0,0,1.68-4,5,5,0,0,0-1.68-4,7.47,7.47,0,0,0-4.91-1.42h-6.75l1-1.07Zm12.44,7.7-5.54-7.83h2.46l5.58,7.83Z" transform="translate(-305.12 -282.41)"></path><path class="cls-1" d="M1422,378.19V356.62H1430a11.58,11.58,0,0,1,4.71.88,6.81,6.81,0,0,1,3,2.53,7.2,7.2,0,0,1,1.06,4,7.05,7.05,0,0,1-1.06,3.92,6.81,6.81,0,0,1-3,2.53,11.58,11.58,0,0,1-4.71.88h-6.81l1-1.05v7.89Zm2.28-7.7-1-1.08H1430a7.45,7.45,0,0,0,4.91-1.42,4.91,4.91,0,0,0,1.68-4,5,5,0,0,0-1.68-4,7.45,7.45,0,0,0-4.91-1.42h-6.75l1-1.07Zm12.45,7.7-5.55-7.83h2.46l5.58,7.83Z" transform="translate(-305.12 -282.41)"></path><path class="cls-1" d="M1446.5,376.22h13v2h-15.25V356.62H1459v2H1446.5Zm-.24-10h11.39v1.95h-11.39Z" transform="translate(-305.12 -282.41)"></path><polygon class="cls-1" points="1159.71 95.78 1159.71 74.21 1161.59 74.21 1176.47 92.94 1175.49 92.94 1175.49 74.21 1177.73 74.21 1177.73 95.78 1175.86 95.78 1161.01 77.05 1161.99 77.05 1161.99 95.78 1159.71 95.78"></polygon><path class="cls-1" d="M1499.24,378.37a12,12,0,0,1-4.5-.82,10.57,10.57,0,0,1-3.57-2.29,10.72,10.72,0,0,1-2.36-3.48,11.81,11.81,0,0,1,0-8.75,10.64,10.64,0,0,1,2.37-3.48,10.94,10.94,0,0,1,3.59-2.3,12.24,12.24,0,0,1,4.5-.81,12.4,12.4,0,0,1,4.41.78,9,9,0,0,1,3.48,2.36l-1.45,1.45a7.92,7.92,0,0,0-2.93-2,10.18,10.18,0,0,0-7,.06,8.64,8.64,0,0,0-4.82,4.72,9.38,9.38,0,0,0,0,7.11,8.64,8.64,0,0,0,4.82,4.72,9.68,9.68,0,0,0,3.6.66,9.48,9.48,0,0,0,3.45-.62,8.2,8.2,0,0,0,2.93-2l1.45,1.45a9,9,0,0,1-3.48,2.37,12.28,12.28,0,0,1-4.44.8" transform="translate(-305.12 -282.41)"></path><polygon class="cls-1" points="1211.59 95.78 1211.59 87.77 1212.11 89.19 1202.96 74.21 1205.4 74.21 1213.44 87.37 1212.14 87.37 1220.18 74.21 1222.46 74.21 1213.31 89.19 1213.84 87.77 1213.84 95.78 1211.59 95.78"></polygon><path class="cls-1" d="M1355.41,413.18h13v2h-15.25V393.59h14.79v2h-12.51Zm-.24-9.95h11.39v1.94h-11.39Z" transform="translate(-305.12 -282.41)"></path><polygon class="cls-1" points="1065.36 132.74 1074.2 120.79 1074.2 122.55 1065.88 111.18 1068.5 111.18 1075.49 120.67 1074.48 120.7 1081.47 111.18 1083.93 111.18 1075.71 122.39 1075.71 120.79 1084.52 132.74 1081.87 132.74 1074.41 122.61 1075.37 122.61 1067.98 132.74 1065.36 132.74"></polygon><path class="cls-1" d="M1402.27,415.34a12,12,0,0,1-4.5-.82,10.51,10.51,0,0,1-5.93-5.77,11.68,11.68,0,0,1,0-8.75,10.25,10.25,0,0,1,2.37-3.48,10.68,10.68,0,0,1,3.59-2.3,12.7,12.7,0,0,1,8.9,0,8.72,8.72,0,0,1,3.48,2.36l-1.44,1.44a8.09,8.09,0,0,0-2.93-1.95,10.21,10.21,0,0,0-7.06.06,8.55,8.55,0,0,0-2.89,1.88,9,9,0,0,0,0,12.78,8.55,8.55,0,0,0,2.89,1.88,9.7,9.7,0,0,0,3.61.66,9.56,9.56,0,0,0,3.45-.61,8.28,8.28,0,0,0,2.93-2l1.44,1.44a9,9,0,0,1-3.48,2.38,12.19,12.19,0,0,1-4.43.8" transform="translate(-305.12 -282.41)"></path><path class="cls-1" d="M1417.33,415.15h-2.28V393.59h2.28ZM1431,405.2h-14v-2h14Zm-.22-11.61h2.25v21.56h-2.25Z" transform="translate(-305.12 -282.41)"></path><path class="cls-1" d="M1436.64,415.15l9.86-21.56h2.25l9.86,21.56h-2.4l-9.06-20.24h.92l-9,20.24Zm3.89-5.76.67-1.85h12.54l.68,1.85Z" transform="translate(-305.12 -282.41)"></path><polygon class="cls-1" points="1157.06 132.74 1157.06 111.18 1158.94 111.18 1173.82 129.91 1172.84 129.91 1172.84 111.18 1175.09 111.18 1175.09 132.74 1173.21 132.74 1158.36 114.02 1159.34 114.02 1159.34 132.74 1157.06 132.74"></polygon><path class="cls-1" d="M1496.68,415.34a12.22,12.22,0,0,1-4.54-.82,10.56,10.56,0,0,1-6-5.77,11.81,11.81,0,0,1,0-8.75,10.3,10.3,0,0,1,2.39-3.48,10.81,10.81,0,0,1,3.62-2.3,12.42,12.42,0,0,1,4.54-.82,12.84,12.84,0,0,1,4.52.77,9,9,0,0,1,3.49,2.35l-1.41,1.44a8.15,8.15,0,0,0-3-1.94,10.34,10.34,0,0,0-3.51-.58,9.92,9.92,0,0,0-3.68.66,8.71,8.71,0,0,0-4.87,4.71,9.48,9.48,0,0,0,0,7.1,8.66,8.66,0,0,0,4.87,4.73,9.83,9.83,0,0,0,3.65.66,10.86,10.86,0,0,0,3.49-.55,8.23,8.23,0,0,0,3-1.88l1.29,1.73a10.47,10.47,0,0,1-3.6,2,13.3,13.3,0,0,1-4.32.7m5.73-3v-7.95h2.19v8.23Z" transform="translate(-305.12 -282.41)"></path><path class="cls-1" d="M1513.32,413.18h13v2H1511V393.59h14.79v2h-12.51Zm-.25-9.95h11.4v1.94h-11.4Z" transform="translate(-305.12 -282.41)"></path><polygon class="cls-1" points="1120.54 476 1120.54 454.44 1122.82 454.44 1122.82 474.03 1134.89 474.03 1134.89 476 1120.54 476"></polygon><path class="cls-1" d="M1453.15,758.59a12.35,12.35,0,0,1-4.52-.81,10.9,10.9,0,0,1-3.6-2.31,10.65,10.65,0,0,1-2.37-3.48,11.61,11.61,0,0,1,0-8.72,10.45,10.45,0,0,1,2.37-3.48,10.55,10.55,0,0,1,3.59-2.31,12.81,12.81,0,0,1,9,0,10.71,10.71,0,0,1,3.59,2.29,10.45,10.45,0,0,1,2.37,3.48,11.68,11.68,0,0,1,0,8.75,10.25,10.25,0,0,1-2.37,3.48,10.73,10.73,0,0,1-3.59,2.3,12.15,12.15,0,0,1-4.49.81m0-2a9.5,9.5,0,0,0,3.58-.66,8.46,8.46,0,0,0,2.87-1.88,8.78,8.78,0,0,0,1.89-2.83,9.66,9.66,0,0,0,0-7.12,8.68,8.68,0,0,0-1.89-2.83,8.32,8.32,0,0,0-2.87-1.88,9.31,9.31,0,0,0-3.58-.67,9.5,9.5,0,0,0-3.61.67,8.55,8.55,0,0,0-4.8,4.71,9.61,9.61,0,0,0,0,7.1,8.53,8.53,0,0,0,1.9,2.85,8.69,8.69,0,0,0,2.9,1.88,9.7,9.7,0,0,0,3.61.66" transform="translate(-305.12 -282.41)"></path><polygon class="cls-1" points="1163.28 476 1163.28 454.44 1165.16 454.44 1180.04 473.17 1179.05 473.17 1179.05 454.44 1181.3 454.44 1181.3 476 1179.42 476 1164.57 457.27 1165.56 457.27 1165.56 476 1163.28 476"></polygon><path class="cls-1" d="M1502.9,758.59a12.43,12.43,0,0,1-4.55-.81,10.88,10.88,0,0,1-3.6-2.3,10.25,10.25,0,0,1-2.37-3.48,11.68,11.68,0,0,1,0-8.75,10.47,10.47,0,0,1,2.38-3.48,11,11,0,0,1,3.63-2.29,12.18,12.18,0,0,1,4.54-.82,12.78,12.78,0,0,1,4.51.77,8.93,8.93,0,0,1,3.5,2.34l-1.42,1.45a8.07,8.07,0,0,0-3-1.94,10.34,10.34,0,0,0-3.51-.59,9.79,9.79,0,0,0-3.68.67,8.71,8.71,0,0,0-4.87,4.71,9.48,9.48,0,0,0,0,7.1,8.64,8.64,0,0,0,1.94,2.85,8.82,8.82,0,0,0,2.93,1.88,9.91,9.91,0,0,0,3.65.66,10.92,10.92,0,0,0,3.5-.55,8.12,8.12,0,0,0,3-1.88l1.29,1.72a10.16,10.16,0,0,1-3.6,2,13.51,13.51,0,0,1-4.31.69m5.73-3v-8h2.18v8.22Z" transform="translate(-305.12 -282.41)"></path><polygon class="cls-1" points="1229.79 477.14 1229.79 457.55 1222.21 457.55 1222.21 455.58 1239.65 455.58 1239.65 457.55 1232.07 457.55 1232.07 477.14 1229.79 477.14"></polygon><polygon class="cls-1" points="1287.49 477.14 1287.49 455.58 1289.37 455.58 1299.22 472.4 1298.24 472.4 1308 455.58 1309.88 455.58 1309.88 477.14 1307.69 477.14 1307.69 459 1308.22 459 1299.22 474.4 1298.14 474.4 1289.09 459 1289.67 459 1289.67 477.14 1287.49 477.14"></polygon><path class="cls-1" d="M1552.16,757.58h13v2h-15.25V738h14.79v2h-12.51Zm-.25-10h11.4v1.94h-11.4Z" transform="translate(-305.12 -282.41)"></path><path class="cls-1" d="M1570.23,759.55V738h8.07a11.58,11.58,0,0,1,4.71.87,6.81,6.81,0,0,1,3,2.53,7.2,7.2,0,0,1,1.06,4,7.09,7.09,0,0,1-1.06,3.93,6.73,6.73,0,0,1-3,2.52,11.41,11.41,0,0,1-4.71.88h-6.81l1-1.05v7.89Zm2.28-7.7-1-1.08h6.75a7.41,7.41,0,0,0,4.91-1.42,4.91,4.91,0,0,0,1.68-4,5,5,0,0,0-1.68-4,7.47,7.47,0,0,0-4.91-1.41h-6.75l1-1.08Zm12.44,7.7-5.54-7.83h2.46l5.58,7.83Z" transform="translate(-305.12 -282.41)"></path><path class="cls-1" d="M1472.71,562V540.43h8.07a11.62,11.62,0,0,1,4.71.87,6.78,6.78,0,0,1,3,2.53,7.2,7.2,0,0,1,1.07,4,7.09,7.09,0,0,1-1.07,3.93,6.86,6.86,0,0,1-3,2.54,11.44,11.44,0,0,1-4.71.89H1474l1-1.08V562Zm2.28-7.7-1-1.11h6.75a7.52,7.52,0,0,0,4.91-1.4,4.89,4.89,0,0,0,1.68-4,5,5,0,0,0-1.68-4,7.47,7.47,0,0,0-4.91-1.41H1474l1-1.08Z" transform="translate(-305.12 -282.41)"></path><path class="cls-1" d="M1493.66,562V540.43h8.07a11.58,11.58,0,0,1,4.71.87,6.81,6.81,0,0,1,3,2.53,7.2,7.2,0,0,1,1.06,4,7.09,7.09,0,0,1-1.06,3.93,6.89,6.89,0,0,1-3,2.54,11.41,11.41,0,0,1-4.71.89h-6.81l1-1.08V562Zm2.28-7.7-1-1.11h6.75a7.5,7.5,0,0,0,4.91-1.4,4.89,4.89,0,0,0,1.68-4,5,5,0,0,0-1.68-4,7.45,7.45,0,0,0-4.91-1.41h-6.75l1-1.08Z" transform="translate(-305.12 -282.41)"></path><path class="cls-1" d="M1427.93,562h-2.28V540.43h2.28Zm13.71-10h-14v-2h14Zm-.21-11.61h2.25V562h-2.25Z" transform="translate(-305.12 -282.41)"></path><path class="cls-1" d="M1447.25,562l9.86-21.56h2.25l9.85,21.56h-2.4l-9.06-20.24h.93L1449.62,562Zm3.88-5.76.68-1.85h12.54l.67,1.85Z" transform="translate(-305.12 -282.41)"></path><polygon class="cls-1" points="1214.69 279.58 1214.69 271.57 1215.21 272.99 1206.06 258.02 1208.49 258.02 1216.53 271.17 1215.24 271.17 1223.28 258.02 1225.56 258.02 1216.41 272.99 1216.93 271.57 1216.93 279.58 1214.69 279.58"></polygon><path class="cls-1" d="M1436.93,599.51a12,12,0,0,1-4.5-.82,10.51,10.51,0,0,1-5.93-5.77,11.68,11.68,0,0,1,0-8.75,10.54,10.54,0,0,1,2.37-3.48,10.94,10.94,0,0,1,3.59-2.3,12.85,12.85,0,0,1,8.9,0,8.93,8.93,0,0,1,3.49,2.36l-1.45,1.45a7.92,7.92,0,0,0-2.93-2,10.18,10.18,0,0,0-7,.06,8.59,8.59,0,0,0-2.9,1.88,9,9,0,0,0,0,12.79,8.57,8.57,0,0,0,2.9,1.87,10,10,0,0,0,7,.05,8.2,8.2,0,0,0,2.93-2l1.45,1.45a9.06,9.06,0,0,1-3.49,2.37,12.19,12.19,0,0,1-4.43.8" transform="translate(-305.12 -282.41)"></path><path class="cls-1" d="M1562.55,597.17h13v2h-15.25V577.58h14.79v2h-12.51Zm-.24-9.95h11.4v1.94h-11.4Z" transform="translate(-305.12 -282.41)"></path><polygon class="cls-1" points="1227.75 316.73 1227.75 295.17 1229.63 295.17 1239.49 311.99 1238.51 311.99 1248.27 295.17 1250.15 295.17 1250.15 316.73 1247.96 316.73 1247.96 298.59 1248.48 298.59 1239.49 313.99 1238.41 313.99 1229.36 298.59 1229.94 298.59 1229.94 316.73 1227.75 316.73"></polygon><path class="cls-1" d="M1457.15,599.33a8.74,8.74,0,0,1-6.5-2.38q-2.39-2.37-2.38-7V577.58h2.28v12.26q0,3.81,1.73,5.63a7.45,7.45,0,0,0,9.76,0q1.73-1.82,1.73-5.63V577.58H1466v12.35q0,4.65-2.36,7a8.69,8.69,0,0,1-6.48,2.38" transform="translate(-305.12 -282.41)"></path><path class="cls-1" d="M1579.42,599.14V577.58h8.08a11.48,11.48,0,0,1,4.71.88,6.75,6.75,0,0,1,3,2.52,7.2,7.2,0,0,1,1.06,4,7.09,7.09,0,0,1-1.06,3.93,6.75,6.75,0,0,1-3,2.52,11.48,11.48,0,0,1-4.71.88h-6.81l1-1v7.89Zm2.28-7.7-1-1.08h6.74a7.42,7.42,0,0,0,4.92-1.42,5.57,5.57,0,0,0,0-8,7.42,7.42,0,0,0-4.92-1.42h-6.74l1-1.08Zm12.45,7.7-5.55-7.82h2.47l5.57,7.82Z" transform="translate(-305.12 -282.41)"></path><polygon class="cls-1" points="1190.46 316.73 1190.46 297.14 1182.89 297.14 1182.89 295.17 1200.32 295.17 1200.32 297.14 1192.74 297.14 1192.74 316.73 1190.46 316.73"></polygon><path class="cls-1" d="M1518.19,599.51a12.13,12.13,0,0,1-4.51-.82,10.4,10.4,0,0,1-3.6-2.31,10.62,10.62,0,0,1-2.38-3.48,11.74,11.74,0,0,1,0-8.72,10.72,10.72,0,0,1,6-5.79,13,13,0,0,1,9,0,10.83,10.83,0,0,1,3.59,2.3,10.25,10.25,0,0,1,2.37,3.48,11.68,11.68,0,0,1,0,8.75,10.45,10.45,0,0,1-2.37,3.48,10.81,10.81,0,0,1-3.59,2.29,12,12,0,0,1-4.5.82m0-2a9.36,9.36,0,0,0,3.59-.67,8.44,8.44,0,0,0,2.87-1.87,8.83,8.83,0,0,0,1.89-2.84,9.63,9.63,0,0,0,0-7.11,8.72,8.72,0,0,0-1.89-2.84,8.46,8.46,0,0,0-2.87-1.88,9.55,9.55,0,0,0-3.59-.66,9.68,9.68,0,0,0-3.6.66,8.59,8.59,0,0,0-2.9,1.88,8.77,8.77,0,0,0-1.91,2.84,9.09,9.09,0,0,0-.67,3.55,9.2,9.2,0,0,0,.67,3.55,8.92,8.92,0,0,0,1.91,2.85,8.57,8.57,0,0,0,2.9,1.87,9.49,9.49,0,0,0,3.6.67" transform="translate(-305.12 -282.41)"></path><path class="cls-1" d="M1477.16,599.51a13.4,13.4,0,0,1-4.6-.79,8.78,8.78,0,0,1-3.41-2L1470,595a9.1,9.1,0,0,0,3.07,1.86,10.84,10.84,0,0,0,4.05.76,9,9,0,0,0,3.31-.51,4.06,4.06,0,0,0,1.88-1.37,3.28,3.28,0,0,0,.6-1.91,2.85,2.85,0,0,0-.72-2,5,5,0,0,0-1.9-1.22,21.32,21.32,0,0,0-2.58-.79c-1-.22-1.89-.46-2.84-.72a12.26,12.26,0,0,1-2.6-1,5.35,5.35,0,0,1-1.91-1.71,4.89,4.89,0,0,1-.72-2.79,5.41,5.41,0,0,1,.84-2.94,6,6,0,0,1,2.61-2.16,10.73,10.73,0,0,1,4.49-.81,13.49,13.49,0,0,1,3.61.5,10.29,10.29,0,0,1,3.08,1.41l-.77,1.81a10.55,10.55,0,0,0-2.94-1.35,11.16,11.16,0,0,0-3-.43,8.4,8.4,0,0,0-3.2.52,4.18,4.18,0,0,0-1.87,1.4,3.46,3.46,0,0,0-.6,2,2.85,2.85,0,0,0,.73,2,4.67,4.67,0,0,0,1.91,1.2,22.33,22.33,0,0,0,2.6.77c.95.23,1.89.48,2.82.74a13.6,13.6,0,0,1,2.59,1,5.43,5.43,0,0,1,1.91,1.67,4.78,4.78,0,0,1,.72,2.75,5.34,5.34,0,0,1-.86,2.91,6,6,0,0,1-2.64,2.15,10.78,10.78,0,0,1-4.54.82" transform="translate(-305.12 -282.41)"></path><path class="cls-1" d="M1436.93,798.3a12.25,12.25,0,0,1-4.5-.82,10.49,10.49,0,0,1-5.93-5.78,11.66,11.66,0,0,1,0-8.74,10.69,10.69,0,0,1,2.37-3.49,10.91,10.91,0,0,1,3.59-2.29,12.7,12.7,0,0,1,8.9,0,8.83,8.83,0,0,1,3.49,2.36L1443.4,781a8,8,0,0,0-2.93-2,10.18,10.18,0,0,0-7,.06,8.59,8.59,0,0,0-2.9,1.88,9,9,0,0,0,0,12.78,8.59,8.59,0,0,0,2.9,1.88,9.68,9.68,0,0,0,3.6.66,9.56,9.56,0,0,0,3.45-.61,8.2,8.2,0,0,0,2.93-2l1.45,1.44a9.09,9.09,0,0,1-3.49,2.38,12.19,12.19,0,0,1-4.43.8" transform="translate(-305.12 -282.41)"></path><path class="cls-1" d="M1562.55,796h13v2h-15.25V776.36h14.79v2h-12.51Zm-.24-10h11.4V788h-11.4Z" transform="translate(-305.12 -282.41)"></path><polygon class="cls-1" points="1227.75 515.52 1227.75 493.95 1229.63 493.95 1239.49 510.77 1238.51 510.77 1248.27 493.95 1250.15 493.95 1250.15 515.52 1247.96 515.52 1247.96 497.38 1248.48 497.38 1239.49 512.78 1238.41 512.78 1229.36 497.38 1229.94 497.38 1229.94 515.52 1227.75 515.52"></polygon><path class="cls-1" d="M1457.15,798.11a8.77,8.77,0,0,1-6.5-2.37q-2.39-2.37-2.38-7V776.36h2.28v12.26q0,3.82,1.73,5.64a7.45,7.45,0,0,0,9.76,0q1.73-1.82,1.73-5.64V776.36H1466v12.36q0,4.65-2.36,7a8.73,8.73,0,0,1-6.48,2.37" transform="translate(-305.12 -282.41)"></path><path class="cls-1" d="M1579.42,797.93V776.36h8.08a11.64,11.64,0,0,1,4.71.88,6.83,6.83,0,0,1,3,2.53,7.2,7.2,0,0,1,1.06,4,7,7,0,0,1-1.06,3.92,6.77,6.77,0,0,1-3,2.53,11.48,11.48,0,0,1-4.71.88h-6.81l1-1.05v7.89Zm2.28-7.7-1-1.08h6.74a7.42,7.42,0,0,0,4.92-1.42,4.91,4.91,0,0,0,1.68-4,5,5,0,0,0-1.68-4,7.48,7.48,0,0,0-4.92-1.41h-6.74l1-1.08Zm12.45,7.7-5.55-7.83h2.47l5.57,7.83Z" transform="translate(-305.12 -282.41)"></path><polygon class="cls-1" points="1190.46 515.52 1190.46 495.93 1182.89 495.93 1182.89 493.95 1200.32 493.95 1200.32 495.93 1192.74 495.93 1192.74 515.52 1190.46 515.52"></polygon><path class="cls-1" d="M1518.19,798.3a12.34,12.34,0,0,1-4.51-.82,10.4,10.4,0,0,1-3.6-2.31,10.84,10.84,0,0,1-2.38-3.48,11.74,11.74,0,0,1,0-8.72,10.84,10.84,0,0,1,2.38-3.48,10.51,10.51,0,0,1,3.58-2.31,12.84,12.84,0,0,1,9,0,10.81,10.81,0,0,1,3.59,2.29,10.39,10.39,0,0,1,2.37,3.49,11.66,11.66,0,0,1,0,8.74,10.39,10.39,0,0,1-2.37,3.49,10.81,10.81,0,0,1-3.59,2.29,12.21,12.21,0,0,1-4.5.82m0-2a9.55,9.55,0,0,0,3.59-.66,8.46,8.46,0,0,0,2.87-1.88,8.68,8.68,0,0,0,1.89-2.83,9.66,9.66,0,0,0,0-7.12,8.68,8.68,0,0,0-1.89-2.83,8.46,8.46,0,0,0-2.87-1.88,9.55,9.55,0,0,0-3.59-.66,9.68,9.68,0,0,0-3.6.66,8.59,8.59,0,0,0-2.9,1.88,8.73,8.73,0,0,0-1.91,2.83,9.74,9.74,0,0,0,0,7.1,8.71,8.71,0,0,0,1.91,2.85,8.59,8.59,0,0,0,2.9,1.88,9.68,9.68,0,0,0,3.6.66" transform="translate(-305.12 -282.41)"></path><path class="cls-1" d="M1477.16,798.3a13.4,13.4,0,0,1-4.6-.79,8.67,8.67,0,0,1-3.41-2l.89-1.75a9.1,9.1,0,0,0,3.07,1.86,10.84,10.84,0,0,0,4.05.76,9,9,0,0,0,3.31-.51,4.06,4.06,0,0,0,1.88-1.37,3.28,3.28,0,0,0,.6-1.91,2.89,2.89,0,0,0-.72-2,4.93,4.93,0,0,0-1.9-1.21,21.32,21.32,0,0,0-2.58-.79c-1-.22-1.89-.46-2.84-.72a12.26,12.26,0,0,1-2.6-1,5.54,5.54,0,0,1-1.91-1.71,4.89,4.89,0,0,1-.72-2.79,5.41,5.41,0,0,1,.84-2.94,5.91,5.91,0,0,1,2.61-2.16,10.72,10.72,0,0,1,4.49-.82,13.12,13.12,0,0,1,3.61.51,10.53,10.53,0,0,1,3.08,1.4l-.77,1.82a10,10,0,0,0-2.94-1.35,11.19,11.19,0,0,0-3-.44,8.39,8.39,0,0,0-3.2.53,4.11,4.11,0,0,0-1.87,1.4,3.44,3.44,0,0,0-.6,2,2.85,2.85,0,0,0,.73,2,4.88,4.88,0,0,0,1.91,1.2,22.33,22.33,0,0,0,2.6.77c.95.23,1.89.47,2.82.74a13.58,13.58,0,0,1,2.59,1,5.36,5.36,0,0,1,1.91,1.68,4.75,4.75,0,0,1,.72,2.74,5.3,5.3,0,0,1-.86,2.91,5.94,5.94,0,0,1-2.64,2.16,10.94,10.94,0,0,1-4.54.82" transform="translate(-305.12 -282.41)"></path><polygon class="cls-1" points="636.36 433.96 636.36 412.4 638.24 412.4 648.09 429.22 647.11 429.22 656.87 412.4 658.75 412.4 658.75 433.96 656.56 433.96 656.56 415.82 657.09 415.82 648.09 431.22 647.01 431.22 637.96 415.82 638.54 415.82 638.54 433.96 636.36 433.96"></polygon><path class="cls-1" d="M980.32,716.37a12.1,12.1,0,0,1-4.51-.82,10.6,10.6,0,0,1-6-5.79,11.61,11.61,0,0,1,0-8.72,10.65,10.65,0,0,1,2.37-3.48,10.86,10.86,0,0,1,3.59-2.31,13,13,0,0,1,9,0,10.79,10.79,0,0,1,3.58,2.3,10.42,10.42,0,0,1,2.38,3.48,11.81,11.81,0,0,1,0,8.75,10.62,10.62,0,0,1-2.38,3.48,10.77,10.77,0,0,1-3.58,2.29,12,12,0,0,1-4.5.82m0-2a9.4,9.4,0,0,0,3.59-.67,8.28,8.28,0,0,0,2.86-1.88,8.7,8.7,0,0,0,1.9-2.83,9.77,9.77,0,0,0,0-7.11,8.75,8.75,0,0,0-1.9-2.84,8.42,8.42,0,0,0-2.86-1.88,9.59,9.59,0,0,0-3.59-.66,9.7,9.7,0,0,0-3.61.66,8.6,8.6,0,0,0-4.8,4.72,9.09,9.09,0,0,0-.68,3.55,9.2,9.2,0,0,0,.68,3.55,8.62,8.62,0,0,0,1.91,2.84,8.5,8.5,0,0,0,2.89,1.88,9.5,9.5,0,0,0,3.61.67" transform="translate(-305.12 -282.41)"></path><polygon class="cls-1" points="691.14 433.96 691.14 412.4 693.02 412.4 707.9 431.13 706.91 431.13 706.91 412.4 709.16 412.4 709.16 433.96 707.28 433.96 692.43 415.23 693.42 415.23 693.42 433.96 691.14 433.96"></polygon><path class="cls-1" d="M1021.56,714.4h13v2h-15.25V694.81h14.79v2h-12.51Zm-.25-9.95h11.4v1.94h-11.4Z" transform="translate(-305.12 -282.41)"></path><polygon class="cls-1" points="770.42 433.96 770.42 414.37 762.84 414.37 762.84 412.4 780.28 412.4 780.28 414.37 772.7 414.37 772.7 433.96 770.42 433.96"></polygon><path class="cls-1" d="M1089,716.37V694.81h8.07a11.58,11.58,0,0,1,4.71.87,6.81,6.81,0,0,1,3,2.53,7.2,7.2,0,0,1,1.06,4,7.09,7.09,0,0,1-1.06,3.93,6.73,6.73,0,0,1-3,2.52,11.41,11.41,0,0,1-4.71.88h-6.81l1-1v7.89Zm2.28-7.7-1-1.08H1097a7.39,7.39,0,0,0,4.91-1.42,4.91,4.91,0,0,0,1.68-4,5,5,0,0,0-1.68-4,7.45,7.45,0,0,0-4.91-1.41h-6.75l1-1.08Zm12.44,7.7-5.54-7.83h2.46l5.58,7.83Z" transform="translate(-305.12 -282.41)"></path><path class="cls-1" d="M1107.85,716.37l9.86-21.56H1120l9.86,21.56h-2.41l-9.05-20.24h.92l-9.06,20.24Zm3.88-5.76.68-1.85H1125l.68,1.85Z" transform="translate(-305.12 -282.41)"></path><polygon class="cls-1" points="828.27 433.96 828.27 412.4 830.15 412.4 845.03 431.13 844.04 431.13 844.04 412.4 846.29 412.4 846.29 433.96 844.41 433.96 829.57 415.23 830.55 415.23 830.55 433.96 828.27 433.96"></polygon><path class="cls-1" d="M1164.38,716.55a13.74,13.74,0,0,1-4.61-.78,8.82,8.82,0,0,1-3.4-2l.89-1.76a9,9,0,0,0,3.07,1.87,11,11,0,0,0,4.05.75,9.3,9.3,0,0,0,3.31-.5,4,4,0,0,0,1.88-1.38,3.26,3.26,0,0,0,.6-1.91,2.86,2.86,0,0,0-.72-2,5.15,5.15,0,0,0-1.9-1.22,22.89,22.89,0,0,0-2.59-.78l-2.83-.72a11.77,11.77,0,0,1-2.6-1,5.35,5.35,0,0,1-1.91-1.71,4.86,4.86,0,0,1-.73-2.78,5.48,5.48,0,0,1,.85-2.95,5.92,5.92,0,0,1,2.6-2.15,10.62,10.62,0,0,1,4.5-.82,13.17,13.17,0,0,1,3.61.51,10.65,10.65,0,0,1,3.08,1.4l-.77,1.82a10.24,10.24,0,0,0-3-1.36,11.44,11.44,0,0,0-3-.43,8.39,8.39,0,0,0-3.2.53,3.94,3.94,0,0,0-1.87,1.4,3.4,3.4,0,0,0-.6,2,2.83,2.83,0,0,0,.73,2,4.88,4.88,0,0,0,1.91,1.2,23.79,23.79,0,0,0,2.6.77c.94.22,1.88.47,2.82.74a13.58,13.58,0,0,1,2.59,1,5.36,5.36,0,0,1,1.91,1.68,4.75,4.75,0,0,1,.72,2.74,5.3,5.3,0,0,1-.86,2.91,6.13,6.13,0,0,1-2.64,2.16,11,11,0,0,1-4.54.81" transform="translate(-305.12 -282.41)"></path><polygon class="cls-1" points="741.5 433.96 741.5 425.95 742.03 427.37 732.88 412.4 735.31 412.4 743.35 425.55 742.06 425.55 750.1 412.4 752.38 412.4 743.23 427.37 743.75 425.95 743.75 433.96 741.5 433.96"></polygon><path class="cls-1" d="M1178.34,716.55h-2.28V695h14.79v2h-12.51Zm-.24-11.12h11.39v2H1178.1Z" transform="translate(-305.12 -282.41)"></path><path class="cls-1" d="M1212.93,716.55V695H1221a11.48,11.48,0,0,1,4.71.88,6.81,6.81,0,0,1,3,2.52,7.2,7.2,0,0,1,1.07,4,7.09,7.09,0,0,1-1.07,3.93,6.83,6.83,0,0,1-3,2.53,11.64,11.64,0,0,1-4.71.88h-6.81l1-1.05v7.88Zm2.28-7.7-1-1.07h6.74a7.48,7.48,0,0,0,4.92-1.42,5.58,5.58,0,0,0,0-8,7.42,7.42,0,0,0-4.92-1.42h-6.74l1-1.08Zm12.45,7.7-5.55-7.82h2.47l5.57,7.82Z" transform="translate(-305.12 -282.41)"></path><path class="cls-1" d="M1196.49,714.58h13v2h-15.24V695H1209v2h-12.5Zm-.25-10h11.4v1.94h-11.4Z" transform="translate(-305.12 -282.41)"></path><rect class="cls-4" x="134.33" y="236.26" width="49.29" height="1.37"></rect><rect class="cls-4" x="210.12" y="140.04" width="1.37" height="63.2"></rect><rect class="cls-4" x="210.12" y="270.29" width="1.37" height="63.21"></rect><rect class="cls-4" x="210.12" y="402.31" width="1.37" height="29.47"></rect><rect class="cls-4" x="410.93" y="104.28" width="63.79" height="1.37"></rect><rect class="cls-4" x="1125.54" y="154.18" width="1.37" height="64.34"></rect><rect class="cls-4" x="1125.54" y="351.68" width="1.37" height="64.28"></rect><polygon class="cls-4" points="620.54 331.53 620.08 332.81 392.22 243.59 392.68 242.31 620.54 331.53"></polygon><path class="cls-4" d="M702.16,345.32l-1.23-.59L718,309a24.71,24.71,0,0,1,22.18-14h39.23v1.37H740.19a23.34,23.34,0,0,0-21,13.2Z" transform="translate(-305.12 -282.41)"></path><path class="cls-4" d="M780.1,479.29H740.19a24.71,24.71,0,0,1-22.18-14l-17.08-35.7,1.23-.59,17.08,35.7a23.34,23.34,0,0,0,21,13.2H780.1Z" transform="translate(-305.12 -282.41)"></path><rect class="cls-4" x="949.73" y="104.08" width="67.28" height="1.37"></rect><path class="cls-4" d="M1296.61,479.5h-21.5v-1.37h21.5a23.33,23.33,0,0,0,21-13.2l17.61-36.79,1.23.59-17.6,36.79a24.73,24.73,0,0,1-22.19,14" transform="translate(-305.12 -282.41)"></path><path class="cls-4" d="M1335.08,346.43l-17.52-36.61a23.33,23.33,0,0,0-21-13.2H1184.75v-1.37h111.86a24.73,24.73,0,0,1,22.19,14l17.51,36.61Z" transform="translate(-305.12 -282.41)"></path><polygon class="cls-4" points="210.8 335.24 202.26 325.75 203.27 324.84 210.8 333.19 218.32 324.84 219.34 325.75 210.8 335.24"></polygon><polygon class="cls-4" points="210.8 433.57 202.26 424.09 203.27 423.18 210.8 431.53 218.32 423.18 219.34 424.09 210.8 433.57"></polygon><polygon class="cls-4" points="218.32 149.41 210.8 141.06 203.27 149.41 202.26 148.5 210.8 139.02 219.34 148.5 218.32 149.41"></polygon><polygon class="cls-4" points="176.13 245.48 175.21 244.46 183.56 236.94 175.21 229.41 176.13 228.4 185.6 236.94 176.13 245.48"></polygon><polygon class="cls-4" points="466.34 21.86 465.43 20.85 473.78 13.32 465.43 5.8 466.34 4.78 475.82 13.32 466.34 21.86"></polygon><polygon class="cls-4" points="466.34 113.51 465.43 112.49 473.78 104.97 465.43 97.44 466.34 96.43 475.82 104.97 466.34 113.51"></polygon><polygon class="cls-4" points="466.34 204.74 465.43 203.73 473.78 196.2 465.43 188.68 466.34 187.66 475.82 196.2 466.34 204.74"></polygon><polygon class="cls-4" points="1009.16 113.3 1008.25 112.29 1016.6 104.76 1008.25 97.24 1009.16 96.22 1018.64 104.76 1009.16 113.3"></polygon><polygon class="cls-4" points="1031.47 65.46 1019.67 60.59 1020.2 59.33 1030.59 63.62 1033.78 52.84 1035.09 53.23 1031.47 65.46"></polygon><polygon class="cls-4" points="1034.9 156.38 1030.59 146 1020.71 151.37 1020.05 150.17 1031.27 144.08 1036.16 155.86 1034.9 156.38"></polygon><polygon class="cls-4" points="1126.23 220.41 1117.69 210.92 1118.7 210.01 1126.23 218.36 1133.75 210.01 1134.77 210.92 1126.23 220.41"></polygon><polygon class="cls-4" points="1092.56 272.1 1092.99 273.4 915.75 335.88 915.32 334.59 1092.56 272.1"></polygon><polygon class="cls-4" points="1094.56 272.15 1088.29 283.26 1087.1 282.59 1092.63 272.8 1082.31 268.32 1082.86 267.07 1094.56 272.15"></polygon><polygon class="cls-4" points="1092.63 313.83 1093.41 314.94 944.7 420.52 943.91 419.4 1092.63 313.83"></polygon><polygon class="cls-4" points="1094.56 313.31 1091.69 325.74 1090.36 325.43 1092.89 314.48 1081.73 313.1 1081.9 311.75 1094.56 313.31"></polygon><polygon class="cls-4" points="1126.23 417.85 1117.69 408.37 1118.7 407.45 1126.23 415.81 1133.75 407.45 1134.77 408.37 1126.23 417.85"></polygon><polygon class="cls-4" points="622.23 332.86 610.42 337.69 609.91 336.43 620.31 332.17 614.99 322.26 616.2 321.62 622.23 332.86"></polygon><polygon class="cls-4" points="620.98 419.83 620.18 420.94 382.8 251.39 383.6 250.28 620.98 419.83"></polygon><polygon class="cls-4" points="622.23 421.58 609.55 422.95 609.4 421.59 620.58 420.38 618.22 409.39 619.55 409.11 622.23 421.58"></polygon><path class="cls-1" d="M1010.74,606.68H1013v21.56h-2.28Zm2,16.2-.09-2.77,13.06-13.43h2.62l-9.52,10-1.29,1.38Zm13.53,5.36-9.31-10.72,1.54-1.66L1029,628.24Z" transform="translate(-305.12 -282.41)"></path><path class="cls-1" d="M1099.77,628.61a12,12,0,0,1-4.5-.82,10.51,10.51,0,0,1-5.93-5.77,11.68,11.68,0,0,1,0-8.75,10.25,10.25,0,0,1,2.37-3.48,10.83,10.83,0,0,1,3.59-2.3,12.85,12.85,0,0,1,8.9,0,8.83,8.83,0,0,1,3.48,2.36l-1.44,1.45a8,8,0,0,0-2.93-2,10.21,10.21,0,0,0-7.06.06,8.55,8.55,0,0,0-2.89,1.88,8.72,8.72,0,0,0-2.62,6.39,9,9,0,0,0,.69,3.56,9.1,9.1,0,0,0,1.93,2.84,8.52,8.52,0,0,0,2.89,1.87,10,10,0,0,0,7.06.05,8.28,8.28,0,0,0,2.93-2l1.44,1.45a9,9,0,0,1-3.48,2.37,12.19,12.19,0,0,1-4.43.8" transform="translate(-305.12 -282.41)"></path><path class="cls-1" d="M1078.23,628.61a12,12,0,0,1-4.49-.82,10.43,10.43,0,0,1-5.93-5.77,11.68,11.68,0,0,1,0-8.75,10.25,10.25,0,0,1,2.37-3.48,10.73,10.73,0,0,1,3.59-2.3,12.15,12.15,0,0,1,4.49-.81,12.4,12.4,0,0,1,4.41.78,8.9,8.9,0,0,1,3.48,2.36l-1.45,1.45a8,8,0,0,0-2.92-2,10.21,10.21,0,0,0-7.06.06,8.69,8.69,0,0,0-2.9,1.88,8.87,8.87,0,0,0-1.92,2.83,9.53,9.53,0,0,0,0,7.12,8.91,8.91,0,0,0,1.92,2.84,8.66,8.66,0,0,0,2.9,1.87,10,10,0,0,0,7.06.05,8.25,8.25,0,0,0,2.92-2l1.45,1.45a9,9,0,0,1-3.48,2.37,12.28,12.28,0,0,1-4.44.8" transform="translate(-305.12 -282.41)"></path><path class="cls-1" d="M1043.53,628.43l9.86-21.57h2.25l9.86,21.57h-2.41l-9-20.24h.92l-9.06,20.24Zm3.88-5.77.68-1.84h12.54l.68,1.84Z" transform="translate(-305.12 -282.41)"></path><path class="cls-1" d="M1122.07,628.61a12.1,12.1,0,0,1-4.51-.82,10.6,10.6,0,0,1-6-5.79,10.86,10.86,0,0,1,6-14.51,13,13,0,0,1,9,0,10.94,10.94,0,0,1,3.59,2.3,10.54,10.54,0,0,1,2.37,3.48,11.81,11.81,0,0,1,0,8.75,10.75,10.75,0,0,1-2.37,3.48,10.91,10.91,0,0,1-3.59,2.29,12,12,0,0,1-4.5.82m0-2a9.4,9.4,0,0,0,3.59-.67,8.28,8.28,0,0,0,2.86-1.88,8.7,8.7,0,0,0,1.9-2.83,9.63,9.63,0,0,0,0-7.11,8.75,8.75,0,0,0-1.9-2.84,8.42,8.42,0,0,0-2.86-1.88,10.12,10.12,0,0,0-7.19,0,8.58,8.58,0,0,0-4.81,4.72,9.09,9.09,0,0,0-.68,3.55,9.2,9.2,0,0,0,.68,3.55,8.62,8.62,0,0,0,1.91,2.84,8.44,8.44,0,0,0,2.9,1.88,9.42,9.42,0,0,0,3.6.67" transform="translate(-305.12 -282.41)"></path><path class="cls-1" d="M1147.17,628.61a8.76,8.76,0,0,1-6.49-2.37q-2.39-2.37-2.38-7V606.86h2.28v12.26q0,3.82,1.73,5.64a7.45,7.45,0,0,0,9.76,0q1.73-1.82,1.73-5.64V606.86H1156v12.35q0,4.66-2.36,7a8.73,8.73,0,0,1-6.49,2.37" transform="translate(-305.12 -282.41)"></path><polygon class="cls-1" points="857.77 346.02 857.77 324.45 859.65 324.45 874.53 343.18 873.54 343.18 873.54 324.45 875.79 324.45 875.79 346.02 873.91 346.02 859.06 327.29 860.05 327.29 860.05 346.02 857.77 346.02"></polygon><polygon class="cls-1" points="887 346.02 887 326.42 879.42 326.42 879.42 324.45 896.86 324.45 896.86 326.42 889.28 326.42 889.28 346.02 887 346.02"></polygon><path class="cls-1" d="M941.47,628.24V606.68h9.31a9.41,9.41,0,0,1,5.59,1.44,4.8,4.8,0,0,1,2,4.1,4.89,4.89,0,0,1-3,4.78,7.58,7.58,0,0,1-3.07.61l.53-.74a9.17,9.17,0,0,1,3.56.63,5.16,5.16,0,0,1,2.32,1.88,5.45,5.45,0,0,1,.83,3.1,5,5,0,0,1-2,4.25q-2,1.51-6.09,1.51Zm2.28-1.88h7.61a8.06,8.06,0,0,0,4.35-1,3.91,3.91,0,0,0,0-6.16,8.06,8.06,0,0,0-4.35-1h-7.85v-1.88h7.11a7,7,0,0,0,4-1,3.72,3.72,0,0,0,0-5.86,7.07,7.07,0,0,0-4-1h-6.87Z" transform="translate(-305.12 -282.41)"></path><path class="cls-1" d="M962,628.24l9.85-21.56h2.25l9.86,21.56h-2.4L972.45,608h.93l-9.06,20.24Zm3.88-5.76.68-1.85H979l.68,1.85Z" transform="translate(-305.12 -282.41)"></path><polygon class="cls-1" points="682.37 345.83 682.37 324.27 684.25 324.27 699.12 343 698.14 343 698.14 324.27 700.39 324.27 700.39 345.83 698.51 345.83 683.66 327.1 684.65 327.1 684.65 345.83 682.37 345.83"></polygon></svg>