<?xml version="1.0" encoding="utf-8"?>
<!-- Generator: Adobe Illustrator 26.0.1, SVG Export Plug-In . SVG Version: 6.00 Build 0)  -->
<svg version="1.1" id="Слой_1" xmlns="http://www.w3.org/2000/svg" xmlns:xlink="http://www.w3.org/1999/xlink" x="0px" y="0px"
	 viewBox="0 0 1420 729" style="enable-background:new 0 0 1420 729;" xml:space="preserve">
<style type="text/css">
	.st0{fill:#0035A0;}
	.st1{fill:#009E04;}
	.st2{fill:#38A8F4;}
</style>
<path class="st0" d="M33.66,40.35c-2.36,0-4.54-0.39-6.54-1.19c-2-0.79-3.73-1.9-5.2-3.34c-1.46-1.43-2.61-3.12-3.43-5.06
	c-0.82-1.94-1.23-4.06-1.23-6.36c0-2.3,0.41-4.42,1.23-6.36c0.82-1.94,1.97-3.63,3.45-5.06s3.22-2.55,5.22-3.34
	c2-0.79,4.18-1.19,6.54-1.19c2.27,0,4.4,0.38,6.4,1.14c2,0.76,3.69,1.9,5.06,3.43l-2.11,2.11c-1.28-1.31-2.7-2.26-4.26-2.84
	c-1.55-0.58-3.22-0.87-5.02-0.87c-1.88,0-3.63,0.32-5.24,0.96c-1.61,0.64-3.02,1.55-4.21,2.73c-1.19,1.18-2.13,2.55-2.8,4.12
	c-0.67,1.57-1.01,3.29-1.01,5.17c0,1.88,0.34,3.61,1.01,5.17c0.67,1.57,1.61,2.94,2.8,4.12c1.19,1.18,2.6,2.09,4.21,2.73
	c1.61,0.64,3.36,0.96,5.24,0.96c1.79,0,3.46-0.3,5.02-0.9c1.55-0.6,2.97-1.55,4.26-2.87l2.11,2.11c-1.37,1.52-3.06,2.67-5.06,3.45
	C38.11,39.96,35.96,40.35,33.66,40.35"/>
<polygon class="st0" points="52.25,40.08 52.25,8.72 55.57,8.72 55.57,37.21 73.13,37.21 73.13,40.08 "/>
<rect x="78.64" y="8.72" class="st0" width="3.31" height="31.35"/>
<path class="st0" d="M95.48,37.21h18.86v2.87H92.16V8.72h21.5v2.87H95.48V37.21z M95.12,22.74h16.57v2.82H95.12V22.74z"/>
<polygon class="st0" points="122.13,40.08 122.13,8.72 124.86,8.72 146.49,35.96 145.06,35.96 145.06,8.72 148.33,8.72 
	148.33,40.08 145.6,40.08 124.01,12.84 125.44,12.84 125.44,40.08 "/>
<polygon class="st0" points="164.64,40.08 164.64,11.59 153.62,11.59 153.62,8.72 178.97,8.72 178.97,11.59 167.95,11.59 
	167.95,40.08 "/>
<path class="st0" d="M15.03,212.64l14.33-31.35h3.27l14.33,31.35h-3.49l-13.17-29.43h1.34l-13.17,29.43H15.03z M20.68,204.26
	l0.98-2.69h18.23l0.99,2.69H20.68z"/>
<polygon class="st0" points="52.16,212.64 52.16,181.28 54.9,181.28 69.23,205.74 67.8,205.74 82,181.28 84.73,181.28 84.73,212.64 
	81.55,212.64 81.55,186.25 82.31,186.25 69.23,208.65 67.66,208.65 54.49,186.25 55.34,186.25 55.34,212.64 "/>
<polygon class="st0" points="94.94,212.64 94.94,181.28 98.25,181.28 98.25,209.77 115.81,209.77 115.81,212.64 "/>
<polygon class="st0" points="126.83,217.12 141.61,174.92 144.52,174.92 129.74,217.12 "/>
<path class="st0" d="M159.8,181.28h3.31v31.35h-3.31V181.28z M162.66,204.84l-0.13-4.03l18.99-19.53h3.81l-13.84,14.51l-1.88,2.02
	L162.66,204.84z M182.33,212.64l-13.53-15.59l2.24-2.42l15.23,18.01H182.33z"/>
<polygon class="st0" points="197.02,212.64 197.02,200.99 197.78,203.05 184.48,181.28 188.02,181.28 199.71,200.41 197.83,200.41 
	209.52,181.28 212.83,181.28 199.53,203.05 200.29,200.99 200.29,212.64 "/>
<path class="st0" d="M230.26,212.91c-2.36,0-4.54-0.39-6.54-1.19c-2-0.79-3.73-1.9-5.2-3.34c-1.46-1.43-2.61-3.12-3.43-5.06
	c-0.82-1.94-1.23-4.06-1.23-6.36c0-2.3,0.41-4.42,1.23-6.36c0.82-1.94,1.97-3.63,3.45-5.06s3.22-2.55,5.22-3.34
	c2-0.79,4.18-1.19,6.54-1.19c2.27,0,4.4,0.38,6.4,1.14c2,0.76,3.69,1.9,5.06,3.43l-2.11,2.11c-1.28-1.31-2.7-2.26-4.26-2.84
	c-1.55-0.58-3.22-0.87-5.02-0.87c-1.88,0-3.63,0.32-5.24,0.96c-1.61,0.64-3.02,1.55-4.21,2.73c-1.19,1.18-2.13,2.55-2.8,4.12
	c-0.67,1.57-1.01,3.29-1.01,5.17c0,1.88,0.34,3.61,1.01,5.17c0.67,1.57,1.61,2.94,2.8,4.12c1.19,1.18,2.6,2.09,4.21,2.73
	c1.61,0.64,3.36,0.96,5.24,0.96c1.79,0,3.46-0.3,5.02-0.9c1.55-0.6,2.97-1.55,4.26-2.87l2.11,2.11c-1.37,1.52-3.06,2.67-5.06,3.45
	C234.71,212.52,232.56,212.91,230.26,212.91"/>
<path class="st1" d="M15.03,378.01l14.33-31.35h3.27l14.33,31.35h-3.49l-13.17-29.43h1.34l-13.17,29.43H15.03z M20.68,369.63
	l0.98-2.69h18.23l0.99,2.69H20.68z"/>
<path class="st1" d="M52.16,378.01v-31.35H63.9c2.66,0,4.94,0.42,6.85,1.28c1.91,0.85,3.38,2.08,4.41,3.67
	c1.03,1.6,1.54,3.53,1.54,5.8c0,2.21-0.52,4.11-1.54,5.71c-1.03,1.6-2.5,2.83-4.41,3.69c-1.91,0.87-4.2,1.3-6.85,1.3H54l1.48-1.57
	v11.47H52.16z M55.48,366.81L54,365.2h9.81c3.14,0,5.52-0.68,7.14-2.04c1.63-1.36,2.44-3.28,2.44-5.76c0-2.51-0.81-4.45-2.44-5.82
	c-1.63-1.37-4.01-2.06-7.14-2.06H54l1.48-1.57V366.81z"/>
<path class="st1" d="M83.88,378.01v-31.35h11.74c2.66,0,4.94,0.42,6.85,1.28c1.91,0.85,3.38,2.08,4.41,3.67
	c1.03,1.6,1.54,3.53,1.54,5.8c0,2.21-0.52,4.11-1.54,5.71c-1.03,1.6-2.5,2.83-4.41,3.69c-1.91,0.87-4.2,1.3-6.85,1.3h-9.9l1.48-1.57
	v11.47H83.88z M87.19,366.81l-1.48-1.61h9.81c3.14,0,5.52-0.68,7.14-2.04c1.63-1.36,2.44-3.28,2.44-5.76c0-2.51-0.81-4.45-2.44-5.82
	c-1.63-1.37-4.01-2.06-7.14-2.06h-9.81l1.48-1.57V366.81z"/>
<path class="st1" d="M115.59,378.01v-31.35h11.74c2.66,0,4.94,0.42,6.85,1.28c1.91,0.85,3.38,2.08,4.41,3.67
	c1.03,1.6,1.54,3.53,1.54,5.8c0,2.21-0.51,4.11-1.54,5.71c-1.03,1.6-2.5,2.82-4.41,3.67c-1.91,0.85-4.2,1.28-6.85,1.28h-9.9
	l1.48-1.52v11.47H115.59z M118.9,366.81l-1.48-1.57h9.81c3.14,0,5.52-0.69,7.14-2.06c1.63-1.37,2.44-3.3,2.44-5.78
	c0-2.51-0.81-4.45-2.44-5.82c-1.63-1.37-4.01-2.06-7.14-2.06h-9.81l1.48-1.57V366.81z M137,378.01l-8.06-11.38h3.58l8.11,11.38H137z
	"/>
<path class="st1" d="M161.68,378.28c-2.36,0-4.55-0.4-6.56-1.19c-2.02-0.79-3.76-1.91-5.24-3.36s-2.63-3.14-3.45-5.06
	c-0.82-1.93-1.23-4.04-1.23-6.34c0-2.3,0.41-4.41,1.23-6.34c0.82-1.93,1.97-3.61,3.45-5.06c1.48-1.45,3.22-2.57,5.22-3.36
	c2-0.79,4.19-1.19,6.58-1.19c2.36,0,4.54,0.4,6.54,1.19c2,0.79,3.74,1.9,5.22,3.34c1.48,1.43,2.63,3.12,3.45,5.06
	c0.82,1.94,1.23,4.06,1.23,6.36c0,2.3-0.41,4.42-1.23,6.36c-0.82,1.94-1.97,3.63-3.45,5.06c-1.48,1.43-3.22,2.55-5.22,3.34
	C166.22,377.88,164.04,378.28,161.68,378.28 M161.68,375.32c1.88,0,3.62-0.32,5.22-0.96c1.6-0.64,2.99-1.55,4.17-2.73
	c1.18-1.18,2.1-2.55,2.76-4.12c0.66-1.57,0.99-3.29,0.99-5.17c0-1.88-0.33-3.61-0.99-5.17c-0.66-1.57-1.58-2.94-2.76-4.12
	c-1.18-1.18-2.57-2.09-4.17-2.73c-1.6-0.64-3.34-0.96-5.22-0.96c-1.88,0-3.63,0.32-5.24,0.96c-1.61,0.64-3.02,1.55-4.21,2.73
	c-1.2,1.18-2.12,2.55-2.78,4.12c-0.66,1.57-0.99,3.29-0.99,5.17c0,1.85,0.33,3.57,0.99,5.15c0.66,1.58,1.58,2.96,2.78,4.14
	c1.19,1.18,2.6,2.09,4.21,2.73C158.05,375,159.8,375.32,161.68,375.32"/>
<polygon class="st1" points="193.53,378.01 179.64,346.66 183.23,346.66 196.22,376.17 194.24,376.17 207.32,346.66 210.68,346.66 
	196.8,378.01 "/>
<path class="st1" d="M218.52,375.14h18.86v2.87h-22.17v-31.35h21.5v2.87h-18.19V375.14z M218.16,360.68h16.57v2.82h-16.57V360.68z"
	/>
<path class="st1" d="M245.17,378.01v-31.35h12.77c3.34,0,6.28,0.66,8.8,1.99c2.52,1.33,4.49,3.17,5.89,5.53
	c1.4,2.36,2.11,5.08,2.11,8.15c0,3.08-0.7,5.79-2.11,8.15c-1.4,2.36-3.37,4.2-5.89,5.53c-2.52,1.33-5.46,1.99-8.8,1.99H245.17z
	 M248.49,375.14h9.27c2.78,0,5.19-0.54,7.23-1.63c2.04-1.09,3.64-2.6,4.77-4.52c1.14-1.93,1.7-4.14,1.7-6.65
	c0-2.54-0.57-4.76-1.7-6.67c-1.13-1.91-2.72-3.41-4.77-4.5c-2.05-1.09-4.46-1.64-7.23-1.64h-9.27V375.14z"/>
<path class="st0" d="M454.34,244.53c-2.36,0-4.54-0.39-6.54-1.19c-2-0.79-3.73-1.9-5.2-3.34c-1.46-1.43-2.61-3.12-3.43-5.06
	c-0.82-1.94-1.23-4.06-1.23-6.36c0-2.3,0.41-4.42,1.23-6.36c0.82-1.94,1.97-3.63,3.45-5.06c1.48-1.43,3.22-2.55,5.22-3.34
	c2-0.79,4.18-1.19,6.54-1.19c2.27,0,4.4,0.38,6.4,1.14c2,0.76,3.69,1.9,5.06,3.43l-2.11,2.11c-1.28-1.31-2.7-2.26-4.26-2.84
	c-1.55-0.58-3.22-0.87-5.02-0.87c-1.88,0-3.63,0.32-5.24,0.96c-1.61,0.64-3.02,1.55-4.21,2.73c-1.19,1.18-2.13,2.55-2.8,4.12
	c-0.67,1.57-1.01,3.29-1.01,5.17c0,1.88,0.34,3.61,1.01,5.17c0.67,1.57,1.6,2.94,2.8,4.12c1.19,1.18,2.6,2.09,4.21,2.73
	c1.61,0.64,3.36,0.96,5.24,0.96c1.79,0,3.46-0.3,5.02-0.9c1.55-0.6,2.97-1.55,4.26-2.87l2.11,2.11c-1.37,1.52-3.06,2.67-5.06,3.45
	C458.79,244.14,456.64,244.53,454.34,244.53"/>
<path class="st0" d="M485.56,244.53c-4,0-7.15-1.15-9.45-3.45c-2.3-2.3-3.45-5.7-3.45-10.21v-17.96h3.32v17.83
	c0,3.7,0.84,6.44,2.51,8.2c1.67,1.76,4.03,2.64,7.08,2.64c3.07,0,5.45-0.88,7.12-2.64c1.67-1.76,2.51-4.49,2.51-8.2v-17.83h3.23
	v17.96c0,4.51-1.14,7.91-3.43,10.21C492.7,243.38,489.56,244.53,485.56,244.53"/>
<path class="st0" d="M508.4,244.26v-31.35h11.74c2.66,0,4.94,0.42,6.85,1.28c1.91,0.85,3.38,2.08,4.41,3.67
	c1.03,1.6,1.54,3.53,1.54,5.8c0,2.21-0.51,4.11-1.54,5.71c-1.03,1.6-2.5,2.82-4.41,3.67c-1.91,0.85-4.2,1.28-6.85,1.28h-9.9
	l1.48-1.52v11.47H508.4z M511.72,233.06l-1.48-1.57h9.81c3.14,0,5.52-0.69,7.14-2.06c1.63-1.37,2.44-3.3,2.44-5.78
	c0-2.51-0.81-4.45-2.44-5.82c-1.63-1.37-4.01-2.06-7.14-2.06h-9.81l1.48-1.57V233.06z M529.81,244.26l-8.06-11.38h3.58l8.11,11.38
	H529.81z"/>
<path class="st0" d="M540.79,244.26v-31.35h11.74c2.66,0,4.94,0.42,6.85,1.28c1.91,0.85,3.38,2.08,4.41,3.67
	c1.03,1.6,1.54,3.53,1.54,5.8c0,2.21-0.51,4.11-1.54,5.71c-1.03,1.6-2.5,2.82-4.41,3.67c-1.91,0.85-4.2,1.28-6.85,1.28h-9.9
	l1.48-1.52v11.47H540.79z M544.1,233.06l-1.48-1.57h9.81c3.14,0,5.52-0.69,7.14-2.06c1.63-1.37,2.44-3.3,2.44-5.78
	c0-2.51-0.81-4.45-2.44-5.82c-1.63-1.37-4.01-2.06-7.14-2.06h-9.81l1.48-1.57V233.06z M562.2,244.26l-8.06-11.38h3.58l8.11,11.38
	H562.2z"/>
<path class="st0" d="M576.49,241.39h18.86v2.87h-22.17v-31.35h21.5v2.87h-18.19V241.39z M576.13,226.93h16.57v2.82h-16.57V226.93z"
	/>
<polygon class="st0" points="603.14,244.26 603.14,212.91 605.87,212.91 627.5,240.14 626.07,240.14 626.07,212.91 629.34,212.91 
	629.34,244.26 626.61,244.26 605.02,217.03 606.45,217.03 606.45,244.26 "/>
<path class="st0" d="M653.17,244.53c-2.36,0-4.54-0.39-6.54-1.19c-2-0.79-3.73-1.9-5.2-3.34c-1.46-1.43-2.61-3.12-3.43-5.06
	c-0.82-1.94-1.23-4.06-1.23-6.36c0-2.3,0.41-4.42,1.23-6.36c0.82-1.94,1.97-3.63,3.45-5.06c1.48-1.43,3.22-2.55,5.22-3.34
	c2-0.79,4.18-1.19,6.54-1.19c2.27,0,4.4,0.38,6.4,1.14c2,0.76,3.69,1.9,5.06,3.43l-2.11,2.11c-1.28-1.31-2.7-2.26-4.26-2.84
	c-1.55-0.58-3.22-0.87-5.02-0.87c-1.88,0-3.63,0.32-5.24,0.96c-1.61,0.64-3.02,1.55-4.21,2.73c-1.19,1.18-2.13,2.55-2.8,4.12
	c-0.67,1.57-1.01,3.29-1.01,5.17c0,1.88,0.34,3.61,1.01,5.17c0.67,1.57,1.6,2.94,2.8,4.12c1.19,1.18,2.6,2.09,4.21,2.73
	c1.61,0.64,3.36,0.96,5.24,0.96c1.79,0,3.46-0.3,5.02-0.9c1.55-0.6,2.97-1.55,4.26-2.87l2.11,2.11c-1.37,1.52-3.06,2.67-5.06,3.45
	C657.62,244.14,655.47,244.53,653.17,244.53"/>
<polygon class="st0" points="678.57,244.26 678.57,232.61 679.33,234.68 666.03,212.91 669.56,212.91 681.26,232.03 679.37,232.03 
	691.06,212.91 694.38,212.91 681.08,234.68 681.84,232.61 681.84,244.26 "/>
<path class="st0" d="M714.58,241.39h18.86v2.87h-22.17v-31.35h21.5v2.87h-18.19V241.39z M714.22,226.93h16.57v2.82h-16.57V226.93z"
	/>
<polygon class="st0" points="736.48,244.26 749.34,226.88 749.34,229.43 737.25,212.91 741.05,212.91 751.22,226.7 749.74,226.75 
	759.91,212.91 763.49,212.91 751.53,229.21 751.53,226.88 764.34,244.26 760.49,244.26 749.65,229.52 751.04,229.52 740.29,244.26 
	"/>
<path class="st0" d="M782.71,244.53c-2.36,0-4.54-0.39-6.54-1.19c-2-0.79-3.73-1.9-5.2-3.34c-1.46-1.43-2.61-3.12-3.43-5.06
	c-0.82-1.94-1.23-4.06-1.23-6.36c0-2.3,0.41-4.42,1.23-6.36c0.82-1.94,1.97-3.63,3.45-5.06c1.48-1.43,3.22-2.55,5.22-3.34
	c2-0.79,4.18-1.19,6.54-1.19c2.27,0,4.4,0.38,6.41,1.14c2,0.76,3.69,1.9,5.06,3.43l-2.11,2.11c-1.28-1.31-2.7-2.26-4.26-2.84
	c-1.55-0.58-3.22-0.87-5.02-0.87c-1.88,0-3.63,0.32-5.24,0.96c-1.61,0.64-3.02,1.55-4.21,2.73c-1.19,1.18-2.13,2.55-2.8,4.12
	c-0.67,1.57-1.01,3.29-1.01,5.17c0,1.88,0.34,3.61,1.01,5.17c0.67,1.57,1.6,2.94,2.8,4.12c1.19,1.18,2.6,2.09,4.21,2.73
	c1.61,0.64,3.36,0.96,5.24,0.96c1.79,0,3.46-0.3,5.02-0.9c1.55-0.6,2.97-1.55,4.26-2.87l2.11,2.11c-1.37,1.52-3.06,2.67-5.06,3.45
	C787.16,244.14,785.01,244.53,782.71,244.53"/>
<path class="st0" d="M804.61,244.26h-3.31v-31.35h3.31V244.26z M824.54,229.79h-20.29v-2.91h20.29V229.79z M824.23,212.91h3.27
	v31.35h-3.27V212.91z"/>
<path class="st0" d="M832.7,244.26l14.33-31.35h3.27l14.33,31.35h-3.49l-13.17-29.43h1.34l-13.17,29.43H832.7z M838.34,235.88
	l0.98-2.69h18.23l0.98,2.69H838.34z"/>
<polygon class="st0" points="869.83,244.26 869.83,212.91 872.56,212.91 894.2,240.14 892.76,240.14 892.76,212.91 896.03,212.91 
	896.03,244.26 893.3,244.26 871.71,217.03 873.14,217.03 873.14,244.26 "/>
<path class="st0" d="M920,244.53c-2.39,0-4.59-0.39-6.61-1.19c-2.02-0.79-3.76-1.9-5.24-3.34s-2.63-3.12-3.45-5.06
	c-0.82-1.94-1.23-4.06-1.23-6.36c0-2.3,0.41-4.42,1.23-6.36c0.82-1.94,1.98-3.63,3.47-5.06c1.49-1.43,3.25-2.55,5.26-3.34
	c2.02-0.79,4.22-1.19,6.61-1.19c2.39,0,4.58,0.37,6.56,1.12c1.99,0.75,3.68,1.88,5.08,3.4l-2.06,2.11
	c-1.32-1.31-2.76-2.25-4.34-2.82c-1.58-0.57-3.29-0.85-5.11-0.85c-1.94,0-3.72,0.32-5.35,0.96c-1.63,0.64-3.05,1.55-4.26,2.73
	c-1.21,1.18-2.15,2.55-2.82,4.12c-0.67,1.57-1.01,3.29-1.01,5.17c0,1.85,0.34,3.57,1.01,5.15c0.67,1.58,1.61,2.96,2.82,4.14
	c1.21,1.18,2.63,2.09,4.26,2.73c1.63,0.64,3.4,0.96,5.31,0.96c1.79,0,3.49-0.27,5.08-0.81c1.6-0.54,3.07-1.45,4.41-2.73l1.88,2.51
	c-1.49,1.32-3.24,2.31-5.24,2.98S922.18,244.53,920,244.53 M928.33,240.14v-11.56h3.18v11.96L928.33,240.14z"/>
<path class="st0" d="M944.18,241.39h18.86v2.87h-22.17v-31.35h21.5v2.87h-18.19V241.39z M943.82,226.93h16.57v2.82h-16.57V226.93z"
	/>
<path class="st0" d="M1150.46,351.41h-3.31v-31.35h3.31V351.41z M1170.39,336.95h-20.29v-2.91h20.29V336.95z M1170.08,320.06h3.27
	v31.35h-3.27V320.06z"/>
<path class="st0" d="M1178.54,351.41l14.33-31.35h3.27l14.33,31.35h-3.49l-13.17-29.43h1.34l-13.17,29.43H1178.54z M1184.18,343.04
	l0.98-2.69h18.23l0.98,2.69H1184.18z"/>
<path class="st0" d="M1215.67,351.41v-31.35h11.73c2.66,0,4.94,0.42,6.85,1.28c1.91,0.85,3.38,2.08,4.41,3.67
	c1.03,1.6,1.54,3.53,1.54,5.8c0,2.21-0.51,4.11-1.54,5.71c-1.03,1.6-2.5,2.83-4.41,3.69c-1.91,0.87-4.2,1.3-6.85,1.3h-9.9l1.48-1.57
	v11.47H1215.67z M1218.99,340.22l-1.48-1.61h9.81c3.14,0,5.52-0.68,7.15-2.04c1.63-1.36,2.44-3.28,2.44-5.76
	c0-2.51-0.81-4.45-2.44-5.82c-1.63-1.37-4.01-2.06-7.15-2.06h-9.81l1.48-1.57V340.22z"/>
<path class="st0" d="M1247.39,351.41v-31.35h11.73c2.66,0,4.94,0.42,6.85,1.28c1.91,0.85,3.38,2.08,4.41,3.67
	c1.03,1.6,1.54,3.53,1.54,5.8c0,2.21-0.51,4.11-1.54,5.71c-1.03,1.6-2.5,2.83-4.41,3.69c-1.91,0.87-4.2,1.3-6.85,1.3h-9.9l1.48-1.57
	v11.47H1247.39z M1250.7,340.22l-1.48-1.61h9.81c3.14,0,5.52-0.68,7.15-2.04c1.63-1.36,2.44-3.28,2.44-5.76
	c0-2.51-0.81-4.45-2.44-5.82c-1.63-1.37-4.01-2.06-7.15-2.06h-9.81l1.48-1.57V340.22z"/>
<polygon class="st0" points="1286.58,351.41 1286.58,339.77 1287.34,341.83 1274.04,320.06 1277.58,320.06 1289.27,339.19 
	1287.39,339.19 1299.08,320.06 1302.39,320.06 1289.09,341.83 1289.85,339.77 1289.85,351.41 "/>
<path class="st0" d="M1160.76,405.43c-2.36,0-4.54-0.39-6.54-1.19c-2-0.79-3.73-1.9-5.2-3.34c-1.46-1.43-2.61-3.12-3.43-5.06
	c-0.82-1.94-1.23-4.06-1.23-6.36c0-2.3,0.41-4.42,1.23-6.36c0.82-1.94,1.97-3.63,3.45-5.06c1.48-1.43,3.22-2.55,5.22-3.34
	c2-0.79,4.18-1.19,6.54-1.19c2.27,0,4.4,0.38,6.41,1.14c2,0.76,3.69,1.9,5.06,3.43l-2.11,2.11c-1.28-1.31-2.7-2.26-4.26-2.84
	c-1.55-0.58-3.22-0.87-5.02-0.87c-1.88,0-3.63,0.32-5.24,0.96c-1.61,0.64-3.02,1.55-4.21,2.73c-1.2,1.18-2.13,2.55-2.8,4.12
	c-0.67,1.57-1.01,3.29-1.01,5.17c0,1.88,0.34,3.61,1.01,5.17c0.67,1.57,1.6,2.94,2.8,4.12c1.19,1.18,2.6,2.09,4.21,2.73
	c1.61,0.64,3.36,0.96,5.24,0.96c1.79,0,3.46-0.3,5.02-0.9c1.55-0.6,2.97-1.55,4.26-2.87l2.11,2.11c-1.37,1.52-3.06,2.67-5.06,3.45
	C1165.21,405.05,1163.06,405.43,1160.76,405.43"/>
<path class="st0" d="M1191.98,405.43c-4,0-7.15-1.15-9.45-3.45c-2.3-2.3-3.45-5.7-3.45-10.21v-17.96h3.31v17.83
	c0,3.7,0.84,6.44,2.51,8.2c1.67,1.76,4.03,2.64,7.08,2.64c3.08,0,5.45-0.88,7.12-2.64c1.67-1.76,2.51-4.49,2.51-8.2v-17.83h3.22
	v17.96c0,4.51-1.14,7.91-3.43,10.21C1199.12,404.28,1195.98,405.43,1191.98,405.43"/>
<path class="st0" d="M1223.47,405.43c-2.33,0-4.56-0.38-6.7-1.14c-2.14-0.76-3.79-1.74-4.95-2.93l1.3-2.55
	c1.1,1.08,2.59,1.98,4.46,2.71c1.87,0.73,3.83,1.1,5.89,1.1c1.97,0,3.58-0.25,4.81-0.74c1.24-0.49,2.15-1.16,2.73-1.99
	c0.58-0.84,0.87-1.76,0.87-2.78c0-1.22-0.35-2.21-1.05-2.96c-0.7-0.75-1.62-1.34-2.75-1.77c-1.14-0.43-2.39-0.81-3.76-1.14
	c-1.37-0.33-2.75-0.68-4.12-1.05c-1.37-0.37-2.64-0.87-3.79-1.5c-1.15-0.63-2.07-1.46-2.78-2.49c-0.7-1.03-1.05-2.38-1.05-4.05
	c0-1.55,0.41-2.98,1.23-4.28c0.82-1.3,2.08-2.34,3.79-3.14s3.88-1.19,6.54-1.19c1.76,0,3.51,0.25,5.24,0.74
	c1.73,0.49,3.22,1.17,4.48,2.04l-1.12,2.64c-1.34-0.9-2.77-1.55-4.28-1.97c-1.51-0.42-2.96-0.63-4.37-0.63
	c-1.88,0-3.43,0.25-4.66,0.76c-1.23,0.51-2.13,1.19-2.71,2.04c-0.58,0.85-0.87,1.81-0.87,2.89c0,1.22,0.35,2.21,1.05,2.96
	c0.7,0.75,1.63,1.33,2.78,1.75c1.15,0.42,2.41,0.79,3.79,1.12c1.37,0.33,2.74,0.69,4.1,1.08c1.36,0.39,2.61,0.89,3.76,1.5
	c1.15,0.61,2.08,1.43,2.78,2.44c0.7,1.02,1.05,2.35,1.05,3.99c0,1.52-0.42,2.93-1.25,4.23c-0.84,1.3-2.11,2.34-3.83,3.14
	C1228.36,405.04,1226.16,405.43,1223.47,405.43"/>
<polygon class="st0" points="1248.01,405.17 1248.01,376.68 1236.99,376.68 1236.99,373.81 1262.35,373.81 1262.35,376.68 
	1251.33,376.68 1251.33,405.17 "/>
<path class="st0" d="M1280.89,405.43c-2.36,0-4.55-0.4-6.56-1.19c-2.02-0.79-3.76-1.91-5.24-3.36c-1.48-1.45-2.63-3.14-3.45-5.06
	c-0.82-1.93-1.23-4.04-1.23-6.34c0-2.3,0.41-4.41,1.23-6.34c0.82-1.93,1.97-3.61,3.45-5.06c1.48-1.45,3.22-2.57,5.22-3.36
	c2-0.79,4.2-1.19,6.58-1.19c2.36,0,4.54,0.4,6.54,1.19c2,0.79,3.74,1.9,5.22,3.34c1.48,1.43,2.63,3.12,3.45,5.06
	c0.82,1.94,1.23,4.06,1.23,6.36c0,2.3-0.41,4.42-1.23,6.36c-0.82,1.94-1.97,3.63-3.45,5.06c-1.48,1.43-3.22,2.55-5.22,3.34
	C1285.43,405.04,1283.25,405.43,1280.89,405.43 M1280.89,402.48c1.88,0,3.62-0.32,5.22-0.96c1.6-0.64,2.98-1.55,4.17-2.73
	c1.18-1.18,2.1-2.55,2.75-4.12c0.66-1.57,0.98-3.29,0.98-5.17c0-1.88-0.33-3.61-0.98-5.17c-0.66-1.57-1.58-2.94-2.75-4.12
	c-1.18-1.18-2.57-2.09-4.17-2.73c-1.6-0.64-3.34-0.96-5.22-0.96c-1.88,0-3.63,0.32-5.24,0.96c-1.61,0.64-3.02,1.55-4.21,2.73
	c-1.2,1.18-2.12,2.55-2.78,4.12c-0.66,1.57-0.99,3.29-0.99,5.17c0,1.85,0.33,3.57,0.99,5.15c0.66,1.58,1.58,2.96,2.78,4.14
	c1.19,1.18,2.6,2.09,4.21,2.73C1277.26,402.16,1279.01,402.48,1280.89,402.48"/>
<polygon class="st0" points="1304.77,405.17 1304.77,373.81 1307.5,373.81 1321.83,398.27 1320.4,398.27 1334.6,373.81 
	1337.33,373.81 1337.33,405.17 1334.15,405.17 1334.15,378.78 1334.91,378.78 1321.83,401.18 1320.26,401.18 1307.09,378.78 
	1307.94,378.78 1307.94,405.17 "/>
<path class="st0" d="M1350.86,402.3h18.86v2.87h-22.17v-31.35h21.5v2.87h-18.19V402.3z M1350.5,387.83h16.57v2.82h-16.57V387.83z"/>
<path class="st0" d="M1377.51,405.17v-31.35h11.73c2.66,0,4.94,0.42,6.85,1.28c1.91,0.85,3.38,2.08,4.41,3.67
	c1.03,1.6,1.55,3.53,1.55,5.8c0,2.21-0.52,4.11-1.55,5.71c-1.03,1.6-2.5,2.82-4.41,3.67c-1.91,0.85-4.2,1.28-6.85,1.28h-9.9
	l1.48-1.52v11.47H1377.51z M1380.82,393.97l-1.48-1.57h9.81c3.14,0,5.52-0.69,7.14-2.06c1.63-1.37,2.44-3.3,2.44-5.78
	c0-2.51-0.81-4.45-2.44-5.82c-1.63-1.37-4.01-2.06-7.14-2.06h-9.81l1.48-1.57V393.97z M1398.92,405.17l-8.06-11.38h3.58l8.11,11.38
	H1398.92z"/>
<polygon class="st0" points="1147.14,670.23 1147.14,638.88 1150.46,638.88 1150.46,667.37 1168.01,667.37 1168.01,670.23 "/>
<path class="st0" d="M1186.6,670.5c-2.36,0-4.55-0.4-6.56-1.19c-2.02-0.79-3.76-1.91-5.24-3.36c-1.48-1.45-2.63-3.14-3.45-5.06
	c-0.82-1.93-1.23-4.04-1.23-6.34c0-2.3,0.41-4.41,1.23-6.34s1.97-3.61,3.45-5.06c1.48-1.45,3.22-2.57,5.22-3.36
	c2-0.79,4.2-1.19,6.58-1.19c2.36,0,4.54,0.4,6.54,1.19c2,0.79,3.74,1.9,5.22,3.34s2.63,3.12,3.45,5.06
	c0.82,1.94,1.23,4.06,1.23,6.36c0,2.3-0.41,4.42-1.23,6.36c-0.82,1.94-1.97,3.63-3.45,5.06c-1.48,1.43-3.22,2.55-5.22,3.34
	C1191.14,670.11,1188.96,670.5,1186.6,670.5 M1186.6,667.55c1.88,0,3.62-0.32,5.22-0.96c1.6-0.64,2.98-1.55,4.17-2.73
	c1.18-1.18,2.1-2.55,2.75-4.12c0.66-1.57,0.98-3.29,0.98-5.17c0-1.88-0.33-3.61-0.98-5.17c-0.66-1.57-1.58-2.94-2.75-4.12
	c-1.18-1.18-2.57-2.09-4.17-2.73c-1.6-0.64-3.34-0.96-5.22-0.96c-1.88,0-3.63,0.32-5.24,0.96c-1.61,0.64-3.02,1.55-4.21,2.73
	c-1.2,1.18-2.12,2.55-2.78,4.12c-0.66,1.57-0.99,3.29-0.99,5.17c0,1.85,0.33,3.57,0.99,5.15c0.66,1.58,1.58,2.96,2.78,4.14
	c1.19,1.18,2.6,2.09,4.21,2.73C1182.98,667.22,1184.72,667.55,1186.6,667.55"/>
<polygon class="st0" points="1210.48,670.23 1210.48,638.88 1213.21,638.88 1234.84,666.11 1233.41,666.11 1233.41,638.88 
	1236.68,638.88 1236.68,670.23 1233.95,670.23 1212.36,643 1213.79,643 1213.79,670.23 "/>
<path class="st0" d="M1260.64,670.5c-2.39,0-4.59-0.4-6.61-1.19c-2.01-0.79-3.76-1.9-5.24-3.34c-1.48-1.43-2.63-3.12-3.45-5.06
	c-0.82-1.94-1.23-4.06-1.23-6.36c0-2.3,0.41-4.42,1.23-6.36c0.82-1.94,1.98-3.63,3.47-5.06c1.49-1.43,3.25-2.54,5.26-3.34
	c2.02-0.79,4.22-1.19,6.61-1.19c2.39,0,4.58,0.37,6.56,1.12c1.99,0.75,3.68,1.88,5.08,3.4l-2.06,2.11
	c-1.31-1.31-2.76-2.25-4.34-2.82c-1.58-0.57-3.29-0.85-5.11-0.85c-1.94,0-3.73,0.32-5.35,0.96c-1.63,0.64-3.05,1.55-4.26,2.73
	c-1.21,1.18-2.15,2.55-2.82,4.12c-0.67,1.57-1.01,3.29-1.01,5.17c0,1.85,0.34,3.57,1.01,5.15c0.67,1.58,1.61,2.96,2.82,4.14
	c1.21,1.18,2.63,2.09,4.26,2.73c1.63,0.64,3.4,0.96,5.31,0.96c1.79,0,3.49-0.27,5.08-0.81c1.6-0.54,3.07-1.45,4.41-2.73l1.88,2.51
	c-1.49,1.32-3.24,2.31-5.24,2.98C1264.91,670.17,1262.82,670.5,1260.64,670.5 M1268.97,666.11v-11.56h3.18v11.96L1268.97,666.11z"/>
<polygon class="st0" points="1299.35,670.23 1299.35,641.75 1288.33,641.75 1288.33,638.88 1313.68,638.88 1313.68,641.75 
	1302.66,641.75 1302.66,670.23 "/>
<path class="st0" d="M1322.28,667.37h18.86v2.87h-22.17v-31.36h21.5v2.87h-18.19V667.37z M1321.92,652.9h16.57v2.82h-16.57V652.9z"
	/>
<path class="st0" d="M1348.93,670.23v-31.35h11.73c2.66,0,4.94,0.42,6.85,1.28c1.91,0.85,3.38,2.08,4.41,3.67
	c1.03,1.6,1.55,3.53,1.55,5.8c0,2.21-0.52,4.11-1.55,5.71c-1.03,1.6-2.5,2.82-4.41,3.67c-1.91,0.85-4.2,1.28-6.85,1.28h-9.9
	l1.48-1.52v11.47H1348.93z M1352.24,659.04l-1.48-1.57h9.81c3.14,0,5.52-0.69,7.14-2.06c1.63-1.37,2.44-3.3,2.44-5.78
	c0-2.51-0.81-4.45-2.44-5.82c-1.63-1.37-4.01-2.06-7.14-2.06h-9.81l1.48-1.57V659.04z M1370.34,670.23l-8.06-11.38h3.58l8.11,11.38
	H1370.34z"/>
<polygon class="st0" points="1381.31,670.23 1381.31,638.88 1384.05,638.88 1398.38,663.34 1396.95,663.34 1411.15,638.88 
	1413.88,638.88 1413.88,670.23 1410.7,670.23 1410.7,643.85 1411.46,643.85 1398.38,666.25 1396.81,666.25 1383.64,643.85 
	1384.49,643.85 1384.49,670.23 "/>
<path class="st0" d="M1160.76,724.25c-2.36,0-4.54-0.39-6.54-1.19c-2-0.79-3.73-1.9-5.2-3.34c-1.46-1.43-2.61-3.12-3.43-5.06
	c-0.82-1.94-1.23-4.06-1.23-6.36c0-2.3,0.41-4.42,1.23-6.36c0.82-1.94,1.97-3.63,3.45-5.06c1.48-1.43,3.22-2.55,5.22-3.34
	c2-0.79,4.18-1.19,6.54-1.19c2.27,0,4.4,0.38,6.41,1.14c2,0.76,3.69,1.9,5.06,3.43l-2.11,2.11c-1.28-1.31-2.7-2.26-4.26-2.84
	c-1.55-0.58-3.22-0.87-5.02-0.87c-1.88,0-3.63,0.32-5.24,0.96c-1.61,0.64-3.02,1.55-4.21,2.73c-1.2,1.18-2.13,2.55-2.8,4.12
	c-0.67,1.57-1.01,3.29-1.01,5.17c0,1.88,0.34,3.61,1.01,5.17c0.67,1.57,1.6,2.94,2.8,4.12c1.19,1.18,2.6,2.09,4.21,2.73
	c1.61,0.64,3.36,0.96,5.24,0.96c1.79,0,3.46-0.3,5.02-0.9c1.55-0.6,2.97-1.55,4.26-2.87l2.11,2.11c-1.37,1.52-3.06,2.67-5.06,3.45
	C1165.21,723.86,1163.06,724.25,1160.76,724.25"/>
<path class="st0" d="M1191.98,724.25c-4,0-7.15-1.15-9.45-3.45c-2.3-2.3-3.45-5.7-3.45-10.21v-17.96h3.31v17.83
	c0,3.7,0.84,6.44,2.51,8.2c1.67,1.76,4.03,2.64,7.08,2.64c3.08,0,5.45-0.88,7.12-2.64c1.67-1.76,2.51-4.49,2.51-8.2v-17.83h3.22
	v17.96c0,4.51-1.14,7.91-3.43,10.21C1199.12,723.1,1195.98,724.25,1191.98,724.25"/>
<path class="st0" d="M1223.47,724.25c-2.33,0-4.56-0.38-6.7-1.14c-2.14-0.76-3.79-1.74-4.95-2.93l1.3-2.55
	c1.1,1.08,2.59,1.98,4.46,2.71c1.87,0.73,3.83,1.1,5.89,1.1c1.97,0,3.58-0.25,4.81-0.74c1.24-0.49,2.15-1.16,2.73-1.99
	c0.58-0.84,0.87-1.76,0.87-2.78c0-1.22-0.35-2.21-1.05-2.96c-0.7-0.75-1.62-1.34-2.75-1.77c-1.14-0.43-2.39-0.81-3.76-1.14
	c-1.37-0.33-2.75-0.68-4.12-1.05c-1.37-0.37-2.64-0.87-3.79-1.5c-1.15-0.63-2.07-1.46-2.78-2.49c-0.7-1.03-1.05-2.38-1.05-4.05
	c0-1.55,0.41-2.98,1.23-4.28c0.82-1.3,2.08-2.34,3.79-3.14s3.88-1.19,6.54-1.19c1.76,0,3.51,0.25,5.24,0.74
	c1.73,0.49,3.22,1.17,4.48,2.04l-1.12,2.64c-1.34-0.9-2.77-1.55-4.28-1.97c-1.51-0.42-2.96-0.63-4.37-0.63
	c-1.88,0-3.43,0.25-4.66,0.76c-1.23,0.51-2.13,1.19-2.71,2.04c-0.58,0.85-0.87,1.81-0.87,2.89c0,1.22,0.35,2.21,1.05,2.96
	c0.7,0.75,1.63,1.33,2.78,1.75c1.15,0.42,2.41,0.79,3.79,1.12c1.37,0.33,2.74,0.69,4.1,1.08c1.36,0.39,2.61,0.89,3.76,1.5
	c1.15,0.61,2.08,1.43,2.78,2.44c0.7,1.02,1.05,2.35,1.05,3.99c0,1.52-0.42,2.93-1.25,4.23c-0.84,1.3-2.11,2.34-3.83,3.13
	C1228.36,723.86,1226.16,724.25,1223.47,724.25"/>
<polygon class="st0" points="1248.01,723.98 1248.01,695.5 1236.99,695.5 1236.99,692.63 1262.35,692.63 1262.35,695.5 
	1251.33,695.5 1251.33,723.98 "/>
<path class="st0" d="M1280.89,724.25c-2.36,0-4.55-0.39-6.56-1.19c-2.02-0.79-3.76-1.91-5.24-3.36c-1.48-1.45-2.63-3.14-3.45-5.06
	c-0.82-1.93-1.23-4.04-1.23-6.34c0-2.3,0.41-4.41,1.23-6.34c0.82-1.93,1.97-3.61,3.45-5.06c1.48-1.45,3.22-2.57,5.22-3.36
	c2-0.79,4.2-1.19,6.58-1.19c2.36,0,4.54,0.4,6.54,1.19c2,0.79,3.74,1.9,5.22,3.34c1.48,1.43,2.63,3.12,3.45,5.06
	c0.82,1.94,1.23,4.06,1.23,6.36c0,2.3-0.41,4.42-1.23,6.36c-0.82,1.94-1.97,3.63-3.45,5.06c-1.48,1.43-3.22,2.55-5.22,3.34
	C1285.43,723.86,1283.25,724.25,1280.89,724.25 M1280.89,721.3c1.88,0,3.62-0.32,5.22-0.96c1.6-0.64,2.98-1.55,4.17-2.73
	c1.18-1.18,2.1-2.55,2.75-4.12c0.66-1.57,0.98-3.29,0.98-5.17c0-1.88-0.33-3.61-0.98-5.17c-0.66-1.57-1.58-2.94-2.75-4.12
	c-1.18-1.18-2.57-2.09-4.17-2.73c-1.6-0.64-3.34-0.96-5.22-0.96c-1.88,0-3.63,0.32-5.24,0.96c-1.61,0.64-3.02,1.55-4.21,2.73
	c-1.2,1.18-2.12,2.55-2.78,4.12c-0.66,1.57-0.99,3.29-0.99,5.17c0,1.85,0.33,3.57,0.99,5.15c0.66,1.58,1.58,2.96,2.78,4.14
	c1.19,1.18,2.6,2.09,4.21,2.73C1277.26,720.98,1279.01,721.3,1280.89,721.3"/>
<polygon class="st0" points="1304.77,723.98 1304.77,692.63 1307.5,692.63 1321.83,717.09 1320.4,717.09 1334.6,692.63 
	1337.33,692.63 1337.33,723.98 1334.15,723.98 1334.15,697.6 1334.91,697.6 1321.83,720 1320.26,720 1307.09,697.6 1307.94,697.6 
	1307.94,723.98 "/>
<path class="st0" d="M1350.86,721.12h18.86v2.87h-22.17v-31.35h21.5v2.87h-18.19V721.12z M1350.5,706.65h16.57v2.82h-16.57V706.65z"
	/>
<path class="st0" d="M1377.51,723.98v-31.35h11.73c2.66,0,4.94,0.42,6.85,1.28c1.91,0.85,3.38,2.08,4.41,3.67
	c1.03,1.6,1.55,3.53,1.55,5.8c0,2.21-0.52,4.11-1.55,5.71c-1.03,1.6-2.5,2.82-4.41,3.67c-1.91,0.85-4.2,1.28-6.85,1.28h-9.9
	l1.48-1.52v11.47H1377.51z M1380.82,712.79l-1.48-1.57h9.81c3.14,0,5.52-0.69,7.14-2.06c1.63-1.37,2.44-3.3,2.44-5.78
	c0-2.51-0.81-4.45-2.44-5.82c-1.63-1.37-4.01-2.06-7.14-2.06h-9.81l1.48-1.57V712.79z M1398.92,723.98l-8.06-11.38h3.58l8.11,11.38
	H1398.92z"/>
<path class="st0" d="M440.72,378.28v-31.35h13.53c3.49,0,6.2,0.7,8.13,2.1c1.93,1.4,2.89,3.39,2.89,5.96c0,1.7-0.4,3.14-1.19,4.3
	c-0.79,1.16-1.87,2.05-3.22,2.64c-1.36,0.6-2.84,0.9-4.46,0.9l0.76-1.08c2,0,3.73,0.31,5.17,0.92c1.45,0.61,2.58,1.52,3.38,2.73
	c0.81,1.21,1.21,2.71,1.21,4.5c0,2.66-0.98,4.72-2.93,6.18s-4.9,2.19-8.85,2.19H440.72z M444.04,375.55h11.06
	c2.75,0,4.85-0.47,6.32-1.41c1.46-0.94,2.2-2.44,2.2-4.5c0-2.03-0.73-3.52-2.2-4.46c-1.46-0.94-3.57-1.41-6.32-1.41h-11.42v-2.73
	h10.35c2.51,0,4.46-0.48,5.85-1.43c1.39-0.95,2.08-2.37,2.08-4.26c0-1.91-0.69-3.34-2.08-4.28c-1.39-0.94-3.34-1.41-5.85-1.41h-9.99
	V375.55z"/>
<path class="st0" d="M469.48,378.28l14.33-31.35h3.27l14.33,31.35h-3.49l-13.17-29.43h1.34l-13.17,29.43H469.48z M475.12,369.9
	l0.98-2.69h18.23l0.99,2.69H475.12z"/>
<polygon class="st0" points="506.61,378.28 506.61,346.92 509.34,346.92 530.98,374.16 529.55,374.16 529.55,346.92 532.82,346.92 
	532.82,378.28 530.08,378.28 508.49,351.04 509.93,351.04 509.93,378.28 "/>
<path class="st0" d="M543.03,346.92h3.31v31.35h-3.31V346.92z M545.89,370.48l-0.13-4.03l18.99-19.53h3.81l-13.84,14.51l-1.88,2.02
	L545.89,370.48z M565.56,378.28l-13.53-15.59l2.24-2.42l15.23,18.01H565.56z"/>
<path class="st0" d="M581.59,378.28l14.33-31.35h3.27l14.33,31.35h-3.49l-13.17-29.43h1.34l-13.17,29.43H581.59z M587.24,369.9
	l0.98-2.69h18.23l0.99,2.69H587.24z"/>
<path class="st0" d="M631.89,378.55c-2.36,0-4.54-0.39-6.54-1.19c-2-0.79-3.73-1.9-5.2-3.34c-1.46-1.43-2.61-3.12-3.43-5.06
	c-0.82-1.94-1.23-4.06-1.23-6.36c0-2.3,0.41-4.42,1.23-6.36c0.82-1.94,1.97-3.63,3.45-5.06c1.48-1.43,3.22-2.55,5.22-3.34
	c2-0.79,4.18-1.19,6.54-1.19c2.27,0,4.4,0.38,6.4,1.14c2,0.76,3.69,1.9,5.06,3.43l-2.11,2.11c-1.28-1.31-2.7-2.26-4.26-2.84
	c-1.55-0.58-3.22-0.87-5.02-0.87c-1.88,0-3.63,0.32-5.24,0.96c-1.61,0.64-3.02,1.55-4.21,2.73c-1.19,1.18-2.13,2.55-2.8,4.12
	c-0.67,1.57-1.01,3.29-1.01,5.17c0,1.88,0.34,3.61,1.01,5.17c0.67,1.57,1.6,2.94,2.8,4.12c1.19,1.18,2.6,2.09,4.21,2.73
	c1.61,0.64,3.36,0.96,5.24,0.96c1.79,0,3.46-0.3,5.02-0.9c1.55-0.6,2.97-1.55,4.26-2.87l2.11,2.11c-1.37,1.52-3.06,2.67-5.06,3.45
	C636.34,378.16,634.19,378.55,631.89,378.55"/>
<path class="st0" d="M663.43,378.55c-2.36,0-4.54-0.39-6.54-1.19c-2-0.79-3.73-1.9-5.2-3.34c-1.46-1.43-2.61-3.12-3.43-5.06
	c-0.82-1.94-1.23-4.06-1.23-6.36c0-2.3,0.41-4.42,1.23-6.36c0.82-1.94,1.97-3.63,3.45-5.06c1.48-1.43,3.22-2.55,5.22-3.34
	c2-0.79,4.18-1.19,6.54-1.19c2.27,0,4.4,0.38,6.4,1.14c2,0.76,3.69,1.9,5.06,3.43l-2.11,2.11c-1.28-1.31-2.7-2.26-4.26-2.84
	c-1.55-0.58-3.22-0.87-5.02-0.87c-1.88,0-3.63,0.32-5.24,0.96c-1.61,0.64-3.02,1.55-4.21,2.73c-1.19,1.18-2.13,2.55-2.8,4.12
	c-0.67,1.57-1.01,3.29-1.01,5.17c0,1.88,0.34,3.61,1.01,5.17c0.67,1.57,1.6,2.94,2.8,4.12c1.19,1.18,2.6,2.09,4.21,2.73
	c1.61,0.64,3.36,0.96,5.24,0.96c1.79,0,3.46-0.3,5.02-0.9c1.55-0.6,2.97-1.55,4.26-2.87l2.11,2.11c-1.37,1.52-3.06,2.67-5.06,3.45
	C667.88,378.16,665.73,378.55,663.43,378.55"/>
<path class="st0" d="M695.05,378.55c-2.36,0-4.55-0.4-6.56-1.19c-2.02-0.79-3.76-1.91-5.24-3.36c-1.48-1.45-2.63-3.14-3.45-5.06
	c-0.82-1.93-1.23-4.04-1.23-6.34c0-2.3,0.41-4.41,1.23-6.34c0.82-1.93,1.97-3.61,3.45-5.06c1.48-1.45,3.22-2.57,5.22-3.36
	c2-0.79,4.19-1.19,6.58-1.19c2.36,0,4.54,0.4,6.54,1.19c2,0.79,3.74,1.9,5.22,3.34c1.48,1.43,2.63,3.12,3.45,5.06
	c0.82,1.94,1.23,4.06,1.23,6.36c0,2.3-0.41,4.42-1.23,6.36c-0.82,1.94-1.97,3.63-3.45,5.06c-1.48,1.43-3.22,2.55-5.22,3.34
	C699.59,378.15,697.41,378.55,695.05,378.55 M695.05,375.59c1.88,0,3.62-0.32,5.22-0.96c1.6-0.64,2.99-1.55,4.17-2.73
	c1.18-1.18,2.1-2.55,2.76-4.12c0.66-1.57,0.98-3.29,0.98-5.17c0-1.88-0.33-3.61-0.98-5.17c-0.66-1.57-1.58-2.94-2.76-4.12
	c-1.18-1.18-2.57-2.09-4.17-2.73c-1.6-0.64-3.34-0.96-5.22-0.96c-1.88,0-3.63,0.32-5.24,0.96c-1.61,0.64-3.02,1.55-4.21,2.73
	c-1.2,1.18-2.12,2.55-2.78,4.12c-0.66,1.57-0.99,3.29-0.99,5.17c0,1.85,0.33,3.57,0.99,5.15c0.66,1.58,1.58,2.96,2.78,4.14
	c1.19,1.18,2.6,2.09,4.21,2.73C691.42,375.27,693.17,375.59,695.05,375.59"/>
<path class="st0" d="M731.56,378.55c-4,0-7.15-1.15-9.45-3.45c-2.3-2.3-3.45-5.7-3.45-10.21v-17.96h3.32v17.83
	c0,3.7,0.84,6.44,2.51,8.2c1.67,1.76,4.03,2.64,7.08,2.64c3.07,0,5.45-0.88,7.12-2.64c1.67-1.76,2.51-4.49,2.51-8.2v-17.83h3.22
	v17.96c0,4.51-1.14,7.91-3.43,10.21C738.7,377.4,735.56,378.55,731.56,378.55"/>
<polygon class="st0" points="754.4,378.28 754.4,346.92 757.13,346.92 778.77,374.16 777.33,374.16 777.33,346.92 780.6,346.92 
	780.6,378.28 777.87,378.28 756.28,351.04 757.71,351.04 757.71,378.28 "/>
<polygon class="st0" points="796.91,378.28 796.91,349.79 785.89,349.79 785.89,346.92 811.24,346.92 811.24,349.79 800.22,349.79 
	800.22,378.28 "/>
<polygon class="st0" points="440.72,510.56 440.72,479.2 443.45,479.2 457.79,503.66 456.35,503.66 470.55,479.2 473.29,479.2 
	473.29,510.56 470.11,510.56 470.11,484.17 470.87,484.17 457.79,506.57 456.22,506.57 443.05,484.17 443.9,484.17 443.9,510.56 "/>
<path class="st0" d="M497.2,510.82c-2.36,0-4.55-0.4-6.56-1.19c-2.02-0.79-3.76-1.91-5.24-3.36c-1.48-1.45-2.63-3.14-3.45-5.06
	c-0.82-1.93-1.23-4.04-1.23-6.34c0-2.3,0.41-4.41,1.23-6.34c0.82-1.93,1.97-3.61,3.45-5.06c1.48-1.45,3.22-2.57,5.22-3.36
	c2-0.79,4.19-1.19,6.58-1.19c2.36,0,4.54,0.4,6.54,1.19c2,0.79,3.74,1.9,5.22,3.34c1.48,1.43,2.63,3.12,3.45,5.06
	c0.82,1.94,1.23,4.06,1.23,6.36c0,2.3-0.41,4.42-1.23,6.36c-0.82,1.94-1.97,3.63-3.45,5.06c-1.48,1.43-3.22,2.55-5.22,3.34
	C501.74,510.43,499.56,510.82,497.2,510.82 M497.2,507.87c1.88,0,3.62-0.32,5.22-0.96c1.6-0.64,2.99-1.55,4.17-2.73
	c1.18-1.18,2.1-2.55,2.76-4.12c0.66-1.57,0.98-3.29,0.98-5.17c0-1.88-0.33-3.61-0.98-5.17c-0.66-1.57-1.58-2.94-2.76-4.12
	c-1.18-1.18-2.57-2.09-4.17-2.73c-1.6-0.64-3.34-0.96-5.22-0.96c-1.88,0-3.63,0.32-5.24,0.96c-1.61,0.64-3.02,1.55-4.21,2.73
	c-1.2,1.18-2.12,2.55-2.78,4.12c-0.66,1.57-0.99,3.29-0.99,5.17c0,1.85,0.33,3.57,0.99,5.15c0.66,1.58,1.58,2.96,2.78,4.14
	c1.19,1.18,2.6,2.09,4.21,2.73S495.32,507.87,497.2,507.87"/>
<polygon class="st0" points="521.08,510.56 521.08,479.2 523.81,479.2 545.45,506.43 544.01,506.43 544.01,479.2 547.28,479.2 
	547.28,510.56 544.55,510.56 522.96,483.32 524.39,483.32 524.39,510.56 "/>
<path class="st0" d="M560.81,507.69h18.86v2.87h-22.17V479.2h21.5v2.87h-18.19V507.69z M560.45,493.22h16.57v2.82h-16.57V493.22z"/>
<polygon class="st0" points="594.54,510.56 594.54,498.91 595.3,500.97 582,479.2 585.53,479.2 597.23,498.33 595.34,498.33 
	607.03,479.2 610.35,479.2 597.05,500.97 597.81,498.91 597.81,510.56 "/>
<polygon class="st0" points="633.33,510.56 633.33,482.07 622.31,482.07 622.31,479.2 647.66,479.2 647.66,482.07 636.64,482.07 
	636.64,510.56 "/>
<path class="st0" d="M652.95,510.56V479.2h11.74c2.66,0,4.94,0.42,6.85,1.28c1.91,0.85,3.38,2.08,4.41,3.67
	c1.03,1.6,1.54,3.53,1.54,5.8c0,2.21-0.51,4.11-1.54,5.71c-1.03,1.6-2.5,2.82-4.41,3.67c-1.91,0.85-4.2,1.28-6.85,1.28h-9.9
	l1.48-1.52v11.47H652.95z M656.26,499.36l-1.48-1.57h9.81c3.14,0,5.52-0.69,7.14-2.06c1.63-1.37,2.44-3.3,2.44-5.78
	c0-2.51-0.81-4.45-2.44-5.82c-1.63-1.37-4.01-2.06-7.14-2.06h-9.81l1.48-1.57V499.36z M674.36,510.56l-8.06-11.38h3.58l8.11,11.38
	H674.36z"/>
<path class="st0" d="M680.31,510.56l14.33-31.35h3.27l14.33,31.35h-3.49l-13.17-29.43h1.34l-13.17,29.43H680.31z M685.96,502.18
	l0.98-2.69h18.23l0.99,2.69H685.96z"/>
<polygon class="st0" points="717.45,510.56 717.45,479.2 720.18,479.2 741.81,506.43 740.38,506.43 740.38,479.2 743.65,479.2 
	743.65,510.56 740.92,510.56 719.33,483.32 720.76,483.32 720.76,510.56 "/>
<path class="st0" d="M762.51,510.82c-2.33,0-4.56-0.38-6.7-1.14c-2.14-0.76-3.78-1.74-4.95-2.93l1.3-2.55
	c1.1,1.08,2.59,1.98,4.46,2.71c1.87,0.73,3.83,1.1,5.89,1.1c1.97,0,3.58-0.25,4.81-0.74c1.24-0.49,2.15-1.16,2.73-1.99
	c0.58-0.84,0.87-1.76,0.87-2.78c0-1.22-0.35-2.21-1.05-2.96c-0.7-0.75-1.62-1.34-2.76-1.77c-1.14-0.43-2.39-0.81-3.76-1.14
	c-1.37-0.33-2.75-0.68-4.12-1.05c-1.37-0.37-2.64-0.87-3.79-1.5c-1.15-0.63-2.08-1.46-2.78-2.49c-0.7-1.03-1.05-2.38-1.05-4.05
	c0-1.55,0.41-2.98,1.23-4.28c0.82-1.3,2.08-2.34,3.79-3.14c1.7-0.79,3.88-1.19,6.54-1.19c1.76,0,3.51,0.25,5.24,0.74
	c1.73,0.49,3.22,1.17,4.48,2.04l-1.12,2.64c-1.34-0.9-2.77-1.55-4.28-1.97c-1.51-0.42-2.96-0.63-4.37-0.63
	c-1.88,0-3.44,0.25-4.66,0.76c-1.22,0.51-2.13,1.19-2.71,2.04c-0.58,0.85-0.87,1.81-0.87,2.89c0,1.22,0.35,2.21,1.05,2.96
	c0.7,0.75,1.63,1.33,2.78,1.75c1.15,0.42,2.41,0.79,3.79,1.12c1.37,0.33,2.74,0.69,4.1,1.08s2.61,0.89,3.76,1.5
	c1.15,0.61,2.07,1.43,2.78,2.44c0.7,1.02,1.05,2.35,1.05,3.99c0,1.52-0.42,2.93-1.25,4.23c-0.84,1.3-2.11,2.34-3.83,3.14
	C767.4,510.43,765.2,510.82,762.51,510.82"/>
<path class="st0" d="M784.72,510.56h-3.31V479.2h21.5v2.87h-18.19V510.56z M784.36,494.39h16.57v2.87h-16.57V494.39z"/>
<path class="st0" d="M813.08,507.69h18.86v2.87h-22.17V479.2h21.5v2.87h-18.19V507.69z M812.72,493.22h16.57v2.82h-16.57V493.22z"/>
<path class="st0" d="M839.73,510.56V479.2h11.74c2.66,0,4.94,0.42,6.85,1.28c1.91,0.85,3.38,2.08,4.41,3.67
	c1.03,1.6,1.54,3.53,1.54,5.8c0,2.21-0.51,4.11-1.54,5.71c-1.03,1.6-2.5,2.82-4.41,3.67c-1.91,0.85-4.2,1.28-6.85,1.28h-9.9
	l1.48-1.52v11.47H839.73z M843.04,499.36l-1.48-1.57h9.81c3.14,0,5.52-0.69,7.14-2.06c1.63-1.37,2.44-3.3,2.44-5.78
	c0-2.51-0.81-4.45-2.44-5.82c-1.63-1.37-4.01-2.06-7.14-2.06h-9.81l1.48-1.57V499.36z M861.14,510.56l-8.06-11.38h3.58l8.11,11.38
	H861.14z"/>
<rect x="19.66" y="70.96" class="st0" width="2" height="71.67"/>
<rect x="311.66" y="362.85" class="st2" width="92.75" height="2"/>
<rect x="1248.8" y="435.49" class="st2" width="2" height="173.9"/>
<path class="st2" d="M291.48,302.69l-1.8-0.86l24.83-51.91c5.91-12.35,18.57-20.33,32.26-20.33h57.03v2h-57.03
	c-12.92,0-24.88,7.53-30.45,19.19L291.48,302.69z"/>
<path class="st2" d="M404.8,497.51h-58.03c-13.69,0-26.35-7.98-32.26-20.33l-24.84-51.91l1.8-0.86l24.84,51.91
	c5.58,11.66,17.53,19.19,30.45,19.19h58.03V497.51z"/>
<polygon class="st0" points="20.66,145.53 8.24,131.74 9.73,130.4 20.66,142.54 31.6,130.4 33.09,131.74 "/>
<rect x="19.66" y="248.26" class="st2" width="2" height="71.67"/>
<polygon class="st2" points="20.66,322.83 8.24,309.04 9.73,307.7 20.66,319.84 31.6,307.7 33.09,309.04 "/>
<polygon class="st2" points="392.24,243.02 390.9,241.53 403.04,230.59 390.9,219.66 392.24,218.17 406.03,230.59 "/>
<polygon class="st2" points="392.24,376.27 390.9,374.78 403.04,363.85 390.9,352.91 392.24,351.42 406.03,363.85 "/>
<polygon class="st2" points="392.24,508.93 390.9,507.44 403.04,496.51 390.9,485.57 392.24,484.08 406.03,496.51 "/>
<polygon class="st2" points="1249.8,612.14 1237.37,598.35 1238.86,597.01 1249.8,609.15 1260.73,597.01 1262.22,598.35 "/>
<rect x="844.37" y="362.55" class="st2" width="233.88" height="2"/>
<path class="st2" d="M1041.15,497.8h-140.5v-2h140.5c12.92,0,24.88-7.53,30.45-19.19l25.6-53.5l1.8,0.86l-25.6,53.5
	C1067.5,489.82,1054.84,497.8,1041.15,497.8"/>
<path class="st2" d="M1097.07,304.32l-25.47-53.24c-5.58-11.66-17.53-19.19-30.45-19.19h-43.48v-2h43.48
	c13.69,0,26.35,7.98,32.26,20.33l25.47,53.24L1097.07,304.32z"/>
<polygon class="st2" points="1066.84,375.97 1065.5,374.49 1077.64,363.55 1065.5,352.61 1066.84,351.13 1080.63,363.55 "/>
<polygon class="st2" points="1099.27,306.41 1082.12,299.33 1082.88,297.48 1097.99,303.72 1102.62,288.05 1104.54,288.62 "/>
<polygon class="st2" points="1104.25,438.61 1097.98,423.52 1083.63,431.32 1082.67,429.57 1098.98,420.7 1106.1,437.84 "/>
</svg>
