<svg id="Слой_1" xmlns="http://www.w3.org/2000/svg" viewBox="0 0 1925.88 561.19"><defs><style>.cls-1{fill:#4885ff;}.cls-2{fill:#0035a0;}.cls-3{fill:#c2ceef;}</style></defs><path class="cls-1" d="M256.91,560.27a16.28,16.28,0,0,1-6.7,1.2c-7.15,0-12.53-4.52-12.53-12.83,0-7.95,5.38-13.33,13.25-13.33a13.63,13.63,0,0,1,6,1.13l-.79,2.67a12,12,0,0,0-5.12-1.05c-5.95,0-9.9,3.8-9.9,10.46,0,6.21,3.58,10.2,9.75,10.2a13.13,13.13,0,0,0,5.35-1.05Z" transform="translate(-236.62 -534.37)"></path><rect class="cls-1" x="25.22" width="3.31" height="26.72"></rect><path class="cls-1" d="M275.35,537.76a2.05,2.05,0,0,1-4.1,0,2,2,0,0,1,2.07-2.07,2,2,0,0,1,2,2.07m-3.68,5.12H275v18.21h-3.31Z" transform="translate(-236.62 -534.37)"></path><path class="cls-1" d="M283.26,552.59c.07,4.48,2.93,6.32,6.24,6.32a11.93,11.93,0,0,0,5.05-.94l.56,2.37a14.67,14.67,0,0,1-6.06,1.13c-5.6,0-8.95-3.69-8.95-9.18s3.23-9.83,8.54-9.83c5.95,0,7.53,5.23,7.53,8.58a11.88,11.88,0,0,1-.12,1.55Zm9.71-2.37c0-2.11-.87-5.39-4.59-5.39-3.35,0-4.82,3.09-5.09,5.39Z" transform="translate(-236.62 -534.37)"></path><path class="cls-1" d="M301.21,547.81c0-1.89,0-3.43-.15-4.93H304l.18,3h.08a6.7,6.7,0,0,1,6-3.43c2.52,0,6.44,1.51,6.44,7.76v10.87H313.4v-10.5c0-2.93-1.09-5.38-4.21-5.38a4.7,4.7,0,0,0-4.44,3.39,4.75,4.75,0,0,0-.23,1.54v11h-3.31Z" transform="translate(-236.62 -534.37)"></path><path class="cls-1" d="M326.88,537.64v5.24h4.74v2.52h-4.74v9.82c0,2.26.64,3.54,2.48,3.54a7,7,0,0,0,1.92-.23l.15,2.49a8.15,8.15,0,0,1-2.93.45,4.6,4.6,0,0,1-3.58-1.39c-.94-1-1.28-2.6-1.28-4.75V545.4h-2.82v-2.52h2.82v-4.37Z" transform="translate(-236.62 -534.37)"></path><path class="cls-1" d="M335.83,557.71A8.69,8.69,0,0,0,340.2,559c2.41,0,3.54-1.2,3.54-2.71s-.94-2.44-3.39-3.35c-3.27-1.16-4.82-3-4.82-5.15,0-2.94,2.37-5.35,6.29-5.35a9.14,9.14,0,0,1,4.48,1.13l-.83,2.41a7.12,7.12,0,0,0-3.73-1c-1.95,0-3,1.13-3,2.48,0,1.51,1.09,2.18,3.46,3.09,3.16,1.2,4.78,2.78,4.78,5.49,0,3.2-2.49,5.46-6.82,5.46a10.4,10.4,0,0,1-5.11-1.24Z" transform="translate(-236.62 -534.37)"></path><path class="cls-1" d="M468.54,548.15c0,8.73-5.3,13.36-11.78,13.36-6.7,0-11.4-5.2-11.4-12.88,0-8,5-13.32,11.78-13.32s11.4,5.31,11.4,12.84m-19.68.41c0,5.42,2.93,10.27,8.09,10.27s8.13-4.78,8.13-10.53c0-5-2.63-10.32-8.09-10.32s-8.13,5-8.13,10.58" transform="translate(-236.62 -534.37)"></path><path class="cls-1" d="M489,556.12c0,1.89,0,3.54.15,5h-2.94l-.18-3h-.08a6.84,6.84,0,0,1-6,3.39c-2.86,0-6.29-1.58-6.29-8V542.88h3.32V553c0,3.47,1.05,5.8,4.06,5.8a4.8,4.8,0,0,0,4.37-3,5,5,0,0,0,.3-1.7V542.88H489Z" transform="translate(-236.62 -534.37)"></path><path class="cls-1" d="M499.4,537.64v5.24h4.75v2.52H499.4v9.82c0,2.26.64,3.54,2.49,3.54a7.11,7.11,0,0,0,1.92-.23L504,561a8.22,8.22,0,0,1-2.94.45,4.59,4.59,0,0,1-3.57-1.39c-.94-1-1.28-2.6-1.28-4.75V545.4h-2.83v-2.52h2.83v-4.37Z" transform="translate(-236.62 -534.37)"></path><path class="cls-1" d="M524.28,542.88c-.07,1.31-.15,2.78-.15,5v10.58c0,4.18-.82,6.74-2.59,8.32a9.69,9.69,0,0,1-6.63,2.18,11.76,11.76,0,0,1-6.06-1.51l.83-2.52a10.2,10.2,0,0,0,5.34,1.43c3.39,0,5.88-1.77,5.88-6.36v-2h-.08a6.51,6.51,0,0,1-5.8,3c-4.51,0-7.75-3.84-7.75-8.88,0-6.18,4-9.68,8.21-9.68a6.06,6.06,0,0,1,5.68,3.16h.08l.15-2.74Zm-3.42,7.19a4.85,4.85,0,0,0-4.82-5c-3.16,0-5.42,2.67-5.42,6.89,0,3.57,1.81,6.55,5.38,6.55a4.85,4.85,0,0,0,4.6-3.39,6.07,6.07,0,0,0,.26-1.77Z" transform="translate(-236.62 -534.37)"></path><path class="cls-1" d="M547.05,551.83c0,6.74-4.66,9.68-9.07,9.68-4.93,0-8.73-3.62-8.73-9.37,0-6.1,4-9.68,9-9.68,5.23,0,8.77,3.8,8.77,9.37M532.6,552c0,4,2.3,7,5.53,7s5.54-3,5.54-7.07c0-3.09-1.55-7-5.46-7s-5.61,3.61-5.61,7.07" transform="translate(-236.62 -534.37)"></path><path class="cls-1" d="M555.86,537.76a2.05,2.05,0,0,1-4.1,0,2,2,0,0,1,2.07-2.07,2,2,0,0,1,2,2.07m-3.69,5.12h3.31v18.21h-3.31Z" transform="translate(-236.62 -534.37)"></path><path class="cls-1" d="M561.92,547.81c0-1.88,0-3.43-.15-4.93h2.93l.19,3H565a6.7,6.7,0,0,1,6-3.43c2.52,0,6.44,1.51,6.44,7.76v10.87h-3.32v-10.5c0-2.93-1.09-5.38-4.21-5.38a4.69,4.69,0,0,0-4.44,3.39,4.75,4.75,0,0,0-.23,1.54v11h-3.31Z" transform="translate(-236.62 -534.37)"></path><path class="cls-1" d="M599.44,542.88c-.07,1.31-.15,2.78-.15,5v10.58c0,4.18-.83,6.74-2.59,8.32a9.69,9.69,0,0,1-6.63,2.18,11.76,11.76,0,0,1-6.06-1.51l.83-2.52a10.2,10.2,0,0,0,5.34,1.43c3.39,0,5.88-1.77,5.88-6.36v-2H596a6.51,6.51,0,0,1-5.8,3c-4.51,0-7.75-3.84-7.75-8.88,0-6.18,4-9.68,8.21-9.68a6.06,6.06,0,0,1,5.68,3.16h.07l.16-2.74ZM596,550.07a4.85,4.85,0,0,0-4.82-5c-3.16,0-5.42,2.67-5.42,6.89,0,3.57,1.81,6.55,5.38,6.55a4.83,4.83,0,0,0,4.59-3.39,5.77,5.77,0,0,0,.27-1.77Z" transform="translate(-236.62 -534.37)"></path><path class="cls-1" d="M614.76,536a37.24,37.24,0,0,1,6.29-.49c3.23,0,5.6.75,7.11,2.1a6.84,6.84,0,0,1,2.22,5.31,7.47,7.47,0,0,1-2,5.42c-1.73,1.85-4.55,2.79-7.75,2.79a11.24,11.24,0,0,1-2.64-.23v10.16h-3.27ZM618,548.26a11,11,0,0,0,2.71.26c4,0,6.37-1.92,6.37-5.42s-2.38-5-6-5a13.75,13.75,0,0,0-3.09.27Z" transform="translate(-236.62 -534.37)"></path><path class="cls-1" d="M644.72,561.09l-.26-2.29h-.12a6.77,6.77,0,0,1-5.57,2.71,5.19,5.19,0,0,1-5.57-5.23c0-4.41,3.92-6.82,11-6.78v-.38c0-1.5-.42-4.21-4.15-4.21a9.15,9.15,0,0,0-4.74,1.35l-.75-2.18a11.3,11.3,0,0,1,6-1.62c5.57,0,6.93,3.8,6.93,7.45v6.82a26.18,26.18,0,0,0,.3,4.36Zm-.49-9.29c-3.61-.08-7.72.56-7.72,4.1a2.93,2.93,0,0,0,3.13,3.16,4.51,4.51,0,0,0,4.4-3,3.24,3.24,0,0,0,.19-1Z" transform="translate(-236.62 -534.37)"></path><path class="cls-1" d="M654.62,542.88l4,10.76c.41,1.21.86,2.64,1.16,3.73h.08c.34-1.09.72-2.49,1.17-3.8l3.61-10.69h3.5l-5,13c-2.37,6.25-4,9.45-6.25,11.41a8.89,8.89,0,0,1-4.06,2.14l-.83-2.78a8.85,8.85,0,0,0,2.9-1.62,10.12,10.12,0,0,0,2.78-3.69,2.21,2.21,0,0,0,.27-.79,3,3,0,0,0-.23-.87L651,542.88Z" transform="translate(-236.62 -534.37)"></path><path class="cls-1" d="M672.08,547.81c0-1.88,0-3.43-.15-4.93h2.9l.15,2.93h.11a6.29,6.29,0,0,1,5.72-3.35,5.39,5.39,0,0,1,5.16,3.65h.08a7.47,7.47,0,0,1,2-2.37,6.19,6.19,0,0,1,4-1.28c2.4,0,6,1.58,6,7.91v10.72h-3.24V550.78c0-3.5-1.28-5.61-4-5.61a4.29,4.29,0,0,0-3.91,3,5.55,5.55,0,0,0-.27,1.66v11.25h-3.23V550.18c0-2.9-1.28-5-3.81-5a4.92,4.92,0,0,0-4.36,4.93v11h-3.24Z" transform="translate(-236.62 -534.37)"></path><path class="cls-1" d="M706.26,552.59c.07,4.48,2.93,6.32,6.24,6.32a12,12,0,0,0,5-.94l.56,2.37a14.67,14.67,0,0,1-6.06,1.13c-5.61,0-9-3.69-9-9.18s3.24-9.83,8.55-9.83c5.94,0,7.53,5.23,7.53,8.58a11.88,11.88,0,0,1-.12,1.55Zm9.71-2.37c0-2.11-.87-5.39-4.6-5.39-3.35,0-4.81,3.09-5.08,5.39Z" transform="translate(-236.62 -534.37)"></path><path class="cls-1" d="M724.21,547.81c0-1.88,0-3.43-.15-4.93H727l.19,3h.08a6.7,6.7,0,0,1,6-3.43c2.52,0,6.44,1.51,6.44,7.76v10.87H736.4v-10.5c0-2.93-1.09-5.38-4.21-5.38a4.69,4.69,0,0,0-4.44,3.39,4.75,4.75,0,0,0-.23,1.54v11h-3.31Z" transform="translate(-236.62 -534.37)"></path><path class="cls-1" d="M749.88,537.64v5.24h4.74v2.52h-4.74v9.82c0,2.26.64,3.54,2.48,3.54a7,7,0,0,0,1.92-.23l.15,2.49a8.22,8.22,0,0,1-2.94.45,4.59,4.59,0,0,1-3.57-1.39c-.94-1-1.28-2.6-1.28-4.75V545.4h-2.82v-2.52h2.82v-4.37Z" transform="translate(-236.62 -534.37)"></path><rect class="cls-1" x="617.36" y="1.35" width="3.28" height="25.37"></rect><path class="cls-1" d="M864.18,547.81c0-1.88,0-3.43-.15-4.93H867l.18,3h.08a6.7,6.7,0,0,1,6-3.43c2.52,0,6.44,1.51,6.44,7.76v10.87h-3.31v-10.5c0-2.93-1.1-5.38-4.22-5.38a4.7,4.7,0,0,0-4.44,3.39,4.75,4.75,0,0,0-.23,1.54v11h-3.31Z" transform="translate(-236.62 -534.37)"></path><path class="cls-1" d="M899,560.42a12.29,12.29,0,0,1-5.24,1.05c-5.49,0-9.07-3.73-9.07-9.3s3.84-9.67,9.79-9.67a11.07,11.07,0,0,1,4.59.94l-.75,2.56a7.68,7.68,0,0,0-3.84-.87c-4.18,0-6.44,3.09-6.44,6.89,0,4.22,2.71,6.81,6.33,6.81a9.31,9.31,0,0,0,4.06-.9Z" transform="translate(-236.62 -534.37)"></path><path class="cls-1" d="M920.07,551.83c0,6.74-4.66,9.68-9.07,9.68-4.93,0-8.73-3.62-8.73-9.37,0-6.1,4-9.68,9-9.68,5.23,0,8.77,3.8,8.77,9.37m-14.45.19c0,4,2.3,7,5.53,7s5.53-3,5.53-7.07c0-3.09-1.54-7-5.45-7s-5.61,3.61-5.61,7.07" transform="translate(-236.62 -534.37)"></path><path class="cls-1" d="M925.19,547.81c0-1.88,0-3.43-.15-4.93h2.9l.15,2.93h.11a6.29,6.29,0,0,1,5.72-3.35,5.39,5.39,0,0,1,5.16,3.65h.07a7.62,7.62,0,0,1,2-2.37,6.18,6.18,0,0,1,4-1.28c2.41,0,6,1.58,6,7.91v10.72H948V550.78c0-3.5-1.28-5.61-4-5.61a4.29,4.29,0,0,0-3.91,3,5.25,5.25,0,0,0-.27,1.66v11.25H936.6V550.18c0-2.9-1.28-5-3.81-5a4.92,4.92,0,0,0-4.36,4.93v11h-3.24Z" transform="translate(-236.62 -534.37)"></path><path class="cls-1" d="M961.21,537.76a2.05,2.05,0,0,1-4.1,0,2,2,0,0,1,2.07-2.07,2,2,0,0,1,2,2.07m-3.69,5.12h3.31v18.21h-3.31Z" transform="translate(-236.62 -534.37)"></path><path class="cls-1" d="M967.27,547.81c0-1.88,0-3.43-.15-4.93h2.93l.19,3h.08a6.7,6.7,0,0,1,6-3.43c2.52,0,6.44,1.51,6.44,7.76v10.87h-3.32v-10.5c0-2.93-1.09-5.38-4.21-5.38a4.7,4.7,0,0,0-4.44,3.39,4.75,4.75,0,0,0-.23,1.54v11h-3.31Z" transform="translate(-236.62 -534.37)"></path><path class="cls-1" d="M1004.79,542.88c-.07,1.31-.15,2.78-.15,5v10.58c0,4.18-.83,6.74-2.59,8.32a9.69,9.69,0,0,1-6.63,2.18,11.76,11.76,0,0,1-6.06-1.51l.83-2.52a10.2,10.2,0,0,0,5.34,1.43c3.39,0,5.88-1.77,5.88-6.36v-2h-.08a6.51,6.51,0,0,1-5.8,3c-4.51,0-7.75-3.84-7.75-8.88,0-6.18,4-9.68,8.21-9.68a6.06,6.06,0,0,1,5.68,3.16h.07l.15-2.74Zm-3.42,7.19a4.85,4.85,0,0,0-4.82-5c-3.16,0-5.42,2.67-5.42,6.89,0,3.57,1.81,6.55,5.38,6.55a4.84,4.84,0,0,0,4.59-3.39,5.77,5.77,0,0,0,.27-1.77Z" transform="translate(-236.62 -534.37)"></path><path class="cls-1" d="M1020.11,536a37.24,37.24,0,0,1,6.29-.49c3.23,0,5.6.75,7.11,2.1a6.84,6.84,0,0,1,2.22,5.31,7.47,7.47,0,0,1-2,5.42c-1.73,1.85-4.55,2.79-7.75,2.79a11.24,11.24,0,0,1-2.64-.23v10.16h-3.27Zm3.27,12.23a11,11,0,0,0,2.71.26c4,0,6.37-1.92,6.37-5.42s-2.38-5-6-5a13.75,13.75,0,0,0-3.09.27Z" transform="translate(-236.62 -534.37)"></path><path class="cls-1" d="M1050.07,561.09l-.26-2.29h-.12a6.77,6.77,0,0,1-5.57,2.71,5.19,5.19,0,0,1-5.57-5.23c0-4.41,3.92-6.82,11-6.78v-.38c0-1.5-.42-4.21-4.15-4.21a9.15,9.15,0,0,0-4.74,1.35l-.75-2.18a11.3,11.3,0,0,1,6-1.62c5.57,0,6.93,3.8,6.93,7.45v6.82a25.15,25.15,0,0,0,.3,4.36Zm-.49-9.29c-3.61-.08-7.72.56-7.72,4.1a2.93,2.93,0,0,0,3.13,3.16,4.51,4.51,0,0,0,4.4-3,3.24,3.24,0,0,0,.19-1Z" transform="translate(-236.62 -534.37)"></path><path class="cls-1" d="M1060,542.88l4,10.76c.41,1.21.86,2.64,1.16,3.73h.08c.34-1.09.71-2.49,1.17-3.8l3.61-10.69h3.5l-5,13c-2.37,6.25-4,9.45-6.25,11.41a8.89,8.89,0,0,1-4.06,2.14l-.83-2.78a8.85,8.85,0,0,0,2.9-1.62,10.12,10.12,0,0,0,2.78-3.69,2.43,2.43,0,0,0,.27-.79,3,3,0,0,0-.23-.87l-6.74-16.78Z" transform="translate(-236.62 -534.37)"></path><path class="cls-1" d="M1077.43,547.81c0-1.88,0-3.43-.15-4.93h2.9l.15,2.93h.11a6.29,6.29,0,0,1,5.72-3.35,5.39,5.39,0,0,1,5.16,3.65h.08a7.47,7.47,0,0,1,2-2.37,6.19,6.19,0,0,1,4-1.28c2.4,0,6,1.58,6,7.91v10.72h-3.24V550.78c0-3.5-1.28-5.61-4-5.61a4.29,4.29,0,0,0-3.91,3,5.55,5.55,0,0,0-.27,1.66v11.25h-3.23V550.18c0-2.9-1.28-5-3.81-5a4.92,4.92,0,0,0-4.36,4.93v11h-3.24Z" transform="translate(-236.62 -534.37)"></path><path class="cls-1" d="M1111.61,552.59c.07,4.48,2.93,6.32,6.24,6.32a12,12,0,0,0,5.05-.94l.56,2.37a14.67,14.67,0,0,1-6.06,1.13c-5.61,0-9-3.69-9-9.18s3.24-9.83,8.55-9.83c5.94,0,7.53,5.23,7.53,8.58a11.88,11.88,0,0,1-.12,1.55Zm9.71-2.37c0-2.11-.87-5.39-4.6-5.39-3.35,0-4.81,3.09-5.08,5.39Z" transform="translate(-236.62 -534.37)"></path><path class="cls-1" d="M1129.56,547.81c0-1.88,0-3.43-.15-4.93h2.93l.19,3h.08a6.7,6.7,0,0,1,6-3.43c2.52,0,6.43,1.51,6.43,7.76v10.87h-3.31v-10.5c0-2.93-1.09-5.38-4.21-5.38a4.69,4.69,0,0,0-4.44,3.39,4.5,4.5,0,0,0-.23,1.54v11h-3.31Z" transform="translate(-236.62 -534.37)"></path><path class="cls-1" d="M1155.23,537.64v5.24H1160v2.52h-4.74v9.82c0,2.26.64,3.54,2.48,3.54a7,7,0,0,0,1.92-.23l.15,2.49a8.22,8.22,0,0,1-2.94.45,4.59,4.59,0,0,1-3.57-1.39c-.94-1-1.28-2.6-1.28-4.75V545.4h-2.82v-2.52H1152v-4.37Z" transform="translate(-236.62 -534.37)"></path><rect class="cls-1" x="1037.99" y="1.35" width="3.28" height="25.37"></rect><path class="cls-1" d="M1284.81,547.81c0-1.89,0-3.43-.15-4.93h2.94l.18,3h.08a6.7,6.7,0,0,1,6-3.43c2.52,0,6.44,1.51,6.44,7.76v10.87H1297v-10.5c0-2.93-1.09-5.38-4.21-5.38a4.7,4.7,0,0,0-4.44,3.39,4.75,4.75,0,0,0-.23,1.54v11h-3.31Z" transform="translate(-236.62 -534.37)"></path><path class="cls-1" d="M1310.48,537.64v5.24h4.74v2.52h-4.74v9.82c0,2.26.64,3.54,2.48,3.54a7,7,0,0,0,1.92-.23L1315,561a8.15,8.15,0,0,1-2.93.45,4.6,4.6,0,0,1-3.58-1.39c-.94-1-1.28-2.6-1.28-4.75V545.4h-2.82v-2.52h2.82v-4.37Z" transform="translate(-236.62 -534.37)"></path><path class="cls-1" d="M1321.51,552.59c.07,4.48,2.93,6.32,6.24,6.32a11.93,11.93,0,0,0,5-.94l.56,2.37a14.67,14.67,0,0,1-6.06,1.13c-5.61,0-9-3.69-9-9.18s3.24-9.83,8.55-9.83c5.95,0,7.53,5.23,7.53,8.58a11.88,11.88,0,0,1-.12,1.55Zm9.71-2.37c0-2.11-.87-5.39-4.6-5.39-3.34,0-4.81,3.09-5.08,5.39Z" transform="translate(-236.62 -534.37)"></path><path class="cls-1" d="M1339.46,548.56c0-2.15,0-4-.15-5.68h2.9l.11,3.57h.15a5.47,5.47,0,0,1,5-4,3.35,3.35,0,0,1,.94.12v3.12a4.7,4.7,0,0,0-1.13-.11c-2.33,0-4,1.77-4.44,4.25a9.92,9.92,0,0,0-.15,1.54v9.71h-3.27Z" transform="translate(-236.62 -534.37)"></path><path class="cls-1" d="M1354.17,552.59c.08,4.48,2.94,6.32,6.25,6.32a11.91,11.91,0,0,0,5-.94l.57,2.37a14.71,14.71,0,0,1-6.06,1.13c-5.61,0-9-3.69-9-9.18s3.24-9.83,8.55-9.83c5.94,0,7.52,5.23,7.52,8.58a12.26,12.26,0,0,1-.11,1.55Zm9.72-2.37c0-2.11-.87-5.39-4.6-5.39-3.35,0-4.82,3.09-5.08,5.39Z" transform="translate(-236.62 -534.37)"></path><path class="cls-1" d="M1371.67,557.71A8.69,8.69,0,0,0,1376,559c2.41,0,3.54-1.2,3.54-2.71s-.94-2.44-3.39-3.35c-3.27-1.16-4.82-3-4.82-5.15,0-2.94,2.37-5.35,6.29-5.35a9.14,9.14,0,0,1,4.48,1.13l-.83,2.41a7.12,7.12,0,0,0-3.73-1c-1.95,0-3,1.13-3,2.48,0,1.51,1.09,2.18,3.46,3.09,3.16,1.2,4.78,2.78,4.78,5.49,0,3.2-2.49,5.46-6.81,5.46a10.41,10.41,0,0,1-5.12-1.24Z" transform="translate(-236.62 -534.37)"></path><path class="cls-1" d="M1392,537.64v5.24h4.74v2.52H1392v9.82c0,2.26.64,3.54,2.49,3.54a7,7,0,0,0,1.91-.23l.16,2.49a8.22,8.22,0,0,1-2.94.45,4.61,4.61,0,0,1-3.58-1.39c-.94-1-1.28-2.6-1.28-4.75V545.4h-2.82v-2.52h2.82v-4.37Z" transform="translate(-236.62 -534.37)"></path><path class="cls-1" d="M1410.4,536.06a34.11,34.11,0,0,1,6.29-.52c3.5,0,5.76.64,7.34,2.07a6.31,6.31,0,0,1,2,4.81,6.67,6.67,0,0,1-4.78,6.48V549c2,.68,3.13,2.49,3.73,5.12a40.1,40.1,0,0,0,2,7h-3.39a32.5,32.5,0,0,1-1.7-6.06c-.75-3.5-2.1-4.81-5.08-4.93h-3.08v11h-3.28Zm3.28,11.56H1417c3.5,0,5.72-1.92,5.72-4.82,0-3.27-2.37-4.7-5.84-4.74a13.41,13.41,0,0,0-3.23.3Z" transform="translate(-236.62 -534.37)"></path><path class="cls-1" d="M1442,561.09l-.27-2.29h-.11a6.77,6.77,0,0,1-5.57,2.71,5.19,5.19,0,0,1-5.57-5.23c0-4.41,3.92-6.82,11-6.78v-.38c0-1.5-.41-4.21-4.14-4.21a9.15,9.15,0,0,0-4.74,1.35l-.75-2.18a11.28,11.28,0,0,1,6-1.62c5.57,0,6.93,3.8,6.93,7.45v6.82a25.15,25.15,0,0,0,.3,4.36Zm-.49-9.29c-3.61-.08-7.72.56-7.72,4.1a2.93,2.93,0,0,0,3.13,3.16,4.52,4.52,0,0,0,4.4-3,3.53,3.53,0,0,0,.19-1Z" transform="translate(-236.62 -534.37)"></path><path class="cls-1" d="M1454.85,537.64v5.24h4.74v2.52h-4.74v9.82c0,2.26.64,3.54,2.49,3.54a7,7,0,0,0,1.91-.23l.16,2.49a8.22,8.22,0,0,1-2.94.45,4.61,4.61,0,0,1-3.58-1.39c-.94-1-1.28-2.6-1.28-4.75V545.4h-2.82v-2.52h2.82v-4.37Z" transform="translate(-236.62 -534.37)"></path><path class="cls-1" d="M1465.88,552.59c.08,4.48,2.94,6.32,6.25,6.32a11.91,11.91,0,0,0,5-.94l.56,2.37a14.65,14.65,0,0,1-6,1.13c-5.61,0-9-3.69-9-9.18s3.24-9.83,8.54-9.83c6,0,7.53,5.23,7.53,8.58a14.52,14.52,0,0,1-.11,1.55Zm9.71-2.37c0-2.11-.87-5.39-4.59-5.39-3.35,0-4.82,3.09-5.08,5.39Z" transform="translate(-236.62 -534.37)"></path><path class="cls-1" d="M1626.16,536a37.2,37.2,0,0,1,6.28-.49c3.24,0,5.61.75,7.12,2.1a6.84,6.84,0,0,1,2.22,5.31,7.47,7.47,0,0,1-2,5.42c-1.73,1.85-4.55,2.79-7.75,2.79a11.24,11.24,0,0,1-2.64-.23v10.16h-3.27Zm3.27,12.23a11,11,0,0,0,2.71.26c3.95,0,6.36-1.92,6.36-5.42s-2.37-5-6-5a13.75,13.75,0,0,0-3.09.27Z" transform="translate(-236.62 -534.37)"></path><path class="cls-1" d="M1656.12,561.09l-.27-2.29h-.11a6.79,6.79,0,0,1-5.57,2.71,5.19,5.19,0,0,1-5.57-5.23c0-4.41,3.91-6.82,11-6.78v-.38c0-1.5-.41-4.21-4.14-4.21a9.15,9.15,0,0,0-4.74,1.35l-.75-2.18a11.28,11.28,0,0,1,6-1.62c5.57,0,6.93,3.8,6.93,7.46v6.81a25.15,25.15,0,0,0,.3,4.36Zm-.49-9.29c-3.62-.08-7.72.56-7.72,4.1a2.93,2.93,0,0,0,3.13,3.16,4.52,4.52,0,0,0,4.4-3,3.53,3.53,0,0,0,.19-1Z" transform="translate(-236.62 -534.37)"></path><path class="cls-1" d="M1666,542.88l4,10.76c.42,1.21.87,2.64,1.17,3.73h.08c.34-1.09.71-2.49,1.16-3.8l3.62-10.69h3.5l-5,13c-2.37,6.25-4,9.45-6.25,11.41a9,9,0,0,1-4.06,2.14l-.83-2.78a8.85,8.85,0,0,0,2.9-1.62,10.12,10.12,0,0,0,2.78-3.69,2.43,2.43,0,0,0,.27-.79,3,3,0,0,0-.23-.87l-6.74-16.78Z" transform="translate(-236.62 -534.37)"></path><path class="cls-1" d="M1683.48,547.81c0-1.88,0-3.43-.15-4.93h2.9l.15,2.93h.11a6.29,6.29,0,0,1,5.72-3.35,5.4,5.4,0,0,1,5.16,3.65h.07a7.73,7.73,0,0,1,2-2.37,6.23,6.23,0,0,1,4-1.28c2.41,0,6,1.58,6,7.91v10.72h-3.24V550.78c0-3.5-1.28-5.61-4-5.61a4.31,4.31,0,0,0-3.92,3,5.56,5.56,0,0,0-.26,1.66v11.25h-3.24V550.18c0-2.9-1.28-5-3.8-5a4.53,4.53,0,0,0-4.1,3.32,4.46,4.46,0,0,0-.27,1.61v11h-3.23Z" transform="translate(-236.62 -534.37)"></path><path class="cls-1" d="M1717.65,552.59c.08,4.48,2.94,6.32,6.25,6.32a11.91,11.91,0,0,0,5-.94l.57,2.37a14.71,14.71,0,0,1-6.06,1.13c-5.61,0-9-3.69-9-9.18s3.24-9.83,8.55-9.83c5.94,0,7.52,5.23,7.52,8.58a12.26,12.26,0,0,1-.11,1.55Zm9.71-2.37c0-2.11-.86-5.39-4.59-5.39-3.35,0-4.82,3.09-5.08,5.39Z" transform="translate(-236.62 -534.37)"></path><path class="cls-1" d="M1735.6,547.81c0-1.88,0-3.43-.15-4.93h2.94l.19,3h.07a6.72,6.72,0,0,1,6-3.43c2.52,0,6.43,1.51,6.43,7.76v10.87h-3.31v-10.5c0-2.93-1.09-5.38-4.22-5.38a4.71,4.71,0,0,0-4.44,3.39,4.77,4.77,0,0,0-.22,1.54v11h-3.32Z" transform="translate(-236.62 -534.37)"></path><path class="cls-1" d="M1761.27,537.65v5.23H1766v2.52h-4.75v9.82c0,2.26.64,3.54,2.49,3.54a7.11,7.11,0,0,0,1.92-.23l.15,2.49a8.22,8.22,0,0,1-2.94.45,4.59,4.59,0,0,1-3.57-1.39c-.94-1-1.28-2.6-1.28-4.74V545.4h-2.83v-2.52H1758v-4.37Z" transform="translate(-236.62 -534.37)"></path><path class="cls-1" d="M1801.09,550c-.18-3.54-.41-7.79-.37-11h-.12c-.86,3-1.92,6.13-3.19,9.64l-4.48,12.3h-2.49l-4.1-12.08c-1.21-3.57-2.22-6.85-2.94-9.86h-.07c-.08,3.16-.26,7.41-.49,11.22l-.68,10.87H1779l1.77-25.36H1785l4.33,12.27c1.06,3.12,1.92,5.9,2.56,8.54h.12c.64-2.56,1.54-5.35,2.67-8.54l4.51-12.27h4.18l1.58,25.36h-3.2Z" transform="translate(-236.62 -534.37)"></path><path class="cls-1" d="M1812.87,552.59c.08,4.48,2.94,6.32,6.25,6.32a11.91,11.91,0,0,0,5-.94l.57,2.37a14.71,14.71,0,0,1-6.06,1.13c-5.61,0-9-3.69-9-9.18s3.24-9.83,8.54-9.83c6,0,7.53,5.23,7.53,8.58a12.26,12.26,0,0,1-.11,1.55Zm9.71-2.37c0-2.11-.86-5.39-4.59-5.39-3.35,0-4.82,3.09-5.08,5.39Z" transform="translate(-236.62 -534.37)"></path><path class="cls-1" d="M1834.81,537.65v5.23h4.75v2.52h-4.75v9.82c0,2.26.64,3.54,2.49,3.54a7.11,7.11,0,0,0,1.92-.23l.15,2.49a8.22,8.22,0,0,1-2.94.45,4.59,4.59,0,0,1-3.57-1.39c-.94-1-1.28-2.6-1.28-4.74V545.4h-2.83v-2.52h2.83v-4.37Z" transform="translate(-236.62 -534.37)"></path><path class="cls-1" d="M1844.22,534.37h3.32v11.37h.07a6.27,6.27,0,0,1,2.37-2.34,6.88,6.88,0,0,1,3.39-.94c2.45,0,6.36,1.51,6.36,7.79v10.84h-3.31V550.63c0-2.94-1.09-5.42-4.22-5.42a4.77,4.77,0,0,0-4.44,3.31,4,4,0,0,0-.22,1.58v11h-3.32Z" transform="translate(-236.62 -534.37)"></path><path class="cls-1" d="M1882.54,551.83c0,6.74-4.67,9.68-9.07,9.68-4.93,0-8.73-3.62-8.73-9.37,0-6.1,4-9.68,9-9.68,5.23,0,8.77,3.8,8.77,9.37m-14.46.19c0,4,2.3,7,5.54,7s5.53-3,5.53-7.07c0-3.09-1.54-7-5.46-7s-5.61,3.61-5.61,7.07" transform="translate(-236.62 -534.37)"></path><path class="cls-1" d="M1903.39,534.37v22c0,1.62,0,3.46.15,4.7h-3l-.15-3.16h-.08a6.75,6.75,0,0,1-6.21,3.58c-4.4,0-7.79-3.73-7.79-9.26,0-6.06,3.73-9.79,8.17-9.79a6.09,6.09,0,0,1,5.49,2.79h.08V534.37Zm-3.31,15.92a6,6,0,0,0-.15-1.39,4.87,4.87,0,0,0-4.78-3.84c-3.43,0-5.46,3-5.46,7,0,3.69,1.81,6.74,5.38,6.74a5,5,0,0,0,4.86-4,5.87,5.87,0,0,0,.15-1.43Z" transform="translate(-236.62 -534.37)"></path><polygon class="cls-1" points="1039.35 77.44 1049.86 77.44 1049.86 79.56 1041.87 79.56 1041.87 86.04 1049.25 86.04 1049.25 88.13 1041.87 88.13 1041.87 96.95 1039.35 96.95 1039.35 77.44"></polygon><path class="cls-1" d="M1290,621.68c0-1.65,0-3.06-.12-4.37h2.23l.09,2.75h.11a4.2,4.2,0,0,1,3.88-3.06,2.77,2.77,0,0,1,.73.08v2.4a4.37,4.37,0,0,0-.87-.08c-1.8,0-3.07,1.36-3.42,3.27a7,7,0,0,0-.11,1.19v7.46H1290Z" transform="translate(-236.62 -534.37)"></path><path class="cls-1" d="M1312.52,624.2c0,5.18-3.58,7.44-7,7.44-3.79,0-6.72-2.78-6.72-7.2,0-4.69,3.07-7.44,7-7.44s6.74,2.92,6.74,7.2m-11.11.15c0,3.07,1.77,5.38,4.25,5.38s4.26-2.28,4.26-5.44c0-2.37-1.19-5.38-4.2-5.38s-4.31,2.78-4.31,5.44" transform="translate(-236.62 -534.37)"></path><path class="cls-1" d="M1316.46,621.11c0-1.45,0-2.64-.12-3.8h2.23l.12,2.26h.09a4.82,4.82,0,0,1,4.4-2.57,4.13,4.13,0,0,1,4,2.8h.06a5.65,5.65,0,0,1,1.56-1.82,4.77,4.77,0,0,1,3.1-1c1.85,0,4.6,1.21,4.6,6.07v8.25H1334v-7.93c0-2.69-1-4.31-3-4.31a3.3,3.3,0,0,0-3,2.32,4.34,4.34,0,0,0-.2,1.27v8.65h-2.49v-8.39c0-2.23-1-3.85-2.92-3.85a3.48,3.48,0,0,0-3.16,2.55,3.58,3.58,0,0,0-.2,1.24v8.45h-2.49Z" transform="translate(-236.62 -534.37)"></path><path class="cls-2" d="M1626.8,605.07a34.13,34.13,0,0,1,6.49-.57c3.56,0,5.85.61,7.57,2a5.77,5.77,0,0,1,2.28,4.86,6.53,6.53,0,0,1-4.66,6v.09a7.1,7.1,0,0,1,5.69,6.9,7.43,7.43,0,0,1-2.33,5.52c-1.92,1.76-5,2.58-9.53,2.58a41.89,41.89,0,0,1-5.51-.33Zm3.55,11.28h3.23c3.76,0,6-2,6-4.62,0-3.23-2.45-4.49-6-4.49a15.55,15.55,0,0,0-3.15.24Zm0,13.2a19.23,19.23,0,0,0,3,.17c3.68,0,7.08-1.35,7.08-5.36,0-3.76-3.23-5.31-7.12-5.31h-2.94Z" transform="translate(-236.62 -534.37)"></path><polygon class="cls-2" points="1413.35 70.33 1416.9 70.33 1416.9 94.9 1428.68 94.9 1428.68 97.88 1413.35 97.88 1413.35 70.33"></polygon><path class="cls-2" d="M1692.23,618.19c0,9.48-5.77,14.51-12.8,14.51-7.27,0-12.38-5.64-12.38-14,0-8.74,5.44-14.47,12.79-14.47,7.52,0,12.39,5.77,12.39,13.94m-21.38.45c0,5.88,3.19,11.16,8.79,11.16s8.83-5.19,8.83-11.45c0-5.47-2.86-11.2-8.79-11.2s-8.83,5.44-8.83,11.49" transform="translate(-236.62 -534.37)"></path><path class="cls-2" d="M1717.11,631.35a17.66,17.66,0,0,1-7.27,1.31c-7.77,0-13.61-4.91-13.61-13.94,0-8.62,5.84-14.47,14.38-14.47a14.73,14.73,0,0,1,6.54,1.23l-.85,2.9a13,13,0,0,0-5.56-1.14c-6.46,0-10.75,4.12-10.75,11.36,0,6.74,3.88,11.07,10.58,11.07a14.17,14.17,0,0,0,5.81-1.14Z" transform="translate(-236.62 -534.37)"></path><path class="cls-2" d="M1722.59,604.7h3.55V618h.13c.73-1.07,1.47-2,2.16-3l8.42-10.34h4.41l-10,11.69L1742,632.25h-4.21l-9.07-13.53-2.62,3v10.5h-3.55Z" transform="translate(-236.62 -534.37)"></path><path class="cls-2" d="M1764.31,631.35a17.66,17.66,0,0,1-7.27,1.31c-7.77,0-13.61-4.91-13.61-13.94,0-8.62,5.84-14.47,14.39-14.47a14.68,14.68,0,0,1,6.53,1.23l-.85,2.9a13,13,0,0,0-5.56-1.14c-6.46,0-10.75,4.12-10.75,11.36,0,6.74,3.88,11.07,10.58,11.07a14.17,14.17,0,0,0,5.81-1.14Z" transform="translate(-236.62 -534.37)"></path><polygon class="cls-2" points="1536.73 70.33 1536.73 81.86 1550.05 81.86 1550.05 70.33 1553.65 70.33 1553.65 97.88 1550.05 97.88 1550.05 84.97 1536.73 84.97 1536.73 97.88 1533.17 97.88 1533.17 70.33 1536.73 70.33"></polygon><path class="cls-2" d="M1801.91,623.59l-2.86,8.66h-3.68l9.36-27.55H1809l9.4,27.55h-3.8l-2.94-8.66Zm9-2.78-2.7-7.93c-.61-1.8-1-3.44-1.43-5h-.08c-.41,1.64-.86,3.31-1.39,5l-2.7,8Z" transform="translate(-236.62 -534.37)"></path><rect class="cls-2" x="1586.87" y="70.33" width="3.56" height="27.55"></rect><path class="cls-2" d="M1834.28,632.25V604.7h3.88l8.83,13.94a78.86,78.86,0,0,1,4.94,9l.08,0c-.32-3.68-.4-7-.4-11.32V604.7H1855v27.55h-3.6l-8.75-14a87.44,87.44,0,0,1-5.15-9.19l-.12,0c.21,3.47.29,6.78.29,11.36v11.77Z" transform="translate(-236.62 -534.37)"></path><polygon class="cls-2" points="1638.81 73.36 1630.43 73.36 1630.43 70.33 1650.83 70.33 1650.83 73.36 1642.41 73.36 1642.41 97.88 1638.81 97.88 1638.81 73.36"></polygon><path class="cls-2" d="M1891.53,605.07a36.87,36.87,0,0,1,6.83-.57c3.8,0,6.25.69,8,2.25a6.87,6.87,0,0,1,2.16,5.23,7.24,7.24,0,0,1-5.19,7v.12c2.13.74,3.39,2.7,4,5.56.9,3.84,1.55,6.5,2.12,7.56h-3.68a36.09,36.09,0,0,1-1.84-6.58c-.81-3.8-2.28-5.23-5.51-5.35h-3.35v11.93h-3.56Zm3.56,12.55h3.63c3.8,0,6.22-2.09,6.22-5.23,0-3.56-2.58-5.11-6.34-5.15a14.85,14.85,0,0,0-3.51.32Z" transform="translate(-236.62 -534.37)"></path><path class="cls-2" d="M1919.2,623.59l-2.86,8.66h-3.68L1922,604.7h4.29l9.4,27.55h-3.8l-2.94-8.66Zm9-2.78-2.7-7.93c-.61-1.8-1-3.44-1.43-5H1924c-.41,1.64-.86,3.31-1.39,5l-2.7,8Z" transform="translate(-236.62 -534.37)"></path><path class="cls-2" d="M1940.77,632.25V604.7h3.89l8.83,13.94a78.86,78.86,0,0,1,4.94,9l.08,0c-.32-3.68-.41-7-.41-11.32V604.7h3.35v27.55h-3.59l-8.75-14a87.44,87.44,0,0,1-5.15-9.19l-.12,0c.2,3.47.29,6.78.29,11.36v11.77Z" transform="translate(-236.62 -534.37)"></path><path class="cls-2" d="M1968.2,627.92a12.58,12.58,0,0,0,6.37,1.8c3.64,0,5.76-1.92,5.76-4.7,0-2.58-1.47-4-5.19-5.48-4.49-1.59-7.27-3.92-7.27-7.81,0-4.29,3.55-7.48,8.91-7.48a12.58,12.58,0,0,1,6.09,1.35l-1,2.9a11,11,0,0,0-5.23-1.3c-3.76,0-5.19,2.24-5.19,4.12,0,2.58,1.67,3.85,5.47,5.32,4.66,1.8,7,4,7,8.09,0,4.25-3.14,7.93-9.64,7.93a14.23,14.23,0,0,1-7-1.76Z" transform="translate(-236.62 -534.37)"></path><path class="cls-2" d="M1994.31,623.59l-2.86,8.66h-3.68l9.36-27.55h4.29l9.4,27.55H2007l-2.94-8.66Zm9-2.78-2.7-7.93c-.61-1.8-1-3.44-1.43-5h-.08c-.41,1.64-.86,3.31-1.39,5l-2.69,8Z" transform="translate(-236.62 -534.37)"></path><path class="cls-2" d="M2034.52,631.35a17.66,17.66,0,0,1-7.27,1.31c-7.77,0-13.61-4.91-13.61-13.94,0-8.62,5.84-14.47,14.39-14.47a14.77,14.77,0,0,1,6.54,1.23l-.86,2.9a13,13,0,0,0-5.56-1.14c-6.46,0-10.75,4.12-10.75,11.36,0,6.74,3.88,11.07,10.59,11.07a14.15,14.15,0,0,0,5.8-1.14Z" transform="translate(-236.62 -534.37)"></path><polygon class="cls-2" points="1809.76 73.36 1801.38 73.36 1801.38 70.33 1821.77 70.33 1821.77 73.36 1813.35 73.36 1813.35 97.88 1809.76 97.88 1809.76 73.36"></polygon><rect class="cls-2" x="1825.86" y="70.33" width="3.56" height="27.55"></rect><path class="cls-2" d="M2096.81,618.19c0,9.48-5.77,14.51-12.8,14.51-7.27,0-12.38-5.64-12.38-14,0-8.74,5.43-14.47,12.79-14.47,7.52,0,12.39,5.77,12.39,13.94m-21.38.45c0,5.88,3.19,11.16,8.79,11.16s8.83-5.19,8.83-11.45c0-5.47-2.87-11.2-8.79-11.2s-8.83,5.44-8.83,11.49" transform="translate(-236.62 -534.37)"></path><path class="cls-2" d="M2102.44,632.25V604.7h3.88l8.83,13.94a77.51,77.51,0,0,1,4.95,9l.08,0c-.33-3.68-.41-7-.41-11.32V604.7h3.35v27.55h-3.59l-8.75-14a87.44,87.44,0,0,1-5.15-9.19l-.12,0c.2,3.47.28,6.78.28,11.36v11.77Z" transform="translate(-236.62 -534.37)"></path><polygon class="cls-2" points="1904.08 71.27 1900.2 76.38 1900.2 76.46 1906.37 75.65 1906.37 78.42 1900.2 77.69 1900.2 77.77 1904.12 82.68 1901.54 84.15 1899.09 78.42 1899.01 78.42 1896.35 84.19 1894.02 82.72 1897.91 77.73 1897.91 77.65 1891.86 78.42 1891.86 75.65 1897.87 76.42 1897.87 76.34 1894.02 71.36 1896.52 69.92 1899.05 75.61 1899.13 75.61 1901.63 69.88 1904.08 71.27"></polygon><polygon class="cls-2" points="1922.06 71.27 1918.18 76.38 1918.18 76.46 1924.35 75.65 1924.35 78.42 1918.18 77.69 1918.18 77.77 1922.1 82.68 1919.53 84.15 1917.07 78.42 1916.99 78.42 1914.33 84.19 1912.01 82.72 1915.89 77.73 1915.89 77.65 1909.84 78.42 1909.84 75.65 1915.85 76.42 1915.85 76.34 1912.01 71.36 1914.5 69.92 1917.03 75.61 1917.11 75.61 1919.61 69.88 1922.06 71.27"></polygon><path class="cls-2" d="M1631.25,712.07l-2.86,8.66h-3.68l9.36-27.55h4.29l9.4,27.55H1644l-2.94-8.66Zm9-2.78-2.69-7.93c-.62-1.8-1-3.44-1.43-5h-.09c-.41,1.64-.85,3.31-1.39,5l-2.69,8Z" transform="translate(-236.62 -534.37)"></path><path class="cls-2" d="M1671.47,719.83a17.58,17.58,0,0,1-7.28,1.31c-7.76,0-13.61-4.91-13.61-13.94,0-8.62,5.85-14.47,14.39-14.47a14.77,14.77,0,0,1,6.54,1.23l-.86,2.9a13,13,0,0,0-5.56-1.14c-6.46,0-10.75,4.13-10.75,11.36,0,6.74,3.88,11.08,10.59,11.08a14.15,14.15,0,0,0,5.8-1.15Z" transform="translate(-236.62 -534.37)"></path><polygon class="cls-2" points="1443.88 158.81 1443.88 170.34 1457.2 170.34 1457.2 158.81 1460.8 158.81 1460.8 186.36 1457.2 186.36 1457.2 173.45 1443.88 173.45 1443.88 186.36 1440.32 186.36 1440.32 158.81 1443.88 158.81"></polygon><path class="cls-2" d="M1714.29,693.51a40.91,40.91,0,0,1,6.83-.53c3.51,0,6.09.82,7.72,2.29a7.41,7.41,0,0,1,2.41,5.76,8.12,8.12,0,0,1-2.12,5.89c-1.88,2-5,3-8.42,3a12.46,12.46,0,0,1-2.86-.24v11h-3.56Zm3.56,13.28a11.56,11.56,0,0,0,2.94.29c4.29,0,6.91-2.08,6.91-5.89,0-3.63-2.58-5.39-6.5-5.39a14.46,14.46,0,0,0-3.35.29Z" transform="translate(-236.62 -534.37)"></path><path class="cls-2" d="M1738.08,712.07l-2.86,8.66h-3.68l9.36-27.55h4.29l9.4,27.55h-3.8l-3-8.66Zm9-2.78-2.7-7.93c-.61-1.8-1-3.44-1.43-5h-.08c-.41,1.64-.86,3.31-1.39,5l-2.7,8Z" transform="translate(-236.62 -534.37)"></path><path class="cls-2" d="M1762.56,720.73V709l-8.71-15.86h4.05l3.88,7.61c1.06,2.08,1.88,3.76,2.74,5.68h.08c.78-1.8,1.72-3.6,2.78-5.68l4-7.61h4.05L1766.15,709v11.73Z" transform="translate(-236.62 -534.37)"></path><path class="cls-2" d="M1802.36,708.63c-.2-3.84-.45-8.46-.41-11.89h-.12c-.94,3.23-2.08,6.66-3.47,10.46l-4.87,13.37h-2.69l-4.46-13.12c-1.31-3.89-2.41-7.44-3.19-10.71h-.08c-.08,3.43-.29,8-.53,12.18l-.74,11.81h-3.39l1.92-27.55h4.54l4.7,13.33c1.14,3.39,2.08,6.41,2.78,9.27h.12c.7-2.77,1.68-5.8,2.9-9.27l4.91-13.33h4.53l1.72,27.55h-3.47Z" transform="translate(-236.62 -534.37)"></path><polygon class="cls-2" points="1590.67 173.44 1579.96 173.44 1579.96 183.38 1591.9 183.38 1591.9 186.36 1576.41 186.36 1576.41 158.81 1591.28 158.81 1591.28 161.8 1579.96 161.8 1579.96 170.5 1590.67 170.5 1590.67 173.44"></polygon><path class="cls-2" d="M1834.15,720.73V693.18H1838l8.82,13.94a77.51,77.51,0,0,1,5,9l.08,0c-.33-3.68-.41-7-.41-11.32V693.18h3.35v27.55h-3.59l-8.75-14a87.44,87.44,0,0,1-5.15-9.19l-.12,0c.2,3.47.28,6.78.28,11.36v11.77Z" transform="translate(-236.62 -534.37)"></path><polygon class="cls-2" points="1630.68 161.84 1622.3 161.84 1622.3 158.81 1642.69 158.81 1642.69 161.84 1634.28 161.84 1634.28 186.36 1630.68 186.36 1630.68 161.84"></polygon><path class="cls-2" d="M1882.66,716.4a12.62,12.62,0,0,0,6.38,1.8c3.63,0,5.76-1.92,5.76-4.7,0-2.58-1.47-4-5.19-5.48-4.5-1.59-7.28-3.92-7.28-7.81,0-4.29,3.56-7.48,8.91-7.48a12.55,12.55,0,0,1,6.09,1.35l-1,2.91a10.86,10.86,0,0,0-5.23-1.31c-3.76,0-5.19,2.24-5.19,4.13,0,2.57,1.68,3.84,5.48,5.31,4.66,1.8,7,4,7,8.09,0,4.25-3.15,7.93-9.65,7.93a14.26,14.26,0,0,1-7-1.76Z" transform="translate(-236.62 -534.37)"></path><polygon class="cls-1" points="1042.46 166.85 1052.96 166.85 1052.96 168.97 1044.98 168.97 1044.98 175.45 1052.36 175.45 1052.36 177.53 1044.98 177.53 1044.98 186.36 1042.46 186.36 1042.46 166.85"></polygon><path class="cls-1" d="M1293.05,711.09c0-1.65,0-3.07-.11-4.37h2.23l.08,2.75h.12a4.21,4.21,0,0,1,3.88-3.07,2.63,2.63,0,0,1,.72.09v2.4a3.74,3.74,0,0,0-.87-.08c-1.79,0-3.06,1.36-3.41,3.27a6.81,6.81,0,0,0-.12,1.18v7.47h-2.52Z" transform="translate(-236.62 -534.37)"></path><path class="cls-1" d="M1315.63,713.61c0,5.18-3.59,7.44-7,7.44-3.79,0-6.71-2.78-6.71-7.21,0-4.69,3.07-7.44,7-7.44s6.74,2.93,6.74,7.21m-11.11.15c0,3.06,1.76,5.38,4.25,5.38s4.26-2.29,4.26-5.44c0-2.38-1.19-5.39-4.2-5.39s-4.31,2.78-4.31,5.45" transform="translate(-236.62 -534.37)"></path><path class="cls-1" d="M1319.57,710.51c0-1.44,0-2.63-.12-3.79h2.23l.11,2.26h.09a4.84,4.84,0,0,1,4.4-2.58,4.15,4.15,0,0,1,4,2.81h0a5.8,5.8,0,0,1,1.57-1.82,4.75,4.75,0,0,1,3.09-1c1.86,0,4.61,1.22,4.61,6.08v8.25h-2.49V712.8c0-2.69-1-4.31-3-4.31a3.29,3.29,0,0,0-3,2.31,4.09,4.09,0,0,0-.2,1.28v8.65h-2.49v-8.39c0-2.23-1-3.85-2.93-3.85a3.47,3.47,0,0,0-3.15,2.54,3.42,3.42,0,0,0-.2,1.25v8.45h-2.49Z" transform="translate(-236.62 -534.37)"></path><path class="cls-2" d="M252.31,676.53a17.31,17.31,0,0,1-6.25-1.1,15.14,15.14,0,0,1-5-3.11,14.11,14.11,0,0,1-3.29-4.7,15.56,15.56,0,0,1,0-11.79,14.34,14.34,0,0,1,3.29-4.68,15.13,15.13,0,0,1,5-3.1,17,17,0,0,1,6.23-1.11A17.17,17.17,0,0,1,258.5,648a14.92,14.92,0,0,1,5,3.08,14.21,14.21,0,0,1,3.29,4.7,15.66,15.66,0,0,1,0,11.83,14,14,0,0,1-3.29,4.72,14.78,14.78,0,0,1-5,3.09,17.28,17.28,0,0,1-6.19,1.08m0-5.6a9,9,0,0,0,3.53-.67,8.64,8.64,0,0,0,2.85-1.92,9,9,0,0,0,1.9-2.9,10.55,10.55,0,0,0,0-7.4,9,9,0,0,0-1.9-2.9,8.64,8.64,0,0,0-2.85-1.92,9,9,0,0,0-3.53-.68,9.25,9.25,0,0,0-3.56.68,8.39,8.39,0,0,0-2.84,1.92A9.12,9.12,0,0,0,244,658a10.55,10.55,0,0,0,0,7.4,9.12,9.12,0,0,0,1.88,2.9,8.39,8.39,0,0,0,2.84,1.92,9.25,9.25,0,0,0,3.56.67" transform="translate(-236.62 -534.37)"></path><polygon class="cls-2" points="36.29 141.67 36.29 113.06 41.77 113.06 58.64 133.66 55.99 133.66 55.99 113.06 62.53 113.06 62.53 141.67 57.05 141.67 40.17 121.07 42.83 121.07 42.83 141.67 36.29 141.67"></polygon><polygon class="cls-2" points="69.31 141.67 69.31 113.06 75.97 113.06 75.97 136.28 90.23 136.28 90.23 141.67 69.31 141.67"></polygon><rect class="cls-2" x="93.99" y="113.06" width="6.66" height="28.61"></rect><polygon class="cls-2" points="107.4 141.67 107.4 113.06 112.87 113.06 129.75 133.66 127.1 133.66 127.1 113.06 133.63 113.06 133.63 141.67 128.16 141.67 111.28 121.07 113.94 121.07 113.94 141.67 107.4 141.67"></polygon><path class="cls-2" d="M383.61,670.73h15.57V676H377V647.43h21.61v5.32h-15Zm-.49-11.81H396.9v5.19H383.12Z" transform="translate(-236.62 -534.37)"></path><path class="cls-2" d="M253.78,956.38a17.35,17.35,0,0,1-6.25-1.1,15.14,15.14,0,0,1-5-3.11,14.11,14.11,0,0,1-3.29-4.7,15.56,15.56,0,0,1,0-11.79,14.34,14.34,0,0,1,3.29-4.68,15.13,15.13,0,0,1,5-3.1,17,17,0,0,1,6.23-1.11,17.38,17.38,0,0,1,6.23,1.09,14.92,14.92,0,0,1,5,3.08,14.21,14.21,0,0,1,3.29,4.7,15.66,15.66,0,0,1,0,11.83,14,14,0,0,1-3.29,4.72,14.78,14.78,0,0,1-5,3.09,17.24,17.24,0,0,1-6.19,1.08m0-5.6a9.11,9.11,0,0,0,3.54-.67,8.7,8.7,0,0,0,2.84-1.92,9,9,0,0,0,1.9-2.9,10.55,10.55,0,0,0,0-7.4,9,9,0,0,0-1.9-2.9,8.7,8.7,0,0,0-2.84-1.92,9.58,9.58,0,0,0-7.09,0,8.3,8.3,0,0,0-2.84,1.92,8.79,8.79,0,0,0-1.88,2.9,10.41,10.41,0,0,0,0,7.4,8.79,8.79,0,0,0,1.88,2.9,8.3,8.3,0,0,0,2.84,1.92,9.16,9.16,0,0,0,3.55.67" transform="translate(-236.62 -534.37)"></path><path class="cls-2" d="M281,955.89h-6.66V927.28H296v5.32H281Zm-.53-15.73h13.73v5.31H280.51Z" transform="translate(-236.62 -534.37)"></path><path class="cls-2" d="M307.15,955.89h-6.66V927.28h21.62v5.32h-15Zm-.53-15.73h13.73v5.31H306.62Z" transform="translate(-236.62 -534.37)"></path><rect class="cls-2" x="89.99" y="392.91" width="6.66" height="28.61"></rect><path class="cls-2" d="M353.7,956.38a17.13,17.13,0,0,1-6.15-1.08,14.37,14.37,0,0,1-4.92-3.09,14.15,14.15,0,0,1-3.25-4.7,15.59,15.59,0,0,1,0-11.85,14,14,0,0,1,3.27-4.7,14.68,14.68,0,0,1,4.94-3.08,18.22,18.22,0,0,1,12.89.2,13.06,13.06,0,0,1,5.07,3.78l-4.29,3.93a9.66,9.66,0,0,0-3.25-2.54,9.15,9.15,0,0,0-3.94-.86,9.76,9.76,0,0,0-3.68.68,8.5,8.5,0,0,0-4.8,4.8,10.52,10.52,0,0,0,0,7.44,8.5,8.5,0,0,0,4.8,4.8,9.76,9.76,0,0,0,3.68.67,9,9,0,0,0,3.94-.87,10,10,0,0,0,3.25-2.56l4.29,3.92a13.23,13.23,0,0,1-5.07,3.81,16.9,16.9,0,0,1-6.78,1.3" transform="translate(-236.62 -534.37)"></path><path class="cls-2" d="M376.54,950.58h15.57v5.31H370V927.28h21.62v5.32h-15Zm-.49-11.81h13.78V944H376.05Z" transform="translate(-236.62 -534.37)"></path><path class="cls-2" d="M548,604.25v16.31c0,6.17,2.74,8.79,6.42,8.79,4.09,0,6.7-2.7,6.7-8.79V604.25h3.6v16.07c0,8.46-4.46,11.93-10.42,11.93-5.64,0-9.89-3.23-9.89-11.77V604.25Z" transform="translate(-236.62 -534.37)"></path><path class="cls-2" d="M571.38,627.47a12.59,12.59,0,0,0,6.38,1.8c3.63,0,5.76-1.92,5.76-4.7,0-2.58-1.47-4.05-5.19-5.48-4.5-1.59-7.28-3.92-7.28-7.81,0-4.29,3.56-7.48,8.91-7.48a12.55,12.55,0,0,1,6.09,1.35l-1,2.91a10.86,10.86,0,0,0-5.23-1.31c-3.76,0-5.19,2.24-5.19,4.13,0,2.57,1.68,3.84,5.48,5.31,4.66,1.8,7,4,7,8.09,0,4.25-3.15,7.93-9.65,7.93a14.23,14.23,0,0,1-7-1.76Z" transform="translate(-236.62 -534.37)"></path><path class="cls-2" d="M593,604.62a50.47,50.47,0,0,1,7.56-.57c5.11,0,8.75,1.18,11.16,3.43s3.88,5.44,3.88,9.89-1.39,8.18-4,10.71-6.83,4-12.18,4a58.35,58.35,0,0,1-6.46-.33ZM596.59,629a23,23,0,0,0,3.6.2c7.6,0,11.73-4.25,11.73-11.68,0-6.5-3.64-10.63-11.16-10.63a19.79,19.79,0,0,0-4.17.37Z" transform="translate(-236.62 -534.37)"></path><path class="cls-2" d="M945.09,692.73V709c0,6.17,2.73,8.79,6.41,8.79,4.09,0,6.71-2.7,6.71-8.79V692.73h3.59V708.8c0,8.46-4.45,11.93-10.42,11.93-5.64,0-9.89-3.23-9.89-11.77V692.73Z" transform="translate(-236.62 -534.37)"></path><path class="cls-2" d="M968.5,716a12.65,12.65,0,0,0,6.38,1.8c3.63,0,5.76-1.92,5.76-4.7,0-2.58-1.47-4-5.19-5.48-4.5-1.59-7.28-3.92-7.28-7.81,0-4.29,3.56-7.47,8.91-7.47a12.57,12.57,0,0,1,6.09,1.34l-1,2.91a11,11,0,0,0-5.23-1.31c-3.76,0-5.19,2.25-5.19,4.13,0,2.57,1.68,3.84,5.48,5.31,4.66,1.8,7,4.05,7,8.09,0,4.25-3.15,7.93-9.65,7.93a14.26,14.26,0,0,1-7-1.76Z" transform="translate(-236.62 -534.37)"></path><path class="cls-2" d="M990.16,693.1a51.94,51.94,0,0,1,7.56-.57c5.11,0,8.75,1.19,11.16,3.43s3.88,5.44,3.88,9.89-1.39,8.18-4,10.71-6.83,4-12.18,4a58.35,58.35,0,0,1-6.46-.33Zm3.56,24.36a21.56,21.56,0,0,0,3.59.21c7.61,0,11.73-4.25,11.73-11.69,0-6.5-3.63-10.63-11.15-10.63a19.79,19.79,0,0,0-4.17.37Z" transform="translate(-236.62 -534.37)"></path><path class="cls-2" d="M960.78,630.9a17.55,17.55,0,0,1-7.28,1.31c-7.76,0-13.61-4.91-13.61-13.94,0-8.62,5.85-14.47,14.39-14.47a14.77,14.77,0,0,1,6.54,1.23l-.86,2.9a13,13,0,0,0-5.56-1.14c-6.45,0-10.75,4.13-10.75,11.36,0,6.74,3.89,11.08,10.59,11.08a14.11,14.11,0,0,0,5.8-1.15Z" transform="translate(-236.62 -534.37)"></path><path class="cls-2" d="M966.25,604.62a37,37,0,0,1,6.83-.57c3.8,0,6.25.7,8,2.25a6.84,6.84,0,0,1,2.17,5.23,7.23,7.23,0,0,1-5.2,7v.12c2.13.74,3.4,2.7,4.05,5.56.9,3.84,1.55,6.5,2.13,7.56h-3.68a36.09,36.09,0,0,1-1.84-6.58c-.82-3.8-2.29-5.23-5.52-5.35h-3.35V631.8h-3.56Zm3.56,12.55h3.64c3.8,0,6.21-2.08,6.21-5.23,0-3.56-2.58-5.11-6.34-5.15a14.22,14.22,0,0,0-3.51.33Z" transform="translate(-236.62 -534.37)"></path><path class="cls-2" d="M994.94,631.8V620.11l-8.7-15.86h4l3.89,7.61c1.06,2.08,1.88,3.76,2.74,5.68H997c.77-1.8,1.71-3.6,2.78-5.68l4-7.61h4l-9.24,15.82V631.8Z" transform="translate(-236.62 -534.37)"></path><path class="cls-2" d="M1011.66,604.58a40.69,40.69,0,0,1,6.82-.53c3.52,0,6.09.82,7.73,2.29a7.41,7.41,0,0,1,2.41,5.76,8.13,8.13,0,0,1-2.13,5.89c-1.88,2-4.94,3-8.42,3a12.52,12.52,0,0,1-2.86-.24v11h-3.55Zm3.55,13.28a11.69,11.69,0,0,0,2.95.29c4.29,0,6.9-2.08,6.9-5.89,0-3.63-2.57-5.39-6.5-5.39a14.53,14.53,0,0,0-3.35.29Z" transform="translate(-236.62 -534.37)"></path><polygon class="cls-2" points="803.03 72.91 794.66 72.91 794.66 69.88 815.05 69.88 815.05 72.91 806.63 72.91 806.63 97.43 803.03 97.43 803.03 72.91"></polygon><path class="cls-2" d="M1078.19,617.74c0,9.48-5.76,14.51-12.79,14.51-7.28,0-12.39-5.64-12.39-14,0-8.74,5.44-14.47,12.8-14.47,7.52,0,12.38,5.77,12.38,13.94m-21.37.45c0,5.89,3.18,11.16,8.78,11.16s8.83-5.19,8.83-11.45c0-5.47-2.86-11.19-8.79-11.19s-8.82,5.43-8.82,11.48" transform="translate(-236.62 -534.37)"></path><polygon class="cls-2" points="857.55 70.82 853.67 75.93 853.67 76.01 859.84 75.2 859.84 77.98 853.67 77.24 853.67 77.32 857.59 82.23 855.02 83.7 852.57 77.98 852.48 77.98 849.83 83.74 847.5 82.27 851.38 77.28 851.38 77.2 845.33 77.98 845.33 75.2 851.34 75.97 851.34 75.89 847.5 70.91 849.99 69.47 852.52 75.16 852.61 75.16 855.1 69.43 857.55 70.82"></polygon><path class="cls-2" d="M563.66,719.38a17.55,17.55,0,0,1-7.28,1.31c-7.76,0-13.61-4.9-13.61-13.94,0-8.62,5.85-14.46,14.39-14.46a14.81,14.81,0,0,1,6.54,1.22l-.86,2.9a13,13,0,0,0-5.56-1.14c-6.45,0-10.75,4.13-10.75,11.36,0,6.74,3.89,11.08,10.59,11.08a14.11,14.11,0,0,0,5.8-1.15Z" transform="translate(-236.62 -534.37)"></path><path class="cls-2" d="M569.13,693.1a37,37,0,0,1,6.83-.57c3.8,0,6.25.7,8,2.25a6.84,6.84,0,0,1,2.16,5.23,7.22,7.22,0,0,1-5.19,7v.12c2.13.74,3.4,2.7,4.05,5.56.9,3.84,1.55,6.5,2.12,7.56H583.4a35.25,35.25,0,0,1-1.84-6.58c-.82-3.8-2.29-5.23-5.52-5.35h-3.35v11.93h-3.56Zm3.56,12.55h3.64c3.8,0,6.21-2.08,6.21-5.23,0-3.56-2.58-5.11-6.34-5.15a14.22,14.22,0,0,0-3.51.33Z" transform="translate(-236.62 -534.37)"></path><path class="cls-2" d="M597.82,720.28V708.59l-8.7-15.86h4l3.89,7.61c1.06,2.08,1.88,3.76,2.73,5.68h.09c.77-1.8,1.71-3.6,2.77-5.68l4-7.61h4l-9.24,15.82v11.73Z" transform="translate(-236.62 -534.37)"></path><path class="cls-2" d="M614.54,693.06a41.78,41.78,0,0,1,6.82-.53c3.52,0,6.09.82,7.73,2.29a7.41,7.41,0,0,1,2.41,5.76,8.13,8.13,0,0,1-2.13,5.89c-1.88,2-4.94,3-8.42,3a12.52,12.52,0,0,1-2.86-.24v11h-3.55Zm3.55,13.28a11.66,11.66,0,0,0,2.94.29c4.3,0,6.91-2.08,6.91-5.88,0-3.64-2.57-5.4-6.5-5.4a14.46,14.46,0,0,0-3.35.29Z" transform="translate(-236.62 -534.37)"></path><polygon class="cls-2" points="405.91 161.39 397.53 161.39 397.53 158.37 417.93 158.37 417.93 161.39 409.51 161.39 409.51 185.91 405.91 185.91 405.91 161.39"></polygon><path class="cls-2" d="M681.07,706.22c0,9.48-5.76,14.51-12.79,14.51-7.28,0-12.39-5.64-12.39-14,0-8.74,5.44-14.46,12.8-14.46,7.52,0,12.38,5.76,12.38,13.93m-21.38.45c0,5.89,3.19,11.16,8.79,11.16s8.83-5.19,8.83-11.44c0-5.48-2.86-11.2-8.79-11.2s-8.83,5.43-8.83,11.48" transform="translate(-236.62 -534.37)"></path><polygon class="cls-2" points="460.43 159.31 456.55 164.41 456.55 164.5 462.72 163.68 462.72 166.46 456.55 165.72 456.55 165.8 460.47 170.71 457.9 172.18 455.44 166.46 455.36 166.46 452.71 172.22 450.38 170.75 454.26 165.76 454.26 165.68 448.21 166.46 448.21 163.68 454.22 164.46 454.22 164.37 450.38 159.39 452.87 157.96 455.4 163.64 455.49 163.64 457.98 157.91 460.43 159.31"></polygon><polygon class="cls-1" points="667.82 97.96 665.82 95.95 677.57 84.2 665.82 72.45 667.82 70.44 681.58 84.2 667.82 97.96"></polygon><rect class="cls-1" x="411.47" y="82.78" width="268.1" height="2.84"></rect><polygon class="cls-1" points="667.82 187.36 665.82 185.36 677.57 173.61 665.82 161.86 667.82 159.85 681.58 173.61 667.82 187.36"></polygon><rect class="cls-1" x="496.61" y="172.19" width="182.96" height="2.84"></rect><path class="cls-2" d="M548,883.88v16.31c0,6.17,2.74,8.79,6.42,8.79,4.09,0,6.7-2.7,6.7-8.79V883.88h3.6v16.06c0,8.46-4.45,11.94-10.42,11.94-5.64,0-9.89-3.23-9.89-11.77V883.88Z" transform="translate(-236.62 -534.37)"></path><path class="cls-2" d="M571.38,907.09a12.49,12.49,0,0,0,6.38,1.8c3.63,0,5.76-1.92,5.76-4.7,0-2.57-1.47-4-5.19-5.47-4.5-1.6-7.28-3.93-7.28-7.81,0-4.29,3.56-7.48,8.91-7.48a12.44,12.44,0,0,1,6.09,1.35l-1,2.9a11,11,0,0,0-5.23-1.31c-3.76,0-5.19,2.25-5.19,4.13,0,2.58,1.68,3.84,5.48,5.31,4.66,1.8,7,4.05,7,8.1,0,4.25-3.15,7.93-9.65,7.93a14.23,14.23,0,0,1-7-1.76Z" transform="translate(-236.62 -534.37)"></path><path class="cls-2" d="M593,884.25a50.47,50.47,0,0,1,7.56-.57c5.11,0,8.75,1.18,11.16,3.43s3.88,5.44,3.88,9.89-1.39,8.17-4,10.71-6.83,4-12.18,4a58.62,58.62,0,0,1-6.46-.32Zm3.55,24.36a23,23,0,0,0,3.6.2c7.6,0,11.73-4.25,11.73-11.69,0-6.5-3.64-10.62-11.16-10.62a20.64,20.64,0,0,0-4.17.36Z" transform="translate(-236.62 -534.37)"></path><path class="cls-2" d="M563.66,999a17.75,17.75,0,0,1-7.28,1.31c-7.76,0-13.61-4.91-13.61-13.94,0-8.62,5.85-14.47,14.39-14.47a14.77,14.77,0,0,1,6.54,1.23l-.86,2.9a13,13,0,0,0-5.56-1.14c-6.45,0-10.75,4.12-10.75,11.36,0,6.74,3.89,11.07,10.59,11.07a14.28,14.28,0,0,0,5.8-1.14Z" transform="translate(-236.62 -534.37)"></path><path class="cls-2" d="M569.13,972.73a37,37,0,0,1,6.83-.57c3.8,0,6.25.69,8,2.24a6.87,6.87,0,0,1,2.16,5.24,7.24,7.24,0,0,1-5.19,7v.12c2.13.73,3.4,2.7,4.05,5.56.9,3.84,1.55,6.5,2.12,7.56H583.4a35.25,35.25,0,0,1-1.84-6.58c-.82-3.8-2.29-5.23-5.52-5.36h-3.35v11.94h-3.56Zm3.56,12.55h3.64c3.8,0,6.21-2.09,6.21-5.23,0-3.56-2.58-5.11-6.34-5.15a14.91,14.91,0,0,0-3.51.32Z" transform="translate(-236.62 -534.37)"></path><path class="cls-2" d="M597.82,999.91V988.22l-8.7-15.86h4L597,980c1.07,2.09,1.89,3.76,2.74,5.68h.08c.78-1.79,1.72-3.59,2.79-5.68l4-7.6h4l-9.23,15.82v11.73Z" transform="translate(-236.62 -534.37)"></path><path class="cls-2" d="M614.54,972.69a40.69,40.69,0,0,1,6.82-.53c3.52,0,6.09.81,7.73,2.29a7.4,7.4,0,0,1,2.41,5.76,8.1,8.1,0,0,1-2.13,5.88c-1.88,2-4.94,3-8.42,3a11.94,11.94,0,0,1-2.86-.25v11h-3.55ZM618.09,986a11.66,11.66,0,0,0,2.94.29c4.3,0,6.91-2.09,6.91-5.89,0-3.64-2.57-5.39-6.5-5.39a15.22,15.22,0,0,0-3.35.28Z" transform="translate(-236.62 -534.37)"></path><polygon class="cls-2" points="405.91 441.01 397.54 441.01 397.54 437.99 417.93 437.99 417.93 441.01 409.51 441.01 409.51 465.54 405.91 465.54 405.91 441.01"></polygon><path class="cls-2" d="M681.07,985.85c0,9.48-5.76,14.51-12.79,14.51-7.28,0-12.39-5.64-12.39-14,0-8.75,5.44-14.47,12.8-14.47,7.52,0,12.38,5.76,12.38,13.94m-21.38.45c0,5.88,3.19,11.16,8.79,11.16s8.83-5.2,8.83-11.45c0-5.47-2.86-11.2-8.79-11.2s-8.83,5.44-8.83,11.49" transform="translate(-236.62 -534.37)"></path><polygon class="cls-2" points="460.43 438.93 456.55 444.04 456.55 444.12 462.72 443.3 462.72 446.08 456.55 445.35 456.55 445.43 460.47 450.33 457.9 451.81 455.44 446.08 455.36 446.08 452.71 451.85 450.38 450.37 454.26 445.39 454.26 445.31 448.21 446.08 448.21 443.3 454.22 444.08 454.22 444 450.38 439.01 452.87 437.58 455.4 443.26 455.49 443.26 457.98 437.54 460.43 438.93"></polygon><polygon class="cls-1" points="667.82 377.57 665.82 375.56 677.57 363.81 665.82 352.06 667.82 350.06 681.58 363.81 667.82 377.57"></polygon><rect class="cls-1" x="411.47" y="362.39" width="268.1" height="2.84"></rect><polygon class="cls-1" points="667.82 466.98 665.82 464.97 677.57 453.22 665.82 441.47 667.82 439.46 681.58 453.22 667.82 466.98"></polygon><rect class="cls-1" x="496.61" y="451.8" width="182.96" height="2.84"></rect><rect class="cls-1" x="178.76" y="407.1" width="37.38" height="2.84"></rect><path class="cls-1" d="M453.83,943.81,451.67,942,482,906.15c5.13-6,11.82-9.39,18.84-9.39h18.77v2.84H500.86c-6.17,0-12.09,3-16.67,8.39Z" transform="translate(-236.62 -534.37)"></path><path class="cls-1" d="M519.63,989H500.86c-7,0-13.71-3.33-18.84-9.39l-30.35-35.82,2.16-1.83,30.36,35.82c4.58,5.41,10.5,8.39,16.67,8.39h18.77Z" transform="translate(-236.62 -534.37)"></path><rect class="cls-1" x="185.27" y="127.49" width="37.38" height="2.84"></rect><path class="cls-1" d="M460.35,664.2l-2.17-1.84,30.36-35.82c5.13-6,11.82-9.39,18.84-9.39h18.77V620H507.38c-6.18,0-12.1,3-16.68,8.39Z" transform="translate(-236.62 -534.37)"></path><path class="cls-1" d="M526.15,709.41H507.38c-7,0-13.71-3.33-18.84-9.39L458.18,664.2l2.17-1.84,30.35,35.83c4.58,5.41,10.5,8.38,16.68,8.38h18.77Z" transform="translate(-236.62 -534.37)"></path><rect class="cls-3" x="704.87" y="126.18" width="1219.48" height="1.13"></rect><rect class="cls-3" x="704.87" y="214.84" width="1219.48" height="1.13"></rect><polygon class="cls-1" points="1039.35 356.43 1049.86 356.43 1049.86 358.55 1041.87 358.55 1041.87 365.03 1049.25 365.03 1049.25 367.11 1041.87 367.11 1041.87 375.94 1039.35 375.94 1039.35 356.43"></polygon><path class="cls-1" d="M1290,900.67c0-1.65,0-3.07-.12-4.37h2.23l.09,2.75h.11a4.21,4.21,0,0,1,3.88-3.07,2.75,2.75,0,0,1,.73.09v2.4a3.74,3.74,0,0,0-.87-.08c-1.8,0-3.07,1.36-3.42,3.27a6.87,6.87,0,0,0-.11,1.18v7.47H1290Z" transform="translate(-236.62 -534.37)"></path><path class="cls-1" d="M1312.52,903.19c0,5.18-3.58,7.44-7,7.44-3.79,0-6.72-2.78-6.72-7.21,0-4.69,3.07-7.44,7-7.44s6.74,2.93,6.74,7.21m-11.11.15c0,3.06,1.77,5.38,4.25,5.38s4.26-2.29,4.26-5.44c0-2.38-1.19-5.39-4.2-5.39s-4.31,2.78-4.31,5.45" transform="translate(-236.62 -534.37)"></path><path class="cls-1" d="M1316.46,900.09c0-1.44,0-2.63-.12-3.79h2.23l.12,2.26h.09a4.83,4.83,0,0,1,4.4-2.58,4.14,4.14,0,0,1,4,2.81h.06a5.65,5.65,0,0,1,1.56-1.82,4.78,4.78,0,0,1,3.1-1c1.85,0,4.6,1.22,4.6,6.08v8.25H1334v-7.93c0-2.69-1-4.31-3-4.31a3.3,3.3,0,0,0-3,2.31,4.41,4.41,0,0,0-.2,1.28v8.65h-2.49v-8.39c0-2.23-1-3.85-2.92-3.85a3.48,3.48,0,0,0-3.16,2.54,3.64,3.64,0,0,0-.2,1.25v8.45h-2.49Z" transform="translate(-236.62 -534.37)"></path><path class="cls-2" d="M1626.8,884.06a34.13,34.13,0,0,1,6.49-.57c3.56,0,5.85.61,7.57,2a5.77,5.77,0,0,1,2.28,4.86,6.53,6.53,0,0,1-4.66,6v.08a7.11,7.11,0,0,1,5.69,6.91,7.43,7.43,0,0,1-2.33,5.52c-1.92,1.75-5,2.57-9.53,2.57a42.29,42.29,0,0,1-5.51-.32Zm3.55,11.28h3.23c3.76,0,6-2,6-4.62,0-3.23-2.45-4.5-6-4.5a15.31,15.31,0,0,0-3.15.25Zm0,13.2a19.46,19.46,0,0,0,3,.16c3.68,0,7.08-1.35,7.08-5.35,0-3.76-3.23-5.31-7.12-5.31h-2.94Z" transform="translate(-236.62 -534.37)"></path><polygon class="cls-2" points="1413.35 349.32 1416.9 349.32 1416.9 373.88 1428.68 373.88 1428.68 376.87 1413.35 376.87 1413.35 349.32"></polygon><path class="cls-2" d="M1692.23,897.18c0,9.48-5.77,14.51-12.8,14.51-7.27,0-12.38-5.64-12.38-14,0-8.75,5.44-14.47,12.79-14.47,7.52,0,12.39,5.76,12.39,13.94m-21.38.45c0,5.88,3.19,11.16,8.79,11.16s8.83-5.2,8.83-11.45c0-5.47-2.86-11.2-8.79-11.2s-8.83,5.44-8.83,11.49" transform="translate(-236.62 -534.37)"></path><path class="cls-2" d="M1717.11,910.34a17.66,17.66,0,0,1-7.27,1.31c-7.77,0-13.61-4.91-13.61-13.94,0-8.62,5.84-14.47,14.38-14.47a14.73,14.73,0,0,1,6.54,1.23l-.85,2.9a12.86,12.86,0,0,0-5.56-1.15c-6.46,0-10.75,4.13-10.75,11.37,0,6.74,3.88,11.07,10.58,11.07a14.33,14.33,0,0,0,5.81-1.14Z" transform="translate(-236.62 -534.37)"></path><path class="cls-2" d="M1722.59,883.69h3.55V897h.13c.73-1.06,1.47-2,2.16-2.94l8.42-10.34h4.41l-10,11.69L1742,911.24h-4.21l-9.07-13.53-2.62,3v10.51h-3.55Z" transform="translate(-236.62 -534.37)"></path><path class="cls-2" d="M1764.31,910.34a17.66,17.66,0,0,1-7.27,1.31c-7.77,0-13.61-4.91-13.61-13.94,0-8.62,5.84-14.47,14.39-14.47a14.68,14.68,0,0,1,6.53,1.23l-.85,2.9a12.86,12.86,0,0,0-5.56-1.15c-6.46,0-10.75,4.13-10.75,11.37,0,6.74,3.88,11.07,10.58,11.07a14.33,14.33,0,0,0,5.81-1.14Z" transform="translate(-236.62 -534.37)"></path><polygon class="cls-2" points="1536.73 349.32 1536.73 360.85 1550.05 360.85 1550.05 349.32 1553.65 349.32 1553.65 376.87 1550.05 376.87 1550.05 363.95 1536.73 363.95 1536.73 376.87 1533.17 376.87 1533.17 349.32 1536.73 349.32"></polygon><path class="cls-2" d="M1801.91,902.57l-2.86,8.67h-3.68l9.36-27.55H1809l9.4,27.55h-3.8l-2.94-8.67Zm9-2.78-2.7-7.93c-.61-1.79-1-3.43-1.43-5h-.08c-.41,1.63-.86,3.31-1.39,5l-2.7,8Z" transform="translate(-236.62 -534.37)"></path><rect class="cls-2" x="1586.87" y="349.32" width="3.56" height="27.55"></rect><path class="cls-2" d="M1834.28,911.24V883.69h3.88l8.83,13.94a78.86,78.86,0,0,1,4.94,9l.08,0c-.32-3.68-.4-7-.4-11.32V883.69H1855v27.55h-3.6l-8.75-14a87.55,87.55,0,0,1-5.15-9.2l-.12,0c.21,3.48.29,6.79.29,11.37v11.77Z" transform="translate(-236.62 -534.37)"></path><polygon class="cls-2" points="1638.81 352.35 1630.43 352.35 1630.43 349.32 1650.83 349.32 1650.83 352.35 1642.41 352.35 1642.41 376.87 1638.81 376.87 1638.81 352.35"></polygon><path class="cls-2" d="M1891.53,884.06a36.87,36.87,0,0,1,6.83-.57c3.8,0,6.25.69,8,2.24a6.9,6.9,0,0,1,2.16,5.23,7.25,7.25,0,0,1-5.19,7v.12c2.13.73,3.39,2.69,4,5.56.9,3.84,1.55,6.49,2.12,7.56h-3.68a36.09,36.09,0,0,1-1.84-6.58c-.81-3.8-2.28-5.23-5.51-5.36h-3.35v11.94h-3.56Zm3.56,12.55h3.63c3.8,0,6.22-2.09,6.22-5.24,0-3.55-2.58-5.1-6.34-5.15a14.68,14.68,0,0,0-3.51.33Z" transform="translate(-236.62 -534.37)"></path><path class="cls-2" d="M1919.2,902.57l-2.86,8.67h-3.68l9.36-27.55h4.29l9.4,27.55h-3.8l-2.94-8.67Zm9-2.78-2.7-7.93c-.61-1.79-1-3.43-1.43-5H1924c-.41,1.63-.86,3.31-1.39,5l-2.7,8Z" transform="translate(-236.62 -534.37)"></path><path class="cls-2" d="M1940.77,911.24V883.69h3.89l8.83,13.94a78.86,78.86,0,0,1,4.94,9l.08,0c-.32-3.68-.41-7-.41-11.32V883.69h3.35v27.55h-3.59l-8.75-14a87.55,87.55,0,0,1-5.15-9.2l-.12,0c.2,3.48.29,6.79.29,11.37v11.77Z" transform="translate(-236.62 -534.37)"></path><path class="cls-2" d="M1968.2,906.91a12.58,12.58,0,0,0,6.37,1.79c3.64,0,5.76-1.92,5.76-4.7,0-2.57-1.47-4-5.19-5.47-4.49-1.6-7.27-3.93-7.27-7.81,0-4.29,3.55-7.48,8.91-7.48a12.58,12.58,0,0,1,6.09,1.35l-1,2.9a11,11,0,0,0-5.23-1.31c-3.76,0-5.19,2.25-5.19,4.13,0,2.58,1.67,3.84,5.47,5.32,4.66,1.79,7,4,7,8.09,0,4.25-3.14,7.93-9.64,7.93a14.23,14.23,0,0,1-7-1.76Z" transform="translate(-236.62 -534.37)"></path><path class="cls-2" d="M1994.31,902.57l-2.86,8.67h-3.68l9.36-27.55h4.29l9.4,27.55H2007l-2.94-8.67Zm9-2.78-2.7-7.93c-.61-1.79-1-3.43-1.43-5h-.08c-.41,1.63-.86,3.31-1.39,5l-2.69,8Z" transform="translate(-236.62 -534.37)"></path><path class="cls-2" d="M2034.52,910.34a17.66,17.66,0,0,1-7.27,1.31c-7.77,0-13.61-4.91-13.61-13.94,0-8.62,5.84-14.47,14.39-14.47a14.77,14.77,0,0,1,6.54,1.23l-.86,2.9a12.86,12.86,0,0,0-5.56-1.15c-6.46,0-10.75,4.13-10.75,11.37,0,6.74,3.88,11.07,10.59,11.07a14.32,14.32,0,0,0,5.8-1.14Z" transform="translate(-236.62 -534.37)"></path><polygon class="cls-2" points="1809.76 352.35 1801.38 352.35 1801.38 349.32 1821.77 349.32 1821.77 352.35 1813.35 352.35 1813.35 376.87 1809.76 376.87 1809.76 352.35"></polygon><rect class="cls-2" x="1825.86" y="349.32" width="3.56" height="27.55"></rect><path class="cls-2" d="M2096.81,897.18c0,9.48-5.77,14.51-12.8,14.51-7.27,0-12.38-5.64-12.38-14,0-8.75,5.43-14.47,12.79-14.47,7.52,0,12.39,5.76,12.39,13.94m-21.38.45c0,5.88,3.19,11.16,8.79,11.16s8.83-5.2,8.83-11.45c0-5.47-2.87-11.2-8.79-11.2s-8.83,5.44-8.83,11.49" transform="translate(-236.62 -534.37)"></path><path class="cls-2" d="M2102.44,911.24V883.69h3.88l8.83,13.94a77.51,77.51,0,0,1,4.95,9l.08,0c-.33-3.68-.41-7-.41-11.32V883.69h3.35v27.55h-3.59l-8.75-14a87.55,87.55,0,0,1-5.15-9.2l-.12,0c.2,3.48.28,6.79.28,11.37v11.77Z" transform="translate(-236.62 -534.37)"></path><polygon class="cls-2" points="1904.08 350.26 1900.2 355.37 1900.2 355.45 1906.37 354.63 1906.37 357.41 1900.2 356.68 1900.2 356.76 1904.12 361.66 1901.54 363.13 1899.09 357.41 1899.01 357.41 1896.35 363.18 1894.02 361.7 1897.91 356.72 1897.91 356.64 1891.86 357.41 1891.86 354.63 1897.87 355.41 1897.87 355.33 1894.02 350.34 1896.52 348.91 1899.05 354.59 1899.13 354.59 1901.63 348.87 1904.08 350.26"></polygon><polygon class="cls-2" points="1922.06 350.26 1918.18 355.37 1918.18 355.45 1924.35 354.63 1924.35 357.41 1918.18 356.68 1918.18 356.76 1922.1 361.66 1919.53 363.13 1917.07 357.41 1916.99 357.41 1914.33 363.18 1912.01 361.7 1915.89 356.72 1915.89 356.64 1909.84 357.41 1909.84 354.63 1915.85 355.41 1915.85 355.33 1912.01 350.34 1914.5 348.91 1917.03 354.59 1917.11 354.59 1919.61 348.87 1922.06 350.26"></polygon><path class="cls-2" d="M1646.05,998.82a17.75,17.75,0,0,1-7.28,1.31c-7.76,0-13.61-4.91-13.61-13.94,0-8.62,5.85-14.47,14.39-14.47a14.77,14.77,0,0,1,6.54,1.23l-.86,2.9a13,13,0,0,0-5.56-1.15c-6.46,0-10.75,4.13-10.75,11.37,0,6.74,3.88,11.07,10.59,11.07a14.32,14.32,0,0,0,5.8-1.14Z" transform="translate(-236.62 -534.37)"></path><path class="cls-2" d="M1656.14,991.05l-2.86,8.67h-3.68l9.36-27.55h4.29l9.4,27.55h-3.8l-2.94-8.67Zm9-2.78-2.7-7.92c-.61-1.8-1-3.44-1.43-5H1661c-.41,1.63-.86,3.31-1.39,5l-2.7,8Z" transform="translate(-236.62 -534.37)"></path><path class="cls-2" d="M1677.23,995.39a12.58,12.58,0,0,0,6.37,1.79c3.64,0,5.76-1.92,5.76-4.7,0-2.57-1.47-4-5.19-5.47-4.49-1.6-7.27-3.93-7.27-7.81,0-4.29,3.55-7.48,8.91-7.48a12.58,12.58,0,0,1,6.09,1.35l-1,2.9a11,11,0,0,0-5.23-1.31c-3.76,0-5.2,2.25-5.2,4.13,0,2.58,1.68,3.84,5.48,5.32,4.66,1.79,7,4,7,8.09,0,4.25-3.15,7.93-9.64,7.93a14.23,14.23,0,0,1-7-1.76Z" transform="translate(-236.62 -534.37)"></path><polygon class="cls-2" points="1465.82 437.8 1465.82 449.33 1479.15 449.33 1479.15 437.8 1482.74 437.8 1482.74 465.35 1479.15 465.35 1479.15 452.43 1465.82 452.43 1465.82 465.35 1462.27 465.35 1462.27 437.8 1465.82 437.8"></polygon><polygon class="cls-1" points="1042.46 445.84 1052.96 445.84 1052.96 447.95 1044.98 447.95 1044.98 454.44 1052.36 454.44 1052.36 456.52 1044.98 456.52 1044.98 465.35 1042.46 465.35 1042.46 445.84"></polygon><path class="cls-1" d="M1293.05,990.08c0-1.65,0-3.07-.11-4.37h2.23l.08,2.75h.12a4.21,4.21,0,0,1,3.88-3.07,2.63,2.63,0,0,1,.72.09v2.4a3.69,3.69,0,0,0-.87-.09c-1.79,0-3.06,1.36-3.41,3.27a7,7,0,0,0-.12,1.19v7.47h-2.52Z" transform="translate(-236.62 -534.37)"></path><path class="cls-1" d="M1315.63,992.6c0,5.18-3.59,7.44-7,7.44-3.79,0-6.71-2.78-6.71-7.21,0-4.69,3.07-7.44,7-7.44s6.74,2.92,6.74,7.21m-11.11.14c0,3.07,1.76,5.39,4.25,5.39s4.26-2.29,4.26-5.45c0-2.37-1.19-5.38-4.2-5.38s-4.31,2.78-4.31,5.44" transform="translate(-236.62 -534.37)"></path><path class="cls-1" d="M1319.57,989.5c0-1.45,0-2.63-.12-3.79h2.23l.11,2.26h.09a4.84,4.84,0,0,1,4.4-2.58,4.15,4.15,0,0,1,4,2.81h0a5.8,5.8,0,0,1,1.57-1.82,4.75,4.75,0,0,1,3.09-1c1.86,0,4.61,1.22,4.61,6.08v8.25h-2.49v-7.93c0-2.69-1-4.31-3-4.31a3.29,3.29,0,0,0-3,2.31,4.08,4.08,0,0,0-.2,1.27v8.66h-2.49v-8.4c0-2.22-1-3.84-2.93-3.84a3.47,3.47,0,0,0-3.15,2.54,3.42,3.42,0,0,0-.2,1.25v8.45h-2.49Z" transform="translate(-236.62 -534.37)"></path><path class="cls-2" d="M945.09,971.72V988c0,6.17,2.73,8.79,6.41,8.79,4.09,0,6.71-2.7,6.71-8.79V971.72h3.59v16.06c0,8.46-4.45,11.94-10.42,11.94-5.64,0-9.89-3.23-9.89-11.77V971.72Z" transform="translate(-236.62 -534.37)"></path><path class="cls-2" d="M968.5,994.94a12.65,12.65,0,0,0,6.38,1.8c3.63,0,5.76-1.93,5.76-4.7,0-2.58-1.47-4-5.19-5.48-4.5-1.6-7.28-3.93-7.28-7.81,0-4.29,3.56-7.48,8.91-7.48a12.55,12.55,0,0,1,6.09,1.35l-1,2.9a11,11,0,0,0-5.23-1.3c-3.76,0-5.19,2.24-5.19,4.12,0,2.58,1.68,3.85,5.48,5.32,4.66,1.79,7,4,7,8.09,0,4.25-3.15,7.93-9.65,7.93a14.26,14.26,0,0,1-7-1.76Z" transform="translate(-236.62 -534.37)"></path><path class="cls-2" d="M990.16,972.09a50.57,50.57,0,0,1,7.56-.57c5.11,0,8.75,1.18,11.16,3.43s3.88,5.44,3.88,9.89-1.39,8.18-4,10.71-6.83,4-12.18,4a58.62,58.62,0,0,1-6.46-.32Zm3.56,24.36a22.85,22.85,0,0,0,3.59.2c7.61,0,11.73-4.25,11.73-11.68,0-6.5-3.63-10.63-11.15-10.63a19.79,19.79,0,0,0-4.17.37Z" transform="translate(-236.62 -534.37)"></path><path class="cls-2" d="M960.78,909.89a17.71,17.71,0,0,1-7.28,1.31c-7.76,0-13.61-4.91-13.61-13.94,0-8.62,5.85-14.47,14.39-14.47a14.77,14.77,0,0,1,6.54,1.23l-.86,2.9a13,13,0,0,0-5.56-1.14c-6.45,0-10.75,4.12-10.75,11.36,0,6.74,3.89,11.07,10.59,11.07a14.28,14.28,0,0,0,5.8-1.14Z" transform="translate(-236.62 -534.37)"></path><path class="cls-2" d="M966.25,883.61a37,37,0,0,1,6.83-.57c3.8,0,6.25.69,8,2.24a6.88,6.88,0,0,1,2.17,5.24,7.24,7.24,0,0,1-5.2,7v.12c2.13.73,3.4,2.7,4.05,5.56.9,3.84,1.55,6.5,2.13,7.56h-3.68a36.09,36.09,0,0,1-1.84-6.58c-.82-3.8-2.29-5.23-5.52-5.36h-3.35v11.94h-3.56Zm3.56,12.55h3.64c3.8,0,6.21-2.09,6.21-5.23,0-3.56-2.58-5.11-6.34-5.15a14.91,14.91,0,0,0-3.51.32Z" transform="translate(-236.62 -534.37)"></path><path class="cls-2" d="M994.94,910.79V899.1l-8.7-15.86h4l3.89,7.6c1.06,2.09,1.88,3.76,2.74,5.68H997c.77-1.79,1.71-3.59,2.78-5.68l4-7.6h4l-9.24,15.82v11.73Z" transform="translate(-236.62 -534.37)"></path><path class="cls-2" d="M1011.66,883.57a40.69,40.69,0,0,1,6.82-.53c3.52,0,6.09.81,7.73,2.29a7.4,7.4,0,0,1,2.41,5.76,8.1,8.1,0,0,1-2.13,5.88c-1.88,2-4.94,3-8.42,3a11.94,11.94,0,0,1-2.86-.25v11h-3.55Zm3.55,13.28a11.69,11.69,0,0,0,2.95.29c4.29,0,6.9-2.09,6.9-5.89,0-3.64-2.57-5.39-6.5-5.39a15.29,15.29,0,0,0-3.35.28Z" transform="translate(-236.62 -534.37)"></path><polygon class="cls-2" points="803.03 351.9 794.66 351.9 794.66 348.87 815.05 348.87 815.05 351.9 806.63 351.9 806.63 376.42 803.03 376.42 803.03 351.9"></polygon><path class="cls-2" d="M1078.19,896.73c0,9.48-5.76,14.51-12.79,14.51-7.28,0-12.39-5.64-12.39-14,0-8.75,5.44-14.47,12.8-14.47,7.52,0,12.38,5.76,12.38,13.94m-21.37.45c0,5.88,3.18,11.16,8.78,11.16s8.83-5.2,8.83-11.45c0-5.47-2.86-11.2-8.79-11.2s-8.82,5.44-8.82,11.49" transform="translate(-236.62 -534.37)"></path><polygon class="cls-2" points="857.55 349.81 853.67 354.92 853.67 355 859.84 354.19 859.84 356.96 853.67 356.23 853.67 356.31 857.59 361.21 855.02 362.69 852.57 356.96 852.48 356.96 849.83 362.73 847.5 361.26 851.38 356.27 851.38 356.19 845.33 356.96 845.33 354.19 851.34 354.96 851.34 354.88 847.5 349.89 849.99 348.46 852.52 354.14 852.61 354.14 855.1 348.42 857.55 349.81"></polygon><rect class="cls-3" x="704.87" y="405.17" width="1219.48" height="1.13"></rect><path class="cls-2" d="M1632.78,1047.06l-2.86,8.67h-3.68l9.36-27.55h4.29l9.41,27.55h-3.81l-2.94-8.67Zm9-2.78-2.7-7.92c-.61-1.8-1-3.44-1.43-5h-.08c-.41,1.63-.86,3.31-1.39,5l-2.7,8Z" transform="translate(-236.62 -534.37)"></path><path class="cls-2" d="M1673,1054.83a17.75,17.75,0,0,1-7.28,1.31c-7.76,0-13.61-4.91-13.61-13.94,0-8.62,5.85-14.47,14.39-14.47A14.77,14.77,0,0,1,1673,1029l-.86,2.9a13,13,0,0,0-5.56-1.14c-6.46,0-10.75,4.12-10.75,11.36,0,6.74,3.89,11.07,10.59,11.07a14.32,14.32,0,0,0,5.8-1.14Z" transform="translate(-236.62 -534.37)"></path><polygon class="cls-2" points="1445.41 493.81 1445.41 505.34 1458.73 505.34 1458.73 493.81 1462.33 493.81 1462.33 521.36 1458.73 521.36 1458.73 508.44 1445.41 508.44 1445.41 521.36 1441.86 521.36 1441.86 493.81 1445.41 493.81"></polygon><path class="cls-2" d="M1715.82,1028.51a40.91,40.91,0,0,1,6.83-.53c3.51,0,6.09.81,7.72,2.29a7.36,7.36,0,0,1,2.41,5.76,8.1,8.1,0,0,1-2.12,5.88c-1.88,2-5,3-8.42,3a11.94,11.94,0,0,1-2.86-.25v11h-3.56Zm3.56,13.28a11.66,11.66,0,0,0,2.94.29c4.29,0,6.91-2.09,6.91-5.89,0-3.64-2.58-5.39-6.5-5.39a15.22,15.22,0,0,0-3.35.28Z" transform="translate(-236.62 -534.37)"></path><path class="cls-2" d="M1739.61,1047.06l-2.86,8.67h-3.68l9.36-27.55h4.29l9.4,27.55h-3.8l-2.94-8.67Zm9-2.78-2.7-7.92c-.61-1.8-1-3.44-1.43-5h-.08c-.41,1.63-.86,3.31-1.39,5l-2.7,8Z" transform="translate(-236.62 -534.37)"></path><path class="cls-2" d="M1764.09,1055.73V1044l-8.71-15.86h4l3.88,7.6c1.06,2.09,1.88,3.76,2.74,5.68h.08c.78-1.79,1.72-3.59,2.78-5.68l4-7.6h4.05l-9.24,15.82v11.73Z" transform="translate(-236.62 -534.37)"></path><path class="cls-2" d="M1803.89,1043.63c-.2-3.84-.45-8.46-.4-11.89h-.13c-.94,3.23-2.08,6.66-3.47,10.46l-4.86,13.36h-2.7l-4.46-13.11c-1.31-3.89-2.41-7.44-3.18-10.71h-.09c-.08,3.43-.28,8-.53,12.18l-.73,11.81h-3.4l1.93-27.55h4.53l4.7,13.33c1.15,3.39,2.09,6.41,2.78,9.27h.12c.7-2.78,1.68-5.8,2.91-9.27l4.9-13.33h4.54l1.71,27.55h-3.47Z" transform="translate(-236.62 -534.37)"></path><polygon class="cls-2" points="1592.2 508.44 1581.5 508.44 1581.5 518.37 1593.43 518.37 1593.43 521.36 1577.94 521.36 1577.94 493.81 1592.82 493.81 1592.82 496.8 1581.5 496.8 1581.5 505.5 1592.2 505.5 1592.2 508.44"></polygon><path class="cls-2" d="M1835.69,1055.73v-27.55h3.88l8.83,13.94a78.86,78.86,0,0,1,4.94,9l.08,0c-.32-3.68-.41-7-.41-11.32v-11.53h3.36v27.55h-3.6l-8.75-14a87.55,87.55,0,0,1-5.15-9.2l-.12,0c.2,3.47.29,6.78.29,11.36v11.77Z" transform="translate(-236.62 -534.37)"></path><polygon class="cls-2" points="1632.21 496.83 1623.83 496.83 1623.83 493.81 1644.23 493.81 1644.23 496.83 1635.81 496.83 1635.81 521.36 1632.21 521.36 1632.21 496.83"></polygon><path class="cls-2" d="M1884.19,1051.4a12.65,12.65,0,0,0,6.38,1.79c3.64,0,5.76-1.92,5.76-4.7,0-2.57-1.47-4-5.19-5.47-4.49-1.6-7.27-3.93-7.27-7.81,0-4.29,3.55-7.48,8.91-7.48a12.58,12.58,0,0,1,6.09,1.35l-1,2.9a11,11,0,0,0-5.24-1.31c-3.76,0-5.19,2.25-5.19,4.13,0,2.58,1.68,3.84,5.48,5.32,4.66,1.79,7,4,7,8.09,0,4.25-3.15,7.93-9.65,7.93a14.29,14.29,0,0,1-7-1.76Z" transform="translate(-236.62 -534.37)"></path><polygon class="cls-1" points="1043.99 501.85 1054.5 501.85 1054.5 503.96 1046.51 503.96 1046.51 510.45 1053.89 510.45 1053.89 512.53 1046.51 512.53 1046.51 521.36 1043.99 521.36 1043.99 501.85"></polygon><path class="cls-1" d="M1294.59,1046.09c0-1.65,0-3.07-.12-4.37h2.23l.09,2.75h.11a4.21,4.21,0,0,1,3.88-3.07,2.63,2.63,0,0,1,.72.09v2.4a3.66,3.66,0,0,0-.86-.09c-1.8,0-3.07,1.36-3.42,3.27a7,7,0,0,0-.12,1.19v7.47h-2.51Z" transform="translate(-236.62 -534.37)"></path><path class="cls-1" d="M1317.16,1048.61c0,5.18-3.59,7.44-7,7.44-3.79,0-6.72-2.78-6.72-7.21,0-4.69,3.07-7.44,7-7.44s6.74,2.92,6.74,7.21m-11.11.14c0,3.07,1.76,5.39,4.25,5.39s4.26-2.29,4.26-5.45c0-2.37-1.19-5.38-4.2-5.38s-4.31,2.78-4.31,5.44" transform="translate(-236.62 -534.37)"></path><path class="cls-1" d="M1321.1,1045.51c0-1.45,0-2.63-.12-3.79h2.23l.12,2.26h.08a4.82,4.82,0,0,1,4.4-2.58,4.15,4.15,0,0,1,4,2.81h.06a5.81,5.81,0,0,1,1.56-1.83,4.81,4.81,0,0,1,3.1-1c1.85,0,4.6,1.22,4.6,6.08v8.25h-2.49v-7.93c0-2.69-1-4.32-3-4.32a3.3,3.3,0,0,0-3,2.32,4.08,4.08,0,0,0-.2,1.27v8.66h-2.49v-8.4c0-2.22-1-3.85-2.93-3.85a3.48,3.48,0,0,0-3.15,2.55,3.42,3.42,0,0,0-.2,1.25v8.45h-2.49Z" transform="translate(-236.62 -534.37)"></path><rect class="cls-3" x="706.4" y="559.49" width="1219.48" height="1.13"></rect><path class="cls-2" d="M1361.47,602.12a11.07,11.07,0,0,1,3.53.55,8.08,8.08,0,0,1,2.78,1.55,7.07,7.07,0,0,1,1.82,2.44,7.61,7.61,0,0,1,.65,3.17,8,8,0,0,1-.37,2.55,6.06,6.06,0,0,1-1.05,2,6.51,6.51,0,0,1-1.64,1.44,9.48,9.48,0,0,1-2.17.94,8.19,8.19,0,0,1,4.42,2.6,7,7,0,0,1,1.48,4.58,8.69,8.69,0,0,1-.78,3.74,8.37,8.37,0,0,1-2.16,2.82,9.54,9.54,0,0,1-3.18,1.79,12.06,12.06,0,0,1-3.89.62,12.4,12.4,0,0,1-4.1-.6,8.63,8.63,0,0,1-2.88-1.65,9,9,0,0,1-1.93-2.49,18.92,18.92,0,0,1-1.28-3.11l1.6-.68a2.32,2.32,0,0,1,.88-.19,1.47,1.47,0,0,1,.74.18,1.15,1.15,0,0,1,.5.56l.08.18.09.2c.19.4.43.86.71,1.37a5.82,5.82,0,0,0,2.91,2.57,6.55,6.55,0,0,0,2.63.47,6.84,6.84,0,0,0,2.77-.52,5.85,5.85,0,0,0,2-1.33,5.66,5.66,0,0,0,1.19-1.83,5.47,5.47,0,0,0,.4-2,7.15,7.15,0,0,0-.33-2.23,3.84,3.84,0,0,0-1.18-1.74,6,6,0,0,0-2.35-1.16,14.6,14.6,0,0,0-3.85-.42v-2.73a11.48,11.48,0,0,0,3.26-.4,6.23,6.23,0,0,0,2.22-1.09,4,4,0,0,0,1.25-1.66,5.63,5.63,0,0,0,.39-2.14,5.86,5.86,0,0,0-.41-2.27,4.3,4.3,0,0,0-1.13-1.59,4.59,4.59,0,0,0-1.69-1,6.81,6.81,0,0,0-2.11-.31,6.51,6.51,0,0,0-2.1.33,5.9,5.9,0,0,0-1.71.94,5.48,5.48,0,0,0-1.25,1.42,6.65,6.65,0,0,0-.75,1.8,1.7,1.7,0,0,1-.51.88,1.32,1.32,0,0,1-.86.27h-.22l-.26,0-1.95-.33a11,11,0,0,1,1.13-3.65,8.7,8.7,0,0,1,2.13-2.65,9,9,0,0,1,3-1.63,11.36,11.36,0,0,1,3.6-.56" transform="translate(-236.62 -534.37)"></path><path class="cls-2" d="M1387.66,609.73a8.52,8.52,0,0,1-.55,3.16,7,7,0,0,1-1.46,2.35,6.14,6.14,0,0,1-2.13,1.46,6.69,6.69,0,0,1-2.54.5,6.85,6.85,0,0,1-2.63-.5,6.06,6.06,0,0,1-2.11-1.46,6.64,6.64,0,0,1-1.41-2.35,9.19,9.19,0,0,1-.51-3.16,9.42,9.42,0,0,1,.51-3.22,6.73,6.73,0,0,1,1.41-2.37,6.09,6.09,0,0,1,2.11-1.47,6.66,6.66,0,0,1,2.63-.5,6.82,6.82,0,0,1,2.64.5,6,6,0,0,1,2.12,1.47,7.21,7.21,0,0,1,1.41,2.37,9.42,9.42,0,0,1,.51,3.22m10.52-6.51a2.18,2.18,0,0,1,.58-.56,1.47,1.47,0,0,1,.81-.2h2.69l-22,29.48a1.69,1.69,0,0,1-.51.45,1.35,1.35,0,0,1-.69.16h-2.77Zm-13.44,6.51a8.45,8.45,0,0,0-.29-2.36,4.61,4.61,0,0,0-.81-1.58,3,3,0,0,0-1.2-.89,3.95,3.95,0,0,0-2.92,0,2.89,2.89,0,0,0-1.18.89,4.42,4.42,0,0,0-.79,1.58,8.48,8.48,0,0,0-.28,2.36,8.23,8.23,0,0,0,.28,2.32,4.27,4.27,0,0,0,.79,1.55,2.82,2.82,0,0,0,1.18.86,4.23,4.23,0,0,0,2.92,0,2.94,2.94,0,0,0,1.2-.86,4.45,4.45,0,0,0,.81-1.55,8.2,8.2,0,0,0,.29-2.32m19.55,15.73a8.58,8.58,0,0,1-.54,3.14,7.21,7.21,0,0,1-1.46,2.35,6.44,6.44,0,0,1-2.12,1.46,6.64,6.64,0,0,1-2.53.5,6.86,6.86,0,0,1-2.64-.5,6.2,6.2,0,0,1-2.11-1.46,6.79,6.79,0,0,1-1.41-2.35,9.28,9.28,0,0,1-.5-3.14,9.78,9.78,0,0,1,.5-3.23,6.84,6.84,0,0,1,1.41-2.38,5.83,5.83,0,0,1,2.11-1.47,7,7,0,0,1,5.26,0,5.87,5.87,0,0,1,2.12,1.47,6.84,6.84,0,0,1,1.41,2.38,9.78,9.78,0,0,1,.5,3.23m-2.9,0a8.16,8.16,0,0,0-.29-2.37,4.43,4.43,0,0,0-.81-1.58,2.93,2.93,0,0,0-1.2-.88,3.71,3.71,0,0,0-1.45-.28,3.81,3.81,0,0,0-1.47.28,2.87,2.87,0,0,0-1.18.88,4.26,4.26,0,0,0-.79,1.58,8.56,8.56,0,0,0-.28,2.37,8.11,8.11,0,0,0,.28,2.31,4.3,4.3,0,0,0,.79,1.54,2.91,2.91,0,0,0,1.18.86,4,4,0,0,0,1.47.26,3.89,3.89,0,0,0,1.45-.26,3,3,0,0,0,1.2-.86,4.49,4.49,0,0,0,.81-1.54,7.74,7.74,0,0,0,.29-2.31" transform="translate(-236.62 -534.37)"></path><path class="cls-2" d="M1361.47,691.91a11.07,11.07,0,0,1,3.53.55,8.08,8.08,0,0,1,2.78,1.55,7,7,0,0,1,1.82,2.44,7.61,7.61,0,0,1,.65,3.17,8,8,0,0,1-.37,2.55,6.06,6.06,0,0,1-1.05,2,6.28,6.28,0,0,1-1.64,1.43,9.08,9.08,0,0,1-2.17.95,8.19,8.19,0,0,1,4.42,2.6,7,7,0,0,1,1.48,4.58,8.69,8.69,0,0,1-.78,3.74,8.37,8.37,0,0,1-2.16,2.82,9.54,9.54,0,0,1-3.18,1.79,12.06,12.06,0,0,1-3.89.62,12.4,12.4,0,0,1-4.1-.6,8.63,8.63,0,0,1-2.88-1.65,9,9,0,0,1-1.93-2.49,19,19,0,0,1-1.28-3.12l1.6-.67a2.32,2.32,0,0,1,.88-.19,1.47,1.47,0,0,1,.74.18,1.15,1.15,0,0,1,.5.56,1.59,1.59,0,0,1,.08.18l.09.2c.19.4.43.86.71,1.37a5.82,5.82,0,0,0,2.91,2.57,6.55,6.55,0,0,0,2.63.47,7,7,0,0,0,2.77-.52,6.1,6.1,0,0,0,2-1.33,5.83,5.83,0,0,0,1.19-1.83,5.52,5.52,0,0,0,.4-2,7.1,7.1,0,0,0-.33-2.23,3.84,3.84,0,0,0-1.18-1.74,6,6,0,0,0-2.35-1.16,14.6,14.6,0,0,0-3.85-.42v-2.73a11.48,11.48,0,0,0,3.26-.4,6.23,6.23,0,0,0,2.22-1.09,4,4,0,0,0,1.25-1.66,5.66,5.66,0,0,0,.39-2.14,5.86,5.86,0,0,0-.41-2.27,4.3,4.3,0,0,0-1.13-1.59,4.59,4.59,0,0,0-1.69-.95,6.81,6.81,0,0,0-2.11-.31,6.51,6.51,0,0,0-2.1.33,6.13,6.13,0,0,0-1.71.93,5.53,5.53,0,0,0-1.25,1.43,6.52,6.52,0,0,0-.75,1.8,1.74,1.74,0,0,1-.51.88,1.32,1.32,0,0,1-.86.27h-.22l-.26,0-1.95-.33a11,11,0,0,1,1.13-3.65,8.7,8.7,0,0,1,2.13-2.65,9,9,0,0,1,3-1.63,11.36,11.36,0,0,1,3.6-.56" transform="translate(-236.62 -534.37)"></path><path class="cls-2" d="M1387.66,699.52a8.55,8.55,0,0,1-.55,3.16,7,7,0,0,1-1.46,2.35,6.18,6.18,0,0,1-2.13,1.46,6.69,6.69,0,0,1-2.54.5,6.85,6.85,0,0,1-2.63-.5,6.2,6.2,0,0,1-2.11-1.46,6.64,6.64,0,0,1-1.41-2.35,9.23,9.23,0,0,1-.5-3.16,9.43,9.43,0,0,1,.5-3.22,6.64,6.64,0,0,1,1.41-2.37,6.09,6.09,0,0,1,2.11-1.47,6.66,6.66,0,0,1,2.63-.5,6.82,6.82,0,0,1,2.64.5,6,6,0,0,1,2.12,1.47,7.11,7.11,0,0,1,1.41,2.37,9.42,9.42,0,0,1,.51,3.22m10.52-6.51a2.34,2.34,0,0,1,.58-.56,1.47,1.47,0,0,1,.81-.2h2.69l-22,29.48a1.53,1.53,0,0,1-.51.44,1.26,1.26,0,0,1-.69.17h-2.77Zm-13.44,6.51a8.45,8.45,0,0,0-.29-2.36,4.61,4.61,0,0,0-.81-1.58,3,3,0,0,0-1.2-.9,4.08,4.08,0,0,0-2.92,0,2.92,2.92,0,0,0-1.18.9,4.42,4.42,0,0,0-.79,1.58,8.48,8.48,0,0,0-.28,2.36,8.23,8.23,0,0,0,.28,2.32,4.27,4.27,0,0,0,.79,1.55,2.82,2.82,0,0,0,1.18.86,4.23,4.23,0,0,0,2.92,0,2.88,2.88,0,0,0,1.2-.86,4.45,4.45,0,0,0,.81-1.55,8.2,8.2,0,0,0,.29-2.32m19.55,15.72a8.6,8.6,0,0,1-.54,3.15,7.21,7.21,0,0,1-1.46,2.35,6.26,6.26,0,0,1-2.12,1.45,6.46,6.46,0,0,1-2.53.51,6.68,6.68,0,0,1-2.64-.51,6,6,0,0,1-2.11-1.45,6.79,6.79,0,0,1-1.41-2.35,9.29,9.29,0,0,1-.5-3.15,9.76,9.76,0,0,1,.5-3.22,6.84,6.84,0,0,1,1.41-2.38,5.83,5.83,0,0,1,2.11-1.47,7,7,0,0,1,5.26,0,5.87,5.87,0,0,1,2.12,1.47,6.84,6.84,0,0,1,1.41,2.38,9.76,9.76,0,0,1,.5,3.22m-2.9,0a8.14,8.14,0,0,0-.29-2.36,4.43,4.43,0,0,0-.81-1.58,3,3,0,0,0-1.2-.89,4.06,4.06,0,0,0-2.91,0,3,3,0,0,0-1.19.89,4.26,4.26,0,0,0-.79,1.58,8.53,8.53,0,0,0-.28,2.36,8.11,8.11,0,0,0,.28,2.31,4.27,4.27,0,0,0,.79,1.55,2.94,2.94,0,0,0,1.19.86,4.2,4.2,0,0,0,2.91,0,3,3,0,0,0,1.2-.86,4.45,4.45,0,0,0,.81-1.55,7.74,7.74,0,0,0,.29-2.31" transform="translate(-236.62 -534.37)"></path><path class="cls-2" d="M1361.47,881.42a11.07,11.07,0,0,1,3.53.54,8.27,8.27,0,0,1,2.78,1.56,6.94,6.94,0,0,1,1.82,2.43,7.66,7.66,0,0,1,.65,3.18,8,8,0,0,1-.37,2.55,6,6,0,0,1-1.05,2,6.14,6.14,0,0,1-1.64,1.44,9.06,9.06,0,0,1-2.17.94,8.14,8.14,0,0,1,4.42,2.61,7,7,0,0,1,1.48,4.58,8.64,8.64,0,0,1-.78,3.73,8.51,8.51,0,0,1-2.16,2.83,9.52,9.52,0,0,1-3.18,1.78,11.79,11.79,0,0,1-3.89.62,12.4,12.4,0,0,1-4.1-.6,8.44,8.44,0,0,1-2.88-1.64,9,9,0,0,1-1.93-2.49,19,19,0,0,1-1.28-3.12l1.6-.67a2.15,2.15,0,0,1,.88-.19,1.47,1.47,0,0,1,.74.18,1.12,1.12,0,0,1,.5.55l.08.18.09.2c.19.41.43.87.71,1.38a6,6,0,0,0,1.13,1.44,6.39,6.39,0,0,0,1.78,1.13,6.56,6.56,0,0,0,2.63.46,7,7,0,0,0,2.77-.51,6,6,0,0,0,2-1.34,5.51,5.51,0,0,0,1.19-1.82,5.57,5.57,0,0,0,.4-2,7.09,7.09,0,0,0-.33-2.22,3.82,3.82,0,0,0-1.18-1.75,6,6,0,0,0-2.35-1.15,14.6,14.6,0,0,0-3.85-.42v-2.73a11.85,11.85,0,0,0,3.26-.4,6.4,6.4,0,0,0,2.22-1.09,4.18,4.18,0,0,0,1.25-1.66,5.7,5.7,0,0,0,.39-2.14,5.82,5.82,0,0,0-.41-2.27,4.26,4.26,0,0,0-1.13-1.6,4.57,4.57,0,0,0-1.69-.94,6.81,6.81,0,0,0-2.11-.32,6.25,6.25,0,0,0-2.1.34,5.65,5.65,0,0,0-1.71.93,5.37,5.37,0,0,0-1.25,1.43,6.59,6.59,0,0,0-.75,1.79,1.66,1.66,0,0,1-.51.88,1.32,1.32,0,0,1-.86.27h-.22l-.26,0-1.95-.33a10.94,10.94,0,0,1,1.13-3.64,8.75,8.75,0,0,1,2.13-2.66,9.15,9.15,0,0,1,3-1.62,11.09,11.09,0,0,1,3.6-.56" transform="translate(-236.62 -534.37)"></path><path class="cls-2" d="M1387.66,889a8.48,8.48,0,0,1-.55,3.16,7,7,0,0,1-1.46,2.35,6,6,0,0,1-2.13,1.46,6.51,6.51,0,0,1-2.54.51,6.67,6.67,0,0,1-2.63-.51,5.93,5.93,0,0,1-2.11-1.46,6.55,6.55,0,0,1-1.41-2.35,9.15,9.15,0,0,1-.51-3.16,9.4,9.4,0,0,1,.51-3.21,6.78,6.78,0,0,1,1.41-2.38,6.09,6.09,0,0,1,2.11-1.47,6.85,6.85,0,0,1,2.63-.5,7,7,0,0,1,2.64.5,6,6,0,0,1,2.12,1.47,7.26,7.26,0,0,1,1.41,2.38,9.4,9.4,0,0,1,.51,3.21m10.52-6.51a2.35,2.35,0,0,1,.58-.56,1.47,1.47,0,0,1,.81-.2h2.69l-22,29.49a1.66,1.66,0,0,1-.51.44,1.36,1.36,0,0,1-.69.17h-2.77ZM1384.74,889a8.37,8.37,0,0,0-.29-2.35,4.66,4.66,0,0,0-.81-1.59,3,3,0,0,0-1.2-.89,4.08,4.08,0,0,0-2.92,0,2.89,2.89,0,0,0-1.18.89,4.47,4.47,0,0,0-.79,1.59,8.4,8.4,0,0,0-.28,2.35,8.23,8.23,0,0,0,.28,2.32,4.24,4.24,0,0,0,.79,1.56,3,3,0,0,0,1.18.86,4.23,4.23,0,0,0,2.92,0,3.14,3.14,0,0,0,1.2-.86,4.41,4.41,0,0,0,.81-1.56,8.2,8.2,0,0,0,.29-2.32m19.55,15.73a8.6,8.6,0,0,1-.54,3.15,7.27,7.27,0,0,1-1.46,2.34,6.29,6.29,0,0,1-2.12,1.46,6.45,6.45,0,0,1-2.53.5,6.68,6.68,0,0,1-2.64-.5,6.06,6.06,0,0,1-2.11-1.46,6.84,6.84,0,0,1-1.41-2.34,9.29,9.29,0,0,1-.5-3.15,9.72,9.72,0,0,1,.5-3.22,6.88,6.88,0,0,1,1.41-2.39,6.09,6.09,0,0,1,2.11-1.47,7.17,7.17,0,0,1,5.26,0,6.13,6.13,0,0,1,2.12,1.47,6.88,6.88,0,0,1,1.41,2.39,9.72,9.72,0,0,1,.5,3.22m-2.9,0a8.09,8.09,0,0,0-.29-2.36,4.57,4.57,0,0,0-.81-1.59,3,3,0,0,0-1.2-.88,3.89,3.89,0,0,0-1.45-.27,4,4,0,0,0-1.47.27,3,3,0,0,0-1.18.88,4.39,4.39,0,0,0-.79,1.59,8.48,8.48,0,0,0-.28,2.36,8.11,8.11,0,0,0,.28,2.31,4.22,4.22,0,0,0,.79,1.54,2.82,2.82,0,0,0,1.18.86,4,4,0,0,0,1.47.27,3.89,3.89,0,0,0,1.45-.27,2.88,2.88,0,0,0,1.2-.86,4.4,4.4,0,0,0,.81-1.54,7.74,7.74,0,0,0,.29-2.31" transform="translate(-236.62 -534.37)"></path><path class="cls-2" d="M1361.47,971.21a11.07,11.07,0,0,1,3.53.54,8.1,8.1,0,0,1,2.78,1.56,6.94,6.94,0,0,1,1.82,2.43,7.61,7.61,0,0,1,.65,3.17,8,8,0,0,1-.37,2.55,6.06,6.06,0,0,1-1.05,2,6.14,6.14,0,0,1-1.64,1.44,9.48,9.48,0,0,1-2.17.94,8.14,8.14,0,0,1,4.42,2.61,7,7,0,0,1,1.48,4.57,8.66,8.66,0,0,1-.78,3.74,8.51,8.51,0,0,1-2.16,2.83,9.69,9.69,0,0,1-3.18,1.78,12.06,12.06,0,0,1-3.89.62,12.4,12.4,0,0,1-4.1-.6,8.63,8.63,0,0,1-2.88-1.65,9,9,0,0,1-1.93-2.48,19,19,0,0,1-1.28-3.12l1.6-.68a2.31,2.31,0,0,1,.88-.18,1.47,1.47,0,0,1,.74.18,1.08,1.08,0,0,1,.5.55l.08.18.09.2c.19.41.43.86.71,1.37a5.65,5.65,0,0,0,1.13,1.44,6.19,6.19,0,0,0,1.78,1.14,6.56,6.56,0,0,0,2.63.46,7,7,0,0,0,2.77-.51,6.12,6.12,0,0,0,2-1.34,5.61,5.61,0,0,0,1.19-1.83,5.47,5.47,0,0,0,.4-2,7.19,7.19,0,0,0-.33-2.23,3.84,3.84,0,0,0-1.18-1.74,6.14,6.14,0,0,0-2.35-1.16,15,15,0,0,0-3.85-.42v-2.72a11.85,11.85,0,0,0,3.26-.4,6.23,6.23,0,0,0,2.22-1.1,4.08,4.08,0,0,0,1.25-1.65,5.71,5.71,0,0,0,.39-2.15,5.89,5.89,0,0,0-.41-2.27,4.3,4.3,0,0,0-1.13-1.59,4.59,4.59,0,0,0-1.69-.95,6.81,6.81,0,0,0-2.11-.31,6.25,6.25,0,0,0-2.1.34,5.65,5.65,0,0,0-1.71.93,5.48,5.48,0,0,0-1.25,1.42,6.79,6.79,0,0,0-.75,1.8,1.7,1.7,0,0,1-.51.88,1.32,1.32,0,0,1-.86.27h-.22l-.26,0-1.95-.33a10.87,10.87,0,0,1,1.13-3.64,8.63,8.63,0,0,1,2.13-2.66,9.17,9.17,0,0,1,3-1.63,11.36,11.36,0,0,1,3.6-.55" transform="translate(-236.62 -534.37)"></path><path class="cls-2" d="M1387.66,978.81a8.52,8.52,0,0,1-.55,3.16,7,7,0,0,1-1.46,2.35,6,6,0,0,1-2.13,1.46,6.5,6.5,0,0,1-2.54.5,6.66,6.66,0,0,1-2.63-.5,6.06,6.06,0,0,1-2.11-1.46,6.64,6.64,0,0,1-1.41-2.35,9.19,9.19,0,0,1-.5-3.16,9.33,9.33,0,0,1,.5-3.21,6.78,6.78,0,0,1,1.41-2.38,6.09,6.09,0,0,1,2.11-1.47,6.85,6.85,0,0,1,2.63-.5,7,7,0,0,1,2.64.5,6,6,0,0,1,2.12,1.47,7.26,7.26,0,0,1,1.41,2.38,9.32,9.32,0,0,1,.51,3.21m10.52-6.51a2.34,2.34,0,0,1,.58-.56,1.47,1.47,0,0,1,.81-.2h2.69l-22,29.49a1.8,1.8,0,0,1-.51.44,1.36,1.36,0,0,1-.69.17h-2.77Zm-13.44,6.51a8.32,8.32,0,0,0-.29-2.35,4.57,4.57,0,0,0-.81-1.59,3,3,0,0,0-1.2-.89,4.08,4.08,0,0,0-2.92,0,2.89,2.89,0,0,0-1.18.89,4.39,4.39,0,0,0-.79,1.59,8.36,8.36,0,0,0-.28,2.35,8.23,8.23,0,0,0,.28,2.32,4.19,4.19,0,0,0,.79,1.55,2.82,2.82,0,0,0,1.18.86,4.08,4.08,0,0,0,2.92,0,2.88,2.88,0,0,0,1.2-.86,4.36,4.36,0,0,0,.81-1.55,8.2,8.2,0,0,0,.29-2.32m19.55,15.73a8.67,8.67,0,0,1-.54,3.15,7.27,7.27,0,0,1-1.46,2.34,6.29,6.29,0,0,1-2.12,1.46,6.64,6.64,0,0,1-2.53.5,6.86,6.86,0,0,1-2.64-.5,6.06,6.06,0,0,1-2.11-1.46,6.84,6.84,0,0,1-1.41-2.34,9.38,9.38,0,0,1-.5-3.15,9.78,9.78,0,0,1,.5-3.23,6.84,6.84,0,0,1,1.41-2.38,6.09,6.09,0,0,1,2.11-1.47,7.17,7.17,0,0,1,5.26,0,6.13,6.13,0,0,1,2.12,1.47,6.84,6.84,0,0,1,1.41,2.38,9.78,9.78,0,0,1,.5,3.23m-2.9,0a8.21,8.21,0,0,0-.29-2.37,4.52,4.52,0,0,0-.81-1.58,2.93,2.93,0,0,0-1.2-.88,3.92,3.92,0,0,0-2.91,0,2.9,2.9,0,0,0-1.19.88,4.34,4.34,0,0,0-.79,1.58,8.61,8.61,0,0,0-.28,2.37,8.11,8.11,0,0,0,.28,2.31,4.22,4.22,0,0,0,.79,1.54,2.85,2.85,0,0,0,1.19.86,4.2,4.2,0,0,0,2.91,0,2.88,2.88,0,0,0,1.2-.86,4.4,4.4,0,0,0,.81-1.54,7.74,7.74,0,0,0,.29-2.31" transform="translate(-236.62 -534.37)"></path><path class="cls-2" d="M1361.47,1027.77a11.07,11.07,0,0,1,3.53.54,8.27,8.27,0,0,1,2.78,1.56,6.94,6.94,0,0,1,1.82,2.43,7.66,7.66,0,0,1,.65,3.18,8,8,0,0,1-.37,2.55,6,6,0,0,1-1.05,2,6.14,6.14,0,0,1-1.64,1.44,9.06,9.06,0,0,1-2.17.94,8.14,8.14,0,0,1,4.42,2.61,7,7,0,0,1,1.48,4.58,8.64,8.64,0,0,1-.78,3.73,8.51,8.51,0,0,1-2.16,2.83,9.52,9.52,0,0,1-3.18,1.78,11.79,11.79,0,0,1-3.89.62,12.4,12.4,0,0,1-4.1-.6,8.44,8.44,0,0,1-2.88-1.64,9,9,0,0,1-1.93-2.49,19,19,0,0,1-1.28-3.12l1.6-.67a2.15,2.15,0,0,1,.88-.19,1.47,1.47,0,0,1,.74.18,1.12,1.12,0,0,1,.5.55l.08.18.09.2c.19.41.43.87.71,1.38a6,6,0,0,0,1.13,1.44,6.39,6.39,0,0,0,1.78,1.13,6.56,6.56,0,0,0,2.63.46,7,7,0,0,0,2.77-.51,6,6,0,0,0,2-1.34,5.51,5.51,0,0,0,1.19-1.82,5.57,5.57,0,0,0,.4-2,7.09,7.09,0,0,0-.33-2.22,3.82,3.82,0,0,0-1.18-1.75,6,6,0,0,0-2.35-1.15,14.6,14.6,0,0,0-3.85-.42v-2.73a11.85,11.85,0,0,0,3.26-.4,6.4,6.4,0,0,0,2.22-1.09,4.18,4.18,0,0,0,1.25-1.66,5.7,5.7,0,0,0,.39-2.14,5.82,5.82,0,0,0-.41-2.27,4.26,4.26,0,0,0-1.13-1.6,4.57,4.57,0,0,0-1.69-.94,6.81,6.81,0,0,0-2.11-.32,6.25,6.25,0,0,0-2.1.34,5.65,5.65,0,0,0-1.71.93,5.37,5.37,0,0,0-1.25,1.43,6.59,6.59,0,0,0-.75,1.79,1.66,1.66,0,0,1-.51.88,1.32,1.32,0,0,1-.86.27h-.22l-.26,0-1.95-.33a10.94,10.94,0,0,1,1.13-3.64,8.75,8.75,0,0,1,2.13-2.66,9.15,9.15,0,0,1,3-1.62,11.09,11.09,0,0,1,3.6-.56" transform="translate(-236.62 -534.37)"></path><path class="cls-2" d="M1387.66,1035.37a8.48,8.48,0,0,1-.55,3.16,7,7,0,0,1-1.46,2.35,6,6,0,0,1-2.13,1.46,6.51,6.51,0,0,1-2.54.51,6.67,6.67,0,0,1-2.63-.51,5.93,5.93,0,0,1-2.11-1.46,6.55,6.55,0,0,1-1.41-2.35,9.15,9.15,0,0,1-.51-3.16,9.4,9.4,0,0,1,.51-3.21,6.78,6.78,0,0,1,1.41-2.38,6.09,6.09,0,0,1,2.11-1.47,6.85,6.85,0,0,1,2.63-.5,7,7,0,0,1,2.64.5,6,6,0,0,1,2.12,1.47,7.26,7.26,0,0,1,1.41,2.38,9.4,9.4,0,0,1,.51,3.21m10.52-6.51a2.35,2.35,0,0,1,.58-.56,1.47,1.47,0,0,1,.81-.2h2.69l-22,29.49a1.66,1.66,0,0,1-.51.44,1.36,1.36,0,0,1-.69.17h-2.77Zm-13.44,6.51a8.37,8.37,0,0,0-.29-2.35,4.66,4.66,0,0,0-.81-1.59,3,3,0,0,0-1.2-.89,4.08,4.08,0,0,0-2.92,0,2.89,2.89,0,0,0-1.18.89,4.47,4.47,0,0,0-.79,1.59,8.4,8.4,0,0,0-.28,2.35,8.23,8.23,0,0,0,.28,2.32,4.24,4.24,0,0,0,.79,1.56,3,3,0,0,0,1.18.86,4.23,4.23,0,0,0,2.92,0,3.14,3.14,0,0,0,1.2-.86,4.41,4.41,0,0,0,.81-1.56,8.2,8.2,0,0,0,.29-2.32m19.55,15.73a8.6,8.6,0,0,1-.54,3.15,7.27,7.27,0,0,1-1.46,2.34,6.29,6.29,0,0,1-2.12,1.46,6.45,6.45,0,0,1-2.53.5,6.68,6.68,0,0,1-2.64-.5,6.06,6.06,0,0,1-2.11-1.46,6.84,6.84,0,0,1-1.41-2.34,9.29,9.29,0,0,1-.5-3.15,9.72,9.72,0,0,1,.5-3.22,6.88,6.88,0,0,1,1.41-2.39A6.09,6.09,0,0,1,1395,1044a7.17,7.17,0,0,1,5.26,0,6.13,6.13,0,0,1,2.12,1.47,6.88,6.88,0,0,1,1.41,2.39,9.72,9.72,0,0,1,.5,3.22m-2.9,0a8.09,8.09,0,0,0-.29-2.36,4.57,4.57,0,0,0-.81-1.59,3,3,0,0,0-1.2-.88,3.89,3.89,0,0,0-1.45-.27,4,4,0,0,0-1.47.27,3,3,0,0,0-1.18.88,4.39,4.39,0,0,0-.79,1.59,8.48,8.48,0,0,0-.28,2.36,8.11,8.11,0,0,0,.28,2.31,4.22,4.22,0,0,0,.79,1.54,2.82,2.82,0,0,0,1.18.86,4,4,0,0,0,1.47.27,3.89,3.89,0,0,0,1.45-.27,2.88,2.88,0,0,0,1.2-.86,4.4,4.4,0,0,0,.81-1.54,7.74,7.74,0,0,0,.29-2.31" transform="translate(-236.62 -534.37)"></path></svg>