<svg width="40" height="40" viewBox="0 0 40 40" fill="none" xmlns="http://www.w3.org/2000/svg">
<path d="M17.4762 11.3946V28.6047M15.324 26.409H22.6908C23.5403 26.4084 24.3548 26.0705 24.9553 25.4695C25.5558 24.8686 25.8931 24.0539 25.8931 23.2044C25.8931 22.3548 25.5558 21.5401 24.9553 20.9392C24.3548 20.3382 23.5403 20.0003 22.6908 19.9997H17.4762H21.5303C22.3802 19.9997 23.1953 19.6621 23.7963 19.0611C24.3973 18.4601 24.735 17.645 24.735 16.795C24.735 15.9451 24.3973 15.13 23.7963 14.529C23.1953 13.928 22.3802 13.5904 21.5303 13.5904M21.5303 13.5904H15.324M21.5303 13.5904V11.3946M21.5303 28.6047V26.409M36.5401 19.0698C36.5617 23.7955 34.4537 28.1987 30.9657 30.7138L19.9366 38.6663L8.9076 30.7138C5.41954 28.1987 3.31154 23.7955 3.33317 19.0698C3.33317 19.0698 3.41209 5.02971 3.41209 3.92303C5.42406 5.24006 7.77497 5.94498 10.1797 5.95227C13.9872 5.95227 17.4349 4.18748 19.9366 1.33301C22.4384 4.18748 25.8861 5.95227 29.6936 5.95227C32.0983 5.94498 34.4492 5.24006 36.4612 3.92303C36.4612 5.02972 36.5401 19.0698 36.5401 19.0698Z" stroke="#286DEB" stroke-width="2" stroke-linecap="round" stroke-linejoin="round"/>
</svg>
