<svg version="1.1" xmlns="http://www.w3.org/2000/svg" xmlns:xlink="http://www.w3.org/1999/xlink" x="0px" y="0px" viewBox="0 0 256 256" enable-background="new 0 0 256 256" xml:space="preserve"><metadata> Svg Vector Icons : http://www.onlinewebfonts.com/icon </metadata><g><g><path fill="#000000" d="M115.2,8.3c-38.7,0-70.1,31.5-70.1,70.1c0,27.6,16,51.5,39.2,62.9c-16.3,5-31.1,13.9-43.5,26.2C20.9,187.4,10,213.8,10,241.9c0,3.2,2.6,5.9,5.9,5.9c3.2,0,5.9-2.6,5.9-5.9c0-25,9.7-48.5,27.4-66.1c17-17,39.5-26.7,63.4-27.3c0.9,0,1.8,0,2.7,0c38.7,0,70.1-31.5,70.1-70.1C185.3,39.7,153.8,8.3,115.2,8.3L115.2,8.3L115.2,8.3z M116.1,136.8c-0.3,0-0.6-0.1-1-0.1c-0.9,0-1.8,0-2.6,0c-31-1.4-55.8-27-55.8-58.4C56.7,46.2,83,20,115.2,20c32.2,0,58.4,26.2,58.4,58.4C173.6,110.3,147.9,136.3,116.1,136.8L116.1,136.8L116.1,136.8z M150.1,245.3c-1.1,0-2.3-0.4-3.3-1.1c-1.9-1.4-2.7-3.9-2-6.2l11.9-36.8l-31.3-22.7c-1.9-1.4-2.7-3.9-2-6.2c0.7-2.3,2.9-3.8,5.3-3.8h38.7l11.9-36.8c0.7-2.3,2.9-3.8,5.3-3.8s4.5,1.5,5.3,3.8l11.9,36.8h38.7c2.4,0,4.5,1.5,5.3,3.8c0.7,2.3-0.1,4.8-2,6.2l-31.3,22.7l11.9,36.8c0.7,2.3-0.1,4.8-2,6.2c-1.9,1.4-4.6,1.4-6.5,0l-31.3-22.7l-31.3,22.7C152.4,244.9,151.2,245.3,150.1,245.3z M184.6,209.2c1.1,0,2.3,0.4,3.3,1.1l20.8,15.1l-7.9-24.4c-0.7-2.3,0.1-4.8,2-6.2l20.8-15.1h-25.7c-2.4,0-4.5-1.5-5.3-3.8l-7.9-24.4l-7.9,24.4c-0.7,2.3-2.9,3.8-5.3,3.8h-25.7l20.8,15.1c1.9,1.4,2.7,3.9,2,6.2l-7.9,24.4l20.8-15.1C182.3,209.5,183.5,209.2,184.6,209.2z"></path></g></g></svg>