<?xml version="1.0" encoding="utf-8"?>
<!-- Generator: Adobe Illustrator 26.0.1, SVG Export Plug-In . SVG Version: 6.00 Build 0)  -->
<svg version="1.1" id="Слой_1" xmlns="http://www.w3.org/2000/svg" xmlns:xlink="http://www.w3.org/1999/xlink" x="0px" y="0px"
	 viewBox="0 0 546.6 151.9" style="enable-background:new 0 0 546.6 151.9;" xml:space="preserve">
<style type="text/css">
	.st0{fill:#FFFFFF;}
</style>
<g>
	<path class="st0" d="M219.4,11.5c-1.1-3.4-3.6-6.4-7.1-8c-6.7-3-14.6-0.1-17.7,6.6L142.4,125L76,125.2c-27.2,0-49.3-22.1-49.3-49.3
		c0-27.2,22.1-49.3,49.3-49.3c13.8,0,27,5.8,36.3,16c5,5.4,13.4,5.8,18.8,0.8c5.4-5,5.8-13.4,0.8-18.9C117.6,8.8,97.2-0.1,76-0.1
		C34.1-0.1,0,34,0,75.9c0,41.9,34.1,76,76.1,76l75-0.3c5.2,0,9.9-3.1,12.1-7.8l8.6-18.8h70l8.7,19.1c2.2,4.9,7.1,7.8,12.2,7.8
		c1.8,0,3.7-0.4,5.5-1.2c6.7-3,9.7-11,6.6-17.7L219.4,11.5z M183.8,98.3L206.7,48l22.9,50.3H183.8z"/>
	<path class="st0" d="M499.2,77.1l44.3-52.9c4.7-5.6,4-14.1-1.7-18.8c-5.7-4.7-14.1-4-18.8,1.7l-41.2,49.2L440.6,7.1
		c-4.7-5.6-13.1-6.4-18.8-1.7s-6.4,13.1-1.7,18.8l44.3,52.9l-40.3,48.1H318.4V90.5h60.1c7.4,0,13.3-6,13.3-13.3
		c0-7.4-6-13.3-13.3-13.3h-60.1V29h57.7c7.4,0,13.3-6,13.3-13.3s-6-13.3-13.3-13.3h-71c-7.4,0-13.3,6-13.3,13.3v122.9
		c0,7.4,6,13.3,13.3,13.3h122.3c0.5,0,0.9-0.1,1.4-0.1c0.5,0.1,1.1,0.1,1.6,0.1c3.8,0,7.6-1.6,10.2-4.8l41.2-49.2l41.2,49.2
		c2.6,3.2,6.4,4.8,10.2,4.8c3,0,6.1-1,8.6-3.1c5.7-4.7,6.4-13.1,1.7-18.8L499.2,77.1z"/>
</g>
</svg>
