<?xml version="1.0" encoding="utf-8"?>
<!-- Generator: Adobe Illustrator 26.0.1, SVG Export Plug-In . SVG Version: 6.00 Build 0)  -->
<svg version="1.1" id="Слой_1" xmlns="http://www.w3.org/2000/svg" xmlns:xlink="http://www.w3.org/1999/xlink" x="0px" y="0px"
	 viewBox="0 0 771.4 203.1" style="enable-background:new 0 0 771.4 203.1;" xml:space="preserve">
<style type="text/css">
	.st0{fill:#0035A0;}
	
		.st1{clip-path:url(#SVGID_00000129917423387348655610000000271540013251130552_);fill:url(#SVGID_00000129903382640349154050000008465499376536623759_);}
	
		.st2{clip-path:url(#SVGID_00000182508213243955295600000015994411450058635964_);fill:url(#SVGID_00000004523367685978108610000000987569813463787171_);}
	
		.st3{clip-path:url(#SVGID_00000016074801651295104800000002960962476313683594_);fill:url(#SVGID_00000130626844909366982040000013501984900026634135_);}
</style>
<g>
	<path class="st0" d="M443.2,34.3c-1.1-3.4-3.6-6.4-7.1-8c-6.7-3-14.6-0.1-17.7,6.6l-52.2,114.8l-66.4,0.2
		c-27.2,0-49.3-22.1-49.3-49.3c0-27.2,22.1-49.3,49.3-49.3c13.8,0,27,5.8,36.3,16c5,5.4,13.4,5.8,18.8,0.8c5.4-5,5.8-13.4,0.8-18.9
		c-14.4-15.6-34.8-24.6-55.9-24.6c-41.9,0-76,34.1-76,76c0,41.9,34.1,76,76.1,76l75-0.3c5.2,0,9.9-3.1,12.1-7.8l8.6-18.8h70
		l8.7,19.1c2.2,4.9,7.1,7.8,12.2,7.8c1.8,0,3.7-0.4,5.5-1.2c6.7-3,9.7-11,6.6-17.7L443.2,34.3z M407.6,121.2l22.9-50.3l22.9,50.3
		H407.6z"/>
	<path class="st0" d="M723,100l44.3-52.9c4.7-5.6,4-14.1-1.7-18.8c-5.7-4.7-14.1-4-18.8,1.7l-41.2,49.2l-41.2-49.2
		c-4.7-5.6-13.1-6.4-18.8-1.7s-6.4,13.1-1.7,18.8l44.3,52.9l-40.3,48.1H542.2v-34.8h60.1c7.4,0,13.3-6,13.3-13.3
		c0-7.4-6-13.3-13.3-13.3h-60.1V51.9h57.7c7.4,0,13.3-6,13.3-13.3s-6-13.3-13.3-13.3h-71c-7.4,0-13.3,6-13.3,13.3v122.9
		c0,7.4,6,13.3,13.3,13.3h122.3c0.5,0,0.9-0.1,1.4-0.1c0.5,0.1,1.1,0.1,1.6,0.1c3.8,0,7.6-1.6,10.2-4.8l41.2-49.2l41.2,49.2
		c2.6,3.2,6.4,4.8,10.2,4.8c3,0,6.1-1,8.6-3.1c5.7-4.7,6.4-13.1,1.7-18.8L723,100z"/>
</g>
<g>
	<g>
		<defs>
			<path id="SVGID_1_" d="M172.1,134.9c-4.1,17.1-25.3,23.4-38,11.2l-57.7-55l-23.3,8.5c-16.3,5.9-20.3,27.2-7.3,38.7l59.3,52.2
				c32.4,28.5,83.2,6.2,84.3-36.8l0-90.7L172.1,134.9z"/>
		</defs>
		<clipPath id="SVGID_00000150809325528082475610000017234960404759259779_">
			<use xlink:href="#SVGID_1_"  style="overflow:visible;"/>
		</clipPath>
		
			<linearGradient id="SVGID_00000098210527397524162970000007397641781544798645_" gradientUnits="userSpaceOnUse" x1="122.6804" y1="-145.7688" x2="125.3537" y2="-145.7688" gradientTransform="matrix(-61.7989 -62.6124 62.6124 -61.7989 16902.082 -1102.5527)">
			<stop  offset="0" style="stop-color:#69E2F7"/>
			<stop  offset="2.088130e-03" style="stop-color:#69E2F7"/>
			<stop  offset="0.1257" style="stop-color:#57BDE9"/>
			<stop  offset="0.3587" style="stop-color:#397DD0"/>
			<stop  offset="0.5711" style="stop-color:#214BBC"/>
			<stop  offset="0.7554" style="stop-color:#0F26AE"/>
			<stop  offset="0.9046" style="stop-color:#0510A5"/>
			<stop  offset="1" style="stop-color:#0108A2"/>
			<stop  offset="1" style="stop-color:#00078E"/>
			<stop  offset="1" style="stop-color:#000787"/>
		</linearGradient>
		
			<polygon style="clip-path:url(#SVGID_00000150809325528082475610000017234960404759259779_);fill:url(#SVGID_00000098210527397524162970000007397641781544798645_);" points="
			110.1,297.2 -45.3,139.8 112.1,-15.5 267.4,141.9 		"/>
	</g>
</g>
<g>
	<g>
		<defs>
			<path id="SVGID_00000152975413579373789200000012631864750553911705_" d="M113.2,7.9L34.3,56.8l74.2-26.2
				c17.6-6.2,34.9,10.2,29.5,28.1l-21.1,71l17.2,16.4c12.8,12.2,33.9,5.9,38-11.2l17.3-72C197.7,28.6,170.5,0,140,0
				C131.1,0,121.9,2.4,113.2,7.9"/>
		</defs>
		<clipPath id="SVGID_00000180354230706444645590000015313038547885089690_">
			<use xlink:href="#SVGID_00000152975413579373789200000012631864750553911705_"  style="overflow:visible;"/>
		</clipPath>
		
			<linearGradient id="SVGID_00000001644817136563831360000006407563316198590887_" gradientUnits="userSpaceOnUse" x1="119.0573" y1="-143.1776" x2="121.7304" y2="-143.1776" gradientTransform="matrix(52.6053 27.8196 -27.8196 52.6053 -10203.2842 4260.2554)">
			<stop  offset="0" style="stop-color:#AEE2F7"/>
			<stop  offset="2.088130e-03" style="stop-color:#AEE2F7"/>
			<stop  offset="0.1257" style="stop-color:#91BDE9"/>
			<stop  offset="0.3587" style="stop-color:#5E7DD0"/>
			<stop  offset="0.5711" style="stop-color:#364BBC"/>
			<stop  offset="0.7554" style="stop-color:#1926AE"/>
			<stop  offset="0.9046" style="stop-color:#0710A5"/>
			<stop  offset="1" style="stop-color:#0108A2"/>
		</linearGradient>
		
			<polygon style="clip-path:url(#SVGID_00000180354230706444645590000015313038547885089690_);fill:url(#SVGID_00000001644817136563831360000006407563316198590887_);" points="
			70,-67.5 263,34.6 162,225.8 -31.1,123.7 		"/>
	</g>
</g>
<g>
	<g>
		<defs>
			<path id="SVGID_00000156580717457508228780000008389949412965010306_" d="M108.5,30.6L34.3,56.8c-41.5,14.6-46,71.5-7.4,92.5
				l78.2,41.1l-59.1-52c-13.1-11.5-9.1-32.9,7.3-38.9l81.4-29.6l3.3-11.2c4.5-15.3-7.3-29.4-21.8-29.4
				C113.7,29.3,111.1,29.7,108.5,30.6"/>
		</defs>
		<clipPath id="SVGID_00000057830605920192395920000004079135829137434784_">
			<use xlink:href="#SVGID_00000156580717457508228780000008389949412965010306_"  style="overflow:visible;"/>
		</clipPath>
		
			<linearGradient id="SVGID_00000166658340981523155720000016579200782499046791_" gradientUnits="userSpaceOnUse" x1="118.9201" y1="-145.6288" x2="121.5933" y2="-145.6288" gradientTransform="matrix(55.7614 -27.0954 27.0954 55.7614 -2688.8206 11485.9883)">
			<stop  offset="0" style="stop-color:#6ACDFF"/>
			<stop  offset="1.026070e-03" style="stop-color:#6ACDFF"/>
			<stop  offset="5.920000e-02" style="stop-color:#62BDF4"/>
			<stop  offset="0.3101" style="stop-color:#407DC8"/>
			<stop  offset="0.5385" style="stop-color:#254BA4"/>
			<stop  offset="0.7368" style="stop-color:#11268B"/>
			<stop  offset="0.8974" style="stop-color:#05107C"/>
			<stop  offset="1" style="stop-color:#010876"/>
		</linearGradient>
		
			<polygon style="clip-path:url(#SVGID_00000057830605920192395920000004079135829137434784_);fill:url(#SVGID_00000166658340981523155720000016579200782499046791_);" points="
			-75.1,60 113.1,-31.4 205.9,159.6 17.8,251.1 		"/>
	</g>
</g>
</svg>
