<svg width="930" height="718" viewBox="0 0 930 718" fill="none" xmlns="http://www.w3.org/2000/svg">
<g clip-path="url(#clip0_175_755)">
<rect width="930" height="718" rx="20" fill="#E2F0FF"/>
<path opacity="0.4" d="M930 718H339C339 718 367.053 701.02 372.448 672.72C380 633.101 397.803 562.486 397.803 562.486C437.725 430.421 514.87 430.421 625.194 430.421C676.984 432.577 723.199 407.512 747.116 390.802C845.032 323.691 904.105 366.814 930 392.419V718Z" fill="url(#paint0_linear_175_755)"/>
<path opacity="0.5" d="M225 0H0V254.973C0 254.973 78.4317 273.752 117.699 249.913C159.735 224.394 159.292 163.675 159.292 163.675C156.195 71.498 214.159 60.7183 225 0Z" fill="url(#paint1_linear_175_755)"/>
</g>
<defs>
<linearGradient id="paint0_linear_175_755" x1="634.5" y1="355" x2="634.5" y2="718" gradientUnits="userSpaceOnUse">
<stop stop-color="#98C5FA"/>
<stop offset="1" stop-color="#98C5FA" stop-opacity="0.1"/>
</linearGradient>
<linearGradient id="paint1_linear_175_755" x1="112.5" y1="0" x2="112.5" y2="262" gradientUnits="userSpaceOnUse">
<stop stop-color="#98C5FA"/>
<stop offset="1" stop-color="#98C5FA" stop-opacity="0"/>
</linearGradient>
<clipPath id="clip0_175_755">
<rect width="930" height="718" rx="20" fill="white"/>
</clipPath>
</defs>
</svg>
