<svg xmlns="http://www.w3.org/2000/svg" version="1.0" viewBox="0 0 729 145"><path d="M55 3C29.1 9.7 9.4 29.6 2.9 55.9 0 67.5.6 84 4.3 95.3c7.1 21.8 24.2 39 46.4 46.5l7.8 2.7 44.5.3c53.5.3 48.6 1.5 56-14.3l4.9-10.5h66.8l4.9 10.7c5.4 11.8 8 14.3 14.7 14.3 7.2 0 12.8-5.6 12.7-12.7-.1-1.5-12.6-30.3-27.9-63.8C210.2 13.8 207 7.3 203.9 5.2c-4.7-3.2-11-2.6-15 1.4-1.8 1.9-11.4 22-27.7 57.9l-24.9 55-34.8.3c-29.6.2-35.7 0-40.4-1.4C39.8 112.2 26 94.4 26 73c0-27.2 23.3-48.8 50.5-46.7 9.2.7 17 3.7 24.6 9.5 11.4 8.8 12.1 9.2 15.8 9.2 4.1 0 8.8-2.8 10.7-6.2 2.2-3.8 1.7-9.9-1.1-13.9-5.6-8.3-24.8-19.6-38-22.4C78.7.4 64.2.7 55 3zm153.3 67.5 10.4 23-21 .3c-11.5.1-21.2.1-21.4-.1-.2-.3 3.3-8.5 7.8-18.3 4.4-9.9 9.2-20.3 10.5-23.3 1.3-3 2.6-5.2 2.8-5 .3.2 5.1 10.8 10.9 23.4zM587.8 2.8c-8.7 5.3-7 18.7 2.8 22.1 4.9 1.7 8.4 1 12.5-2.7C609 16.9 607.9 6 601 2.5c-3.8-2-9.8-1.9-13.2.3zM285.3 4.6c-7.1 3.5-6.8.3-7.1 65.9-.2 32.4 0 61 .3 63.4.5 3.2 1.6 5.4 4 7.8l3.3 3.3h64.4c57.2 0 64.6-.2 66.6-1.6 1.3-.9 11.3-12.4 22.4-25.6 11-13.2 20.3-23.6 20.8-23.1.4.4 9.7 11.6 20.8 24.9 11 13.3 20.8 24.4 21.7 24.8.9.3 3.6.6 5.9.6 5.2 0 9.2-2.8 11.3-7.7 2.7-6.6 1.6-8.6-20.6-34.9-11.3-13.5-21.2-25.4-22-26.5-1.2-1.7.6-4.1 20.4-27.9 13.6-16.3 22-27.3 22.6-29.4C523 8 511-.9 502 5.2c-1.9 1.3-12.2 12.7-22.8 25.3-10.6 12.7-19.6 23.1-20 23.2-.4.1-9.7-10.7-20.7-23.9C418.7 6.1 415.5 3 410 3c-3.4 0-9.5 3.7-10.8 6.5-1.5 3.3-1.5 9-.1 11.8.7 1.1 10.1 12.7 20.9 25.7 10.9 13 20.3 24.6 21 25.7 1.2 1.8-.3 4-17.6 24.6L404.5 120H303V87h30c32.6 0 33.6-.1 37.9-5.6 3.8-4.8 2.4-13.8-2.6-17.1-2.4-1.6-6-1.9-33.8-2.3l-31-.5v-33l30.2-.5 30.3-.5 3.1-3.1c5.8-5.9 4.7-15.1-2.4-19.4-3-1.9-5.2-2-39.7-2-31.2 0-37 .3-39.7 1.6zM587.8 42.8c-5.7 3.5-5.8 4.1-5.8 50.2 0 46.3.1 46.8 5.9 50.3 3.6 2.1 9.3 2.2 13.1.2 6-3.1 6-3.2 6-50.5s0-47.4-6-50.5c-3.8-2-9.8-1.9-13.2.3zM661 43.4c-10.1 3.5-13 5.4-20.5 13-10.8 11-15.5 21.7-15.5 35.8 0 15.6 4.7 26.7 15.9 37.9 6.2 6.1 9.2 8.2 15.6 11 7.7 3.3 8.5 3.4 20.5 3.4s12.8-.1 20.5-3.4c6.5-2.8 9.3-4.8 15.5-11 11.5-11.6 16-21.9 16-37.1 0-23.3-15.5-43.8-37.9-50.4-8.3-2.4-22.1-2.1-30.1.8zm25.2 24.3c6.8 2.6 11.4 6.8 14.7 13.5 5.4 10.8 3.6 22.4-4.9 30.8-17.1 17.2-46.3 4.8-45.9-19.4.3-18.3 19.4-31.5 36.1-24.9zM544.3 122c-8.1 4.9-8.3 17.4-.3 21.5 3.5 1.8 9.7 1.9 12.8.1 5.9-3.2 7.9-11.4 4.2-17.3-3.7-6.1-10.8-7.9-16.7-4.3z"/></svg>