<?xml version="1.0" standalone="no"?>
<!DOCTYPE svg PUBLIC "-//W3C//DTD SVG 20010904//EN"
 "http://www.w3.org/TR/2001/REC-SVG-20010904/DTD/svg10.dtd">
<svg version="1.0" xmlns="http://www.w3.org/2000/svg"
 width="1280.000000pt" height="648.000000pt" viewBox="0 0 1280.000000 648.000000"
 preserveAspectRatio="xMidYMid meet">

<g transform="translate(0.000000,648.000000) scale(0.100000,-0.100000)"
fill="#000000" stroke="none">
<path d="M4188 6023 c6 -2 18 -2 25 0 6 3 1 5 -13 5 -14 0 -19 -2 -12 -5z"/>
<path d="M6501 6014 c0 -11 3 -14 6 -6 3 7 2 16 -1 19 -3 4 -6 -2 -5 -13z"/>
<path d="M6538 6023 c7 -3 16 -2 19 1 4 3 -2 6 -13 5 -11 0 -14 -3 -6 -6z"/>
<path d="M4118 6009 c-10 -5 -23 -20 -29 -32 l-10 -22 18 22 c10 12 29 27 43
32 14 5 18 10 10 10 -8 0 -23 -4 -32 -10z"/>
<path d="M4241 6017 c2 -1 13 -9 24 -17 19 -14 19 -14 6 3 -7 9 -18 17 -24 17
-6 0 -8 -1 -6 -3z"/>
<path d="M4304 5953 c9 -18 18 -33 20 -33 9 0 -8 41 -22 52 -13 11 -12 8 2
-19z"/>
<path d="M4651 5950 c0 -14 4 -32 9 -40 9 -13 10 -13 9 0 -1 8 -5 26 -9 40
l-8 25 -1 -25z"/>
<path d="M4446 5951 c-4 -5 3 -7 14 -4 23 6 26 13 6 13 -8 0 -17 -4 -20 -9z"/>
<path d="M4510 5953 c8 -3 22 -11 30 -17 13 -10 13 -9 1 7 -7 9 -21 17 -30 16
-13 0 -14 -1 -1 -6z"/>
<path d="M4718 5953 c7 -3 16 -2 19 1 4 3 -2 6 -13 5 -11 0 -14 -3 -6 -6z"/>
<path d="M4780 5947 c14 -8 27 -12 30 -10 7 6 -23 23 -40 23 -8 0 -4 -6 10
-13z"/>
<path d="M4920 5938 c-11 -12 -20 -26 -20 -32 0 -6 7 0 16 12 9 13 26 27 38
32 16 7 17 9 4 9 -10 1 -26 -9 -38 -21z"/>
<path d="M5150 5950 c-18 -12 -2 -12 25 0 13 6 15 9 5 9 -8 0 -22 -4 -30 -9z"/>
<path d="M5230 5953 c8 -3 22 -11 30 -17 13 -10 13 -9 1 7 -7 9 -21 17 -30 16
-13 0 -14 -1 -1 -6z"/>
<path d="M5376 5935 c8 -37 14 -45 14 -19 0 10 -5 26 -10 34 -8 11 -9 7 -4
-15z"/>
<path d="M5416 5951 c-4 -5 3 -7 14 -4 23 6 26 13 6 13 -8 0 -17 -4 -20 -9z"/>
<path d="M5524 5938 l-19 -21 30 18 c41 26 40 25 23 25 -8 0 -23 -10 -34 -22z"/>
<path d="M5600 5956 c0 -2 9 -6 20 -9 11 -3 18 -1 14 4 -5 9 -34 13 -34 5z"/>
<path d="M5989 5949 c13 -5 30 -17 38 -27 13 -15 13 -15 4 4 -10 21 -32 35
-54 33 -7 0 -1 -5 12 -10z"/>
<path d="M6143 5938 c-22 -26 -39 -63 -23 -53 6 3 10 12 10 20 0 7 12 23 26
34 15 12 22 21 17 21 -5 0 -19 -10 -30 -22z"/>
<path d="M6926 5951 c-4 -5 3 -7 14 -4 23 6 26 13 6 13 -8 0 -17 -4 -20 -9z"/>
<path d="M7154 5944 c-19 -15 -19 -15 1 -6 11 5 27 12 35 15 13 5 13 6 -1 6
-8 1 -24 -6 -35 -15z"/>
<path d="M7228 5953 c7 -3 16 -2 19 1 4 3 -2 6 -13 5 -11 0 -14 -3 -6 -6z"/>
<path d="M7569 5943 c-13 -17 -13 -17 6 -3 11 8 22 16 24 17 2 2 0 3 -6 3 -6
0 -17 -8 -24 -17z"/>
<path d="M7648 5953 c6 -2 18 -2 25 0 6 3 1 5 -13 5 -14 0 -19 -2 -12 -5z"/>
<path d="M7755 5949 c-4 -6 -4 -13 -1 -16 3 -4 6 -1 6 5 0 6 8 13 18 15 15 4
15 5 0 6 -9 0 -20 -4 -23 -10z"/>
<path d="M7830 5956 c0 -2 9 -6 20 -9 11 -3 18 -1 14 4 -5 9 -34 13 -34 5z"/>
<path d="M4066 5933 c-6 -14 -5 -15 5 -6 7 7 10 15 7 18 -3 3 -9 -2 -12 -12z"/>
<path d="M5046 5928 c10 -14 21 -24 23 -22 3 3 -6 15 -18 27 l-24 22 19 -27z"/>
<path d="M7476 5925 c24 -39 24 -40 24 -28 0 6 -9 21 -21 34 l-20 24 17 -30z"/>
<path d="M5877 5919 c4 -15 8 -17 14 -8 8 14 3 29 -11 29 -4 0 -6 -9 -3 -21z"/>
<path d="M6892 5915 c-7 -14 -12 -31 -12 -38 1 -7 7 3 16 22 17 39 13 54 -4
16z"/>
<path d="M7041 5920 c14 -31 19 -36 19 -24 0 6 -7 19 -16 30 -14 18 -14 18 -3
-6z"/>
<path d="M4403 5903 c-1 -19 1 -22 8 -12 11 17 12 39 2 39 -5 0 -9 -12 -10
-27z"/>
<path d="M5664 5917 c3 -10 6 -28 6 -40 1 -20 2 -20 11 -4 7 13 6 23 -7 40
-12 16 -15 17 -10 4z"/>
<path d="M6282 5920 c0 -8 4 -26 8 -40 6 -20 8 -21 8 -5 0 11 -3 29 -8 40 -5
12 -8 14 -8 5z"/>
<path d="M7336 5915 c-9 -26 -7 -32 5 -12 6 10 9 21 6 23 -2 3 -7 -2 -11 -11z"/>
<path d="M5271 5904 c0 -11 3 -14 6 -6 3 7 2 16 -1 19 -3 4 -6 -2 -5 -13z"/>
<path d="M6663 5907 c-4 -7 -17 -19 -28 -25 -11 -6 -15 -12 -9 -12 17 0 60 37
52 45 -3 4 -10 0 -15 -8z"/>
<path d="M4072 5885 c0 -16 2 -22 5 -12 2 9 2 23 0 30 -3 6 -5 -1 -5 -18z"/>
<path d="M5500 5899 c0 -5 5 -7 10 -4 6 3 10 8 10 11 0 2 -4 4 -10 4 -5 0 -10
-5 -10 -11z"/>
<path d="M7560 5904 c0 -18 27 -36 47 -31 14 4 14 5 -4 6 -12 0 -27 9 -32 19
-6 9 -11 12 -11 6z"/>
<path d="M7740 5906 c0 -2 8 -10 18 -17 15 -13 16 -12 3 4 -13 16 -21 21 -21
13z"/>
<path d="M7121 5884 c0 -11 3 -14 6 -6 3 7 2 16 -1 19 -3 4 -6 -2 -5 -13z"/>
<path d="M4832 5870 c0 -14 2 -19 5 -12 2 6 2 18 0 25 -3 6 -5 1 -5 -13z"/>
<path d="M5371 5874 c0 -11 3 -14 6 -6 3 7 2 16 -1 19 -3 4 -6 -2 -5 -13z"/>
<path d="M6030 5856 c0 -20 2 -36 4 -36 8 0 12 61 4 66 -4 3 -8 -11 -8 -30z"/>
<path d="M5265 5870 c3 -5 8 -10 11 -10 2 0 4 5 4 10 0 6 -5 10 -11 10 -5 0
-7 -4 -4 -10z"/>
<path d="M5872 5865 c0 -11 3 -29 8 -40 11 -25 11 1 0 35 -6 20 -8 21 -8 5z"/>
<path d="M6500 5864 c0 -8 5 -12 10 -9 6 3 10 10 10 16 0 5 -4 9 -10 9 -5 0
-10 -7 -10 -16z"/>
<path d="M6530 5870 c0 -4 18 -7 40 -7 22 0 39 2 36 4 -8 8 -76 10 -76 3z"/>
<path d="M6752 5850 c0 -19 2 -27 5 -17 2 9 2 25 0 35 -3 9 -5 1 -5 -18z"/>
<path d="M7330 5869 c0 -5 5 -7 10 -4 6 3 10 8 10 11 0 2 -4 4 -10 4 -5 0 -10
-5 -10 -11z"/>
<path d="M5140 5850 c-6 -11 -8 -20 -6 -20 3 0 10 9 16 20 6 11 8 20 6 20 -3
0 -10 -9 -16 -20z"/>
<path d="M7638 5863 c7 -3 16 -2 19 1 4 3 -2 6 -13 5 -11 0 -14 -3 -6 -6z"/>
<path d="M7829 5861 c38 -10 49 -36 26 -61 -16 -17 -16 -20 -2 -15 42 17 20
86 -27 84 -19 -1 -18 -2 3 -8z"/>
<path d="M6120 5848 c0 -21 38 -58 59 -58 10 0 6 5 -9 13 -13 7 -30 24 -37 37
-9 18 -13 20 -13 8z"/>
<path d="M4291 5831 c-6 -10 -24 -24 -41 -31 -17 -7 -29 -15 -26 -17 8 -8 65
27 76 47 6 11 8 20 6 20 -3 0 -10 -8 -15 -19z"/>
<path d="M4660 5830 c0 -11 4 -20 9 -20 5 0 7 9 4 20 -3 11 -7 20 -9 20 -2 0
-4 -9 -4 -20z"/>
<path d="M4899 5832 c5 -10 18 -25 27 -33 11 -9 9 -2 -6 19 -26 35 -36 42 -21
14z"/>
<path d="M5061 5841 c-1 -8 -9 -24 -18 -35 -16 -20 -16 -20 6 0 13 12 21 28
18 35 -4 11 -6 11 -6 0z"/>
<path d="M5271 5834 c0 -11 3 -14 6 -6 3 7 2 16 -1 19 -3 4 -6 -2 -5 -13z"/>
<path d="M7330 5845 c0 -5 5 -17 10 -25 5 -8 10 -10 10 -5 0 6 -5 17 -10 25
-5 8 -10 11 -10 5z"/>
<path d="M4806 5812 l-19 -27 24 22 c12 12 21 24 18 27 -2 2 -13 -8 -23 -22z"/>
<path d="M5771 5824 c0 -11 3 -14 6 -6 3 7 2 16 -1 19 -3 4 -6 -2 -5 -13z"/>
<path d="M6890 5831 c0 -9 49 -56 53 -50 1 2 -10 16 -25 31 -15 15 -28 23 -28
19z"/>
<path d="M7040 5821 c-5 -11 -19 -23 -31 -26 -11 -4 -18 -9 -16 -12 9 -8 46
16 57 37 6 11 8 20 6 20 -3 0 -10 -9 -16 -19z"/>
<path d="M4107 5809 c12 -12 25 -20 28 -17 3 3 -7 13 -22 23 l-28 17 22 -23z"/>
<path d="M5510 5820 c0 -13 49 -44 57 -36 3 3 1 6 -5 6 -7 0 -21 9 -32 20 -11
11 -20 16 -20 10z"/>
<path d="M5660 5819 c0 -5 5 -7 10 -4 6 3 10 8 10 11 0 2 -4 4 -10 4 -5 0 -10
-5 -10 -11z"/>
<path d="M7136 5817 c3 -10 9 -15 12 -12 3 3 0 11 -7 18 -10 9 -11 8 -5 -6z"/>
<path d="M5136 5806 c3 -8 13 -17 22 -21 13 -5 13 -2 -3 15 -21 24 -26 25 -19
6z"/>
<path d="M5371 5804 c0 -11 3 -14 6 -6 3 7 2 16 -1 19 -3 4 -6 -2 -5 -13z"/>
<path d="M7676 5803 c-6 -14 -5 -15 5 -6 7 7 10 15 7 18 -3 3 -9 -2 -12 -12z"/>
<path d="M5626 5795 c-11 -8 -15 -15 -9 -15 6 0 16 7 23 15 16 19 11 19 -14 0z"/>
<path d="M6292 5790 c0 -14 2 -19 5 -12 2 6 2 18 0 25 -3 6 -5 1 -5 -13z"/>
<path d="M5875 5790 c3 -5 8 -10 11 -10 2 0 4 5 4 10 0 6 -5 10 -11 10 -5 0
-7 -4 -4 -10z"/>
<path d="M7167 5789 c7 -7 15 -10 18 -7 3 3 -2 9 -12 12 -14 6 -15 5 -6 -5z"/>
<path d="M7240 5790 c-9 -6 -10 -10 -3 -10 6 0 15 5 18 10 8 12 4 12 -15 0z"/>
<path d="M7370 5790 c8 -5 20 -10 25 -10 6 0 3 5 -5 10 -8 5 -19 10 -25 10 -5
0 -3 -5 5 -10z"/>
<path d="M7560 5790 c8 -5 20 -10 25 -10 6 0 3 5 -5 10 -8 5 -19 10 -25 10 -5
0 -3 -5 5 -10z"/>
<path d="M4158 5783 c7 -3 16 -2 19 1 4 3 -2 6 -13 5 -11 0 -14 -3 -6 -6z"/>
<path d="M6263 5734 c-12 -13 -18 -24 -13 -24 11 0 40 29 40 41 0 12 -1 11
-27 -17z"/>
<path d="M6198 5703 c6 -2 18 -2 25 0 6 3 1 5 -13 5 -14 0 -19 -2 -12 -5z"/>
<path d="M6501 5019 c0 -9 -12 -20 -26 -23 -20 -5 -25 -13 -25 -36 0 -23 6
-33 25 -42 18 -8 25 -19 25 -40 0 -28 -2 -29 -31 -23 -22 5 -29 4 -25 -4 4 -6
13 -11 21 -11 7 0 21 -7 29 -16 9 -8 16 -10 16 -4 0 6 12 15 26 20 20 8 25 16
22 38 -2 16 -12 31 -25 37 -17 7 -23 18 -23 43 0 29 3 32 20 27 11 -4 20 -2
20 4 0 6 -9 11 -19 11 -11 0 -22 8 -24 18 -4 14 -5 15 -6 1z m-1 -59 c0 -33
-11 -38 -30 -15 -10 12 -10 18 0 30 19 23 30 18 30 -15z m50 -75 c0 -15 -15
-35 -26 -35 -9 0 -14 11 -14 30 0 28 2 30 20 20 11 -6 20 -12 20 -15z"/>
<path d="M4274 4924 c-20 -42 -33 -78 -31 -81 3 -2 10 5 17 16 9 17 20 21 60
21 40 0 50 -4 55 -20 3 -11 10 -20 15 -20 5 0 -6 34 -25 76 -19 42 -35 78 -35
80 0 2 -5 4 -11 4 -6 0 -26 -34 -45 -76z m65 15 c16 -46 15 -49 -24 -49 -19 0
-35 2 -35 4 0 14 32 76 39 76 5 0 14 -14 20 -31z"/>
<path d="M4437 4994 c-11 -11 -8 -154 3 -154 6 0 10 28 10 63 l0 62 31 -52
c17 -29 34 -53 37 -53 4 0 21 24 37 53 l30 52 5 -65 5 -65 5 56 c3 31 3 69 0
85 -6 28 -7 28 -39 -28 -18 -32 -37 -58 -41 -58 -5 0 -24 25 -42 55 -19 31
-37 52 -41 49z"/>
<path d="M4676 4979 c-19 -15 -26 -30 -26 -55 0 -49 14 -70 53 -83 88 -29 156
71 92 134 -30 31 -82 33 -119 4z m95 -2 c61 -47 33 -127 -45 -127 -28 0 -66
42 -66 72 0 26 44 68 72 68 13 0 30 -6 39 -13z"/>
<path d="M4860 4940 c0 -51 4 -65 25 -85 13 -14 34 -25 45 -25 12 0 32 11 45
25 21 20 25 34 25 79 0 30 -4 58 -10 61 -6 4 -10 -18 -10 -57 0 -70 -10 -88
-50 -88 -40 0 -50 18 -50 87 0 35 -4 63 -10 63 -6 0 -10 -27 -10 -60z"/>
<path d="M5050 4920 c0 -94 18 -108 22 -17 l3 62 49 -62 c27 -35 53 -63 58
-63 4 0 7 37 6 83 -2 76 -2 77 -5 20 -2 -35 -8 -63 -12 -63 -4 0 -30 27 -56
60 -26 33 -52 60 -57 60 -4 0 -8 -36 -8 -80z"/>
<path d="M5248 4993 l32 -4 0 -75 c0 -43 4 -74 10 -74 6 0 10 31 10 74 l0 75
33 4 c17 2 -2 4 -43 4 -41 0 -60 -2 -42 -4z"/>
<path d="M5450 4920 l0 -80 59 0 c73 0 94 17 70 59 -12 20 -13 31 -5 44 20 32
-5 52 -68 55 l-56 3 0 -81z m98 61 c8 -5 12 -17 10 -27 -2 -15 -14 -20 -51
-22 -44 -3 -47 -1 -47 21 0 13 3 27 7 30 9 10 65 8 81 -2z m17 -101 c0 -23 -4
-25 -52 -28 l-53 -3 0 31 0 31 53 -3 c48 -3 52 -5 52 -28z"/>
<path d="M5630 4920 l0 -80 58 2 c56 2 56 2 10 5 -46 4 -48 6 -48 34 0 27 2
29 40 29 22 0 40 5 40 10 0 6 -18 10 -40 10 -38 0 -40 2 -40 29 0 28 2 30 48
34 46 3 46 3 -10 5 l-58 2 0 -80z"/>
<path d="M5790 4921 l0 -81 58 2 c56 2 56 2 10 5 l-48 4 0 69 c0 38 -4 72 -10
75 -6 4 -10 -23 -10 -74z"/>
<path d="M5942 4977 c-22 -23 -29 -68 -16 -102 4 -8 20 -23 36 -31 85 -44 170
64 103 131 -33 34 -93 34 -123 2z m102 -8 c53 -42 24 -119 -45 -119 -31 0 -69
40 -69 72 0 24 44 68 68 68 11 0 31 -9 46 -21z"/>
<path d="M6112 4988 c3 -7 15 -43 27 -80 13 -38 28 -68 34 -68 7 0 17 17 24
38 6 20 17 51 23 67 l12 30 23 -65 c12 -36 28 -65 35 -65 11 0 60 120 60 148
0 24 -19 -9 -35 -63 -10 -33 -22 -60 -27 -60 -4 0 -8 4 -8 10 0 17 -41 120
-48 120 -4 0 -18 -29 -31 -65 -12 -36 -26 -63 -30 -61 -4 3 -16 32 -26 66 -10
33 -22 60 -28 60 -5 0 -7 -6 -5 -12z"/>
<path d="M6595 4991 c17 -7 21 -20 26 -82 l5 -74 2 83 2 82 -27 -1 c-24 0 -25
-1 -8 -8z"/>
<path d="M6698 4983 c-38 -44 -26 -123 21 -143 38 -15 65 -1 80 41 20 58 -10
119 -59 119 -15 0 -34 -8 -42 -17z m74 -10 c23 -20 24 -85 2 -107 -36 -37 -84
-7 -84 51 0 62 43 91 82 56z"/>
<path d="M6857 4982 c-25 -28 -23 -106 4 -133 24 -24 65 -20 87 8 19 26 15
107 -6 126 -24 22 -65 21 -85 -1z m75 -9 c23 -20 24 -80 1 -105 -35 -39 -83
-10 -83 49 0 62 43 91 82 56z"/>
<path d="M7022 4992 c-21 -14 -33 -73 -21 -109 31 -94 145 -37 122 59 -12 49
-62 74 -101 50z m72 -24 c21 -29 20 -77 -1 -100 -35 -39 -83 -10 -83 49 0 64
53 96 84 51z"/>
<path d="M8602 4427 c-45 -48 -16 -135 46 -138 37 -2 56 1 66 11 5 5 -13 8
-39 7 -41 -2 -50 2 -68 25 -17 23 -19 33 -11 55 14 40 55 61 94 46 16 -6 30
-8 30 -3 0 29 -91 26 -118 -3z"/>
<path d="M8766 4437 c-11 -23 -1 -114 15 -133 17 -20 83 -18 102 4 19 21 25
142 7 142 -6 0 -10 -28 -10 -63 0 -69 -10 -87 -51 -87 -38 0 -48 17 -51 90 -2
46 -6 60 -12 47z"/>
<path d="M8959 4448 c-6 -12 -3 -151 3 -154 4 -3 8 6 8 20 0 22 5 26 29 26 20
0 36 -9 49 -25 26 -33 39 -32 17 1 -16 24 -16 26 0 38 23 17 22 66 -1 83 -15
11 -101 19 -105 11z m95 -24 c33 -33 6 -74 -50 -74 -34 0 -34 0 -34 45 0 45 0
45 34 45 19 0 42 -7 50 -16z"/>
<path d="M9131 4368 c1 -50 4 -73 8 -58 10 37 55 40 83 5 23 -29 36 -28 17 3
-10 16 -9 24 4 43 22 31 21 45 -3 69 -14 14 -33 20 -65 20 l-45 0 1 -82z m90
62 c25 -14 25 -56 -1 -70 -12 -6 -33 -10 -48 -8 -21 2 -28 9 -30 31 -2 16 -1
35 2 43 6 16 49 19 77 4z"/>
<path d="M9300 4371 c0 -86 4 -91 72 -86 48 3 44 15 -5 15 l-46 0 0 69 0 70
47 4 c46 3 46 3 -10 5 l-58 2 0 -79z"/>
<path d="M9467 4443 c-9 -15 -6 -153 3 -153 5 0 10 28 12 62 l3 62 50 -62 c28
-34 53 -62 58 -62 4 0 6 37 5 83 l-2 82 -5 -70 -6 -69 -53 67 c-56 70 -58 72
-65 60z"/>
<path d="M9670 4425 c-29 -31 -32 -85 -5 -115 13 -15 30 -20 66 -20 26 0 51 5
54 10 4 7 -8 8 -35 4 -34 -6 -45 -3 -65 16 -33 31 -33 72 1 99 28 22 69 28 79
11 3 -5 11 -10 17 -10 7 0 6 6 -2 15 -21 25 -83 19 -110 -10z"/>
<path d="M9810 4444 c0 -4 14 -29 30 -56 17 -26 30 -61 31 -76 1 -26 1 -26 9
5 4 17 21 54 38 82 18 28 28 51 23 51 -5 0 -21 -21 -36 -46 l-27 -47 -29 47
c-27 43 -39 55 -39 40z"/>
<path d="M9353 4363 c9 -2 23 -2 30 0 6 3 -1 5 -18 5 -16 0 -22 -2 -12 -5z"/>
<path d="M7010 4322 c0 -7 -11 -17 -25 -22 -18 -7 -25 -17 -25 -35 0 -17 8
-29 25 -37 19 -9 25 -19 25 -45 0 -36 -2 -38 -31 -23 -13 7 -19 7 -19 1 0 -6
11 -13 24 -17 14 -3 27 -13 29 -22 4 -15 5 -15 6 1 0 9 7 17 15 17 20 0 46 39
39 57 -3 8 -16 19 -29 24 -34 12 -35 69 -1 69 21 1 21 1 2 12 -11 6 -23 16
-27 22 -5 7 -8 7 -8 -2z m0 -57 c0 -16 -6 -25 -15 -25 -15 0 -21 31 -8 43 13
14 23 6 23 -18z m34 -61 c20 -8 21 -40 2 -47 -19 -7 -26 1 -26 30 0 25 1 26
24 17z"/>
<path d="M4275 4234 c-35 -76 -48 -125 -19 -71 13 23 21 27 60 27 38 0 46 -4
56 -25 17 -37 31 -30 14 8 -38 89 -57 127 -66 132 -5 3 -25 -29 -45 -71z m60
16 c22 -42 19 -50 -20 -50 -19 0 -35 2 -35 5 0 7 33 75 37 75 1 0 9 -13 18
-30z"/>
<path d="M4694 4296 c-80 -35 -48 -156 41 -156 94 0 119 126 31 160 -34 12
-34 12 -72 -4z m99 -38 c17 -23 18 -31 8 -57 -25 -60 -109 -64 -131 -5 -14 35
-13 37 11 68 29 36 83 33 112 -6z"/>
<path d="M5230 4300 c0 -5 11 -10 25 -10 24 0 25 -2 25 -76 0 -47 4 -73 10
-69 6 3 10 37 10 76 0 67 1 69 25 69 14 0 25 5 25 10 0 6 -27 10 -60 10 -33 0
-60 -4 -60 -10z"/>
<path d="M5457 4303 c-4 -3 -7 -42 -7 -85 l0 -78 58 2 57 1 -50 6 c-48 6 -50
7 -50 36 0 28 3 30 45 34 l45 5 -45 5 c-40 5 -45 9 -45 31 0 23 4 25 48 28 26
2 47 7 47 13 0 10 -93 13 -103 2z"/>
<path d="M5600 4301 c0 -7 11 -27 25 -43 l26 -30 -24 -32 c-33 -43 -39 -56
-30 -56 4 0 19 16 32 35 13 19 26 35 30 35 3 0 16 -16 29 -36 13 -20 26 -33
29 -30 3 3 -6 24 -22 46 l-27 39 26 32 c15 17 24 34 21 38 -6 6 -25 -15 -45
-49 -8 -13 -11 -12 -24 5 -38 52 -45 60 -46 46z"/>
<path d="M5802 4303 c-29 -6 -55 -46 -55 -85 0 -61 98 -106 134 -61 12 15 12
16 -6 9 -47 -20 -64 -18 -89 7 -32 32 -33 66 -5 96 19 20 28 22 68 17 28 -4
42 -3 36 3 -13 13 -55 20 -83 14z"/>
<path d="M5937 4303 c-4 -3 -7 -42 -7 -85 l0 -78 63 2 62 2 -52 3 c-53 4 -53
4 -53 38 0 33 2 34 43 38 l42 4 -42 1 c-41 2 -43 4 -43 32 0 29 2 30 45 30 25
0 45 5 45 10 0 11 -93 14 -103 3z"/>
<path d="M6099 4308 c-5 -8 -6 -136 -2 -150 3 -15 15 -18 61 -16 l57 2 -52 3
c-53 4 -53 4 -53 38 0 33 2 34 43 38 l42 4 -42 1 c-41 2 -43 4 -43 32 0 29 2
30 45 30 25 0 45 5 45 10 0 8 -97 15 -101 8z"/>
<path d="M6257 4304 c-3 -5 -4 -43 -3 -84 l1 -75 52 -3 c45 -3 56 1 78 22 55
56 17 132 -71 143 -28 3 -54 2 -57 -3z m123 -41 c15 -19 19 -35 15 -53 -10
-39 -30 -53 -77 -54 l-43 -1 -3 68 -3 67 45 0 c37 0 48 -5 66 -27z"/>
<path d="M6450 4225 c0 -50 4 -85 10 -85 6 0 10 35 10 85 0 50 -4 85 -10 85
-6 0 -10 -35 -10 -85z"/>
<path d="M6754 4296 c-34 -15 -44 -33 -44 -77 0 -39 40 -79 79 -79 50 0 61 9
60 49 -2 34 -2 34 -6 6 -8 -51 -57 -62 -98 -20 -32 31 -32 65 0 95 20 19 31
22 66 17 23 -3 38 -2 33 3 -17 17 -59 19 -90 6z"/>
<path d="M7100 4301 c0 -6 7 -11 15 -11 12 0 15 -15 15 -76 0 -48 4 -73 10
-69 6 4 9 40 8 83 -3 71 -5 77 -25 80 -13 2 -23 -1 -23 -7z"/>
<path d="M7216 4289 c-21 -17 -26 -29 -26 -65 0 -79 66 -113 110 -56 28 34 22
98 -10 124 -29 23 -41 23 -74 -3z m74 -18 c17 -32 12 -86 -9 -105 -53 -48
-106 52 -59 112 16 19 56 14 68 -7z"/>
<path d="M7385 4298 c-29 -17 -35 -28 -35 -75 0 -78 67 -111 110 -55 28 34 22
98 -10 124 -26 21 -37 22 -65 6z m65 -27 c24 -46 1 -121 -37 -121 -23 0 -53
39 -53 68 0 60 65 98 90 53z"/>
<path d="M7550 4303 c-27 -9 -40 -36 -40 -80 0 -73 63 -110 106 -62 24 26 26
102 4 123 -19 17 -50 26 -70 19z m60 -32 c23 -44 0 -121 -36 -121 -45 0 -73
90 -38 124 21 22 61 20 74 -3z"/>
<path d="M2096 4284 c-9 -24 -2 -26 12 -4 7 11 8 20 3 20 -5 0 -12 -7 -15 -16z"/>
<path d="M2231 4218 c1 -46 4 -71 6 -56 3 22 10 28 36 31 l32 4 -33 1 -34 2 4
50 c1 28 0 50 -4 50 -5 0 -7 -37 -7 -82z"/>
<path d="M2300 4296 c0 -2 7 -7 16 -10 8 -3 12 -2 9 4 -6 10 -25 14 -25 6z"/>
<path d="M2403 4220 c0 -47 2 -73 4 -58 3 20 11 28 31 31 l27 4 -27 2 c-25 1
-27 4 -31 54 -2 31 -3 18 -4 -33z"/>
<path d="M2573 4220 c0 -47 2 -73 4 -58 4 24 10 27 46 31 l42 4 -42 1 -42 2
-4 53 c-2 31 -3 18 -4 -33z"/>
<path d="M2830 4296 c0 -2 7 -7 16 -10 8 -3 12 -2 9 4 -6 10 -25 14 -25 6z"/>
<path d="M2920 4295 c0 -5 5 -17 10 -25 5 -8 10 -10 10 -5 0 6 -5 17 -10 25
-5 8 -10 11 -10 5z"/>
<path d="M3055 4289 c-4 -6 -5 -12 -2 -15 2 -3 7 2 10 11 7 17 1 20 -8 4z"/>
<path d="M3338 4293 c7 -3 16 -2 19 1 4 3 -2 6 -13 5 -11 0 -14 -3 -6 -6z"/>
<path d="M4430 4225 c0 -47 4 -75 11 -75 6 0 10 19 9 48 -3 71 -2 71 34 12
l34 -54 19 33 c10 18 26 43 35 55 17 20 17 19 18 -43 0 -35 3 -61 6 -58 6 6 7
41 5 133 -1 34 -14 24 -48 -36 -15 -28 -31 -50 -35 -50 -3 0 -20 25 -37 55
-17 30 -36 55 -41 55 -6 0 -10 -32 -10 -75z"/>
<path d="M4860 4240 c0 -69 21 -100 68 -100 50 0 65 20 70 94 3 44 1 66 -7 66
-7 0 -11 -22 -11 -59 0 -80 -28 -109 -81 -81 -16 9 -19 22 -19 75 0 37 -4 65
-10 65 -6 0 -10 -27 -10 -60z"/>
<path d="M5050 4226 c0 -41 5 -78 10 -81 6 -4 10 17 10 54 0 34 3 61 8 61 4 0
16 -12 27 -27 11 -15 35 -43 52 -63 l32 -35 -1 85 c-2 75 -2 77 -5 23 -2 -35
-7 -63 -11 -63 -4 1 -27 27 -52 60 -25 33 -51 59 -57 60 -9 0 -13 -21 -13 -74z"/>
<path d="M6532 4218 c2 -76 2 -77 5 -20 2 34 8 62 12 62 4 0 29 -27 55 -60 26
-33 49 -60 52 -60 2 0 3 37 2 83 l-1 82 -6 -65 -6 -65 -49 60 c-26 33 -52 62
-57 63 -5 2 -8 -34 -7 -80z"/>
<path d="M2746 4268 c-9 -12 -16 -34 -15 -48 1 -22 2 -21 9 7 4 18 13 40 20
48 7 8 10 15 7 15 -3 0 -13 -10 -21 -22z"/>
<path d="M3385 4270 c10 -11 20 -20 23 -20 3 0 -3 9 -13 20 -10 11 -20 20 -23
20 -3 0 3 -9 13 -20z"/>
<path d="M2341 4255 c0 -17 -7 -38 -13 -45 -7 -8 -5 -8 5 1 13 11 17 26 14 45
l-4 29 -2 -30z"/>
<path d="M2870 4271 c0 -6 4 -13 10 -16 6 -3 7 1 4 9 -7 18 -14 21 -14 7z"/>
<path d="M2678 4241 c-5 -36 -3 -38 11 -13 5 10 6 24 2 31 -6 9 -10 3 -13 -18z"/>
<path d="M2891 4224 c-1 -12 -10 -33 -22 -48 -14 -18 -16 -24 -6 -20 18 7 41
58 34 76 -3 7 -6 4 -6 -8z"/>
<path d="M2950 4225 c0 -5 5 -17 10 -25 5 -8 10 -10 10 -5 0 6 -5 17 -10 25
-5 8 -10 11 -10 5z"/>
<path d="M2055 4190 c-3 -5 -1 -10 4 -10 6 0 11 5 11 10 0 6 -2 10 -4 10 -3 0
-8 -4 -11 -10z"/>
<path d="M2155 4190 c3 -5 8 -10 11 -10 2 0 4 5 4 10 0 6 -5 10 -11 10 -5 0
-7 -4 -4 -10z"/>
<path d="M2740 4181 c0 -10 29 -36 34 -30 1 2 -6 12 -16 22 -10 9 -18 13 -18
8z"/>
<path d="M3004 4175 c-5 -12 -10 -13 -20 -4 -8 7 -14 7 -14 1 0 -5 6 -15 13
-21 11 -8 16 -5 25 14 6 14 9 25 6 25 -2 0 -7 -7 -10 -15z"/>
<path d="M2170 4161 c0 -5 5 -13 10 -16 6 -3 10 -2 10 4 0 5 -4 13 -10 16 -5
3 -10 2 -10 -4z"/>
<path d="M3376 4163 c-4 -4 -31 -10 -59 -14 l-52 -6 46 -2 c26 0 53 5 65 14
10 8 16 15 13 15 -3 0 -9 -3 -13 -7z"/>
<path d="M8592 4078 l3 -82 47 -1 c26 -1 53 2 60 6 8 5 -8 9 -39 9 l-53 0 0
33 c0 32 1 33 34 29 18 -2 37 1 40 7 5 7 -7 11 -33 11 -39 0 -41 2 -41 29 0
28 2 30 48 34 46 3 46 3 -11 5 l-58 2 3 -82z"/>
<path d="M8746 4148 c4 -7 16 -25 26 -41 l20 -27 -32 -40 c-38 -48 -27 -54 13
-8 l27 33 28 -33 c39 -47 49 -40 13 10 l-31 42 25 32 c35 45 31 57 -5 15 l-29
-34 -20 24 c-11 13 -20 27 -21 32 0 4 -5 7 -11 7 -5 0 -7 -6 -3 -12z"/>
<path d="M8912 4137 c-51 -54 -10 -142 64 -140 20 1 41 6 48 13 8 8 1 9 -31 4
-36 -5 -45 -3 -67 19 -14 15 -26 35 -26 47 0 12 12 32 26 47 22 22 31 24 65
19 27 -4 38 -3 34 4 -3 5 -25 10 -49 10 -32 0 -48 -6 -64 -23z"/>
<path d="M9083 4080 c0 -47 2 -68 4 -47 l4 37 54 0 54 0 4 -37 c2 -21 4 0 4
47 0 47 -2 68 -4 48 l-4 -38 -54 0 -54 0 -4 38 c-2 20 -4 -1 -4 -48z"/>
<path d="M9284 4084 c-19 -42 -33 -79 -30 -81 2 -3 9 5 16 16 9 17 20 21 60
21 40 0 50 -4 55 -20 3 -11 11 -20 16 -20 10 0 -2 32 -42 113 -12 26 -27 47
-32 47 -4 0 -24 -34 -43 -76z m61 26 c23 -45 19 -60 -14 -60 -17 0 -32 4 -36
9 -5 8 24 81 32 81 1 0 9 -13 18 -30z"/>
<path d="M9440 4080 c0 -94 18 -108 22 -18 l3 63 49 -60 c26 -33 52 -61 57
-63 5 -2 8 34 7 80 -2 76 -2 77 -5 21 -2 -35 -8 -63 -12 -63 -4 0 -29 27 -55
60 -26 33 -52 60 -57 60 -5 0 -9 -36 -9 -80z"/>
<path d="M9650 4140 c-64 -64 -1 -164 90 -140 21 5 25 13 26 46 1 29 1 32 -3
9 -3 -16 -10 -33 -16 -37 -23 -15 -64 -8 -85 15 -29 31 -28 68 3 97 20 19 31
22 67 16 30 -4 39 -3 28 4 -26 17 -88 12 -110 -10z"/>
<path d="M9832 4078 l3 -83 48 0 c27 0 51 3 54 8 2 4 -19 7 -46 7 -50 0 -51 1
-51 30 0 28 2 30 40 30 22 0 40 5 40 10 0 6 -18 10 -40 10 -38 0 -40 2 -40 29
0 28 2 30 48 34 l47 3 -53 2 -53 2 3 -82z"/>
<path d="M2803 4143 c9 -2 23 -2 30 0 6 3 -1 5 -18 5 -16 0 -22 -2 -12 -5z"/>
<path d="M3138 4143 c18 -2 45 -2 60 0 15 2 0 4 -33 4 -33 0 -45 -2 -27 -4z"/>
<path d="M7010 3630 c0 -8 -10 -20 -22 -25 -34 -15 -36 -58 -3 -73 19 -9 25
-19 25 -43 0 -29 -2 -31 -26 -25 -17 5 -23 3 -19 -4 3 -5 15 -10 26 -10 11 0
19 -7 19 -17 1 -17 1 -17 11 0 5 9 16 17 24 17 18 0 37 34 29 53 -3 8 -16 19
-30 25 -18 9 -24 19 -24 43 0 29 2 31 26 25 17 -5 23 -3 19 4 -3 5 -12 10 -20
10 -8 0 -19 8 -24 18 -8 13 -10 14 -11 2z m0 -60 c0 -31 -16 -41 -26 -15 -8
19 2 45 16 45 5 0 10 -13 10 -30z m40 -65 c15 -18 6 -45 -15 -45 -10 0 -15 10
-15 30 0 33 11 38 30 15z"/>
<path d="M4281 3553 c-15 -32 -31 -69 -35 -83 l-7 -25 17 23 c23 31 109 33
119 2 3 -11 10 -20 15 -20 5 0 -8 36 -27 80 -20 44 -40 80 -45 80 -4 0 -21
-26 -37 -57z m55 2 c20 -49 18 -55 -21 -55 -19 0 -35 2 -35 5 0 10 32 85 37
85 2 0 11 -16 19 -35z"/>
<path d="M4437 3604 c-11 -11 -8 -154 3 -154 5 0 10 26 12 58 l3 57 28 -47
c16 -27 32 -48 36 -48 3 0 17 20 31 45 14 25 28 45 32 45 4 0 9 -28 11 -62 3
-54 3 -51 5 25 1 48 0 87 -3 87 -3 0 -19 -25 -36 -55 -17 -30 -35 -55 -39 -55
-5 0 -24 25 -42 55 -19 31 -37 52 -41 49z"/>
<path d="M4676 3589 c-49 -39 -24 -137 37 -140 46 -3 63 3 85 27 69 77 -39
178 -122 113z m89 5 c8 -4 22 -19 30 -35 39 -74 -63 -138 -114 -73 -27 35 -26
59 4 89 24 25 49 31 80 19z"/>
<path d="M4860 3551 c0 -73 21 -104 70 -104 48 0 70 31 70 99 0 30 -4 54 -10
54 -6 0 -10 -26 -10 -58 0 -64 -11 -82 -50 -82 -40 0 -50 18 -50 87 0 35 -4
63 -10 63 -6 0 -10 -26 -10 -59z"/>
<path d="M5057 3603 c-9 -9 -9 -127 1 -150 4 -11 9 7 12 52 l5 70 49 -63 c27
-34 53 -62 57 -62 5 0 8 37 7 83 -2 76 -2 77 -5 20 -2 -35 -8 -63 -13 -63 -5
0 -30 27 -55 60 -50 64 -48 63 -58 53z"/>
<path d="M5253 3603 c27 -4 27 -5 27 -79 0 -43 4 -74 10 -74 6 0 10 31 10 74
l0 75 33 4 c17 2 1 4 -38 4 -38 0 -58 -2 -42 -4z"/>
<path d="M5450 3530 l0 -80 58 2 57 1 -50 6 c-45 5 -50 8 -50 31 0 22 5 26 45
31 l45 6 -42 1 c-37 2 -43 6 -49 28 -9 33 2 42 56 47 42 3 41 4 -12 5 l-58 2
0 -80z"/>
<path d="M5600 3607 c0 -4 11 -24 24 -44 l25 -36 -25 -32 c-34 -45 -30 -57 6
-15 l29 35 30 -35 c37 -43 41 -31 5 16 l-26 34 26 34 c36 47 32 59 -5 16 l-30
-35 -29 35 c-16 19 -30 31 -30 27z"/>
<path d="M5782 3594 c-13 -9 -27 -27 -33 -40 -12 -34 12 -90 43 -99 33 -11 79
-8 92 5 8 8 0 9 -32 4 -36 -6 -46 -3 -67 16 -32 30 -32 64 0 95 26 27 64 32
83 13 6 -6 15 -8 19 -4 4 4 1 11 -7 16 -23 15 -73 12 -98 -6z"/>
<path d="M5937 3603 c-4 -3 -7 -39 -7 -80 l0 -73 63 2 62 2 -52 3 c-51 4 -53
5 -53 34 0 27 2 29 41 29 24 0 38 4 34 10 -3 5 -21 9 -38 7 -29 -2 -32 1 -35
30 -3 31 -2 32 45 36 l48 3 -51 2 c-28 1 -54 -1 -57 -5z"/>
<path d="M6095 3600 c-3 -5 -5 -41 -3 -80 l3 -70 55 2 55 2 -47 3 c-46 4 -48
6 -48 34 0 27 2 29 40 29 22 0 40 5 40 11 0 6 -12 10 -27 9 -48 -3 -53 -1 -53
29 0 29 2 30 53 34 l52 3 -57 2 c-31 1 -60 -2 -63 -8z"/>
<path d="M6257 3603 c-6 -11 -6 -114 -1 -139 5 -18 11 -20 57 -17 61 5 97 36
97 84 0 48 -39 79 -99 79 -27 0 -52 -3 -54 -7z m118 -28 c14 -13 25 -33 25
-45 0 -36 -44 -70 -90 -70 l-40 0 0 70 0 70 40 0 c30 0 47 -7 65 -25z"/>
<path d="M6450 3525 c0 -50 4 -85 10 -85 6 0 10 35 10 85 0 50 -4 85 -10 85
-6 0 -10 -35 -10 -85z"/>
<path d="M6532 3529 c2 -76 2 -78 5 -21 2 34 7 62 11 62 4 -1 27 -27 52 -60
25 -33 48 -59 53 -60 4 0 6 37 5 83 l-2 82 -5 -70 -6 -70 -37 50 c-20 28 -46
59 -57 69 l-21 19 2 -84z"/>
<path d="M6735 3585 c-28 -27 -34 -80 -12 -108 15 -22 65 -35 97 -27 21 5 25
12 27 45 l1 40 -6 -35 c-6 -31 -11 -35 -41 -38 -24 -3 -40 3 -57 19 -31 29
-31 63 1 94 26 27 54 31 86 15 11 -6 19 -7 19 -1 0 30 -84 28 -115 -4z"/>
<path d="M7108 3603 c20 -4 22 -10 22 -81 0 -53 3 -73 10 -66 6 6 10 41 8 80
-3 69 -3 69 -33 71 -20 1 -23 0 -7 -4z"/>
<path d="M7210 3590 c-27 -27 -28 -100 0 -125 22 -20 63 -23 85 -5 18 15 29
71 20 99 -16 52 -69 67 -105 31z m74 -6 c18 -18 21 -76 6 -105 -13 -23 -53
-25 -71 -3 -7 9 -14 33 -14 54 0 62 43 91 79 54z"/>
<path d="M7370 3590 c-27 -27 -28 -100 0 -125 22 -20 63 -23 85 -5 18 15 29
71 20 99 -16 52 -69 67 -105 31z m72 -7 c20 -18 24 -73 8 -104 -28 -51 -99 1
-86 63 11 57 42 74 78 41z"/>
<path d="M7526 3588 c-17 -23 -21 -94 -8 -115 14 -22 57 -32 83 -20 42 22 50
104 13 141 -23 24 -70 20 -88 -6z m76 -5 c20 -18 24 -73 8 -104 -24 -44 -90
-7 -90 51 0 32 26 70 47 70 9 0 25 -7 35 -17z"/>
<path d="M7687 3592 c-20 -22 -23 -101 -4 -124 12 -16 33 -22 69 -19 21 1 48
50 48 84 0 61 -76 100 -113 59z m77 -14 c18 -26 21 -71 6 -99 -13 -23 -47 -25
-72 -2 -36 32 -12 123 32 123 10 0 26 -10 34 -22z"/>
<path d="M2667 3183 c-21 -58 -35 -108 -32 -111 2 -3 7 1 9 9 3 8 21 58 40
112 19 53 32 97 27 97 -4 0 -24 -48 -44 -107z"/>
<path d="M740 3185 c0 -69 3 -85 15 -85 12 0 15 16 15 85 0 69 -3 85 -15 85
-12 0 -15 -16 -15 -85z"/>
<path d="M452 3253 c-21 -8 -44 -63 -38 -89 10 -37 45 -64 85 -64 39 0 70 14
58 26 -4 4 -13 2 -19 -4 -32 -32 -108 8 -108 57 0 15 10 38 21 50 19 20 28 22
68 17 32 -4 41 -3 31 4 -16 10 -76 12 -98 3z"/>
<path d="M600 3180 l0 -80 58 2 c56 2 56 2 10 5 l-48 4 0 75 c0 43 -4 74 -10
74 -6 0 -10 -33 -10 -80z"/>
<path d="M820 3180 l0 -80 58 2 57 1 -50 6 c-45 5 -50 9 -53 32 -2 21 2 28 22
33 13 3 31 3 39 0 8 -3 18 -1 22 5 4 7 -10 11 -39 11 -44 0 -46 1 -46 29 0 28
2 30 48 34 l47 3 -52 2 -53 2 0 -80z"/>
<path d="M982 3178 c2 -77 2 -78 5 -20 2 34 8 62 13 62 4 0 24 -22 44 -49 63
-86 66 -85 64 10 -2 76 -2 78 -5 22 -2 -35 -7 -63 -11 -63 -4 1 -27 27 -52 60
-25 33 -48 59 -52 60 -5 0 -7 -37 -6 -82z"/>
<path d="M1173 3253 c26 -4 27 -6 27 -73 0 -38 5 -72 10 -75 6 -4 10 21 10 69
l0 75 33 4 c17 2 1 4 -38 4 -38 0 -58 -2 -42 -4z"/>
<path d="M2100 3256 c0 -2 -16 -38 -35 -80 -19 -42 -30 -76 -25 -76 5 0 12 9
15 20 5 17 15 20 57 20 41 0 51 -3 55 -20 4 -17 23 -29 23 -16 0 16 -72 156
-80 156 -5 0 -10 -2 -10 -4z m44 -83 c7 -21 4 -23 -28 -23 -41 0 -45 13 -20
62 l16 32 13 -25 c7 -13 16 -34 19 -46z"/>
<path d="M2232 3178 l1 -83 6 65 6 65 30 -52 c17 -29 33 -53 37 -53 4 0 21 24
38 53 l30 52 0 -62 c0 -35 4 -63 10 -63 6 0 10 33 10 80 0 44 -4 80 -8 80 -4
0 -24 -28 -44 -61 l-36 -62 -32 57 c-18 31 -36 59 -41 62 -5 3 -8 -30 -7 -78z"/>
<path d="M2462 3183 l-2 -83 58 2 57 2 -52 3 -52 4 -4 77 -3 77 -2 -82z"/>
<path d="M2800 3180 c0 -47 4 -80 10 -80 6 0 10 9 10 21 0 11 7 27 16 36 14
14 19 12 53 -21 50 -49 62 -46 17 4 -20 22 -36 43 -36 47 0 4 14 22 32 40 18
18 27 33 21 33 -5 0 -27 -20 -49 -45 -21 -25 -42 -45 -46 -45 -4 0 -8 20 -8
45 0 25 -4 45 -10 45 -6 0 -10 -33 -10 -80z"/>
<path d="M2951 3238 c7 -13 20 -35 30 -50 11 -14 19 -40 19 -57 0 -17 5 -31
10 -31 6 0 10 13 10 28 0 15 14 50 31 76 16 27 27 51 23 55 -4 3 -8 2 -10 -4
-2 -5 -15 -27 -27 -49 l-24 -38 -29 46 c-29 47 -54 65 -33 24z"/>
<path d="M3120 3238 c-20 -21 -26 -70 -14 -103 15 -37 78 -51 121 -26 14 8 6
9 -28 5 -39 -5 -50 -3 -68 15 -30 30 -25 77 12 105 23 17 32 19 57 9 17 -6 32
-8 35 -3 7 11 -20 20 -60 20 -22 0 -41 -8 -55 -22z"/>
<path d="M8937 3144 c-4 -4 -7 -74 -7 -156 l0 -148 25 0 c24 0 25 2 25 65 l0
65 65 0 65 0 0 -65 c0 -63 1 -65 25 -65 l26 0 -3 153 c-3 144 -4 152 -23 152
-18 0 -20 -8 -23 -62 l-3 -63 -64 0 -64 0 -3 62 c-2 47 -7 64 -18 66 -9 1 -19
0 -23 -4z"/>
<path d="M11086 3115 c-8 -9 -13 -22 -10 -29 3 -7 -2 -16 -10 -19 -17 -7 -22
-37 -6 -37 6 0 10 -32 10 -75 0 -86 20 -119 68 -113 33 4 44 38 13 38 -19 0
-21 6 -21 75 0 68 2 75 20 75 12 0 20 7 20 16 0 9 -9 18 -20 21 -14 4 -20 14
-20 34 0 32 -19 38 -44 14z"/>
<path d="M9248 3048 l-21 -21 23 -9 c15 -6 26 -5 30 2 4 7 22 10 41 8 52 -5
43 -30 -16 -46 -27 -8 -58 -21 -67 -30 -27 -23 -23 -67 8 -91 32 -25 46 -26
84 -6 25 13 29 13 34 0 3 -8 15 -15 26 -15 18 0 20 6 20 79 0 80 -11 129 -33
143 -7 4 -33 8 -59 8 -36 0 -53 -5 -70 -22z m105 -131 c-6 -33 -47 -48 -69
-25 -21 20 -8 44 29 55 39 12 47 6 40 -30z"/>
<path d="M9474 3057 c-2 -7 -3 -78 -2 -157 3 -142 4 -145 26 -148 20 -3 22 0
22 51 0 63 5 71 34 52 28 -20 49 -19 79 6 36 28 51 87 36 140 -20 65 -72 87
-124 53 -23 -15 -25 -15 -25 0 0 19 -38 22 -46 3z m128 -34 c23 -21 25 -104 2
-127 -19 -19 -48 -21 -62 -3 -31 39 -25 122 11 137 30 12 28 12 49 -7z"/>
<path d="M9730 2910 l0 -160 25 0 c24 0 25 3 25 60 l0 60 35 -17 c30 -14 38
-15 61 -3 59 32 73 143 24 195 -27 29 -80 34 -100 10 -7 -8 -16 -15 -21 -15
-5 0 -9 7 -9 15 0 8 -9 15 -20 15 -19 0 -20 -7 -20 -160z m138 102 c29 -37 3
-132 -35 -132 -33 0 -53 31 -53 81 0 37 5 51 21 63 23 16 47 12 67 -12z"/>
<path d="M9960 3062 c0 -5 18 -55 41 -112 44 -114 45 -146 4 -156 -34 -8 -34
-44 -1 -44 47 0 75 38 121 170 25 69 45 131 45 138 0 8 -9 12 -22 10 -17 -2
-26 -18 -45 -73 -13 -38 -27 -73 -32 -78 -5 -5 -18 21 -32 65 -12 40 -28 76
-33 80 -15 10 -46 10 -46 0z"/>
<path d="M10360 3043 c-27 -24 -31 -35 -32 -79 0 -29 5 -61 11 -73 13 -24 61
-51 91 -51 44 0 90 36 90 71 0 17 -45 9 -58 -11 -7 -11 -21 -20 -31 -20 -34 0
-51 28 -51 80 0 39 4 52 22 64 29 20 34 20 58 -4 14 -14 26 -17 40 -12 l21 8
-21 27 c-31 39 -97 38 -140 0z"/>
<path d="M10577 3064 c-13 -13 -7 -144 7 -179 17 -41 54 -54 94 -34 15 7 30
15 35 17 4 2 7 -4 7 -13 0 -11 7 -15 23 -13 21 3 22 7 22 113 l0 110 -25 0
c-24 0 -25 -2 -30 -84 -4 -65 -9 -86 -22 -95 -13 -8 -23 -8 -35 0 -14 9 -19
30 -23 95 -4 75 -7 84 -25 87 -12 2 -24 0 -28 -4z"/>
<path d="M10840 3050 c-42 -42 -14 -91 65 -113 37 -11 50 -19 50 -33 0 -28
-55 -31 -79 -6 -19 22 -56 19 -56 -4 0 -21 60 -54 98 -54 48 0 92 34 92 70 0
38 -21 57 -86 76 -30 8 -54 21 -54 29 0 19 41 26 70 12 26 -13 60 -11 60 3 0
20 -47 40 -92 40 -35 0 -54 -6 -68 -20z"/>
<path d="M11253 3060 c-47 -19 -70 -121 -37 -168 24 -34 71 -55 110 -48 120
23 109 227 -13 225 -21 0 -48 -4 -60 -9z m95 -48 c18 -23 15 -92 -5 -114 -39
-43 -93 -6 -93 63 0 64 62 95 98 51z"/>
<path d="M11467 3063 c-4 -3 -7 -55 -7 -115 l0 -108 25 0 c24 0 25 2 26 68 1
85 9 113 35 123 36 13 43 -3 46 -96 3 -83 5 -90 24 -93 26 -4 34 19 34 105 0
59 15 93 40 93 5 0 16 -7 24 -16 12 -12 16 -36 16 -100 0 -83 0 -84 25 -84 25
0 25 0 25 95 0 83 -3 98 -21 116 -17 17 -28 20 -57 15 -48 -9 -70 -9 -110 0
-22 4 -40 1 -56 -9 -21 -14 -25 -14 -30 -2 -6 16 -28 20 -39 8z"/>
<path d="M11877 3059 c-26 -15 -47 -63 -47 -108 0 -62 43 -106 103 -106 42 0
87 24 87 45 0 15 -43 18 -57 4 -8 -8 -23 -14 -33 -14 -22 0 -55 44 -45 60 3 5
37 10 76 10 55 0 69 3 69 15 0 29 -28 83 -48 94 -26 14 -81 14 -105 0z m83
-39 c31 -31 24 -40 -30 -40 -27 0 -50 5 -50 10 0 13 37 50 50 50 6 0 19 -9 30
-20z"/>
<path d="M12087 3063 c-4 -3 -7 -55 -7 -115 0 -107 0 -108 24 -108 29 0 32 8
35 90 3 72 12 90 46 90 21 0 41 31 27 44 -11 12 -50 6 -63 -10 -11 -14 -13
-14 -21 0 -9 17 -30 21 -41 9z"/>
<path d="M3385 3009 c-11 -16 0 -22 98 -55 846 -281 1247 -418 1247 -424 0 -7
-122 -46 -173 -56 -64 -11 -93 -33 -66 -49 14 -10 247 55 272 75 l20 17 -28
74 c-63 168 -68 179 -87 179 -23 0 -23 -1 6 -74 14 -34 28 -73 31 -88 l7 -28
-353 121 c-195 66 -381 129 -414 139 -64 19 -191 61 -345 115 -101 35 -195 65
-204 65 -3 0 -8 -5 -11 -11z"/>
<path d="M3357 2886 c-4 -10 44 -55 146 -138 84 -67 159 -130 167 -139 8 -10
98 -85 200 -168 102 -83 273 -223 380 -311 107 -89 210 -173 229 -188 18 -15
46 -39 63 -54 16 -16 31 -28 33 -28 2 0 20 -15 40 -33 19 -18 89 -75 155 -127
65 -52 119 -100 119 -105 1 -6 -9 -11 -21 -12 -11 -1 -56 -10 -100 -19 -63
-14 -78 -20 -78 -35 0 -23 -2 -23 112 1 51 11 109 24 128 28 41 8 52 36 18 45
-21 6 -22 8 -7 23 16 15 14 25 -26 138 -28 80 -48 122 -59 124 -23 5 -20 -13
22 -137 21 -61 35 -111 30 -111 -11 0 -150 110 -185 146 -13 12 -40 35 -60 51
-21 15 -42 33 -48 39 -5 6 -46 39 -90 75 -87 69 -317 260 -325 269 -3 3 -79
66 -170 139 -91 74 -172 142 -182 152 -9 11 -19 19 -22 19 -3 0 -16 9 -28 20
-13 12 -32 29 -43 39 -11 10 -83 69 -160 131 -77 63 -158 128 -179 147 -44 37
-51 39 -59 19z"/>
<path d="M4930 2510 l0 -150 100 0 c94 0 103 2 125 25 34 33 33 78 -2 111 -18
17 -23 28 -16 32 20 13 31 55 21 83 -13 37 -47 49 -143 49 l-85 0 0 -150z
m175 65 c0 -30 0 -30 -62 -33 l-63 -3 0 36 0 36 63 -3 c62 -3 62 -3 62 -33z
m3 -97 c19 -19 14 -56 -8 -68 -12 -6 -42 -10 -67 -8 l-46 3 0 38 c1 20 2 39 2
42 2 11 108 4 119 -7z"/>
<path d="M5730 2510 l0 -150 25 0 c22 0 25 4 25 33 0 21 8 41 19 51 19 17 20
16 43 -31 19 -37 30 -49 51 -51 15 -2 27 0 27 3 0 4 -16 34 -35 66 -19 33 -35
63 -35 67 0 3 17 23 37 44 l37 38 -32 0 c-25 0 -40 -9 -63 -35 -17 -19 -35
-35 -40 -35 -5 0 -9 34 -9 75 0 73 -1 75 -25 75 l-25 0 0 -150z"/>
<path d="M7592 2634 c-12 -8 -22 -24 -22 -35 0 -10 -4 -19 -10 -19 -5 0 -10
-9 -10 -20 0 -11 5 -20 10 -20 6 0 10 -29 10 -68 0 -84 17 -115 63 -110 36 4
48 27 18 35 -19 5 -21 13 -21 74 0 55 3 69 15 69 22 0 19 37 -3 42 -15 4 -18
12 -14 37 5 35 -3 38 -36 15z"/>
<path d="M5252 2563 c-24 -25 -25 -28 -8 -31 10 -2 29 1 41 8 30 16 69 9 73
-13 4 -18 1 -20 -66 -37 -68 -17 -89 -71 -46 -115 19 -18 67 -20 95 -2 17 10
23 10 26 0 3 -7 14 -13 26 -13 21 0 22 3 19 95 -3 88 -5 96 -29 115 -38 30
-97 27 -131 -7z m108 -117 c0 -30 -22 -49 -52 -44 -36 5 -36 43 -1 56 43 16
53 14 53 -12z"/>
<path d="M5556 2572 c-22 -13 -30 -14 -33 -4 -3 6 -13 12 -24 12 -18 0 -19 -8
-19 -110 l0 -110 25 0 c24 0 25 2 25 76 0 87 11 114 45 114 34 0 45 -27 45
-114 0 -74 1 -76 25 -76 25 0 25 0 25 94 0 90 -1 96 -26 115 -32 25 -50 26
-88 3z"/>
<path d="M6106 2569 c-14 -11 -26 -25 -26 -30 0 -12 47 -12 55 1 3 6 19 10 36
10 16 0 30 -4 31 -10 0 -5 1 -15 2 -22 1 -6 -26 -18 -59 -27 -49 -13 -61 -21
-69 -43 -21 -60 34 -104 98 -80 20 8 34 8 40 2 6 -6 18 -10 28 -10 17 0 18 9
16 96 -3 87 -5 98 -27 115 -31 26 -91 25 -125 -2z m104 -115 c0 -31 -20 -54
-49 -54 -51 0 -49 53 2 63 41 8 47 7 47 -9z"/>
<path d="M6375 2581 c-69 -29 -84 -139 -28 -196 20 -19 36 -25 68 -25 68 0
127 59 73 73 -15 4 -26 0 -35 -13 -17 -23 -55 -26 -73 -5 -6 8 -12 35 -12 60
0 25 6 52 12 60 16 19 59 19 66 0 8 -19 54 -20 54 -1 0 8 -12 24 -26 35 -28
22 -64 26 -99 12z"/>
<path d="M6589 2562 c-32 -28 -34 -35 -34 -92 0 -56 3 -64 29 -87 26 -22 37
-25 80 -20 36 3 55 11 68 27 23 29 23 36 -4 43 -15 4 -26 0 -36 -14 -10 -14
-23 -19 -45 -17 -29 3 -33 7 -41 50 -7 38 -6 52 8 72 18 29 63 36 72 11 8 -19
54 -20 54 -2 0 23 -37 48 -78 54 -33 4 -44 1 -73 -25z"/>
<path d="M6843 2574 c-40 -20 -57 -61 -50 -120 7 -66 33 -89 102 -89 69 0 95
23 102 89 7 57 -9 97 -46 119 -36 21 -67 21 -108 1z m89 -41 c20 -18 25 -82 8
-114 -13 -23 -62 -26 -84 -3 -21 21 -21 92 1 116 20 22 51 23 75 1z"/>
<path d="M7390 2573 c-17 -12 -25 -13 -28 -5 -2 7 -15 12 -28 12 -24 0 -24 0
-24 -110 l0 -110 25 0 c24 0 25 2 25 73 0 82 16 117 54 117 31 0 36 -16 36
-111 0 -77 1 -79 24 -79 32 0 36 14 32 111 -2 71 -6 85 -25 101 -29 23 -59 23
-91 1z"/>
<path d="M7052 2490 c3 -68 8 -94 23 -110 20 -22 64 -26 98 -9 16 9 22 9 25 0
2 -6 15 -11 28 -11 24 0 24 1 24 94 0 111 -4 126 -36 126 -23 0 -24 -2 -24
-79 0 -85 -10 -105 -52 -99 -22 3 -23 8 -26 91 l-3 87 -31 0 -30 0 4 -90z"/>
<path d="M2052 2525 c0 -16 2 -22 5 -12 2 9 2 23 0 30 -3 6 -5 -1 -5 -18z"/>
<path d="M2060 2212 c0 -4 19 -6 43 -4 34 3 47 -1 70 -22 15 -14 27 -34 27
-44 0 -29 -37 -70 -68 -75 l-27 -4 28 -2 c33 -1 77 38 77 68 0 33 -21 68 -47
80 -27 12 -103 15 -103 3z"/>
<path d="M2250 2140 c0 -47 4 -80 10 -80 6 0 10 31 10 74 l0 75 48 4 c46 3 46
3 -10 5 l-58 2 0 -80z"/>
<path d="M2443 2210 c-47 -19 -58 -92 -20 -128 13 -12 32 -22 43 -21 15 0 13
3 -7 10 -34 13 -56 61 -42 92 17 36 58 53 96 39 29 -10 30 -10 13 3 -22 17
-50 18 -83 5z"/>
<path d="M2591 2143 c0 -46 2 -83 7 -83 4 0 6 26 4 57 -5 101 -9 111 -11 26z"/>
<path d="M2730 2135 c0 -50 4 -85 10 -85 6 0 10 35 10 85 0 50 -4 85 -10 85
-6 0 -10 -35 -10 -85z"/>
<path d="M2918 2155 l-3 -65 -48 60 c-27 33 -53 60 -58 60 -5 0 -8 -35 -7 -77
2 -77 2 -77 5 -15 2 34 8 62 12 62 4 0 29 -27 55 -60 26 -33 51 -60 55 -60 12
0 13 147 2 154 -6 4 -11 -19 -13 -59z"/>
<path d="M3000 2140 c0 -70 2 -80 18 -80 12 0 13 3 5 8 -8 5 -12 30 -10 72 l2
65 45 6 45 6 -52 1 -53 2 0 -80z"/>
<path d="M3160 2141 c0 -44 3 -81 8 -81 4 0 7 33 7 72 l0 73 37 3 c29 3 43 -2
63 -22 40 -40 32 -90 -19 -112 -24 -10 -26 -13 -10 -14 32 0 64 36 64 74 0 54
-27 78 -93 84 l-57 4 0 -81z"/>
<path d="M2061 2123 c0 -35 2 -63 7 -63 4 0 6 21 4 48 -5 75 -10 82 -11 15z"/>
<path d="M2298 2133 c12 -2 30 -2 40 0 9 3 -1 5 -23 4 -22 0 -30 -2 -17 -4z"/>
<path d="M3043 2133 c9 -2 25 -2 35 0 9 3 1 5 -18 5 -19 0 -27 -2 -17 -5z"/>
<path d="M2510 2070 c-13 -8 -13 -10 2 -10 9 0 20 5 23 10 8 13 -5 13 -25 0z"/>
<path d="M2318 2063 c6 -2 18 -2 25 0 6 3 1 5 -13 5 -14 0 -19 -2 -12 -5z"/>
<path d="M5152 1708 c3 -150 3 -153 26 -156 22 -3 22 -2 22 107 0 60 4 112 8
115 5 3 19 -36 32 -87 33 -131 36 -139 63 -135 19 3 25 14 40 78 40 167 41
168 47 40 5 -110 6 -115 28 -118 l22 -3 0 155 0 156 -40 0 c-37 0 -40 -2 -49
-37 -32 -117 -46 -163 -52 -163 -4 0 -19 45 -34 100 l-28 100 -44 0 -44 0 3
-152z"/>
<path d="M6600 1835 c0 -23 4 -25 44 -25 28 0 46 -5 49 -14 3 -8 6 -58 6 -112
0 -55 0 -107 1 -117 0 -13 6 -17 23 -15 21 3 22 7 25 131 l3 127 44 0 c41 0
45 2 45 25 l0 25 -120 0 -120 0 0 -25z"/>
<path d="M7813 1845 c-13 -9 -23 -27 -23 -41 0 -15 -6 -24 -15 -24 -8 0 -15
-9 -15 -19 0 -10 7 -21 15 -25 12 -4 15 -25 15 -96 0 -89 0 -90 25 -90 25 0
25 0 25 95 0 88 1 95 20 95 13 0 20 7 20 20 0 14 -7 20 -21 20 -29 0 -21 34 9
38 31 5 25 36 -8 40 -14 1 -35 -4 -47 -13z"/>
<path d="M5563 1775 c-90 -39 -80 -187 15 -216 46 -14 83 0 115 42 39 54 19
146 -38 173 -40 19 -51 19 -92 1z m82 -45 c24 -27 22 -97 -3 -123 -40 -39 -92
2 -92 71 0 62 57 94 95 52z"/>
<path d="M5846 1772 c-22 -13 -30 -14 -33 -4 -3 6 -13 12 -24 12 -18 0 -19 -8
-19 -115 l0 -115 25 0 c25 0 25 1 25 83 0 69 3 87 18 100 48 44 72 10 72 -102
0 -80 0 -81 25 -81 25 0 25 0 25 94 0 79 -3 97 -21 120 -24 30 -52 33 -93 8z"/>
<path d="M6058 1773 c-32 -20 -48 -59 -48 -114 0 -87 104 -137 165 -79 l26 24
-22 8 c-16 6 -28 3 -41 -9 -18 -16 -22 -16 -46 -2 -15 8 -28 25 -30 37 -3 21
0 22 74 22 l77 0 -7 32 c-17 84 -84 120 -148 81z m80 -35 c7 -7 12 -20 12 -30
0 -15 -8 -18 -45 -18 -49 0 -56 11 -28 42 19 21 44 23 61 6z"/>
<path d="M6954 1775 c-7 -17 -34 -21 -34 -5 0 6 -9 10 -20 10 -19 0 -20 -7
-20 -116 0 -114 0 -115 23 -112 20 3 22 10 27 78 6 86 12 100 45 100 24 0 42
30 30 50 -9 15 -45 12 -51 -5z"/>
<path d="M7073 1771 c-18 -12 -33 -25 -33 -30 0 -15 39 -19 51 -5 13 16 47 18
68 5 24 -15 4 -39 -40 -46 -46 -8 -89 -43 -89 -72 0 -52 60 -84 109 -59 25 13
30 13 44 -1 8 -9 21 -13 29 -11 20 8 9 192 -13 213 -26 27 -89 29 -126 6z m97
-124 c0 -49 -68 -74 -84 -31 -9 22 0 32 37 43 46 13 47 13 47 -12z"/>
<path d="M7363 1769 c-28 -18 -33 -19 -33 -5 0 9 -8 16 -20 16 -21 0 -21 -1
-21 -140 0 -93 -1 -92 24 -88 20 3 22 9 27 88 6 97 11 110 46 110 33 0 44 -32
44 -126 0 -72 1 -74 25 -74 25 0 25 0 25 95 0 88 -2 98 -25 120 -29 30 -50 31
-92 4z"/>
<path d="M7572 1780 c-32 -14 -48 -54 -34 -84 8 -18 27 -30 68 -43 58 -18 78
-38 53 -54 -23 -14 -55 -10 -73 10 -15 16 -56 19 -56 4 0 -18 25 -43 54 -53
87 -29 174 52 117 109 -10 10 -42 24 -70 31 -39 9 -51 16 -49 29 4 21 43 26
71 9 22 -14 57 -13 57 1 0 33 -92 60 -138 41z"/>
<path d="M7965 1778 c-51 -28 -71 -104 -45 -172 20 -52 111 -67 156 -25 25 23
25 23 4 31 -14 5 -29 3 -43 -7 -12 -8 -27 -15 -34 -15 -18 0 -43 29 -43 51 0
17 8 19 70 19 68 0 70 1 70 25 0 37 -19 70 -50 88 -32 20 -57 21 -85 5z m75
-47 c18 -34 11 -41 -35 -41 -37 0 -45 3 -45 18 0 41 60 59 80 23z"/>
<path d="M8226 1773 c-13 -13 -20 -15 -23 -5 -3 6 -13 12 -24 12 -18 0 -19 -8
-19 -116 0 -114 0 -115 23 -112 20 3 22 9 25 78 3 81 12 100 48 100 23 0 41
30 29 50 -10 16 -39 12 -59 -7z"/>
<path d="M6240 1773 c0 -5 18 -57 40 -116 43 -116 42 -142 -2 -149 -13 -2 -23
-10 -23 -18 0 -23 57 -25 82 -3 16 15 113 259 113 286 0 4 -10 7 -23 7 -20 0
-27 -10 -47 -76 -13 -41 -27 -77 -31 -80 -4 -2 -19 32 -34 76 -24 71 -29 80
-51 80 -13 0 -24 -3 -24 -7z"/>
<path d="M2054 1507 c-3 -9 -4 -46 -2 -84 l3 -68 52 -3 c45 -3 56 1 78 22 34
34 34 84 0 116 -31 29 -121 41 -131 17z m118 -24 c26 -30 28 -61 6 -88 -15
-20 -28 -25 -64 -25 l-44 0 0 65 0 65 43 0 c29 0 49 -6 59 -17z"/>
<path d="M2250 1435 l0 -85 61 0 c35 0 58 4 54 9 -3 6 -26 9 -50 8 -44 -2 -45
-2 -45 30 0 30 2 32 43 36 l42 4 -42 1 c-41 2 -43 4 -43 32 0 29 2 30 45 30
25 0 45 5 45 10 0 6 -25 10 -55 10 l-55 0 0 -85z"/>
<path d="M2431 1448 c-45 -101 -44 -98 -33 -98 5 0 12 9 15 20 4 17 14 20 56
20 41 0 52 -4 61 -21 7 -11 14 -18 17 -16 6 7 -68 167 -77 167 -4 0 -22 -33
-39 -72z m49 38 c0 -2 7 -20 15 -40 l15 -36 -39 0 -40 0 17 40 c9 22 20 40 25
40 4 0 7 -2 7 -4z"/>
<path d="M2590 1478 c-3 -52 -4 -89 -1 -113 1 -11 14 -15 52 -15 33 0 48 4 44
11 -4 6 -23 9 -44 7 l-36 -3 -6 80 c-4 65 -6 71 -9 33z"/>
<path d="M2805 1495 c-36 -35 -35 -96 1 -124 28 -22 78 -27 104 -11 22 14 5
23 -20 10 -49 -26 -108 22 -95 78 8 38 43 56 92 49 35 -6 36 -5 19 8 -30 23
-74 18 -101 -10z"/>
<path d="M3130 1435 c0 -50 4 -85 10 -85 6 0 10 29 10 66 l0 67 51 -64 c28
-35 55 -65 60 -67 5 -2 8 35 7 85 -1 86 -2 86 -7 25 -3 -34 -9 -62 -14 -62 -4
0 -30 27 -58 60 -27 33 -52 60 -54 60 -3 0 -5 -38 -5 -85z"/>
<path d="M3348 1501 c-14 -12 -29 -34 -33 -50 -7 -33 15 -85 40 -95 34 -13 95
-4 95 14 0 5 -13 3 -30 -3 -61 -23 -112 52 -75 110 16 23 21 25 68 20 57 -7
54 10 -4 19 -25 4 -41 0 -61 -15z"/>
<path d="M3500 1435 l0 -85 63 0 c44 0 58 3 47 10 -8 5 -31 10 -51 10 -23 0
-39 6 -43 15 -11 29 5 45 48 47 l41 1 -40 4 c-44 5 -55 15 -48 44 4 14 14 19
44 19 21 0 41 5 44 10 4 6 -15 10 -49 10 l-56 0 0 -85z"/>
<path d="M3660 1436 l0 -86 56 0 c34 0 53 4 49 10 -3 6 -24 10 -46 10 l-39 0
0 69 c0 39 -4 73 -10 76 -6 4 -10 -25 -10 -79z"/>
<path d="M3807 1513 c-4 -3 -7 -42 -7 -85 l0 -78 62 0 c46 0 59 3 51 11 -6 6
-30 10 -52 7 -40 -3 -41 -3 -41 29 0 30 2 32 43 36 l42 4 -42 1 c-41 2 -43 4
-43 32 0 29 2 30 45 30 25 0 45 5 45 10 0 11 -93 14 -103 3z"/>
<path d="M3960 1435 l0 -85 45 0 c77 0 114 30 115 93 0 10 -13 32 -29 48 -25
24 -37 29 -80 29 l-51 0 0 -85z m122 48 c23 -21 24 -75 1 -95 -10 -9 -37 -18
-60 -20 l-43 -4 0 68 0 68 42 0 c24 0 49 -7 60 -17z"/>
<path d="M2970 1435 c-18 -42 -30 -79 -26 -82 4 -4 9 3 13 15 5 19 12 22 58
22 45 0 55 -3 60 -20 3 -11 11 -20 16 -20 5 0 3 15 -5 33 -32 76 -61 127 -71
127 -6 0 -26 -34 -45 -75z m65 25 c22 -42 19 -50 -20 -50 -19 0 -35 2 -35 4 0
9 31 76 35 76 2 0 11 -13 20 -30z"/>
<path d="M9040 1230 l0 -151 103 3 c94 3 102 4 102 23 0 18 -8 21 -75 25 l-75
5 0 120 0 120 -27 3 -28 3 0 -151z"/>
<path d="M10198 1356 c-10 -7 -18 -23 -18 -35 0 -11 -4 -21 -10 -21 -5 0 -10
-9 -10 -20 0 -11 5 -20 10 -20 6 0 10 -29 10 -68 0 -84 17 -115 63 -110 37 4
53 38 18 38 -19 0 -21 6 -21 69 0 60 2 69 20 74 11 3 20 10 20 17 0 7 -9 14
-20 17 -15 4 -20 14 -20 39 0 36 -13 43 -42 20z"/>
<path d="M9339 1295 c-61 -33 -73 -126 -24 -182 20 -24 31 -28 75 -28 46 0 55
4 81 33 83 93 -24 236 -132 177z m92 -42 c8 -9 14 -35 14 -58 0 -51 -18 -75
-56 -75 -34 0 -49 23 -49 76 0 63 57 99 91 57z"/>
<path d="M9630 1293 c-17 -12 -25 -13 -28 -5 -2 7 -15 12 -28 12 -24 0 -24 0
-24 -110 l0 -110 25 0 c24 0 25 3 26 58 1 106 14 135 58 130 25 -3 26 -5 31
-93 5 -88 6 -90 30 -90 25 0 25 0 25 93 0 87 -2 95 -24 113 -29 23 -59 24 -91
2z"/>
<path d="M9829 1281 c-25 -25 -29 -37 -29 -81 0 -67 23 -108 66 -116 18 -3 41
-1 52 5 12 6 23 11 26 11 11 0 6 -46 -6 -58 -15 -15 -60 -16 -75 -1 -6 6 -23
9 -38 7 l-27 -3 20 -25 c18 -22 28 -25 82 -25 93 0 100 13 100 176 l0 129 -25
0 c-14 0 -25 -5 -25 -11 0 -5 -10 -3 -22 5 -34 24 -66 19 -99 -13z m100 -20
c7 -5 16 -31 18 -58 6 -55 -11 -83 -51 -83 -34 0 -46 19 -46 75 0 28 5 56 12
63 14 14 47 15 67 3z"/>
<path d="M10345 1288 c-74 -64 -34 -208 57 -208 37 0 88 26 88 45 0 17 -45 21
-55 5 -9 -14 -48 -13 -63 2 -7 7 -12 20 -12 30 0 16 9 18 70 18 68 0 70 1 70
25 0 86 -93 136 -155 83z m95 -33 c21 -26 4 -45 -40 -45 -32 0 -40 4 -40 18 0
39 55 58 80 27z"/>
<path d="M10627 1293 c-14 -15 -19 -15 -26 -5 -5 8 -16 12 -26 10 -14 -2 -17
-14 -17 -75 2 -154 0 -143 27 -143 24 0 25 2 25 73 0 75 9 97 42 97 19 0 42
35 33 50 -10 16 -39 12 -58 -7z"/>
<path d="M10800 1293 c-17 -12 -25 -13 -28 -5 -2 7 -15 12 -28 12 -24 0 -24 0
-24 -110 l0 -110 25 0 c24 0 25 2 26 68 1 98 8 116 47 120 l32 3 0 -95 c0 -94
0 -96 24 -96 22 0 24 4 28 79 5 83 17 111 49 111 28 0 39 -32 39 -114 0 -74 1
-76 25 -76 25 0 25 1 25 89 0 74 -3 92 -21 115 -24 30 -63 34 -97 10 -21 -15
-25 -15 -41 0 -23 21 -50 20 -81 -1z"/>
<path d="M9803 865 c-13 -9 -23 -25 -23 -36 0 -10 -7 -19 -15 -19 -8 0 -15 -9
-15 -20 0 -11 7 -20 15 -20 12 0 15 -15 15 -79 0 -70 3 -82 21 -94 11 -8 28
-14 37 -12 9 2 20 4 25 4 16 2 6 29 -13 34 -18 5 -20 14 -20 76 0 64 2 71 20
71 13 0 20 7 20 20 0 13 -7 20 -19 20 -15 0 -21 8 -23 35 -3 35 -4 35 -25 20z"/>
<path d="M9094 810 c-12 -4 -31 -21 -44 -37 -18 -23 -21 -37 -18 -80 5 -60 24
-87 73 -103 40 -13 97 6 114 39 9 17 8 22 -9 31 -18 10 -24 7 -41 -14 -25 -31
-42 -33 -69 -6 -38 38 -17 140 30 140 10 0 25 -7 34 -15 20 -21 60 -20 52 1
-3 9 -6 17 -6 20 0 8 -60 34 -77 33 -10 0 -28 -4 -39 -9z"/>
<path d="M9558 805 c-63 -35 -37 -100 51 -124 57 -15 71 -46 27 -57 -26 -6
-66 10 -66 27 0 9 -37 4 -49 -7 -9 -8 34 -44 65 -54 41 -14 99 2 114 30 29 55
3 89 -83 111 -35 8 -47 16 -45 28 4 21 61 27 77 8 11 -14 51 -12 51 2 -1 43
-88 65 -142 36z"/>
<path d="M9963 805 c-72 -31 -84 -156 -20 -198 54 -34 107 -27 150 21 46 50
23 152 -39 178 -41 17 -50 17 -91 -1z m80 -40 c38 -38 28 -116 -18 -137 -37
-17 -70 17 -70 71 0 65 52 103 88 66z"/>
<path d="M10240 803 c-17 -12 -25 -13 -28 -5 -2 7 -15 12 -29 12 l-25 0 4
-112 c3 -113 3 -113 28 -113 24 0 25 2 30 89 4 70 9 91 23 100 12 8 22 8 35 0
14 -9 18 -28 20 -103 3 -89 4 -92 25 -89 20 3 22 10 27 91 5 90 13 107 52 107
22 0 27 -23 30 -120 3 -69 5 -75 26 -78 22 -3 22 -1 22 95 0 105 -3 114 -38
132 -25 13 -58 7 -84 -17 -10 -8 -18 -11 -18 -5 0 11 -43 33 -63 33 -7 0 -23
-8 -37 -17z"/>
<path d="M10593 810 c-35 -14 -57 -57 -57 -110 0 -61 23 -96 73 -111 34 -10
44 -9 72 7 18 11 34 24 36 31 7 19 -35 26 -53 9 -25 -26 -52 -19 -72 20 -6 12
-8 24 -5 28 3 3 37 6 75 6 67 0 68 1 68 26 0 72 -71 121 -137 94z m71 -46 c30
-29 20 -44 -29 -44 -37 0 -45 3 -45 18 0 39 45 55 74 26z"/>
<path d="M10860 803 c-17 -12 -25 -13 -28 -5 -2 7 -12 12 -23 12 -24 0 -29
-24 -26 -135 2 -89 2 -90 27 -90 24 0 25 2 28 75 3 81 12 100 48 100 14 0 25
8 29 20 13 40 -14 52 -55 23z"/>
<path d="M9280 717 c0 -77 3 -97 18 -109 28 -25 55 -29 86 -13 26 14 30 14 41
-2 7 -9 19 -14 29 -10 13 5 16 24 16 117 l0 110 -25 0 c-24 0 -25 -2 -25 -73
0 -78 -16 -117 -49 -117 -33 0 -41 22 -41 107 0 82 0 83 -25 83 -25 0 -25 0
-25 -93z"/>
</g>
</svg>
