<svg width="318" height="67" viewBox="0 0 318 67" fill="none" xmlns="http://www.w3.org/2000/svg">
<g clip-path="url(#clip0_144_1008)">
<path d="M79.4078 57.62H65.8789L81.1215 11.391H98.2581L113.501 57.62H99.9717L89.8702 24.122H89.5094L79.4078 57.62ZM76.8824 39.3812H102.317V48.7715H76.8824V39.3812Z" fill="black"/>
<path d="M117.948 11.391H133.552L144.285 37.5754H144.826L155.559 11.391H171.162V57.62H158.896V30.8939H158.535L148.253 57.2588H140.857L130.575 30.7133H130.214V57.62H117.948V11.391Z" fill="black"/>
<path d="M177.103 57.62V11.391H189.64V47.5074H208.31V57.62H177.103Z" fill="black"/>
<path d="M213.378 57.62V11.391H233.401C236.918 11.391 239.872 11.865 242.262 12.8131C244.667 13.7611 246.478 15.1005 247.696 16.831C248.929 18.5616 249.545 20.6007 249.545 22.9482C249.545 24.6487 249.169 26.1987 248.418 27.5982C247.681 28.9977 246.644 30.1715 245.306 31.1196C243.968 32.0526 242.405 32.6997 240.616 33.0608V33.5123C242.6 33.5875 244.404 34.0917 246.028 35.0247C247.651 35.9426 248.944 37.2142 249.906 38.8395C250.868 40.4497 251.349 42.3458 251.349 44.5278C251.349 47.056 250.687 49.3057 249.365 51.2771C248.057 53.2484 246.193 54.7984 243.773 55.9271C241.353 57.0557 238.466 57.62 235.114 57.62H213.378ZM225.915 47.5977H231.777C233.882 47.5977 235.46 47.2064 236.512 46.4239C237.564 45.6263 238.091 44.4526 238.091 42.9026C238.091 41.8191 237.843 40.9011 237.346 40.1487C236.85 39.3963 236.144 38.8244 235.227 38.4332C234.325 38.0419 233.235 37.8463 231.957 37.8463H225.915V47.5977ZM225.915 30.0812H231.056C232.153 30.0812 233.122 29.9082 233.964 29.5621C234.806 29.216 235.46 28.7194 235.926 28.0723C236.407 27.4101 236.647 26.605 236.647 25.657C236.647 24.2274 236.136 23.1364 235.114 22.3839C234.092 21.6165 232.799 21.2327 231.236 21.2327H225.915V30.0812Z" fill="black"/>
<path d="M272.657 58.252C268.899 58.252 265.682 57.5071 263.006 56.0173C260.331 54.5125 258.279 52.4207 256.851 49.7421C255.423 47.0484 254.709 43.9259 254.709 40.3744C254.709 36.823 255.423 33.7079 256.851 31.0293C258.279 28.3356 260.331 26.2439 263.006 24.7541C265.682 23.2492 268.899 22.4968 272.657 22.4968C276.415 22.4968 279.632 23.2492 282.308 24.7541C284.983 26.2439 287.035 28.3356 288.463 31.0293C289.891 33.7079 290.605 36.823 290.605 40.3744C290.605 43.9259 289.891 47.0484 288.463 49.7421C287.035 52.4207 284.983 54.5125 282.308 56.0173C279.632 57.5071 276.415 58.252 272.657 58.252ZM272.747 49.0424C273.799 49.0424 274.709 48.6887 275.475 47.9814C276.242 47.2742 276.836 46.2659 277.257 44.9567C277.678 43.6475 277.888 42.09 277.888 40.2841C277.888 38.4633 277.678 36.9057 277.257 35.6116C276.836 34.3023 276.242 33.2941 275.475 32.5868C274.709 31.8795 273.799 31.5259 272.747 31.5259C271.635 31.5259 270.68 31.8795 269.884 32.5868C269.087 33.2941 268.478 34.3023 268.057 35.6116C267.636 36.9057 267.426 38.4633 267.426 40.2841C267.426 42.09 267.636 43.6475 268.057 44.9567C268.478 46.2659 269.087 47.2742 269.884 47.9814C270.68 48.6887 271.635 49.0424 272.747 49.0424Z" fill="black"/>
<path d="M316.31 22.9482V31.9774H293.491V22.9482H316.31ZM297.911 14.6415H310.357V46.4691C310.357 46.9506 310.44 47.3569 310.606 47.688C310.771 48.004 311.026 48.2448 311.372 48.4103C311.718 48.5608 312.161 48.636 312.702 48.636C313.078 48.636 313.514 48.5909 314.01 48.5006C314.521 48.4103 314.897 48.3351 315.138 48.2749L316.942 57.0331C316.385 57.1987 315.589 57.4018 314.551 57.6426C313.529 57.8834 312.312 58.0414 310.899 58.1166C308.043 58.2671 305.645 57.9736 303.706 57.2363C301.767 56.4838 300.309 55.3025 299.331 53.6923C298.354 52.0822 297.881 50.0657 297.911 47.6428V14.6415Z" fill="black"/>
<path fill-rule="evenodd" clip-rule="evenodd" d="M30.2283 3.23957C27.3984 -0.941875 21.1921 -0.824013 18.5235 3.46189L2.47716 29.2328C1.57028 30.6893 1.25089 32.3948 1.51585 34.0258C1.52458 34.0796 1.53394 34.1332 1.54394 34.1868C1.70815 35.0664 2.04339 35.9211 2.54919 36.6996L19.3455 62.551C22.0955 66.7836 28.3007 66.7836 31.0507 62.551L47.7957 36.7785C49.3195 34.4332 49.291 31.4057 47.7234 29.0894L30.2283 3.23957ZM32.1433 18.5087C31.5409 29.3084 23.0516 38.0065 12.331 38.9571L25.1981 58.761L41.9431 32.9885L32.1433 18.5087Z" fill="#0057FF"/>
</g>
<defs>
<clipPath id="clip0_144_1008">
<rect width="317" height="66" fill="white" transform="translate(0.5 0.174194)"/>
</clipPath>
</defs>
</svg>
