<?xml version="1.0" encoding="UTF-8"?>
<svg xmlns="http://www.w3.org/2000/svg" xmlns:xlink="http://www.w3.org/1999/xlink" width="120px" height="27px" viewBox="0 0 118 27" version="1.1">
<g id="surface1">
<path style=" stroke:none;fill-rule:nonzero;fill:rgb(13.72549%,9.803922%,8.627451%);fill-opacity:1;" d="M 39.25 5.921875 L 41.140625 5.921875 L 48.265625 21.140625 L 46.300781 21.140625 L 44.5625 17.382812 L 35.898438 17.34375 L 34.121094 21.140625 L 32.109375 21.140625 Z M 36.679688 15.613281 L 43.71875 15.613281 L 40.195312 8.046875 Z M 36.679688 15.613281 "/>
<path style=" stroke:none;fill-rule:nonzero;fill:rgb(13.72549%,9.803922%,8.627451%);fill-opacity:1;" d="M 101.855469 17.808594 C 102.617188 18.539062 103.535156 19.085938 104.539062 19.40625 C 105.296875 19.613281 106.078125 19.714844 106.859375 19.703125 C 107.789062 19.761719 108.71875 19.566406 109.546875 19.132812 C 110.238281 18.78125 110.699219 18.085938 110.753906 17.304688 C 110.847656 16.75 110.675781 16.183594 110.28125 15.785156 C 109.679688 15.160156 108.890625 14.761719 108.035156 14.640625 C 107.621094 14.535156 106.585938 14.335938 105.660156 14.085938 C 104.554688 13.875 103.511719 13.414062 102.613281 12.738281 C 101.605469 11.953125 101.09375 10.683594 101.269531 9.414062 C 101.429688 8.246094 102.117188 7.222656 103.128906 6.636719 C 104.253906 5.917969 105.570312 5.558594 106.902344 5.609375 C 107.890625 5.578125 108.875 5.738281 109.808594 6.074219 C 110.519531 6.328125 111.171875 6.722656 111.726562 7.238281 L 110.980469 8.664062 C 110.433594 8.222656 109.835938 7.851562 109.203125 7.554688 C 108.484375 7.234375 107.699219 7.09375 106.914062 7.144531 C 106.042969 7.125 105.183594 7.339844 104.425781 7.769531 C 103.726562 8.140625 103.261719 8.84375 103.195312 9.636719 C 103.082031 10.480469 103.527344 11.304688 104.296875 11.664062 C 105.078125 12.070312 105.910156 12.378906 106.765625 12.582031 L 108.988281 13.113281 C 110.605469 13.554688 111.210938 13.925781 111.800781 14.5625 C 112.402344 15.246094 112.714844 16.140625 112.671875 17.054688 C 112.722656 18.324219 112.113281 19.53125 111.0625 20.234375 C 109.882812 21.011719 108.496094 21.402344 107.089844 21.355469 C 106.5 21.359375 105.910156 21.320312 105.324219 21.234375 C 104.8125 21.167969 104.308594 21.058594 103.816406 20.90625 C 103.375 20.765625 102.949219 20.582031 102.546875 20.355469 C 101.957031 20.019531 101.390625 19.640625 100.855469 19.222656 Z M 101.855469 17.808594 "/>
<path style=" stroke:none;fill-rule:nonzero;fill:rgb(13.72549%,9.803922%,8.627451%);fill-opacity:1;" d="M 90.46875 5.636719 C 86.125 5.609375 82.582031 9.121094 82.535156 13.492188 C 82.660156 17.824219 86.1875 21.273438 90.492188 21.273438 C 94.796875 21.273438 98.320312 17.824219 98.445312 13.492188 C 98.425781 11.386719 97.570312 9.371094 96.074219 7.898438 C 94.578125 6.425781 92.5625 5.609375 90.46875 5.636719 M 90.46875 19.484375 C 87.195312 19.417969 84.59375 16.707031 84.636719 13.414062 C 84.679688 10.121094 87.355469 7.480469 90.628906 7.503906 C 93.898438 7.523438 96.539062 10.199219 96.539062 13.492188 C 96.492188 16.832031 93.78125 19.503906 90.46875 19.484375 "/>
<path style=" stroke:none;fill-rule:nonzero;fill:rgb(13.72549%,9.803922%,8.627451%);fill-opacity:1;" d="M 77.5625 18.398438 C 76.390625 19.113281 75.042969 19.488281 73.671875 19.484375 C 70.386719 19.484375 67.726562 16.804688 67.726562 13.5 C 67.726562 10.195312 70.386719 7.515625 73.671875 7.515625 C 75.414062 7.503906 77.074219 8.238281 78.242188 9.542969 L 79.582031 8.257812 C 78.058594 6.582031 75.902344 5.628906 73.644531 5.628906 C 69.296875 5.597656 65.746094 9.121094 65.714844 13.5 C 65.757812 17.878906 69.320312 21.394531 73.671875 21.351562 C 75.144531 21.335938 76.589844 20.960938 77.886719 20.253906 C 78.480469 19.960938 79.050781 19.617188 79.589844 19.230469 L 79.589844 13.5 L 77.578125 13.5 Z M 77.5625 18.398438 "/>
<path style=" stroke:none;fill-rule:nonzero;fill:rgb(13.72549%,9.803922%,8.627451%);fill-opacity:1;" d="M 59.273438 15.910156 C 61.414062 15.253906 62.875 13.257812 62.863281 11 C 62.757812 8.164062 60.390625 5.953125 57.574219 6.054688 L 50.777344 6.054688 L 50.777344 21.140625 L 52.695312 21.140625 L 52.695312 16.335938 L 57.464844 16.335938 L 61.246094 21.140625 L 63.417969 21.140625 Z M 56.753906 14.703125 L 52.730469 14.703125 L 52.730469 7.546875 L 57.773438 7.546875 C 58 7.550781 58.226562 7.578125 58.445312 7.621094 C 60.0625 8.117188 61.222656 9.34375 61.222656 11 C 61.164062 12.695312 59.996094 14.144531 58.359375 14.546875 C 57.84375 14.652344 57.316406 14.707031 56.789062 14.703125 "/>
<path style=" stroke:none;fill-rule:nonzero;fill:rgb(65.098039%,65.098039%,65.490196%);fill-opacity:1;" d="M 114.492188 19.621094 C 114.492188 18.902344 114.917969 18.257812 115.578125 17.984375 C 116.234375 17.710938 116.992188 17.863281 117.496094 18.371094 C 117.996094 18.878906 118.144531 19.640625 117.871094 20.304688 C 117.597656 20.964844 116.953125 21.394531 116.242188 21.390625 C 115.777344 21.390625 115.328125 21.203125 115 20.871094 C 114.671875 20.539062 114.488281 20.089844 114.492188 19.621094 "/>
<path style=" stroke:none;fill-rule:nonzero;fill:rgb(28.627451%,56.862745%,80.784314%);fill-opacity:1;" d="M 8.644531 18.5 L 5.503906 16.890625 L 0 16.890625 L 3.140625 18.5 Z M 8.644531 18.5 "/>
<path style=" stroke:none;fill-rule:nonzero;fill:rgb(28.627451%,56.862745%,80.784314%);fill-opacity:1;" d="M 11.535156 19.980469 L 6.03125 19.980469 L 19.621094 26.921875 L 19.621094 24.113281 Z M 11.535156 19.980469 "/>
<path style=" stroke:none;fill-rule:nonzero;fill:rgb(10.196078%,18.823529%,43.529412%);fill-opacity:1;" d="M 19.621094 7.609375 L 24.238281 7.609375 L 24.238281 26.921875 L 19.621094 26.921875 Z M 19.621094 7.609375 "/>
<path style=" stroke:none;fill-rule:nonzero;fill:rgb(10.196078%,18.823529%,43.529412%);fill-opacity:1;" d="M 19.621094 0.078125 L 24.238281 0.078125 L 24.238281 4.796875 L 19.621094 4.796875 Z M 19.621094 0.078125 "/>
<path style=" stroke:none;fill-rule:nonzero;fill:rgb(34.901961%,74.117647%,92.941176%);fill-opacity:1;" d="M 19.621094 4.796875 L 19.621094 0.078125 L 14.105469 4.796875 Z M 19.621094 4.796875 "/>
<path style=" stroke:none;fill-rule:nonzero;fill:rgb(34.901961%,74.117647%,92.941176%);fill-opacity:1;" d="M 11.789062 6.792969 L 0 16.890625 L 5.503906 16.890625 L 17.300781 6.792969 Z M 11.789062 6.792969 "/>
</g>
</svg>
