<svg width="297" height="67" viewBox="0 0 297 67" fill="none" xmlns="http://www.w3.org/2000/svg">
<g clip-path="url(#clip0_144_1016)">
<path d="M99.7835 14.7816H104.447L122.022 52.3212H117.175L112.888 43.0519L91.5163 42.9556L87.1322 52.3212H82.1699L99.7835 14.7816ZM93.4434 38.6871H110.806L102.115 20.0233L93.4434 38.6871Z" fill="#231916"/>
<path d="M254.21 44.1015C256.089 45.9033 258.354 47.2523 260.83 48.0424C262.699 48.553 264.626 48.8036 266.553 48.7747C268.847 48.9192 271.14 48.4374 273.182 47.3679C274.888 46.5007 276.025 44.7856 276.16 42.8585C276.391 41.4903 275.967 40.0931 274.994 39.1103C273.51 37.5687 271.564 36.5859 269.454 36.2872C268.432 36.027 265.879 35.5356 263.595 34.9189C260.868 34.3986 258.296 33.2616 256.08 31.5947C253.594 29.658 252.331 26.5265 252.765 23.395C253.16 20.514 254.856 17.9895 257.351 16.5442C260.126 14.7713 263.374 13.8848 266.659 14.0101C269.097 13.933 271.525 14.328 273.828 15.1567C275.582 15.783 277.191 16.7562 278.559 18.028L276.719 21.545C275.37 20.4562 273.895 19.5408 272.335 18.8085C270.562 18.0184 268.625 17.6715 266.688 17.7968C264.539 17.7486 262.42 18.2786 260.55 19.3385C258.826 20.2538 257.679 21.9882 257.515 23.9442C257.236 26.0254 258.334 28.0585 260.232 28.945C262.16 29.9471 264.212 30.7083 266.322 31.2093L271.805 32.5197C275.794 33.6085 277.287 34.5239 278.742 36.0944C280.226 37.7806 280.997 39.9872 280.891 42.2418C281.016 45.3734 279.513 48.3507 276.921 50.0851C274.011 52.0025 270.591 52.9661 267.122 52.8504C265.667 52.8601 264.212 52.7637 262.767 52.5517C261.504 52.3879 260.261 52.1181 259.047 51.7424C257.958 51.3955 256.908 50.9426 255.916 50.3838C254.461 49.5551 253.064 48.6205 251.744 47.5895L254.21 44.1015Z" fill="#231916"/>
<path d="M226.123 14.0772C215.408 14.0098 206.669 22.672 206.553 33.454C206.862 44.1397 215.562 52.6478 226.181 52.6478C236.799 52.6478 245.49 44.1397 245.798 33.454C245.75 28.2605 243.64 23.2887 239.95 19.6561C236.259 16.0236 231.287 14.0098 226.123 14.0772ZM226.123 48.2348C218.048 48.071 211.631 41.384 211.737 33.2613C211.843 25.1387 218.443 18.6251 226.518 18.6829C234.583 18.7311 241.096 25.3314 241.096 33.454C240.981 41.6923 234.294 48.2829 226.123 48.2348Z" fill="#231916"/>
<path d="M194.288 45.5576C191.397 47.3209 188.073 48.2459 184.691 48.2363C176.587 48.2363 170.026 41.6264 170.026 33.4748C170.026 25.3233 176.587 18.7134 184.691 18.7134C188.988 18.6845 193.083 20.4959 195.964 23.7142L199.269 20.5441C195.511 16.4105 190.193 14.0595 184.623 14.0595C173.899 13.9824 165.141 22.6735 165.063 33.4748C165.169 44.2761 173.957 52.948 184.691 52.842C188.323 52.8035 191.888 51.8785 195.087 50.1345C196.552 49.4118 197.959 48.5639 199.288 47.61V33.4748H194.326L194.288 45.5576Z" fill="#231916"/>
<path d="M149.174 39.4204C154.455 37.8016 158.058 32.8779 158.029 27.3087C157.769 20.3133 151.93 14.8597 144.983 15.1102H128.217V52.3222H132.948V40.4706H144.713L154.04 52.3222H159.397L149.174 39.4204ZM142.959 36.443H133.035V18.791H145.474C146.033 18.8006 146.592 18.868 147.132 18.974C151.121 20.1977 153.982 23.2232 153.982 27.3087C153.838 31.4904 150.957 35.0652 146.92 36.0576C145.648 36.3178 144.347 36.4527 143.046 36.443" fill="#231916"/>
<path d="M285.381 48.5735C285.381 46.8006 286.431 45.2108 288.06 44.5363C289.678 43.8618 291.548 44.2376 292.791 45.4902C294.024 46.7428 294.39 48.6217 293.716 50.2597C293.041 51.8881 291.451 52.948 289.698 52.9384C288.551 52.9384 287.443 52.4759 286.634 51.6569C285.824 50.8379 285.371 49.7298 285.381 48.5735Z" fill="#A6A6A7"/>
<path d="M24.29 45.8071L16.5431 41.8373H2.9668L10.7137 45.8071H24.29Z" fill="#4991CE"/>
<path d="M31.4201 49.4594H17.8438L51.3654 66.5815V59.6536L31.4201 49.4594Z" fill="#4991CE"/>
<path d="M51.3652 18.9437H62.7543V66.5812H51.3652V18.9437Z" fill="#1A306F"/>
<path d="M51.3652 0.366577H62.7543V12.0062H51.3652V0.366577Z" fill="#1A306F"/>
<path d="M51.3655 12.0062V0.366577L37.7603 12.0062H51.3655Z" fill="#59BDED"/>
<path d="M32.0465 16.9301L2.9668 41.8376H16.5431L45.6421 16.9301H32.0465Z" fill="#59BDED"/>
</g>
<defs>
<clipPath id="clip0_144_1016">
<rect width="296" height="66.6" fill="white" transform="translate(0.5 0.174194)"/>
</clipPath>
</defs>
</svg>
